<?xml version="1.0" encoding="UTF-8"?>
<!DOCTYPE svg PUBLIC "-//W3C//DTD SVG 1.0//EN" "http://www.w3.org/TR/2001/REC-SVG-20010904/DTD/svg10.dtd">
<svg width="197mm" height="284mm" viewBox="0 0 19700 28400">
 <g style="stroke:none;fill:rgb(255,255,255)">
  <rect x="8599" y="12938" width="2515" height="2515"/>
  <rect x="8599" y="12938" width="2515" height="2515"/>
 </g>
 <g style="stroke:none;fill:rgb(0,0,0)">
  <path d="M 10809,12978 L 10798,12990 10788,13004 10778,13017 10770,13030 10760,13047 10753,13060 10743,13073 10737,13089 10737,13099 10737,13109 10740,13122 10740,13132 10743,13146 10743,13156 10747,13169 10750,13178 10753,13195 10760,13208 10768,13225 10774,13238 10781,13251 10791,13265 10798,13281 10804,13295 10804,13295 10804,13295 10809,13295 10809,13295 10809,13295 10812,13295 10812,13295 10812,13298 10812,13301 10812,13303 10815,13310 10819,13313 10822,13317 10825,13320 10829,13323 10829,13327 10832,13333 10839,13337 10842,13340 10850,13343 10853,13350 10856,13353 10856,13360 10856,13367 10856,13373 10853,13377 10846,13380 10842,13387 10839,13390 10832,13393 10832,13399 10829,13406 10835,13409 10842,13416 10846,13422 10853,13429 10860,13432 10866,13436 10873,13442 10880,13446 10880,13452 10835,13476 10846,13486 10856,13495 10866,13505 10876,13515 10887,13521 10894,13531 10901,13544 10907,13554 10891,13561 10876,13568 10860,13574 10842,13581 10829,13584 10812,13593 10798,13600 10781,13610 10768,13613 10634,13699 10641,13712 10647,13726 10651,13742 10658,13756 10662,13769 10668,13781 10672,13794 10678,13808 10685,13811 10693,13814 10696,13821 10699,13828 10699,13834 10699,13841 10699,13848 10699,13854 10693,13871 10693,13888 10696,13904 10699,13920 10703,13937 10703,13953 10703,13970 10699,13987 10706,13999 10706,14016 10709,14029 10709,14042 10709,14055 10713,14069 10713,14085 10716,14098 10727,14101 10768,14101 10809,14101 10850,14101 10887,14101 10925,14098 10962,14098 10999,14094 11041,14094 11041,14094 11044,14098 11044,14098 11044,14101 11041,14104 11041,14108 11041,14108 11038,14111 11020,14144 11010,14178 11003,14215 10999,14254 10999,14291 11003,14330 11007,14366 11013,14403 11023,14406 11033,14410 11044,14410 11054,14410 11064,14410 11079,14410 11089,14410 11099,14415 11102,14419 11102,14422 11105,14425 11105,14429 11105,14432 11105,14435 11105,14439 11102,14442 10842,14881 10514,15434 10508,15441 10501,15444 10493,15444 10487,15441 10480,15441 10470,15437 10464,15437 10453,15437 10388,15437 10320,15434 10254,15431 10186,15431 10118,15427 10050,15425 9981,15422 9916,15422 9399,15395 8900,15375 8716,15365 8712,15362 8709,15358 8706,15352 8702,15348 8699,15342 8691,15338 8688,15335 8685,15332 8681,15323 8675,15316 8671,15309 8668,15303 8665,15293 8657,15286 8654,15279 8647,15273 8647,15263 8644,15249 8637,15240 8634,15231 8630,15221 8627,15207 8624,15197 8619,15184 8616,15181 8616,15181 8616,15177 8616,15174 8619,15171 8619,15167 8619,15167 8616,15164 8616,15154 8616,15144 8614,15138 8614,15127 8609,15117 8606,15111 8606,15102 8606,15092 8606,15072 8603,15055 8603,15035 8599,15015 8599,14996 8599,14980 8603,14960 8606,14943 8606,14936 8609,14930 8614,14923 8614,14917 8616,14911 8616,14904 8619,14897 8619,14891 8634,14857 8644,14824 8657,14792 8675,14758 8691,14729 8709,14700 8733,14673 8760,14646 8822,14567 9044,14301 9201,14101 9542,13673 9662,13521 9854,13422 10429,13122 10467,13102 10508,13082 10545,13063 10586,13044 10624,13024 10665,13000 10703,12981 10740,12958 10747,12958 10753,12955 10757,12951 10760,12948 10768,12945 10770,12945 10778,12941 10781,12938 10784,12945 10791,12948 10798,12951 10804,12955 10809,12958 10812,12965 10812,12968 10809,12978 Z M 10791,12975 L 10603,13288 10214,13920 10200,13940 10190,13960 10176,13980 10166,13997 10156,14016 10145,14035 10132,14055 10118,14072 10115,14069 10111,14062 10111,14059 10115,14052 10118,14049 10122,14042 10125,14039 10128,14032 10148,14002 10169,13970 10186,13940 10207,13907 10228,13873 10248,13841 10268,13811 10285,13778 10634,13215 10655,13181 10672,13152 10693,13119 10713,13089 10734,13057 10750,13027 10770,12994 10791,12965 10791,12975 Z M 10727,13166 L 10716,13181 10706,13195 10693,13211 10682,13228 10672,13245 10665,13261 10658,13278 10651,13298 10586,13402 10169,14079 10145,14104 10190,14035 10234,13967 10275,13898 10316,13824 10357,13756 10402,13686 10443,13613 10487,13544 10703,13191 10706,13185 10709,13181 10713,13176 10716,13172 10719,13166 10723,13162 10723,13156 10727,13152 10727,13166 Z M 10716,13225 L 10709,13231 10703,13241 10699,13248 10693,13258 10688,13265 10685,13275 10678,13281 10675,13291 10685,13281 10696,13271 10703,13258 10713,13248 10719,13235 10727,13221 10737,13208 10743,13198 10747,13201 10747,13205 10747,13211 10747,13215 10743,13218 10740,13225 10737,13228 10737,13231 10730,13241 10723,13248 10716,13258 10713,13265 10706,13275 10703,13281 10696,13291 10688,13298 10693,13301 10703,13291 10709,13285 10716,13275 10727,13265 10734,13255 10740,13245 10747,13235 10753,13225 10760,13231 10760,13238 10760,13245 10757,13251 10753,13258 10747,13268 10743,13275 10740,13281 10682,13360 10685,13363 10699,13350 10709,13337 10719,13323 10730,13310 10740,13298 10750,13285 10760,13271 10770,13258 10774,13258 10774,13261 10774,13265 10774,13271 10774,13275 10774,13278 10770,13281 10770,13285 10764,13298 10753,13307 10747,13320 10737,13333 10730,13347 10719,13357 10713,13370 10706,13383 10713,13383 10784,13285 10788,13288 10791,13291 10791,13295 10791,13301 10794,13303 10791,13310 10791,13313 10784,13317 10774,13333 10764,13350 10750,13367 10737,13383 10727,13399 10713,13412 10703,13429 10693,13446 10696,13446 10709,13432 10723,13416 10737,13399 10750,13383 10764,13367 10778,13350 10791,13333 10801,13313 10809,13320 10812,13327 10812,13333 10809,13340 10804,13347 10801,13353 10798,13360 10794,13367 10784,13377 10778,13387 10770,13397 10764,13402 10753,13412 10747,13422 10743,13432 10737,13442 10737,13446 10750,13432 10764,13419 10774,13409 10784,13397 10794,13383 10804,13367 10812,13353 10822,13340 10825,13343 10829,13347 10829,13350 10825,13350 10825,13353 10822,13357 10822,13360 10822,13363 10815,13373 10804,13383 10798,13393 10791,13399 10784,13409 10778,13419 10770,13429 10764,13439 10764,13442 10774,13432 10784,13422 10794,13412 10804,13399 10812,13390 10822,13380 10832,13370 10839,13357 10839,13370 10781,13436 10727,13505 10675,13578 10624,13650 10573,13722 10524,13794 10477,13868 10433,13943 10412,13987 10388,14026 10364,14069 10344,14111 10320,14151 10295,14194 10275,14238 10251,14281 10251,14281 10248,14284 10248,14284 10244,14287 10244,14287 10244,14291 10241,14291 10241,14294 10251,14264 10264,14238 10279,14212 10289,14181 10302,14154 10316,14124 10333,14098 10347,14069 10344,14065 10326,14089 10313,14114 10299,14138 10289,14164 10275,14188 10262,14212 10248,14238 10231,14258 10244,14231 10258,14199 10275,14168 10292,14138 10310,14104 10326,14075 10344,14045 10361,14012 10361,14012 10361,14012 10361,14012 10361,14012 10361,14012 10357,14012 10357,14012 10357,14012 10340,14042 10323,14072 10302,14101 10285,14131 10268,14161 10251,14191 10231,14219 10210,14248 10220,14228 10231,14209 10241,14184 10254,14164 10268,14144 10282,14121 10292,14101 10306,14079 10306,14075 10310,14072 10313,14069 10313,14065 10316,14062 10316,14059 10320,14055 10316,14052 10299,14072 10285,14092 10272,14114 10258,14138 10244,14158 10228,14181 10214,14205 10197,14224 10422,13854 10422,13851 10426,13848 10429,13844 10429,13841 10433,13834 10433,13831 10436,13828 10436,13824 10405,13864 10382,13904 10354,13943 10330,13987 10302,14029 10279,14069 10251,14111 10225,14151 10183,14202 10511,13677 10528,13640 10521,13640 10292,14002 10282,14016 10272,14029 10264,14042 10254,14059 10248,14072 10238,14085 10228,14098 10217,14108 10217,14108 10210,14111 10306,13960 10617,13462 10624,13449 10631,13436 10641,13419 10651,13406 10662,13393 10668,13380 10675,13363 10682,13350 10672,13357 10542,13558 10204,14098 10159,14154 10217,14059 10275,13967 10333,13871 10392,13776 10453,13680 10511,13581 10569,13486 10624,13390 10624,13387 10603,13406 10183,14094 10156,14124 10658,13303 10662,13288 10672,13268 10678,13251 10688,13235 10703,13221 10713,13205 10723,13188 10737,13176 10737,13181 10734,13188 10734,13195 10730,13201 10727,13205 10723,13211 10719,13218 10716,13225 Z M 10682,13343 L 10688,13333 10685,13340 10682,13343 Z M 10573,13377 L 10565,13387 10573,13377 Z M 10860,13446 L 10839,13459 10819,13472 10798,13486 10778,13498 10760,13515 10740,13531 10719,13548 10699,13564 10819,13419 10822,13422 10829,13422 10832,13429 10839,13432 10846,13436 10850,13439 10856,13442 10860,13446 Z M 10685,13456 L 10693,13446 10688,13452 10685,13456 Z M 10518,13466 L 10514,13472 10518,13466 Z M 10891,13548 L 10880,13551 10870,13554 10860,13558 10850,13561 10842,13568 10832,13571 10822,13574 10815,13581 10809,13578 10804,13578 10801,13581 10798,13584 10794,13587 10791,13587 10788,13590 10781,13593 10757,13607 10734,13620 10713,13633 10688,13647 10665,13663 10641,13680 10621,13696 10596,13712 10617,13680 10641,13647 10665,13617 10696,13587 10723,13561 10757,13535 10788,13511 10822,13489 10832,13492 10842,13498 10850,13505 10860,13515 10866,13521 10873,13531 10884,13538 10891,13548 Z M 10611,13756 L 10613,13766 10617,13772 10617,13781 10621,13788 10621,13798 10621,13804 10621,13814 10621,13824 10617,13824 10617,13824 10613,13824 10613,13824 10613,13828 10611,13828 10611,13831 10611,13831 10611,13838 10613,13844 10613,13851 10617,13858 10621,13864 10624,13868 10627,13873 10631,13881 10631,13891 10627,13901 10627,13910 10627,13917 10627,13927 10631,13937 10634,13943 10637,13953 10637,13957 10637,13957 10637,13960 10634,13960 10634,13963 10634,13963 10637,13967 10637,13967 10631,13960 10627,13950 10624,13940 10624,13930 10621,13920 10617,13910 10611,13901 10603,13891 10600,13888 10596,13888 10593,13884 10590,13884 10586,13884 10580,13884 10576,13884 10573,13884 10569,13888 10562,13891 10559,13894 10555,13898 10552,13901 10549,13904 10545,13907 10542,13913 10549,13920 10549,13923 10549,13930 10545,13933 10542,13937 10539,13943 10539,13950 10542,13957 10545,13957 10549,13960 10552,13963 10555,13970 10559,13973 10559,13977 10559,13980 10559,13983 10559,13983 10559,13983 10559,13987 10559,13987 10559,13987 10559,13987 10559,13987 10559,13987 10555,13987 10549,13983 10545,13980 10542,13973 10535,13970 10531,13963 10524,13960 10521,13957 10521,13950 10521,13947 10521,13943 10518,13940 10511,13937 10508,13933 10504,13930 10501,13927 10498,13927 10490,13927 10487,13927 10483,13923 10480,13920 10477,13917 10477,13913 10474,13910 10487,13888 10501,13861 10514,13838 10528,13814 10545,13791 10562,13769 10580,13749 10600,13729 10603,13732 10606,13736 10606,13739 10606,13742 10611,13746 10611,13749 10611,13752 10611,13756 Z M 10351,13739 L 10357,13729 10354,13736 10351,13739 Z M 10340,13759 L 10344,13749 10344,13756 10340,13759 Z M 10231,13937 L 10313,13801 10241,13927 10231,13937 Z M 10436,13821 L 10439,13814 10439,13818 10436,13821 Z M 10225,13950 L 10204,13983 10225,13950 Z M 10371,14124 L 10364,14131 10354,14164 10344,14199 10333,14231 10320,14264 10310,14297 10299,14326 10289,14360 10282,14396 10251,14400 10225,14403 10194,14403 10166,14406 10138,14410 10111,14412 10084,14415 10056,14419 10071,14412 10087,14406 10101,14403 10115,14396 10132,14393 10145,14386 10163,14383 10176,14376 10183,14376 10194,14373 10200,14370 10210,14370 10217,14370 10228,14366 10234,14366 10244,14363 10248,14360 10248,14356 10251,14350 10251,14346 10251,14343 10254,14336 10254,14333 10258,14330 10262,14323 10264,14314 10268,14307 10272,14301 10275,14294 10279,14287 10279,14281 10279,14271 10285,14254 10292,14234 10299,14215 10310,14199 10320,14178 10330,14161 10336,14141 10347,14124 10351,14124 10354,14121 10354,14118 10354,14118 10357,14114 10357,14111 10357,14108 10357,14104 10429,13977 10422,13997 10416,14012 10408,14032 10398,14049 10392,14069 10385,14085 10377,14104 10371,14124 Z M 10453,13993 L 10456,13999 10459,14002 10464,14006 10470,14009 10474,14012 10477,14016 10480,14019 10480,14022 10487,14026 10490,14026 10493,14029 10498,14032 10504,14035 10508,14039 10511,14042 10514,14045 10514,14049 10514,14055 10518,14059 10521,14062 10521,14065 10524,14069 10524,14072 10524,14079 10528,14082 10528,14085 10528,14089 10531,14092 10531,14094 10535,14098 10539,14098 10542,14101 10521,14104 10504,14104 10483,14108 10464,14108 10443,14108 10426,14108 10405,14108 10388,14108 10395,14092 10402,14075 10412,14059 10419,14042 10426,14026 10429,14009 10436,13997 10443,13980 10446,13980 10446,13980 10449,13983 10449,13983 10449,13987 10449,13990 10453,13993 10453,13993 Z M 10101,14082 L 9954,14151 8804,14673 8743,14700 8763,14686 8784,14676 8801,14666 8822,14656 8842,14646 8863,14640 8883,14631 8904,14621 9269,14452 9276,14449 9286,14445 9293,14442 9303,14435 9311,14432 9321,14429 9327,14425 9334,14422 9347,14415 9358,14410 9372,14406 9382,14403 9393,14400 9406,14393 9416,14390 9427,14380 9444,14373 9460,14363 9478,14353 9494,14346 9512,14336 9529,14330 9546,14323 9563,14320 9594,14304 9622,14287 9652,14274 9683,14261 9714,14248 9744,14234 9775,14219 9805,14205 10087,14075 10101,14079 10101,14082 Z M 10999,14134 L 10809,14429 10801,14442 10791,14455 10784,14469 10774,14482 10768,14495 10757,14509 10747,14522 10737,14535 10699,14597 10658,14660 10621,14723 10583,14788 10542,14851 10501,14914 10459,14976 10416,15035 10412,15035 10408,15035 10405,15032 10402,15035 10398,15035 10395,15035 10392,15035 10388,15035 10320,15035 10251,15032 10186,15032 10118,15028 10050,15028 9984,15025 9916,15025 9846,15022 9133,15006 9098,15006 9061,15003 9023,15003 8985,15003 8948,15000 8914,15000 8876,14996 8838,14996 8838,14993 8842,14993 8845,14990 8848,14986 8853,14986 8856,14983 8859,14983 8866,14983 8866,14986 8890,14983 8914,14983 8938,14983 8962,14983 8985,14983 9010,14986 9033,14983 9057,14980 9040,14980 9023,14976 9005,14976 8989,14973 8972,14973 8955,14970 8938,14970 8920,14970 8962,14970 9002,14970 9044,14966 9085,14966 9126,14966 9167,14966 9205,14966 9245,14966 9242,14963 9249,14963 9252,14963 9255,14963 9262,14963 9265,14963 9269,14963 9273,14963 9276,14960 9231,14960 9190,14956 9149,14956 9108,14953 9064,14950 9023,14946 8982,14946 8941,14946 8982,14946 9023,14946 9064,14946 9105,14946 9149,14950 9190,14950 9231,14953 9273,14953 9252,14946 9224,14943 9194,14943 9167,14940 9139,14940 9112,14936 9082,14933 9054,14930 9026,14926 9061,14926 9098,14926 9136,14926 9174,14926 9211,14930 9252,14933 9290,14933 9327,14936 9290,14926 9252,14920 9215,14914 9174,14911 9136,14907 9095,14904 9057,14904 9016,14907 9033,14901 9054,14901 9071,14901 9092,14897 9108,14901 9129,14901 9149,14901 9167,14901 9194,14901 9218,14904 9245,14904 9269,14907 9296,14911 9324,14914 9347,14914 9375,14917 9334,14907 9296,14904 9259,14897 9218,14894 9177,14891 9139,14891 9098,14887 9061,14887 9105,14884 9146,14884 9190,14887 9235,14891 9276,14894 9321,14897 9362,14901 9406,14901 9406,14901 9368,14894 9327,14891 9290,14884 9249,14881 9211,14877 9170,14874 9129,14874 9092,14871 9098,14867 9143,14864 9184,14864 9228,14864 9276,14867 9321,14871 9365,14874 9406,14877 9450,14884 9454,14881 9416,14874 9375,14867 9334,14864 9293,14861 9249,14857 9208,14854 9167,14854 9126,14854 9167,14851 9208,14851 9249,14851 9290,14854 9331,14857 9372,14861 9413,14864 9454,14867 9416,14861 9382,14854 9344,14851 9306,14847 9269,14844 9231,14841 9194,14837 9159,14837 9174,14834 9190,14834 9205,14834 9221,14834 9235,14834 9249,14834 9265,14837 9283,14837 9303,14837 9324,14837 9344,14841 9365,14841 9385,14844 9406,14847 9427,14851 9447,14851 9427,14844 9403,14841 9378,14837 9358,14834 9334,14831 9311,14827 9286,14824 9265,14822 9265,14818 9286,14818 9306,14818 9327,14822 9351,14822 9372,14824 9393,14827 9413,14827 9434,14831 9434,14827 9409,14824 9385,14818 9362,14815 9337,14812 9313,14808 9286,14808 9262,14805 9235,14805 9235,14805 9262,14805 9290,14805 9316,14805 9341,14808 9368,14812 9396,14815 9423,14818 9447,14822 9427,14815 9406,14808 9385,14805 9362,14802 9337,14798 9313,14795 9290,14795 9269,14792 9276,14792 9286,14792 9296,14792 9303,14792 9313,14795 9321,14795 9331,14795 9337,14798 9347,14792 9358,14792 9368,14792 9378,14795 9393,14795 9403,14795 9413,14798 9423,14798 9434,14798 9434,14795 9416,14792 9399,14788 9378,14785 9358,14785 9341,14782 9321,14782 9300,14778 9283,14778 9286,14775 9316,14775 9351,14778 9382,14782 9413,14785 9444,14788 9475,14792 9504,14795 9532,14798 9508,14792 9484,14785 9460,14782 9434,14778 9409,14775 9385,14772 9358,14768 9334,14762 9347,14765 9365,14768 9378,14768 9393,14772 9406,14772 9423,14772 9437,14772 9447,14768 9450,14768 9396,14762 9406,14762 9416,14762 9427,14765 9440,14765 9450,14765 9460,14768 9470,14768 9481,14765 9481,14765 9478,14765 9478,14762 9475,14762 9475,14762 9470,14762 9470,14762 9470,14762 9454,14758 9440,14755 9423,14755 9409,14752 9393,14752 9378,14749 9362,14745 9344,14745 9368,14742 9388,14742 9409,14742 9430,14745 9450,14749 9470,14749 9491,14752 9512,14752 9494,14749 9478,14745 9460,14742 9447,14739 9430,14739 9413,14735 9396,14732 9378,14732 9385,14726 9409,14729 9434,14729 9454,14732 9478,14735 9502,14739 9525,14739 9546,14742 9570,14742 9550,14739 9529,14735 9508,14729 9488,14726 9468,14723 9444,14723 9423,14720 9403,14716 9413,14713 9419,14713 9427,14713 9437,14713 9444,14716 9454,14716 9460,14716 9470,14716 9484,14716 9498,14716 9515,14716 9529,14716 9542,14720 9556,14723 9570,14723 9584,14720 9566,14716 9550,14713 9532,14710 9515,14706 9498,14703 9478,14703 9460,14700 9444,14700 9465,14696 9484,14696 9504,14700 9525,14700 9546,14703 9566,14706 9584,14706 9604,14710 9604,14706 9601,14706 9597,14706 9594,14703 9591,14703 9587,14703 9587,14703 9584,14703 9570,14700 9556,14696 9542,14693 9529,14693 9515,14690 9502,14690 9488,14686 9475,14683 9498,14683 9519,14683 9542,14686 9563,14686 9587,14686 9607,14690 9628,14690 9648,14686 9504,14673 9529,14670 9550,14670 9573,14673 9594,14673 9617,14676 9638,14680 9662,14680 9683,14676 9522,14660 9535,14656 9550,14656 9560,14653 9573,14656 9587,14656 9601,14656 9614,14656 9625,14656 9642,14660 9656,14660 9669,14663 9683,14663 9699,14663 9714,14666 9727,14663 9741,14663 9720,14660 9699,14656 9679,14656 9656,14653 9632,14653 9607,14650 9587,14646 9563,14643 9576,14643 9587,14640 9601,14640 9611,14640 9625,14643 9635,14643 9645,14643 9659,14643 9659,14640 9673,14640 9686,14643 9696,14643 9710,14643 9724,14643 9733,14646 9748,14646 9758,14650 9768,14646 9748,14643 9727,14640 9707,14636 9686,14633 9666,14633 9645,14631 9625,14627 9604,14627 9614,14621 9635,14621 9656,14621 9676,14624 9696,14624 9714,14627 9733,14631 9754,14633 9771,14633 9779,14631 9768,14627 9758,14624 9748,14624 9738,14624 9727,14624 9717,14624 9707,14621 9699,14617 9635,14611 9659,14611 9686,14614 9714,14614 9738,14617 9764,14621 9792,14624 9820,14624 9843,14624 9823,14621 9799,14617 9775,14614 9751,14611 9727,14607 9704,14604 9679,14601 9656,14601 9673,14591 9699,14591 9727,14591 9754,14594 9782,14594 9809,14597 9836,14601 9865,14601 9889,14604 9868,14597 9843,14594 9820,14591 9795,14587 9771,14587 9751,14584 9727,14584 9704,14581 9727,14577 9754,14574 9779,14577 9805,14577 9830,14581 9858,14584 9883,14587 9909,14587 9889,14581 9868,14577 9846,14577 9823,14574 9802,14571 9782,14567 9758,14567 9738,14564 9761,14561 9789,14557 9813,14561 9836,14561 9862,14564 9889,14567 9914,14571 9937,14567 9934,14567 9930,14567 9927,14564 9924,14564 9919,14564 9916,14564 9914,14564 9909,14561 9896,14561 9883,14557 9865,14557 9851,14554 9833,14554 9820,14551 9802,14547 9789,14547 9802,14544 9816,14541 9833,14541 9846,14541 9862,14544 9879,14544 9893,14547 9906,14547 9914,14547 9919,14551 9927,14551 9934,14551 9940,14551 9944,14551 9950,14551 9957,14551 9944,14547 9927,14544 9914,14541 9899,14538 9883,14538 9868,14535 9854,14535 9836,14532 9846,14528 9865,14528 9879,14528 9896,14528 9914,14532 9930,14532 9944,14532 9961,14532 9978,14532 9978,14532 9978,14528 9978,14528 9978,14528 9978,14528 9978,14525 9975,14525 9975,14525 9961,14525 9950,14525 9937,14525 9927,14525 9914,14522 9899,14522 9889,14522 9875,14518 9889,14512 9903,14512 9919,14512 9934,14512 9947,14515 9965,14518 9978,14518 9994,14515 9994,14512 9927,14502 9937,14502 9944,14499 9954,14499 9961,14499 9971,14499 9978,14499 9988,14499 9994,14502 10002,14499 9991,14492 10015,14485 10043,14479 10071,14475 10097,14472 10125,14472 10156,14472 10183,14475 10214,14479 10214,14482 10214,14482 10217,14482 10217,14485 10220,14485 10220,14485 10225,14485 10228,14485 10231,14482 10231,14479 10231,14479 10231,14475 10231,14472 10231,14469 10231,14469 10231,14465 10234,14459 10234,14452 10238,14445 10241,14439 10241,14432 10244,14425 10248,14419 10251,14415 10258,14412 10262,14412 10268,14412 10275,14412 10282,14412 10289,14412 10292,14410 10299,14406 10302,14370 10313,14333 10323,14297 10333,14264 10347,14228 10357,14194 10371,14158 10382,14121 10402,14121 10422,14121 10443,14121 10464,14118 10483,14118 10501,14118 10521,14114 10545,14114 10549,14124 10549,14134 10549,14148 10545,14158 10545,14171 10545,14181 10549,14191 10555,14205 10555,14228 10555,14251 10552,14277 10549,14301 10542,14323 10539,14350 10539,14373 10539,14400 10539,14406 10539,14419 10535,14429 10531,14439 10531,14449 10531,14459 10535,14469 10545,14479 10539,14499 10535,14518 10535,14538 10531,14557 10531,14577 10528,14597 10521,14617 10514,14636 10508,14643 10493,14646 10483,14650 10474,14650 10464,14650 10456,14656 10453,14663 10456,14680 10470,14686 10483,14690 10501,14693 10518,14693 10535,14690 10552,14690 10569,14690 10586,14693 10593,14686 10596,14676 10596,14666 10596,14656 10596,14646 10596,14636 10596,14627 10600,14617 10600,14611 10600,14604 10600,14594 10600,14587 10600,14577 10600,14571 10603,14564 10611,14557 10613,14532 10611,14505 10611,14479 10606,14455 10603,14429 10603,14403 10606,14376 10617,14353 10617,14346 10621,14340 10621,14330 10624,14323 10624,14317 10627,14311 10627,14304 10634,14297 10637,14304 10641,14311 10641,14320 10641,14326 10641,14336 10641,14343 10644,14353 10647,14360 10644,14370 10644,14376 10647,14380 10655,14383 10658,14390 10665,14393 10668,14400 10668,14406 10668,14415 10668,14425 10672,14432 10672,14442 10675,14452 10678,14459 10682,14469 10682,14479 10675,14482 10668,14485 10662,14485 10651,14489 10644,14492 10641,14495 10641,14502 10641,14512 10651,14518 10665,14522 10675,14528 10685,14532 10699,14535 10709,14538 10723,14538 10734,14535 10734,14532 10734,14532 10734,14528 10737,14528 10737,14525 10740,14525 10740,14522 10740,14518 10740,14518 10743,14518 10743,14518 10743,14518 10747,14518 10747,14515 10747,14515 10750,14515 10750,14512 10750,14509 10747,14505 10743,14505 10743,14502 10743,14502 10743,14499 10747,14495 10747,14479 10743,14465 10740,14449 10737,14432 10734,14415 10730,14403 10727,14386 10727,14373 10716,14360 10709,14346 10703,14330 10699,14317 10699,14301 10699,14287 10699,14271 10706,14258 10709,14248 10713,14241 10713,14231 10713,14222 10713,14212 10713,14202 10709,14191 10709,14184 10709,14184 10709,14184 10709,14181 10709,14181 10713,14181 10713,14181 10713,14181 10713,14181 10713,14178 10713,14178 10713,14178 10713,14174 10713,14174 10713,14174 10713,14174 10713,14174 10709,14174 10709,14174 10709,14174 10709,14174 10709,14174 10706,14174 10706,14174 10706,14174 10706,14171 10706,14164 10706,14158 10706,14151 10706,14144 10709,14138 10709,14134 10716,14128 10719,14114 10753,14114 10791,14111 10829,14111 10866,14108 10904,14108 10942,14108 10976,14108 11013,14108 10999,14134 Z M 10197,14134 L 10207,14118 10200,14134 10197,14134 Z M 10097,14148 L 10104,14164 10115,14178 10125,14191 10132,14205 10142,14219 10156,14231 10166,14244 10176,14254 9652,14505 9648,14512 9652,14512 9659,14509 9666,14509 9669,14505 9676,14502 9679,14502 9686,14499 9689,14495 9751,14469 9816,14439 9879,14410 9940,14380 10002,14350 10063,14320 10125,14294 10186,14268 10190,14271 10190,14271 10194,14274 10194,14274 10197,14274 10197,14274 10200,14274 10204,14277 10200,14281 10197,14284 10194,14287 10190,14291 10183,14294 10179,14297 10176,14301 10169,14304 10125,14323 10076,14346 10029,14370 9984,14390 9937,14412 9889,14432 9840,14455 9795,14479 9799,14482 9851,14459 9903,14439 9954,14415 10005,14393 10056,14370 10107,14346 10159,14323 10210,14301 10217,14301 10220,14301 10225,14304 10228,14307 10231,14311 10231,14314 10234,14317 10234,14320 10214,14330 10194,14340 10173,14350 10153,14356 10132,14366 10107,14373 10087,14383 10066,14390 10036,14403 10009,14415 9978,14429 9947,14442 9916,14455 9886,14469 9858,14482 9826,14495 9813,14502 9799,14509 9782,14515 9768,14522 9754,14528 9741,14535 9727,14541 9710,14547 9648,14577 9587,14604 9525,14633 9465,14663 9403,14693 9341,14720 9280,14749 9218,14778 9170,14805 9122,14827 9074,14851 9023,14874 8975,14897 8928,14923 8879,14946 8832,14970 8859,14953 8886,14936 8917,14920 8945,14904 8972,14887 9002,14871 9030,14857 9061,14841 9061,14837 9047,14837 9033,14841 9020,14847 9005,14854 8995,14861 8982,14871 8972,14877 8958,14884 8941,14894 8920,14907 8904,14917 8883,14926 8863,14936 8845,14946 8825,14960 8807,14970 8807,14970 8804,14970 8804,14966 8804,14963 8804,14963 8804,14960 8804,14956 8804,14956 8822,14943 8838,14933 8856,14923 8873,14914 8890,14904 8907,14894 8925,14887 8938,14874 8935,14871 8917,14877 8900,14887 8883,14894 8869,14904 8853,14911 8835,14920 8818,14930 8804,14940 8801,14936 8801,14933 8801,14930 8801,14926 8804,14920 8804,14917 8811,14917 8815,14914 8859,14894 8904,14874 8945,14854 8989,14834 9033,14815 9077,14795 9122,14772 9167,14752 9167,14749 9146,14752 9102,14772 9061,14792 9016,14812 8972,14831 8928,14851 8886,14867 8842,14887 8797,14904 8794,14891 8883,14847 9378,14631 9399,14617 9423,14607 9447,14597 9470,14587 9494,14577 9515,14567 9539,14554 9560,14541 9550,14541 9331,14636 8794,14871 8791,14871 8791,14871 8791,14871 8787,14867 8787,14864 8787,14864 8787,14861 8787,14857 8825,14841 8859,14824 8897,14805 8938,14788 8975,14772 9013,14755 9051,14739 9088,14720 9088,14716 9077,14716 9040,14732 9002,14749 8965,14765 8931,14782 8894,14795 8856,14812 8818,14827 8781,14841 8776,14827 8842,14798 9245,14617 9252,14614 9259,14611 9269,14607 9276,14604 9283,14601 9286,14597 9293,14594 9300,14591 9300,14587 9218,14621 8873,14768 8771,14815 8766,14805 8771,14798 8773,14795 8781,14788 8791,14785 8797,14782 8804,14782 8811,14778 8869,14752 8925,14726 8979,14703 9036,14676 9092,14653 9149,14627 9205,14604 9259,14577 9789,14336 9792,14333 9782,14333 9546,14435 8784,14775 8781,14775 8776,14778 8773,14778 8771,14782 8766,14782 8763,14785 8760,14782 8756,14778 8756,14775 8879,14720 9265,14541 9293,14528 9324,14515 9355,14502 9382,14489 9413,14472 9444,14459 9470,14442 9502,14429 9491,14429 9170,14574 9119,14597 9067,14621 9013,14643 8962,14666 8910,14690 8859,14713 8804,14735 8753,14758 8750,14758 8750,14758 8746,14758 8746,14758 8746,14758 8743,14755 8743,14755 8743,14752 8743,14749 9802,14261 9836,14244 9872,14228 9909,14212 9944,14194 9981,14178 10015,14161 10050,14144 10087,14128 10097,14148 Z M 11013,14449 L 10999,14472 10986,14492 10976,14515 10962,14538 10948,14557 10935,14581 10922,14604 10907,14624 10603,15132 10600,15138 10596,15141 10590,15147 10586,15157 10580,15164 10576,15171 10573,15181 10573,15187 10552,15211 10552,15214 10552,15217 10552,15221 10549,15224 10545,15227 10545,15231 10542,15234 10542,15236 10531,15253 10521,15269 10514,15286 10504,15299 10493,15316 10483,15332 10474,15348 10464,15362 10467,15352 10474,15342 10480,15329 10487,15319 10490,15309 10498,15299 10504,15289 10508,15276 10501,15286 10493,15293 10487,15303 10480,15313 10474,15323 10467,15332 10464,15342 10456,15352 10456,15352 10456,15352 10453,15352 10453,15352 10453,15352 10453,15352 10453,15348 10453,15348 10467,15319 10483,15293 10504,15263 10521,15236 10542,15207 10559,15181 10580,15151 10596,15121 10863,14696 10866,14690 10866,14686 10870,14683 10873,14676 10873,14673 10876,14670 10876,14663 10880,14660 10873,14663 10658,14996 10521,15214 10511,15224 10501,15236 10490,15249 10480,15263 10474,15273 10464,15286 10456,15299 10446,15313 10446,15306 10747,14834 10747,14834 10750,14831 10750,14831 10750,14827 10750,14827 10753,14824 10753,14824 10750,14822 10734,14844 10493,15204 10487,15214 10480,15221 10474,15231 10467,15240 10459,15246 10453,15256 10446,15263 10439,15273 10456,15246 10474,15221 10490,15194 10508,15171 10524,15144 10542,15117 10555,15092 10573,15065 10839,14643 10839,14643 10842,14640 10842,14636 10842,14636 10842,14633 10842,14631 10842,14631 10842,14627 10822,14653 10514,15132 10508,15144 10498,15154 10487,15167 10477,15181 10470,15191 10459,15204 10449,15217 10443,15231 10555,15052 10829,14617 10829,14617 10829,14614 10829,14614 10832,14614 10832,14611 10832,14611 10832,14607 10832,14607 10819,14621 10569,15003 10552,15028 10535,15055 10518,15082 10501,15108 10483,15138 10467,15164 10446,15187 10426,15214 10945,14403 10945,14400 10945,14396 10948,14393 10948,14390 10952,14390 10952,14386 10952,14383 10952,14376 10942,14383 10467,15124 10436,15161 10576,14940 10819,14554 10825,14544 10829,14535 10835,14528 10842,14518 10846,14509 10853,14499 10856,14489 10860,14482 10839,14509 10464,15088 10429,15132 10966,14297 10966,14294 10959,14294 10880,14403 10474,15038 10453,15058 10819,14492 10835,14462 10856,14432 10876,14400 10894,14370 10914,14340 10935,14311 10952,14277 10969,14248 10969,14248 10969,14248 10966,14244 10966,14244 10966,14244 10966,14244 10966,14244 10962,14244 10737,14594 10518,14933 10590,14818 10894,14336 10911,14314 10925,14294 10938,14274 10948,14251 10962,14228 10976,14209 10989,14184 11003,14164 10992,14199 10989,14234 10986,14268 10986,14307 10992,14343 10996,14380 11003,14415 11013,14449 Z M 10228,14439 L 10217,14469 10173,14459 10132,14459 10091,14459 10050,14462 10009,14469 9968,14475 9927,14485 9886,14495 9909,14482 9937,14472 9965,14459 9991,14452 10022,14442 10050,14435 10081,14429 10111,14425 10125,14425 10142,14425 10156,14425 10173,14425 10186,14425 10200,14429 10214,14432 10228,14439 Z M 10573,15309 L 10565,15323 10555,15335 10549,15345 10542,15358 10531,15372 10524,15382 10518,15395 10511,15408 10504,15405 10514,15382 10528,15362 10539,15338 10552,15316 10565,15296 10580,15273 10593,15249 10606,15231 10819,14871 11033,14518 11075,14459 11038,14522 10573,15309 Z M 9868,14489 L 9823,14512 9868,14489 Z M 9194,14673 L 9194,14673 9194,14673 9190,14673 9190,14673 9190,14673 9190,14673 9190,14673 9190,14670 9197,14663 9242,14643 9286,14624 9331,14604 9375,14584 9416,14567 9460,14547 9504,14528 9550,14509 9539,14518 9194,14673 Z M 9570,14538 L 9570,14538 9570,14538 9570,14538 9570,14541 9570,14541 9566,14541 9566,14541 9566,14541 9560,14541 9563,14541 9563,14541 9563,14538 9566,14538 9566,14538 9566,14538 9570,14538 9570,14538 Z M 9799,14633 L 9795,14636 9792,14636 9792,14636 9789,14636 9785,14633 9785,14633 9782,14633 9782,14631 9799,14633 Z M 9666,14643 L 9683,14643 9666,14643 Z M 10518,14653 L 10518,14653 10518,14653 10518,14653 10514,14653 10514,14653 10514,14653 10511,14653 10511,14653 10511,14653 10514,14653 10514,14653 10514,14653 10514,14653 10514,14653 10518,14653 10518,14653 Z M 9683,14676 L 9699,14676 9683,14676 Z M 8712,14742 L 8716,14735 8716,14739 8712,14742 Z M 8675,15157 L 8678,15177 8685,15197 8688,15214 8696,15234 8702,15249 8709,15269 8716,15286 8722,15306 8743,15319 8725,15313 8716,15303 8706,15289 8699,15276 8691,15259 8685,15246 8678,15231 8671,15217 8657,15164 8647,15108 8637,15048 8637,14990 8637,14960 8640,14930 8644,14904 8650,14874 8657,14847 8668,14822 8681,14795 8696,14772 8681,14818 8668,14864 8661,14914 8654,14963 8654,15013 8654,15062 8661,15111 8675,15157 Z M 9440,14798 L 9447,14798 9440,14798 Z M 9481,14802 L 9494,14802 9481,14802 Z M 9115,14812 L 9112,14815 9108,14818 9105,14822 9102,14822 9098,14824 9092,14827 9088,14827 9085,14827 9085,14824 9085,14822 9088,14818 9092,14815 9095,14815 9098,14812 9102,14812 9105,14808 9108,14808 9108,14808 9108,14808 9112,14808 9112,14808 9112,14808 9115,14808 9115,14812 Z M 9205,14822 L 9208,14818 9245,14822 9205,14822 Z M 9437,14831 L 9447,14831 9437,14831 Z M 9092,14917 L 9102,14917 9092,14917 Z M 9129,14917 L 9136,14917 9129,14917 Z M 9187,14920 L 9139,14917 9139,14917 9146,14917 9149,14917 9156,14917 9164,14917 9170,14917 9174,14917 9180,14917 9187,14920 Z M 8722,14953 L 8722,14950 8722,14946 8725,14943 8725,14940 8729,14936 8733,14933 8736,14930 8740,14926 8722,14953 Z M 10508,14946 L 10493,14966 10508,14946 Z M 8733,14963 L 8743,14950 8733,14963 8733,14963 Z M 9280,14960 L 9293,14960 9280,14960 Z M 8719,15013 L 8753,14963 8740,14990 8719,15013 Z M 10490,14976 L 10470,15009 10490,14976 Z M 8719,15042 L 8722,15035 8725,15028 8733,15022 8736,15015 8743,15009 8746,15003 8750,14996 8756,14990 8719,15042 Z M 8716,15085 L 8756,15015 8719,15078 8716,15085 Z M 9645,15035 L 10019,15045 10066,15048 10118,15052 10169,15052 10220,15052 10272,15052 10320,15052 10371,15052 10419,15055 10412,15072 10408,15092 10405,15108 10405,15127 10405,15147 10405,15167 10402,15187 10402,15207 10405,15231 10408,15249 10416,15273 10419,15293 10426,15313 10433,15332 10439,15352 10446,15372 10443,15375 10439,15375 10436,15375 10433,15375 10429,15375 10426,15375 10422,15375 10419,15375 10097,15362 9454,15335 9375,15329 9296,15326 9215,15323 9136,15319 9054,15319 8972,15313 8894,15309 8815,15306 8797,15299 8797,15299 8797,15296 8797,15296 8797,15293 8797,15293 8801,15293 8801,15293 8804,15293 8804,15293 8804,15296 8804,15296 8804,15299 8807,15299 8807,15303 8807,15303 8811,15303 8811,15303 8811,15299 8811,15299 8811,15299 8811,15299 8811,15296 8807,15296 8807,15296 8866,15296 8920,15296 8975,15299 9033,15299 9088,15303 9143,15303 9197,15306 9255,15306 9252,15303 9249,15299 9245,15299 9242,15299 9239,15299 9235,15299 9231,15299 9228,15299 9177,15296 9126,15293 9071,15289 9016,15289 8962,15286 8907,15283 8856,15279 8801,15273 8807,15266 9197,15276 9893,15296 9903,15289 9840,15286 9782,15283 9724,15283 9666,15279 9607,15279 9550,15276 9491,15276 9434,15273 8962,15256 8807,15249 8807,15249 8807,15246 8807,15246 8807,15246 8807,15243 8807,15243 8807,15243 8807,15240 8894,15240 8979,15240 9064,15243 9149,15246 9231,15249 9316,15249 9396,15249 9478,15249 9430,15243 8832,15227 8811,15224 8811,15217 8985,15221 9591,15234 9622,15236 9656,15236 9689,15236 9724,15240 9761,15240 9795,15240 9826,15240 9862,15236 9854,15234 9553,15224 9115,15214 9077,15214 9040,15211 9002,15211 8965,15211 8928,15207 8890,15207 8853,15204 8815,15201 8815,15201 8815,15197 8815,15197 8815,15194 8815,15194 8818,15191 8818,15191 8818,15191 9470,15201 9470,15201 9475,15201 9475,15201 9478,15201 9478,15201 9481,15197 9481,15197 9481,15197 9430,15191 9036,15181 8815,15171 8818,15161 8873,15161 8928,15161 8982,15161 9036,15161 9092,15164 9146,15164 9201,15164 9255,15161 9228,15157 9197,15154 9170,15154 9143,15154 9112,15154 9085,15154 9054,15154 9023,15151 8818,15144 8818,15132 8962,15132 9434,15138 9434,15138 9437,15138 9437,15135 9437,15135 9437,15135 9437,15135 9437,15135 9437,15135 9368,15132 8832,15114 8832,15114 8828,15114 8825,15114 8822,15114 8822,15111 8818,15111 8818,15108 8818,15105 8828,15102 9231,15108 10012,15121 10019,15117 10002,15114 9984,15114 9965,15114 9947,15114 9927,15114 9909,15114 9893,15111 9875,15111 9218,15098 9170,15095 9119,15095 9071,15095 9020,15095 8968,15095 8920,15092 8869,15092 8822,15088 8822,15088 8818,15085 8818,15085 8818,15082 8818,15082 8818,15078 8818,15078 8818,15075 8859,15075 8897,15072 8935,15072 8972,15075 9010,15075 9051,15075 9088,15075 9129,15075 9560,15085 9560,15085 9563,15085 9563,15085 9563,15085 9566,15085 9566,15082 9566,15082 9570,15082 9570,15082 9570,15082 9566,15078 9566,15078 9566,15078 9566,15078 9566,15078 9563,15075 8904,15062 8894,15062 8883,15062 8873,15058 8863,15058 8848,15058 8838,15058 8828,15055 8818,15055 8818,15042 8941,15042 9779,15058 9782,15058 9789,15055 9792,15055 9799,15055 9802,15058 9805,15055 9813,15055 9816,15055 9515,15042 8935,15028 8822,15022 8822,15022 8825,15018 8828,15018 8828,15018 8832,15018 8835,15018 8838,15015 8838,15015 9184,15025 9645,15035 Z M 10392,15072 L 10392,15072 10392,15075 10392,15075 10388,15078 10388,15078 10388,15082 10385,15082 10382,15082 10361,15078 10336,15075 10316,15075 10292,15072 10268,15072 10248,15072 10225,15068 10204,15065 10228,15065 10251,15065 10275,15068 10299,15068 10320,15068 10344,15072 10367,15072 10392,15072 Z M 10395,15098 L 10388,15098 10377,15098 10371,15098 10361,15098 10354,15098 10344,15095 10336,15095 10330,15095 10336,15092 10344,15088 10354,15088 10361,15088 10371,15088 10377,15092 10388,15092 10395,15095 10395,15098 Z M 10279,15102 L 10258,15102 10241,15102 10225,15102 10207,15098 10190,15098 10169,15098 10153,15095 10135,15095 10153,15095 10169,15095 10186,15092 10204,15092 10225,15092 10241,15095 10258,15098 10279,15102 Z M 10374,15141 L 10374,15144 10354,15144 10330,15147 10310,15147 10289,15147 10264,15144 10244,15144 10225,15144 10200,15141 10210,15141 10220,15141 10231,15141 10241,15141 10251,15141 10264,15141 10275,15141 10285,15141 10295,15141 10306,15141 10320,15141 10330,15141 10340,15141 10354,15141 10364,15141 10374,15141 Z M 9893,15167 L 9823,15167 9754,15167 9686,15167 9614,15167 9542,15167 9475,15167 9403,15164 9327,15164 9327,15167 9324,15167 9324,15167 9324,15167 9321,15167 9321,15167 9316,15167 9316,15164 9316,15164 9313,15164 9313,15164 9313,15161 9313,15161 9313,15157 9313,15157 9316,15157 9502,15161 9893,15167 Z M 9896,15167 L 9906,15167 9896,15167 Z M 10371,15181 L 10371,15181 10351,15184 10330,15184 10310,15181 10289,15181 10264,15177 10244,15174 10225,15171 10204,15167 10204,15167 10228,15171 10248,15171 10268,15174 10289,15174 10310,15174 10330,15177 10351,15177 10371,15181 Z M 10323,15221 L 10323,15224 10289,15221 10292,15221 10295,15217 10299,15217 10302,15217 10306,15217 10310,15217 10313,15217 10320,15217 10323,15221 Z M 10511,15276 L 10508,15276 10514,15269 10514,15269 10514,15273 10514,15273 10514,15273 10511,15276 10511,15276 10511,15276 10511,15276 Z M 9316,15365 L 9975,15395 10033,15395 10412,15412 10422,15412 10429,15412 10439,15412 10449,15415 10456,15415 10467,15415 10474,15418 10483,15418 10377,15418 9875,15395 9733,15388 9594,15382 9454,15375 9316,15368 9177,15365 9036,15358 8897,15348 8760,15342 8760,15338 8828,15342 8900,15345 8968,15348 9036,15352 9108,15355 9177,15358 9245,15362 9316,15365 Z"/>
 </g>
</svg>