<?xml version="1.0" encoding="UTF-8"?>
<!DOCTYPE svg PUBLIC "-//W3C//DTD SVG 1.0//EN" "http://www.w3.org/TR/2001/REC-SVG-20010904/DTD/svg10.dtd">
<svg width="197mm" height="284mm" viewBox="0 0 19700 28400">
 <g style="stroke:none;fill:rgb(255,255,255)">
  <rect x="8096" y="12991" width="3494" height="2435"/>
  <rect x="8096" y="12991" width="3494" height="2435"/>
 </g>
 <g style="stroke:none;fill:rgb(0,0,0)">
  <polygon points="9669,12991 9666,12996 9663,13001 9658,13005 9653,13009 9648,13012 9643,13015 9638,13019 9634,13023 9644,13031 9655,13035 9665,13038 9676,13036 9687,13035 9697,13031 9709,13029 9720,13026 9719,13033 9715,13036 9712,13039 9706,13040 9701,13041 9697,13043 9691,13045 9688,13050 9693,13064 9700,13071 9709,13073 9718,13072 9727,13071 9737,13069 9746,13072 9754,13078 9750,13077 9745,13077 9741,13078 9736,13079 9731,13080 9726,13082 9721,13084 9717,13086 9726,13103 9735,13121 9743,13140 9751,13159 9757,13179 9763,13199 9769,13221 9776,13241 9781,13262 9787,13284 9791,13305 9796,13328 9801,13349 9807,13371 9811,13392 9817,13414 9818,13436 9820,13459 9822,13483 9823,13506 9825,13528 9827,13551 9829,13574 9833,13595 9835,13592 9839,13589 9843,13588 9848,13588 9852,13588 9855,13589 9858,13590 9861,13593 9872,13604 9879,13617 9882,13632 9884,13648 9883,13666 9882,13684 9880,13701 9879,13719 9875,13728 9869,13735 9862,13740 9855,13743 9858,13767 9863,13788 9870,13810 9878,13830 9886,13850 9896,13869 9905,13888 9916,13908 9924,13927 9933,13947 9940,13969 9946,13990 9950,14013 9951,14038 9951,14065 9947,14092 9956,14106 9967,14119 9978,14131 9989,14145 9997,14159 10003,14177 10004,14197 10000,14222 10013,14234 10027,14242 10040,14250 10055,14256 10069,14264 10083,14273 10096,14285 10107,14302 10124,14307 10140,14313 10156,14321 10172,14328 10188,14336 10204,14343 10220,14352 10236,14361 10252,14368 10268,14377 10283,14385 10300,14394 10316,14401 10333,14408 10349,14414 10366,14420 10437,14453 10441,14448 10446,14447 10451,14445 10456,14447 10461,14451 10465,14454 10470,14460 10474,14465 10492,14491 10509,14521 10526,14555 10541,14593 10555,14632 10567,14671 10580,14712 10590,14751 10600,14789 10607,14825 10614,14857 10621,14886 10625,14910 10628,14928 10630,14939 10631,14943 11495,14937 11483,15377 11578,15384 11562,15408 8116,15418 8096,15374 8175,15379 8187,14974 8190,14974 8202,14974 8218,14975 8240,14975 8265,14977 8294,14977 8326,14978 8358,14978 8391,14979 8424,14979 8454,14981 8482,14981 8508,14981 8529,14979 8545,14979 8554,14978 8565,14941 8576,14905 8587,14871 8599,14836 8610,14801 8621,14768 8633,14736 8646,14703 8657,14670 8671,14637 8684,14605 8696,14572 8711,14539 8724,14506 8739,14473 8754,14439 8752,14427 8752,14416 8755,14408 8760,14401 8765,14396 8771,14391 8777,14386 8784,14383 8805,14379 8827,14375 8848,14368 8869,14361 8889,14352 8910,14342 8930,14332 8950,14321 8969,14309 8989,14297 9009,14285 9028,14274 9048,14263 9067,14251 9086,14241 9107,14231 9119,14235 9131,14236 9143,14235 9153,14232 9164,14227 9173,14220 9183,14212 9192,14202 9201,14191 9210,14181 9218,14168 9225,14155 9234,14143 9242,14130 9250,14119 9257,14106 9253,14082 9252,14061 9255,14041 9259,14023 9266,14007 9274,13990 9283,13976 9293,13961 9302,13947 9312,13933 9321,13918 9328,13902 9334,13885 9338,13867 9339,13846 9337,13823 9327,13805 9321,13785 9318,13762 9318,13738 9321,13714 9324,13690 9329,13667 9334,13646 9339,13641 9343,13634 9348,13629 9353,13623 9358,13619 9363,13616 9369,13616 9376,13618 9381,13621 9385,13625 9387,13631 9389,13637 9391,13643 9392,13649 9394,13656 9396,13661 9398,13656 9399,13649 9399,13642 9399,13636 9399,13629 9400,13622 9400,13616 9403,13610 9394,13608 9386,13604 9379,13599 9371,13593 9364,13586 9357,13579 9349,13573 9342,13566 9351,13568 9359,13571 9367,13576 9376,13581 9384,13585 9393,13586 9400,13585 9406,13578 9411,13546 9416,13515 9420,13482 9426,13450 9430,13419 9435,13387 9440,13355 9446,13324 9452,13294 9459,13263 9467,13233 9476,13204 9486,13175 9497,13148 9509,13121 9522,13095 9530,13082 9538,13071 9547,13062 9555,13053 9564,13047 9574,13040 9583,13035 9593,13030 9602,13026 9612,13023 9621,13018 9632,13014 9642,13009 9651,13003 9660,12997 9669,12991"/>
 </g>
 <g style="stroke:none;fill:rgb(255,255,255)">
  <polygon points="9645,13053 9631,13060 9618,13069 9606,13078 9594,13089 9582,13101 9571,13115 9561,13128 9550,13145 9562,13133 9576,13121 9590,13110 9606,13098 9620,13087 9636,13077 9653,13069 9668,13063 9685,13076 9674,13078 9665,13082 9654,13087 9644,13092 9634,13097 9625,13103 9615,13110 9607,13116 9598,13124 9589,13131 9581,13140 9573,13148 9566,13157 9559,13166 9552,13177 9546,13187 9549,13193 9557,13183 9566,13174 9575,13165 9583,13156 9592,13149 9601,13141 9610,13133 9619,13127 9628,13121 9638,13116 9648,13111 9658,13106 9668,13102 9678,13098 9688,13096 9698,13093 9711,13112 9721,13131 9731,13152 9740,13174 9749,13195 9757,13218 9763,13241 9769,13265 9776,13289 9781,13313 9786,13337 9791,13362 9796,13386 9801,13411 9805,13435 9810,13459 9811,13478 9812,13496 9812,13515 9813,13532 9814,13551 9815,13570 9816,13588 9817,13607 9808,13610 9801,13613 9793,13616 9785,13617 9776,13617 9768,13617 9760,13616 9752,13613 9757,13599 9758,13585 9758,13573 9757,13559 9755,13546 9751,13535 9746,13522 9742,13511 9737,13503 9730,13497 9723,13492 9716,13488 9708,13486 9700,13484 9692,13483 9685,13484 9667,13504 9668,13493 9668,13482 9667,13472 9666,13462 9664,13453 9661,13443 9658,13435 9654,13427 9650,13432 9649,13438 9650,13444 9652,13449 9653,13455 9655,13460 9655,13468 9653,13474 9653,13482 9653,13491 9653,13498 9653,13507 9653,13515 9652,13523 9650,13530 9647,13536 9644,13520 9641,13503 9638,13487 9634,13470 9631,13454 9625,13439 9618,13425 9609,13414 9609,13425 9612,13436 9615,13448 9619,13459 9622,13472 9626,13484 9626,13497 9626,13511 9620,13504 9614,13498 9607,13494 9599,13491 9591,13489 9584,13489 9576,13489 9570,13491 9558,13496 9548,13503 9542,13513 9536,13526 9530,13539 9526,13552 9522,13568 9519,13581 9506,13581 9493,13583 9481,13585 9469,13588 9457,13590 9444,13592 9431,13590 9418,13586 9416,13570 9417,13555 9419,13541 9422,13527 9426,13513 9428,13499 9429,13487 9429,13473 9434,13444 9439,13415 9444,13385 9450,13355 9456,13326 9462,13298 9470,13270 9477,13242 9485,13214 9495,13189 9505,13164 9517,13139 9530,13116 9544,13095 9560,13074 9577,13055 9548,13117 9558,13107 9569,13093 9580,13078 9591,13063 9603,13052 9616,13044 9630,13044 9645,13053"/>
  <polygon points="9739,13546 9741,13556 9741,13568 9741,13579 9740,13589 9738,13600 9736,13610 9732,13621 9729,13629 9720,13623 9710,13619 9700,13619 9690,13619 9681,13618 9674,13614 9667,13607 9664,13592 9661,13584 9660,13576 9661,13568 9663,13559 9665,13550 9669,13541 9673,13533 9676,13526 9683,13513 9691,13506 9700,13506 9710,13508 9719,13516 9727,13524 9734,13535 9739,13546"/>
  <polygon points="9635,13562 9634,13578 9634,13592 9634,13607 9633,13622 9630,13634 9626,13647 9618,13657 9607,13666 9601,13669 9594,13671 9588,13673 9582,13676 9576,13677 9570,13677 9563,13675 9557,13671 9551,13666 9547,13660 9543,13652 9539,13643 9537,13634 9535,13624 9534,13614 9533,13604 9536,13592 9537,13579 9540,13566 9543,13552 9546,13541 9551,13531 9557,13523 9566,13517 9577,13513 9587,13513 9598,13515 9609,13520 9617,13527 9625,13537 9631,13548 9635,13562"/>
  <polygon points="9870,13705 9869,13714 9866,13720 9861,13723 9857,13725 9852,13725 9845,13726 9840,13729 9836,13734 9839,13761 9845,13785 9852,13807 9860,13829 9870,13850 9879,13869 9890,13889 9899,13909 9909,13928 9918,13950 9925,13970 9931,13993 9936,14017 9937,14042 9936,14069 9932,14100 9943,14115 9954,14129 9967,14143 9977,14158 9986,14173 9990,14191 9989,14214 9981,14238 9975,14256 9969,14275 9963,14293 9957,14312 9952,14331 9947,14350 9942,14370 9937,14389 9930,14408 9925,14427 9920,14445 9914,14463 9908,14482 9902,14500 9896,14519 9889,14537 9874,14539 9860,14540 9845,14543 9829,14544 9814,14546 9799,14548 9784,14549 9768,14552 9752,14553 9737,14554 9722,14555 9706,14557 9691,14558 9675,14558 9660,14559 9645,14559 9654,14548 9660,14531 9663,14513 9665,14492 9668,14471 9674,14452 9682,14436 9696,14423 9697,14398 9699,14371 9702,14346 9705,14321 9705,14297 9702,14273 9696,14251 9685,14230 9677,14218 9667,14208 9657,14199 9646,14194 9634,14190 9622,14186 9611,14182 9599,14178 9615,14164 9634,14154 9656,14144 9676,14133 9692,14119 9705,14099 9710,14072 9706,14036 9704,14028 9701,14020 9697,14013 9693,14007 9688,14001 9683,13996 9677,13994 9670,13992 9658,13996 9646,14000 9634,14004 9622,14009 9610,14013 9598,14018 9587,14023 9575,14027 9563,14033 9551,14038 9540,14044 9529,14052 9517,14060 9507,14067 9496,14076 9485,14086 9470,14068 9458,14045 9449,14020 9440,13994 9431,13969 9419,13947 9403,13931 9382,13922 9368,13928 9360,13940 9355,13955 9353,13972 9352,13993 9353,14013 9353,14033 9351,14051 9358,14072 9362,14092 9363,14110 9362,14128 9359,14144 9354,14160 9348,14174 9339,14190 9332,14203 9323,14218 9315,14232 9307,14247 9299,14261 9293,14276 9289,14293 9285,14309 9276,14302 9267,14291 9258,14276 9251,14261 9245,14246 9239,14230 9233,14214 9227,14197 9233,14179 9241,14163 9250,14146 9258,14130 9266,14114 9271,14097 9272,14078 9268,14060 9270,14034 9277,14014 9287,13998 9298,13983 9309,13969 9321,13953 9329,13936 9335,13915 9339,13902 9341,13887 9342,13871 9344,13856 9345,13843 9348,13829 9353,13816 9361,13807 9357,13801 9354,13796 9348,13793 9344,13797 9341,13802 9337,13785 9334,13767 9332,13749 9332,13731 9333,13715 9335,13697 9339,13680 9344,13662 9348,13658 9350,13653 9354,13649 9357,13646 9361,13643 9365,13641 9369,13639 9373,13639 9377,13649 9379,13660 9382,13670 9386,13681 9388,13691 9393,13700 9397,13709 9403,13715 9406,13704 9408,13691 9410,13678 9411,13665 9412,13651 9414,13638 9416,13624 9418,13612 9431,13616 9444,13617 9456,13616 9468,13613 9480,13610 9493,13608 9506,13607 9519,13607 9518,13621 9520,13634 9523,13647 9528,13658 9534,13670 9541,13680 9548,13690 9554,13697 9589,13699 9587,13704 9585,13710 9583,13715 9581,13720 9580,13726 9578,13731 9577,13738 9576,13744 9584,13753 9591,13735 9599,13716 9608,13699 9618,13682 9628,13667 9641,13656 9653,13647 9667,13642 9677,13642 9686,13642 9696,13643 9705,13646 9713,13649 9721,13654 9729,13660 9737,13666 9747,13686 9754,13709 9757,13733 9756,13757 9753,13782 9749,13806 9745,13830 9739,13853 9731,13870 9721,13883 9710,13892 9697,13899 9685,13903 9672,13907 9659,13909 9647,13912 9641,13907 9633,13904 9625,13900 9617,13897 9610,13893 9603,13888 9596,13880 9591,13870 9585,13878 9586,13887 9590,13895 9594,13904 9605,13916 9618,13923 9632,13928 9646,13932 9660,13933 9675,13932 9689,13930 9703,13926 9719,13915 9733,13899 9745,13879 9753,13856 9760,13832 9765,13806 9769,13778 9772,13752 9772,13735 9771,13720 9769,13705 9766,13690 9762,13676 9756,13663 9748,13652 9739,13642 9812,13633 9815,13666 9822,13663 9826,13657 9829,13648 9832,13638 9834,13628 9838,13618 9841,13610 9849,13604 9857,13613 9863,13623 9868,13636 9872,13649 9873,13663 9874,13678 9873,13693 9870,13705"/>
  <polygon points="9482,14110 9494,14101 9505,14092 9517,14085 9529,14076 9541,14068 9552,14062 9564,14054 9576,14048 9588,14043 9601,14038 9614,14033 9626,14029 9639,14025 9652,14022 9665,14019 9678,14018 9683,14023 9687,14029 9690,14036 9692,14044 9694,14054 9695,14065 9694,14075 9693,14085 9680,14100 9664,14114 9648,14124 9631,14134 9614,14143 9597,14153 9581,14163 9565,14177 9565,14191 9581,14199 9598,14205 9615,14210 9633,14214 9648,14220 9662,14230 9674,14245 9684,14267 9686,14275 9687,14284 9688,14294 9689,14304 9689,14315 9689,14324 9689,14333 9689,14343 9677,14328 9664,14316 9650,14306 9635,14297 9620,14289 9605,14282 9589,14275 9575,14268 9569,14276 9584,14292 9603,14304 9625,14316 9645,14328 9663,14343 9676,14364 9682,14389 9679,14423 9674,14429 9671,14437 9667,14442 9661,14443 9652,14424 9641,14408 9627,14395 9613,14385 9597,14376 9581,14368 9566,14361 9550,14353 9543,14362 9552,14380 9566,14386 9581,14392 9595,14398 9610,14405 9623,14414 9635,14427 9645,14442 9652,14463 9653,14477 9652,14490 9651,14502 9648,14515 9645,14526 9640,14537 9633,14544 9624,14552 9618,14552 9613,14552 9608,14550 9603,14549 9598,14546 9593,14544 9587,14540 9581,14537 9578,14519 9573,14506 9567,14497 9559,14490 9551,14486 9542,14483 9532,14481 9521,14480 9512,14489 9504,14496 9494,14505 9484,14514 9474,14521 9464,14530 9453,14537 9442,14544 9431,14549 9419,14554 9408,14557 9397,14559 9386,14559 9374,14557 9364,14554 9353,14548 9349,14550 9347,14554 9343,14557 9339,14560 9336,14563 9334,14567 9330,14569 9327,14573 9321,14548 9315,14522 9308,14497 9301,14473 9294,14449 9286,14425 9277,14403 9268,14381 9276,14368 9282,14355 9289,14342 9295,14328 9301,14315 9307,14299 9313,14285 9319,14271 9325,14258 9331,14242 9337,14230 9343,14216 9350,14202 9357,14190 9364,14177 9372,14166 9373,14152 9374,14139 9374,14125 9374,14111 9373,14097 9372,14084 9372,14071 9370,14057 9369,14043 9369,14029 9368,14017 9369,14003 9370,13990 9372,13976 9374,13964 9379,13951 9400,13959 9415,13974 9426,13996 9434,14022 9442,14048 9451,14073 9465,14095 9482,14110"/>
  <polygon points="9269,14333 9268,14340 9265,14347 9262,14353 9258,14360 9254,14353 9249,14348 9243,14346 9236,14345 9229,14345 9224,14346 9219,14348 9215,14352 9211,14337 9205,14323 9201,14308 9196,14293 9193,14278 9191,14263 9191,14246 9191,14231 9213,14214 9218,14229 9224,14245 9230,14261 9237,14276 9244,14293 9252,14308 9260,14322 9269,14333"/>
  <polygon points="10022,14265 10017,14282 10013,14298 10009,14315 10005,14331 10000,14348 9996,14365 9992,14381 9988,14398 9984,14414 9979,14430 9975,14445 9970,14462 9965,14478 9961,14495 9956,14510 9951,14526 9946,14533 9941,14537 9936,14539 9929,14541 9924,14543 9918,14543 9912,14543 9906,14543 9993,14246 9996,14249 10000,14250 10005,14251 10009,14253 10013,14254 10017,14256 10020,14260 10022,14265"/>
  <polygon points="10085,14309 10086,14323 10088,14338 10088,14352 10088,14367 10088,14383 10088,14396 10088,14412 10088,14425 10088,14440 10087,14454 10087,14469 10086,14483 10086,14496 10085,14510 10085,14522 10085,14535 9961,14535 9967,14520 9973,14504 9978,14489 9984,14472 9988,14456 9993,14439 9997,14422 10001,14405 10006,14389 10010,14372 10015,14356 10019,14338 10023,14322 10028,14306 10033,14291 10038,14274 10045,14275 10052,14278 10059,14282 10065,14285 10071,14291 10076,14297 10081,14303 10085,14309"/>
  <polygon points="9174,14246 9178,14263 9180,14279 9183,14295 9186,14312 9191,14327 9195,14342 9201,14355 9209,14366 9205,14375 9200,14383 9195,14390 9191,14399 9182,14390 9173,14386 9163,14389 9153,14394 9145,14401 9136,14412 9129,14420 9123,14429 9114,14447 9108,14427 9101,14407 9097,14384 9094,14361 9092,14338 9089,14316 9088,14292 9086,14269 9097,14260 9108,14255 9118,14251 9128,14250 9140,14249 9151,14249 9162,14247 9174,14246"/>
  <polygon points="9100,14467 9086,14485 9075,14502 9062,14520 9050,14538 9038,14554 9027,14570 9015,14588 9004,14605 8992,14621 8980,14638 8969,14655 8957,14671 8943,14688 8932,14706 8918,14722 8905,14739 8901,14719 8897,14698 8892,14678 8886,14658 8878,14638 8868,14625 8858,14614 8846,14607 8855,14625 8863,14642 8870,14661 8875,14682 8880,14702 8884,14722 8887,14743 8889,14765 8875,14789 8860,14813 8843,14836 8826,14861 8810,14883 8795,14907 8782,14930 8770,14953 8776,14958 8782,14954 8787,14945 8793,14941 8815,14910 8837,14878 8860,14847 8883,14813 8905,14780 8929,14746 8952,14712 8976,14678 8999,14645 9022,14611 9046,14577 9070,14544 9093,14513 9117,14480 9141,14449 9165,14419 9171,14419 9177,14423 9183,14429 9188,14437 9193,14445 9198,14454 9203,14465 9207,14475 9216,14505 9223,14535 9229,14565 9236,14597 9242,14629 9247,14660 9251,14691 9256,14724 9260,14757 9263,14789 9267,14821 9270,14854 9273,14888 9276,14921 9280,14954 9284,14987 9274,15001 9265,15013 9256,15027 9246,15041 9236,15054 9227,15067 9218,15081 9208,15095 9198,15108 9189,15122 9179,15134 9169,15147 9159,15159 9149,15172 9140,15185 9129,15196 9135,14966 9134,14966 9131,14966 9125,14966 9119,14966 9109,14966 9099,14968 9086,14968 9073,14968 9057,14968 9041,14969 9023,14969 9004,14969 8985,14970 8965,14970 8943,14970 8921,14972 8899,14972 8876,14973 8853,14973 8829,14973 8806,14974 8782,14974 8758,14974 8735,14975 8712,14975 8690,14975 8668,14977 8646,14977 8625,14977 8606,14978 8587,14978 8569,14978 8580,14941 8589,14907 8600,14872 8611,14839 8621,14806 8632,14774 8645,14741 8656,14709 8668,14678 8681,14646 8694,14614 8707,14584 8721,14553 8736,14521 8750,14490 8765,14457 8763,14439 8765,14427 8770,14416 8777,14409 8785,14404 8794,14400 8803,14398 8812,14395 8828,14392 8845,14389 8861,14384 8877,14379 8893,14371 8907,14364 8923,14355 8938,14346 8952,14337 8967,14328 8982,14319 8998,14311 9012,14304 9028,14297 9043,14292 9060,14288 9069,14276 9070,14302 9071,14326 9075,14351 9079,14375 9084,14399 9089,14422 9094,14444 9100,14467"/>
  <polygon points="10445,14492 10446,14490 10447,14487 10447,14486 10447,14483 10445,14480 10454,14467 10468,14490 10481,14514 10493,14540 10504,14567 10516,14596 10525,14626 10535,14656 10544,14687 10553,14719 10561,14751 10569,14782 10576,14815 10584,14847 10591,14877 10597,14909 10604,14937 10585,14939 10566,14939 10547,14940 10528,14940 10509,14941 10491,14941 10473,14943 10457,14943 10441,14944 10427,14944 10415,14944 10405,14944 10396,14945 10389,14945 10385,14945 10384,14945 10387,15108 10385,15107 10378,15102 10368,15095 10358,15088 10347,15079 10337,15069 10331,15059 10328,15049 10329,15034 10329,15018 10330,15002 10332,14984 10333,14966 10335,14948 10336,14929 10338,14910 10340,14891 10341,14873 10343,14854 10344,14836 10346,14819 10347,14803 10349,14786 10350,14771 10347,14787 10344,14804 10341,14820 10338,14836 10335,14853 10332,14869 10328,14887 10326,14904 10322,14920 10319,14937 10318,14954 10315,14972 10314,14989 10312,15007 10311,15025 10310,15042 10303,15042 10295,15040 10287,15036 10279,15032 10270,15028 10263,15026 10254,15025 10244,15026 10240,15013 10237,15001 10236,14987 10236,14974 10237,14961 10237,14948 10240,14935 10242,14921 10245,14909 10248,14895 10250,14882 10253,14869 10255,14856 10256,14843 10256,14829 10256,14816 10258,14800 10261,14784 10263,14767 10265,14750 10268,14733 10270,14715 10271,14698 10273,14680 10275,14664 10275,14646 10276,14630 10276,14614 10275,14597 10275,14581 10273,14564 10270,14549 10099,14533 10100,14520 10101,14507 10102,14493 10103,14481 10104,14468 10105,14454 10105,14442 10105,14429 10105,14415 10105,14403 10105,14389 10105,14376 10105,14362 10105,14348 10105,14336 10104,14322 10125,14333 10146,14345 10167,14355 10189,14365 10210,14375 10232,14384 10254,14394 10275,14403 10297,14413 10319,14423 10340,14433 10361,14443 10382,14454 10404,14466 10424,14478 10445,14492"/>
  <polygon points="9314,14602 9316,14614 9320,14629 9323,14642 9325,14656 9327,14670 9329,14684 9331,14698 9332,14713 9334,14727 9334,14742 9334,14756 9334,14771 9333,14785 9332,14800 9329,14815 9327,14829 9294,14874 9291,14844 9288,14813 9284,14782 9280,14753 9276,14723 9270,14694 9265,14665 9259,14636 9253,14607 9247,14578 9240,14550 9233,14521 9226,14492 9219,14465 9212,14436 9205,14408 9209,14399 9214,14391 9220,14384 9226,14379 9231,14375 9237,14375 9243,14380 9248,14389 9255,14400 9261,14413 9266,14425 9271,14438 9276,14451 9281,14465 9285,14477 9289,14491 9292,14505 9295,14519 9299,14533 9301,14546 9305,14560 9308,14574 9311,14588 9314,14602"/>
  <polygon points="9583,14565 9427,14598 9422,14603 9419,14610 9417,14616 9417,14623 9417,14631 9416,14638 9416,14647 9414,14655 9411,14649 9406,14641 9401,14634 9397,14625 9394,14617 9390,14607 9387,14597 9387,14587 9396,14586 9405,14584 9415,14582 9425,14578 9433,14574 9442,14569 9451,14564 9459,14558 9468,14553 9477,14545 9484,14539 9493,14533 9502,14525 9510,14519 9518,14513 9527,14506 9538,14505 9548,14510 9554,14519 9559,14529 9564,14540 9570,14552 9576,14560 9583,14565"/>
  <polygon points="10255,14578 10256,14601 10256,14622 10256,14645 10255,14667 10254,14690 10251,14713 10249,14736 10247,14760 10244,14782 10241,14805 10237,14828 10235,14851 10231,14873 10228,14896 10224,14919 10222,14941 10209,14943 10197,14943 10183,14943 10169,14941 10155,14939 10141,14937 10127,14937 10114,14937 10100,14939 10088,14941 10076,14946 10065,14954 10055,14964 10045,14977 10037,14993 10030,15013 10034,15076 10028,15078 10022,15079 10016,15081 10009,15084 10003,15088 9997,15093 9992,15098 9987,15104 9987,15110 9985,15118 9984,15128 9983,15138 9982,15150 9981,15162 9982,15173 9984,15183 9986,15195 9990,15204 9995,15210 10001,15215 10009,15218 10016,15221 10022,15224 10028,15228 10020,15229 10010,15233 10001,15239 9994,15245 9986,15254 9979,15264 9972,15276 9967,15288 9964,15310 9967,15327 9974,15341 9983,15353 9992,15361 10000,15368 10007,15372 10009,15373 9336,15381 9356,15326 9363,15282 9370,15239 9377,15195 9383,15152 9389,15109 9395,15066 9401,15023 9406,14979 9411,14936 9416,14892 9420,14849 9425,14805 9428,14760 9432,14715 9435,14670 9438,14623 9464,14620 9490,14617 9515,14614 9541,14610 9567,14607 9592,14603 9618,14599 9643,14596 9668,14593 9693,14589 9719,14587 9745,14584 9769,14581 9795,14578 9820,14575 9845,14574 9872,14572 9897,14570 9923,14568 9948,14567 9973,14565 9998,14565 10024,14565 10049,14564 10074,14565 10100,14565 10127,14567 10152,14568 10177,14570 10204,14572 10230,14574 10255,14578"/>
  <polygon points="9394,14663 9413,14697 9402,14844 9396,14829 9391,14814 9385,14799 9379,14785 9373,14770 9368,14755 9363,14741 9358,14726 9354,14711 9349,14695 9345,14680 9341,14665 9338,14649 9335,14632 9333,14614 9331,14597 9328,14594 9343,14575 9355,14572 9364,14578 9370,14592 9376,14611 9381,14631 9387,14649 9394,14663"/>
  <polygon points="9395,14873 9395,14896 9394,14919 9394,14940 9391,14961 9388,14982 9385,15003 9381,15023 9378,15043 9374,15064 9370,15084 9367,15104 9363,15124 9360,15144 9357,15166 9356,15187 9354,15209 9346,15199 9339,15186 9332,15173 9325,15159 9318,15146 9311,15132 9303,15119 9295,15107 9304,15089 9313,15073 9323,15058 9332,15042 9340,15027 9348,15012 9356,14994 9362,14974 9357,14968 9351,14965 9344,14965 9336,14968 9329,14972 9322,14977 9314,14981 9307,14984 9303,14977 9301,14966 9299,14957 9297,14946 9296,14935 9295,14925 9295,14913 9294,14902 9307,14886 9319,14871 9331,14856 9341,14839 9349,14823 9354,14803 9356,14781 9352,14755 9395,14873"/>
  <polygon points="11462,15375 10407,15383 10407,14972 10717,14963 10717,14964 10719,14969 10722,14975 10724,14984 10729,14994 10734,15006 10741,15018 10748,15031 10758,15045 10769,15058 10781,15069 10794,15080 10809,15089 10826,15097 10844,15102 10864,15104 10909,15108 10950,15107 10986,15102 11018,15094 11045,15084 11069,15071 11089,15059 11106,15043 11121,15028 11133,15013 11141,14999 11148,14987 11153,14977 11156,14968 11158,14963 11159,14960 11471,14961 11462,15375"/>
  <polygon points="10226,15001 10226,15040 10223,15038 10219,15040 10216,15043 10215,15046 10215,15055 10215,15062 10213,15070 10208,15075 10199,15069 10190,15065 10179,15062 10169,15061 10159,15062 10148,15062 10138,15064 10127,15066 10116,15069 10105,15070 10095,15071 10085,15073 10075,15073 10066,15071 10057,15069 10049,15065 10047,15050 10046,15036 10048,15022 10051,15010 10055,14998 10061,14988 10068,14979 10076,14973 10093,14968 10109,14964 10127,14961 10144,14960 10161,14960 10178,14961 10196,14963 10213,14966 10226,15001"/>
  <polygon points="9297,15152 9348,15247 9314,15363 9316,15366 9318,15372 9318,15377 9316,15380 9125,15373 9125,15348 9125,15320 9124,15292 9125,15264 9127,15239 9133,15216 9144,15197 9160,15185 9177,15163 9192,15144 9208,15126 9223,15107 9237,15086 9251,15066 9265,15045 9279,15021 9333,14993 9328,15012 9317,15030 9304,15049 9291,15069 9282,15088 9277,15109 9282,15129 9297,15152"/>
  <polygon points="10288,15090 10294,15108 10297,15124 10301,15139 10303,15155 10305,15170 10307,15183 10307,15197 10307,15211 10306,15225 10304,15239 10302,15253 10299,15267 10296,15282 10292,15297 10287,15312 10283,15329 10271,15366 10263,15369 10255,15370 10247,15372 10239,15372 10231,15370 10222,15370 10213,15369 10204,15369 10213,15353 10221,15334 10228,15316 10233,15297 10237,15277 10241,15257 10243,15236 10245,15215 10246,15194 10247,15173 10247,15152 10246,15131 10245,15109 10243,15088 10242,15067 10240,15047 10248,15045 10256,15046 10264,15050 10270,15055 10276,15064 10281,15071 10285,15081 10288,15090"/>
  <polygon points="9115,14979 9108,15372 8198,15388 8204,14997 8431,14993 8432,14994 8433,14999 8436,15008 8440,15018 8446,15030 8454,15043 8464,15058 8474,15073 8487,15086 8502,15102 8518,15114 8537,15126 8558,15135 8581,15143 8608,15148 8635,15150 8660,15148 8684,15143 8704,15134 8723,15124 8740,15113 8755,15099 8768,15085 8780,15070 8789,15056 8797,15042 8804,15028 8809,15017 8813,15007 8816,14998 8817,14993 8818,14992 9115,14979"/>
  <polygon points="10383,15146 10381,15374 10295,15377 10303,15361 10310,15344 10316,15327 10320,15308 10323,15289 10326,15271 10326,15250 10326,15230 10325,15209 10322,15189 10319,15168 10316,15147 10312,15127 10308,15105 10303,15086 10297,15066 10310,15073 10325,15083 10339,15095 10352,15109 10365,15123 10374,15134 10380,15143 10383,15146"/>
  <polygon points="10214,15102 10214,15115 10214,15129 10212,15143 10209,15156 10205,15167 10200,15179 10195,15189 10188,15197 10177,15200 10166,15203 10155,15205 10144,15206 10132,15208 10121,15208 10110,15208 10098,15208 10087,15208 10074,15206 10063,15205 10051,15203 10040,15200 10028,15197 10017,15194 10006,15190 10002,15181 9999,15172 9997,15162 9995,15152 9995,15142 9996,15133 9998,15123 10001,15114 10014,15110 10027,15105 10040,15103 10054,15099 10066,15097 10080,15094 10094,15093 10108,15090 10122,15090 10136,15090 10150,15090 10163,15091 10176,15093 10190,15095 10202,15098 10214,15102"/>
  <polygon points="8785,15003 8783,15011 8781,15018 8779,15023 8774,15027 8758,15025 8742,15023 8723,15023 8704,15022 8684,15023 8663,15023 8642,15025 8620,15025 8599,15026 8578,15027 8557,15028 8537,15028 8518,15030 8500,15030 8483,15028 8469,15027 8466,15013 8481,15012 8499,15012 8518,15012 8538,15011 8560,15011 8581,15011 8604,15011 8626,15010 8649,15010 8671,15010 8693,15008 8714,15008 8734,15007 8752,15006 8769,15005 8785,15003"/>
  <polygon points="10191,15364 10180,15369 10171,15372 10162,15374 10152,15377 10144,15378 10136,15378 10127,15378 10120,15377 10111,15377 10102,15375 10094,15374 10085,15374 10075,15373 10066,15373 10055,15373 10044,15374 10058,15356 10070,15348 10082,15345 10095,15346 10107,15350 10121,15351 10136,15350 10153,15342 10154,15331 10138,15331 10121,15330 10104,15327 10087,15326 10069,15326 10053,15327 10036,15330 10021,15336 10016,15332 10009,15330 10004,15327 9999,15325 9994,15321 9989,15316 9986,15311 9984,15302 9990,15282 10000,15268 10011,15258 10024,15250 10038,15247 10052,15244 10065,15242 10077,15238 10088,15235 10098,15234 10108,15233 10119,15233 10130,15233 10140,15233 10151,15232 10160,15230 10170,15229 10179,15225 10188,15220 10196,15214 10204,15205 10210,15194 10215,15181 10221,15165 10228,15118 10228,15134 10229,15151 10229,15167 10229,15183 10229,15200 10229,15216 10228,15233 10226,15248 10224,15264 10223,15280 10219,15295 10215,15310 10210,15325 10205,15337 10198,15351 10191,15364"/>
  <polygon points="8738,15073 8725,15074 8712,15075 8698,15076 8685,15078 8670,15078 8656,15079 8641,15079 8627,15080 8613,15080 8599,15080 8585,15080 8571,15079 8557,15079 8544,15079 8532,15078 8520,15076 8515,15070 8509,15065 8505,15062 8505,15061 8518,15060 8532,15059 8547,15058 8561,15056 8578,15056 8594,15055 8611,15055 8628,15054 8646,15054 8662,15054 8679,15052 8695,15052 8711,15052 8725,15052 8740,15052 8753,15052 8738,15073"/>
  <polygon points="8708,15100 8696,15107 8685,15113 8673,15118 8662,15122 8651,15126 8641,15127 8630,15128 8619,15129 8609,15128 8599,15127 8588,15126 8579,15122 8569,15118 8558,15114 8548,15109 8538,15103 8550,15103 8561,15103 8573,15103 8583,15102 8593,15102 8604,15102 8614,15102 8624,15102 8634,15102 8644,15102 8654,15102 8664,15102 8675,15100 8685,15100 8696,15100 8708,15100"/>
  <polygon points="8411,15195 8411,15248 8438,15248 8447,15247 8455,15243 8460,15234 8463,15221 8460,15209 8455,15200 8447,15196 8438,15195 8411,15195"/>
  <polygon points="8592,15195 8592,15244 8621,15244 8628,15242 8634,15236 8638,15228 8639,15218 8636,15205 8631,15199 8623,15196 8615,15195 8592,15195"/>
 </g>
 <g style="stroke:none;fill:rgb(0,0,0)">
  <path d="M 8348,15274 L 8347,15274 8346,15274 8343,15274 8340,15273 8340,15277 8340,15282 8340,15287 8340,15292 8340,15300 8340,15307 8340,15315 8340,15324 8340,15325 8339,15327 8339,15329 8338,15330 8338,15331 8337,15331 8335,15332 8334,15332 8333,15332 8332,15331 8331,15331 8330,15331 8329,15330 8329,15327 8328,15326 8328,15324 8328,15296 8328,15292 8328,15288 8328,15284 8329,15280 8329,15274 8329,15268 8329,15263 8329,15257 8329,15250 8330,15244 8330,15238 8330,15233 8331,15228 8331,15224 8331,15220 8331,15218 8331,15204 8331,15199 8332,15195 8332,15192 8332,15190 8333,15186 8334,15185 8336,15183 8338,15183 8339,15182 8340,15182 8342,15181 8344,15181 8346,15181 8348,15181 8351,15181 8354,15181 8360,15182 8365,15183 8371,15187 8376,15194 8381,15200 8385,15208 8387,15216 8388,15225 8387,15236 8385,15245 8381,15254 8375,15262 8372,15264 8370,15268 8366,15269 8363,15272 8360,15273 8356,15273 8353,15274 8348,15274 Z M 8353,15200 L 8351,15200 8349,15200 8348,15200 8346,15200 8346,15200 8345,15200 8344,15201 8343,15201 8343,15218 8341,15254 8348,15256 8354,15256 8360,15253 8364,15252 8367,15248 8371,15243 8374,15238 8375,15232 8376,15225 8375,15220 8374,15215 8371,15210 8368,15206 8364,15204 8360,15201 8356,15200 8352,15200 8353,15200 Z M 8452,15260 L 8451,15265 8450,15269 8448,15271 8445,15272 8443,15271 8442,15269 8440,15267 8440,15263 8440,15262 8440,15260 8440,15258 8440,15256 8440,15248 8435,15249 8430,15250 8426,15253 8423,15257 8419,15260 8417,15264 8414,15269 8412,15274 8412,15327 8411,15331 8410,15334 8409,15335 8406,15336 8404,15335 8402,15334 8401,15331 8400,15327 8400,15260 8400,15258 8400,15257 8400,15254 8400,15252 8400,15249 8400,15247 8400,15244 8400,15242 8401,15238 8402,15235 8404,15233 8406,15233 8409,15234 8411,15236 8412,15242 8413,15248 8417,15244 8419,15240 8423,15236 8426,15234 8430,15233 8434,15232 8437,15230 8441,15230 8443,15230 8446,15232 8448,15234 8449,15235 8450,15239 8451,15243 8452,15248 8452,15254 8452,15256 8452,15258 8451,15259 8451,15260 8452,15260 Z M 8489,15337 L 8484,15336 8479,15334 8475,15330 8470,15325 8467,15317 8465,15308 8463,15300 8462,15289 8462,15284 8463,15278 8463,15273 8464,15268 8465,15264 8466,15259 8467,15254 8469,15250 8474,15242 8480,15236 8486,15233 8494,15232 8501,15233 8506,15236 8510,15242 8514,15249 8516,15257 8518,15264 8519,15274 8520,15283 8519,15293 8517,15304 8515,15312 8512,15320 8507,15327 8502,15332 8496,15335 8489,15336 8489,15337 Z M 8494,15250 L 8489,15252 8485,15254 8481,15259 8478,15265 8476,15271 8476,15277 8475,15283 8475,15289 8475,15296 8476,15302 8477,15307 8479,15311 8481,15313 8484,15316 8487,15317 8489,15317 8493,15317 8496,15316 8499,15313 8502,15311 8504,15307 8506,15301 8507,15296 8508,15288 8508,15280 8507,15272 8506,15265 8504,15260 8503,15256 8500,15253 8497,15252 8493,15250 8494,15250 Z M 8566,15335 L 8561,15335 8556,15334 8552,15331 8547,15329 8547,15330 8545,15331 8544,15332 8542,15332 8542,15332 8540,15331 8539,15331 8538,15331 8537,15330 8537,15327 8536,15326 8536,15324 8536,15322 8536,15321 8536,15319 8536,15317 8536,15315 8537,15313 8537,15311 8537,15310 8537,15305 8537,15297 8536,15288 8536,15280 8536,15271 8536,15262 8536,15256 8536,15249 8536,15245 8536,15240 8536,15233 8536,15224 8536,15214 8536,15206 8536,15201 8536,15197 8536,15195 8537,15191 8537,15189 8537,15186 8539,15185 8541,15182 8542,15181 8543,15181 8546,15181 8547,15182 8548,15185 8548,15189 8548,15190 8548,15191 8548,15192 8548,15194 8548,15194 8548,15195 8548,15196 8548,15197 8548,15218 8548,15242 8551,15239 8553,15236 8556,15234 8559,15233 8561,15232 8563,15232 8566,15230 8569,15230 8575,15232 8581,15234 8586,15239 8591,15245 8595,15253 8598,15262 8599,15272 8600,15282 8599,15293 8597,15302 8594,15311 8590,15319 8585,15325 8579,15330 8573,15332 8566,15334 8566,15335 Z M 8569,15248 L 8566,15248 8563,15249 8560,15250 8557,15252 8555,15253 8553,15256 8551,15258 8548,15262 8547,15278 8547,15293 8548,15310 8549,15311 8551,15312 8553,15313 8556,15315 8558,15316 8561,15316 8563,15316 8566,15316 8570,15316 8575,15313 8578,15311 8581,15307 8584,15302 8586,15296 8586,15289 8587,15282 8587,15276 8586,15269 8585,15263 8582,15258 8580,15253 8576,15250 8572,15248 8569,15248 8569,15248 Z M 8632,15257 L 8631,15304 8631,15307 8631,15312 8630,15319 8630,15326 8629,15330 8628,15332 8626,15334 8624,15335 8621,15334 8619,15332 8618,15330 8617,15326 8617,15320 8618,15311 8618,15302 8618,15291 8619,15281 8619,15271 8619,15263 8619,15257 8619,15249 8619,15240 8619,15230 8619,15221 8619,15212 8619,15204 8619,15195 8619,15187 8619,15183 8621,15180 8623,15179 8625,15177 8628,15179 8631,15180 8632,15183 8632,15187 8632,15195 8632,15204 8632,15212 8632,15221 8632,15230 8632,15240 8632,15249 8632,15257 Z M 8682,15336 L 8675,15335 8669,15332 8663,15330 8657,15325 8653,15319 8651,15311 8649,15301 8648,15291 8648,15284 8649,15280 8649,15273 8650,15268 8652,15263 8652,15258 8654,15253 8656,15249 8661,15242 8667,15236 8673,15233 8680,15232 8685,15232 8690,15233 8694,15235 8698,15236 8702,15240 8704,15245 8706,15250 8707,15257 8706,15262 8704,15265 8703,15271 8699,15274 8697,15276 8694,15278 8690,15281 8685,15284 8660,15301 8662,15305 8664,15308 8666,15311 8669,15313 8672,15315 8675,15316 8679,15317 8682,15317 8684,15317 8686,15316 8689,15316 8692,15315 8696,15313 8699,15312 8701,15310 8703,15307 8704,15305 8704,15302 8706,15301 8707,15301 8708,15301 8710,15302 8711,15302 8712,15304 8712,15305 8712,15306 8713,15308 8713,15310 8712,15315 8711,15320 8706,15325 8701,15329 8696,15331 8691,15334 8686,15335 8682,15335 8682,15336 Z M 8681,15249 L 8677,15249 8673,15252 8670,15254 8667,15258 8664,15263 8663,15269 8661,15276 8659,15284 8679,15271 8685,15267 8690,15263 8693,15259 8696,15257 8693,15253 8690,15250 8685,15249 8680,15249 8681,15249 Z M 8808,15339 L 8806,15339 8804,15336 8802,15335 8801,15331 8800,15325 8800,15317 8800,15310 8799,15301 8797,15272 8797,15268 8796,15264 8796,15262 8795,15258 8795,15254 8793,15252 8792,15250 8790,15249 8789,15249 8787,15250 8784,15253 8782,15257 8779,15259 8776,15260 8775,15263 8774,15264 8774,15269 8774,15273 8774,15278 8774,15282 8775,15307 8776,15315 8776,15321 8776,15326 8776,15331 8776,15334 8776,15335 8776,15337 8775,15339 8775,15340 8773,15340 8772,15341 8770,15341 8768,15341 8767,15340 8766,15340 8765,15339 8765,15337 8765,15335 8764,15334 8764,15331 8764,15326 8763,15319 8763,15308 8762,15298 8762,15288 8762,15278 8761,15271 8761,15264 8761,15259 8760,15256 8760,15252 8759,15249 8756,15250 8754,15253 8751,15256 8749,15258 8742,15272 8741,15273 8740,15274 8739,15276 8738,15277 8738,15281 8738,15284 8737,15289 8737,15295 8737,15300 8737,15304 8736,15307 8736,15311 8736,15312 8737,15313 8737,15316 8737,15319 8737,15321 8737,15324 8737,15325 8737,15326 8737,15327 8737,15330 8736,15331 8736,15332 8735,15334 8734,15334 8732,15335 8731,15335 8728,15334 8725,15329 8724,15321 8723,15311 8723,15307 8724,15304 8724,15300 8724,15295 8725,15289 8725,15284 8725,15281 8725,15277 8725,15274 8725,15271 8725,15267 8724,15262 8724,15257 8724,15252 8723,15249 8723,15247 8724,15236 8725,15229 8728,15225 8730,15224 8732,15224 8733,15225 8735,15227 8736,15228 8736,15229 8737,15232 8737,15233 8737,15235 8737,15236 8737,15238 8737,15240 8737,15242 8737,15243 8737,15244 8737,15245 8737,15247 8737,15257 8739,15252 8741,15248 8744,15243 8747,15239 8751,15235 8753,15233 8756,15230 8758,15230 8763,15232 8767,15234 8770,15239 8772,15245 8774,15242 8776,15239 8778,15236 8781,15234 8784,15233 8787,15233 8789,15232 8793,15232 8798,15233 8801,15235 8805,15242 8807,15249 8807,15252 8808,15257 8808,15265 8809,15276 8810,15280 8811,15284 8811,15291 8812,15297 8813,15305 8814,15312 8814,15321 8815,15330 8815,15331 8814,15334 8814,15335 8813,15336 8812,15337 8810,15337 8809,15339 8807,15339 8808,15339 Z M 8879,15337 L 8879,15337 8878,15336 8876,15334 8875,15332 8873,15330 8872,15329 8872,15326 8871,15325 8867,15327 8865,15330 8862,15331 8860,15332 8857,15334 8855,15334 8853,15335 8851,15335 8844,15334 8838,15332 8833,15329 8828,15322 8826,15316 8824,15308 8823,15298 8822,15287 8822,15282 8823,15276 8824,15271 8825,15265 8827,15260 8828,15257 8830,15252 8833,15248 8835,15244 8839,15240 8842,15238 8845,15235 8848,15234 8852,15233 8856,15232 8860,15232 8862,15232 8866,15233 8868,15234 8872,15235 8876,15238 8879,15242 8880,15245 8881,15249 8881,15249 8880,15250 8880,15252 8879,15253 8879,15256 8879,15258 8879,15262 8879,15265 8879,15269 8879,15274 8879,15281 8879,15286 8879,15291 8879,15296 8879,15301 8879,15305 8879,15307 8880,15311 8882,15316 8884,15321 8884,15322 8885,15324 8885,15325 8886,15326 8886,15329 8886,15330 8885,15331 8885,15332 8884,15334 8883,15335 8882,15335 8880,15336 8879,15336 8879,15337 Z M 8866,15271 L 8866,15268 8866,15265 8866,15264 8866,15262 8866,15259 8866,15257 8866,15254 8866,15252 8866,15250 8865,15250 8864,15249 8863,15249 8862,15248 8861,15248 8861,15248 8860,15248 8855,15249 8851,15250 8847,15254 8842,15259 8839,15265 8837,15273 8835,15281 8835,15288 8835,15296 8836,15301 8837,15307 8839,15311 8841,15315 8844,15316 8847,15319 8850,15319 8854,15319 8856,15317 8859,15317 8861,15316 8862,15315 8864,15313 8866,15311 8867,15308 8867,15302 8866,15297 8866,15291 8866,15286 8866,15282 8866,15277 8866,15273 8866,15271 Z M 8941,15257 L 8939,15257 8938,15256 8937,15256 8937,15254 8936,15253 8936,15250 8935,15248 8935,15244 8932,15245 8929,15247 8925,15249 8919,15250 8915,15254 8911,15258 8910,15262 8909,15265 8910,15265 8910,15265 8911,15267 8912,15267 8919,15269 8927,15272 8932,15276 8935,15278 8940,15283 8943,15291 8945,15298 8946,15307 8945,15315 8943,15320 8941,15326 8937,15330 8932,15332 8928,15335 8923,15336 8918,15336 8913,15336 8909,15335 8905,15334 8901,15332 8897,15330 8894,15326 8893,15322 8892,15317 8892,15316 8893,15313 8893,15312 8894,15311 8894,15310 8895,15310 8897,15308 8898,15308 8899,15308 8900,15310 8901,15311 8903,15313 8904,15315 8905,15315 8907,15316 8910,15317 8911,15317 8914,15317 8916,15317 8918,15317 8920,15317 8923,15317 8925,15317 8927,15316 8930,15315 8932,15312 8933,15310 8933,15307 8932,15301 8930,15296 8927,15292 8920,15289 8914,15287 8910,15286 8906,15284 8904,15282 8901,15281 8899,15278 8898,15274 8897,15269 8896,15264 8897,15256 8899,15248 8903,15240 8909,15235 8910,15234 8914,15233 8917,15232 8921,15230 8925,15229 8929,15227 8932,15225 8934,15224 8936,15223 8937,15223 8938,15221 8939,15221 8940,15221 8942,15223 8943,15224 8943,15225 8944,15227 8945,15228 8946,15230 8946,15232 8946,15233 8946,15234 8946,15236 8947,15239 8947,15242 8948,15244 8948,15247 8948,15248 8948,15249 8947,15250 8947,15253 8946,15254 8945,15256 8943,15256 8943,15257 8941,15257 Z"/>
  <path d="M 10625,15288 L 10625,15287 10626,15284 10626,15283 10627,15282 10627,15281 10629,15280 10630,15280 10632,15280 10633,15280 10634,15281 10636,15282 10637,15284 10638,15288 10640,15291 10641,15293 10643,15295 10645,15297 10650,15298 10654,15300 10660,15300 10664,15300 10669,15298 10673,15296 10677,15293 10683,15288 10686,15283 10688,15277 10689,15271 10688,15265 10687,15260 10684,15256 10679,15252 10676,15249 10671,15247 10666,15245 10660,15245 10655,15244 10651,15243 10646,15242 10643,15239 10638,15234 10636,15229 10634,15223 10633,15216 10634,15208 10637,15200 10641,15192 10646,15185 10650,15182 10653,15179 10656,15176 10660,15175 10663,15173 10666,15172 10669,15171 10672,15171 10676,15171 10679,15172 10684,15173 10687,15175 10692,15177 10696,15180 10698,15182 10699,15185 10698,15189 10697,15190 10695,15192 10692,15192 10691,15192 10689,15191 10686,15191 10683,15190 10679,15190 10677,15189 10674,15189 10672,15189 10668,15189 10664,15190 10660,15192 10655,15196 10652,15200 10650,15205 10649,15210 10648,15215 10649,15219 10651,15221 10653,15224 10658,15227 10660,15228 10664,15228 10667,15229 10671,15229 10678,15230 10684,15233 10690,15236 10695,15243 10699,15248 10701,15254 10702,15262 10703,15269 10702,15281 10699,15289 10695,15298 10688,15306 10684,15308 10682,15311 10678,15312 10675,15315 10671,15316 10667,15316 10663,15317 10660,15317 10653,15317 10647,15316 10642,15313 10637,15311 10632,15306 10628,15301 10626,15295 10625,15288 Z M 10743,15319 L 10737,15317 10732,15315 10728,15311 10724,15306 10720,15298 10717,15289 10716,15281 10715,15271 10715,15265 10715,15259 10716,15254 10716,15249 10717,15245 10718,15240 10720,15235 10722,15232 10727,15223 10733,15218 10739,15214 10747,15212 10753,15214 10758,15218 10764,15223 10767,15230 10770,15238 10771,15245 10772,15256 10772,15264 10771,15274 10770,15284 10768,15293 10765,15301 10760,15308 10755,15313 10748,15316 10743,15317 10743,15319 Z M 10747,15232 L 10742,15233 10738,15235 10734,15240 10732,15247 10730,15252 10728,15258 10727,15264 10727,15271 10727,15277 10729,15283 10730,15288 10732,15292 10734,15295 10737,15297 10739,15298 10743,15298 10746,15298 10748,15297 10752,15295 10755,15292 10757,15288 10759,15282 10760,15277 10761,15269 10761,15260 10760,15253 10759,15247 10757,15242 10755,15236 10752,15234 10749,15233 10746,15232 10747,15232 Z M 10805,15238 L 10804,15284 10804,15288 10804,15293 10803,15300 10803,15307 10803,15311 10802,15313 10800,15315 10797,15316 10795,15315 10792,15313 10791,15311 10790,15307 10790,15301 10791,15292 10791,15283 10791,15272 10792,15262 10792,15252 10792,15244 10792,15238 10792,15230 10793,15221 10793,15211 10793,15203 10793,15194 10793,15185 10793,15176 10793,15168 10793,15165 10795,15161 10796,15159 10799,15158 10802,15159 10804,15161 10805,15165 10806,15168 10806,15176 10806,15185 10805,15194 10805,15203 10805,15211 10805,15221 10805,15230 10805,15238 Z M 10879,15257 L 10879,15260 10879,15265 10879,15271 10879,15277 10879,15283 10879,15289 10879,15295 10879,15298 10879,15300 10879,15301 10879,15302 10879,15304 10879,15306 10879,15308 10879,15310 10879,15311 10879,15312 10878,15315 10878,15316 10877,15317 10876,15319 10875,15319 10874,15320 10872,15320 10869,15319 10867,15317 10867,15315 10866,15311 10861,15312 10857,15315 10852,15316 10847,15316 10843,15316 10839,15315 10835,15313 10833,15311 10830,15307 10827,15304 10827,15298 10826,15293 10825,15287 10825,15281 10824,15276 10824,15269 10823,15264 10823,15258 10823,15253 10823,15248 10823,15242 10824,15234 10824,15227 10825,15219 10826,15215 10827,15212 10828,15210 10831,15210 10832,15210 10834,15211 10835,15211 10835,15212 10836,15214 10837,15215 10838,15218 10838,15219 10838,15221 10838,15225 10837,15229 10837,15233 10836,15238 10836,15242 10836,15245 10836,15248 10836,15256 10836,15263 10836,15269 10836,15274 10837,15280 10837,15284 10838,15289 10838,15293 10839,15295 10841,15295 10842,15296 10842,15296 10843,15296 10845,15296 10846,15296 10847,15296 10851,15296 10856,15296 10861,15295 10866,15293 10866,15273 10866,15256 10866,15245 10866,15236 10866,15228 10867,15220 10867,15216 10868,15214 10870,15211 10873,15211 10874,15211 10875,15212 10876,15212 10877,15214 10878,15215 10879,15216 10880,15219 10880,15220 10879,15257 Z M 10924,15319 L 10919,15317 10913,15315 10907,15311 10902,15306 10898,15300 10895,15291 10893,15283 10892,15273 10892,15268 10893,15263 10893,15258 10894,15253 10896,15248 10897,15243 10899,15238 10901,15233 10907,15223 10912,15215 10917,15211 10923,15210 10926,15210 10930,15211 10934,15212 10938,15215 10942,15218 10945,15220 10946,15224 10947,15228 10947,15229 10946,15232 10946,15233 10946,15234 10945,15235 10944,15235 10943,15236 10942,15236 10941,15236 10940,15236 10939,15236 10938,15235 10938,15234 10938,15233 10937,15233 10936,15232 10933,15230 10930,15229 10927,15228 10923,15228 10920,15229 10917,15233 10913,15238 10911,15245 10908,15253 10907,15260 10905,15267 10905,15273 10905,15278 10907,15284 10908,15289 10911,15293 10913,15296 10917,15298 10920,15300 10924,15300 10926,15300 10929,15298 10930,15298 10932,15297 10940,15291 10941,15289 10942,15289 10943,15289 10943,15289 10944,15289 10946,15291 10946,15291 10947,15292 10948,15293 10948,15295 10949,15297 10949,15298 10948,15302 10946,15306 10943,15310 10938,15312 10935,15315 10930,15316 10927,15317 10924,15317 10924,15319 Z M 10976,15190 L 10974,15190 10972,15189 10971,15189 10970,15187 10970,15185 10969,15183 10968,15181 10968,15179 10968,15176 10969,15175 10969,15172 10970,15171 10971,15170 10972,15168 10974,15167 10976,15167 10978,15167 10978,15168 10980,15170 10981,15171 10982,15172 10983,15175 10983,15176 10983,15179 10983,15181 10983,15183 10982,15185 10981,15186 10980,15187 10978,15189 10978,15190 10976,15190 Z M 10979,15268 L 10979,15272 10979,15276 10979,15280 10979,15284 10979,15289 10979,15295 10979,15298 10979,15302 10979,15304 10978,15306 10978,15307 10978,15308 10977,15310 10975,15311 10974,15312 10972,15312 10971,15312 10970,15311 10969,15311 10968,15310 10967,15307 10967,15306 10966,15304 10966,15302 10966,15298 10966,15295 10966,15291 10966,15286 10966,15281 10966,15276 10966,15272 10966,15268 10966,15263 10966,15258 10966,15252 10966,15245 10966,15239 10967,15233 10967,15228 10967,15223 10967,15221 10968,15219 10968,15218 10969,15216 10970,15215 10970,15215 10972,15214 10973,15214 10975,15214 10976,15215 10978,15215 10978,15216 10978,15218 10979,15219 10980,15221 10980,15223 10980,15228 10980,15233 10979,15239 10979,15245 10979,15252 10979,15258 10979,15263 10979,15268 10979,15268 Z M 11025,15319 L 11020,15317 11015,15315 11010,15311 11006,15306 11002,15298 11000,15289 10998,15281 10997,15271 10997,15265 10997,15259 10998,15254 10999,15249 11000,15245 11001,15240 11002,15235 11004,15232 11010,15223 11016,15218 11022,15214 11029,15212 11035,15214 11041,15218 11046,15223 11050,15230 11052,15238 11054,15245 11055,15256 11055,15264 11054,15274 11053,15284 11050,15293 11048,15301 11042,15308 11037,15313 11031,15316 11025,15317 11025,15319 Z M 11029,15232 L 11024,15233 11021,15235 11017,15240 11014,15247 11012,15252 11011,15258 11010,15264 11010,15271 11010,15277 11011,15283 11013,15288 11015,15292 11018,15295 11020,15297 11023,15298 11025,15298 11029,15298 11031,15297 11034,15295 11037,15292 11040,15288 11042,15282 11042,15277 11043,15269 11043,15260 11042,15253 11042,15247 11040,15242 11037,15236 11034,15234 11032,15233 11029,15232 11029,15232 Z M 11121,15320 L 11118,15319 11116,15317 11114,15313 11114,15310 11113,15288 11112,15283 11112,15278 11112,15273 11112,15268 11112,15267 11112,15264 11112,15262 11112,15259 11112,15257 11112,15254 11112,15252 11112,15249 11112,15240 11111,15234 11109,15230 11106,15229 11103,15230 11100,15232 11096,15235 11093,15242 11090,15248 11088,15254 11085,15262 11083,15271 11083,15273 11083,15276 11083,15278 11082,15281 11082,15283 11082,15284 11082,15287 11082,15289 11082,15291 11082,15293 11082,15296 11082,15298 11082,15301 11083,15304 11083,15305 11083,15307 11083,15308 11082,15311 11082,15312 11081,15313 11081,15315 11080,15315 11078,15316 11077,15316 11075,15316 11074,15315 11073,15315 11072,15313 11072,15312 11072,15311 11071,15308 11071,15307 11071,15305 11071,15304 11070,15301 11070,15298 11070,15296 11070,15293 11070,15292 11070,15289 11070,15284 11070,15278 11070,15271 11071,15263 11071,15254 11072,15247 11072,15240 11072,15235 11072,15233 11072,15232 11071,15229 11071,15227 11071,15224 11071,15221 11071,15219 11071,15216 11071,15215 11072,15212 11072,15211 11073,15210 11073,15209 11075,15209 11076,15208 11077,15208 11080,15209 11082,15211 11083,15215 11084,15220 11084,15232 11090,15221 11095,15215 11101,15211 11106,15210 11112,15211 11115,15214 11119,15218 11121,15223 11122,15228 11124,15234 11125,15242 11125,15250 11125,15259 11124,15269 11124,15273 11125,15277 11125,15283 11126,15288 11127,15295 11127,15301 11128,15306 11128,15310 11128,15311 11127,15313 11126,15315 11125,15316 11124,15317 11123,15317 11121,15319 11121,15319 11121,15320 Z M 11172,15317 L 11165,15316 11158,15313 11153,15311 11147,15306 11143,15300 11140,15292 11139,15282 11138,15272 11138,15265 11139,15260 11139,15254 11139,15249 11141,15244 11142,15240 11144,15235 11145,15232 11151,15223 11157,15218 11163,15214 11170,15212 11175,15212 11179,15214 11184,15216 11187,15218 11192,15221 11194,15227 11195,15232 11196,15238 11195,15243 11194,15247 11192,15252 11188,15256 11186,15257 11184,15259 11179,15262 11174,15265 11149,15282 11151,15286 11153,15289 11156,15292 11159,15295 11161,15296 11165,15297 11168,15298 11172,15298 11173,15298 11176,15297 11178,15297 11182,15296 11185,15295 11188,15293 11190,15291 11192,15288 11193,15286 11194,15283 11196,15282 11197,15282 11198,15282 11199,15283 11199,15283 11200,15284 11201,15286 11202,15287 11203,15289 11203,15291 11202,15296 11199,15301 11196,15306 11191,15310 11185,15312 11181,15315 11176,15316 11172,15316 11172,15317 Z M 11170,15230 L 11166,15230 11162,15233 11159,15235 11156,15239 11154,15244 11152,15250 11150,15257 11149,15265 11169,15252 11174,15248 11179,15244 11183,15240 11185,15238 11183,15234 11179,15232 11175,15230 11170,15230 11170,15230 Z M 11258,15238 L 11256,15238 11255,15236 11254,15236 11253,15235 11252,15234 11252,15232 11251,15229 11251,15225 11249,15227 11245,15228 11241,15230 11237,15232 11232,15235 11229,15239 11227,15243 11226,15247 11227,15247 11228,15247 11229,15248 11230,15248 11237,15250 11243,15253 11248,15257 11252,15259 11256,15264 11260,15272 11262,15280 11263,15288 11262,15296 11261,15301 11258,15307 11254,15311 11249,15313 11245,15316 11240,15317 11234,15317 11230,15317 11226,15316 11222,15315 11217,15313 11213,15311 11210,15307 11209,15304 11208,15298 11208,15297 11209,15295 11210,15293 11210,15292 11211,15291 11212,15291 11214,15289 11215,15289 11216,15289 11216,15291 11218,15292 11220,15295 11221,15296 11223,15296 11224,15297 11227,15298 11229,15298 11231,15298 11232,15298 11234,15298 11237,15298 11239,15298 11242,15298 11243,15297 11246,15296 11248,15293 11249,15291 11249,15288 11249,15282 11246,15277 11243,15273 11238,15271 11231,15268 11227,15267 11224,15265 11221,15263 11218,15262 11216,15259 11215,15256 11213,15250 11213,15245 11214,15236 11216,15229 11220,15221 11226,15216 11228,15215 11231,15214 11234,15212 11238,15211 11242,15210 11246,15208 11249,15206 11250,15205 11252,15204 11254,15204 11255,15203 11256,15203 11257,15203 11259,15204 11260,15205 11261,15206 11262,15208 11262,15209 11263,15211 11263,15212 11263,15214 11264,15215 11264,15218 11264,15220 11264,15223 11264,15225 11264,15228 11264,15229 11264,15230 11264,15233 11264,15234 11263,15235 11262,15236 11261,15236 11259,15238 11258,15238 Z"/>
 </g>
</svg>