<?xml version="1.0" encoding="UTF-8"?>
<!DOCTYPE svg PUBLIC "-//W3C//DTD SVG 1.0//EN" "http://www.w3.org/TR/2001/REC-SVG-20010904/DTD/svg10.dtd">
<svg width="197mm" height="284mm" viewBox="0 0 19700 28400">
 <g style="stroke:none;fill:rgb(255,255,255)">
  <rect x="8149" y="12938" width="3362" height="2515"/>
  <rect x="8149" y="12938" width="3362" height="2515"/>
 </g>
 <g style="stroke:none;fill:rgb(0,0,0)">
  <polygon points="10249,13039 10254,13043 10259,13047 10264,13052 10268,13057 10273,13063 10277,13069 10280,13077 10283,13082 10285,13092 10289,13102 10293,13110 10298,13119 10302,13128 10307,13137 10310,13145 10312,13156 10308,13157 10303,13159 10299,13160 10295,13157 10292,13152 10290,13147 10288,13141 10287,13135 10287,13129 10285,13122 10283,13117 10280,13112 10272,13101 10264,13089 10256,13077 10247,13066 10239,13055 10231,13044 10221,13035 10212,13025 10201,13016 10191,13009 10180,13002 10167,12995 10155,12991 10141,12987 10127,12986 10111,12986 10105,12987 10098,12987 10091,12986 10085,12986 10079,12986 10073,12987 10068,12988 10062,12992 10077,12998 10091,13005 10104,13012 10118,13020 10131,13028 10144,13037 10156,13047 10167,13056 10179,13067 10191,13078 10202,13088 10212,13100 10223,13112 10233,13124 10243,13137 10253,13149 10256,13156 10260,13164 10264,13172 10269,13180 10274,13188 10276,13196 10278,13204 10277,13213 10269,13210 10264,13205 10258,13199 10253,13192 10249,13185 10245,13178 10240,13171 10234,13166 10225,13157 10216,13149 10208,13140 10198,13131 10189,13122 10181,13115 10173,13107 10164,13099 10155,13092 10146,13085 10137,13078 10127,13072 10117,13067 10107,13062 10095,13057 10083,13054 10087,13061 10091,13070 10096,13080 10100,13089 10105,13099 10112,13106 10120,13112 10130,13114 10131,13122 10128,13125 10122,13126 10116,13129 10113,13142 10114,13154 10118,13164 10123,13174 10129,13183 10135,13194 10141,13204 10144,13216 10105,13233 10113,13241 10124,13247 10136,13251 10149,13256 10162,13259 10174,13264 10186,13269 10196,13276 10201,13283 10207,13289 10212,13294 10218,13300 10223,13307 10226,13314 10230,13322 10232,13332 10231,13344 10227,13356 10222,13367 10216,13378 10208,13388 10199,13397 10189,13404 10178,13411 10184,13423 10189,13435 10193,13448 10197,13461 10201,13474 10204,13486 10207,13499 10210,13512 10214,13515 10219,13520 10222,13524 10224,13531 10226,13536 10227,13543 10226,13549 10224,13555 10214,13562 10203,13565 10191,13567 10178,13569 10167,13572 10157,13576 10149,13585 10144,13599 10142,13603 10141,13607 10138,13613 10136,13618 10135,13623 10133,13628 10131,13633 10130,13639 10137,13638 10145,13637 10152,13636 10160,13636 10167,13636 10175,13637 10182,13640 10189,13642 10196,13651 10200,13660 10201,13672 10203,13683 10203,13695 10203,13706 10203,13716 10204,13726 10198,13732 10210,13746 10223,13759 10236,13771 10250,13781 10264,13791 10277,13801 10291,13809 10306,13816 10307,13821 10309,13827 10312,13833 10314,13839 10316,13846 10318,13853 10318,13860 10317,13866 10329,13864 10341,13862 10352,13859 10363,13856 10374,13852 10385,13847 10396,13843 10407,13837 10397,13832 10385,13828 10373,13824 10359,13821 10346,13817 10334,13812 10322,13807 10312,13799 10318,13768 10324,13738 10329,13708 10334,13676 10339,13645 10343,13614 10346,13581 10350,13550 10353,13518 10355,13485 10357,13452 10358,13419 10358,13387 10358,13354 10356,13321 10354,13288 10374,13283 10395,13292 10419,13301 10445,13309 10470,13315 10496,13319 10524,13322 10551,13324 10578,13324 10604,13322 10631,13318 10656,13312 10682,13305 10706,13296 10729,13285 10750,13272 10769,13257 10780,13257 10778,13267 10776,13277 10775,13287 10773,13298 10772,13308 10771,13318 10769,13329 10768,13338 10768,13349 10767,13358 10766,13369 10765,13378 10765,13388 10763,13397 10762,13407 10761,13417 10765,13421 10770,13424 10776,13426 10781,13427 10787,13430 10791,13432 10795,13436 10798,13442 10798,13445 10798,13449 10798,13452 10797,13456 10795,13460 10794,13462 10792,13465 10791,13468 10798,13472 10803,13478 10807,13484 10809,13492 10804,13496 10803,13501 10804,13505 10806,13510 10809,13514 10810,13520 10812,13524 10812,13529 10812,13536 10810,13542 10808,13549 10805,13555 10802,13560 10801,13566 10802,13572 10806,13576 10806,13583 10806,13591 10806,13598 10805,13605 10803,13612 10801,13618 10798,13623 10794,13628 10757,13636 10755,13828 10741,13835 10726,13840 10711,13844 10696,13847 10679,13850 10664,13852 10648,13853 10633,13853 10617,13853 10601,13852 10585,13850 10570,13849 10553,13847 10537,13846 10522,13844 10507,13842 10496,13847 10487,13854 10478,13859 10468,13865 10458,13870 10449,13875 10440,13881 10430,13887 10421,13892 10411,13897 10402,13903 10392,13907 10383,13913 10374,13917 10363,13922 10354,13927 10309,13947 10323,13965 10336,13983 10350,14001 10363,14021 10375,14040 10388,14059 10401,14078 10414,14097 10425,14117 10438,14136 10451,14156 10462,14175 10474,14195 10487,14215 10499,14234 10512,14253 10517,14262 10521,14273 10525,14283 10527,14294 10529,14306 10529,14316 10527,14327 10524,14336 10743,14340 10749,14335 10747,14328 10742,14323 10741,14317 10742,14302 10742,14287 10742,14273 10742,14258 10742,14244 10741,14230 10741,14216 10742,14202 10742,14187 10743,14173 10744,14160 10746,14147 10749,14134 10754,14121 10757,14108 10764,14095 10767,14095 10771,14095 10776,14095 10780,14094 10782,14092 10785,14090 10786,14087 10786,14083 10782,14068 10777,14054 10771,14039 10765,14025 10758,14011 10753,13997 10747,13982 10743,13968 10739,13961 10735,13953 10731,13944 10728,13936 10727,13928 10727,13919 10730,13911 10735,13903 10739,13900 10743,13898 10747,13897 10751,13898 10755,13899 10759,13900 10763,13902 10766,13903 10775,13911 10781,13920 10787,13929 10792,13940 10798,13951 10801,13963 10805,13974 10809,13986 10811,13998 10814,14010 10818,14023 10822,14035 10825,14047 10831,14058 10836,14069 10842,14080 10842,14064 10841,14050 10839,14034 10836,14019 10832,14003 10828,13989 10824,13974 10820,13958 10816,13943 10813,13928 10810,13913 10809,13898 10808,13882 10809,13868 10810,13852 10814,13837 10817,13835 10820,13832 10824,13831 10828,13830 10832,13831 10836,13831 10840,13833 10842,13834 10848,13846 10855,13858 10861,13869 10867,13880 10872,13891 10875,13903 10878,13915 10879,13929 10891,13964 10896,13956 10898,13946 10900,13937 10902,13929 10903,13920 10904,13911 10906,13903 10907,13894 10908,13885 10910,13876 10911,13868 10912,13859 10913,13849 10913,13841 10913,13832 10913,13822 10913,13813 10918,13809 10924,13803 10929,13796 10933,13789 10938,13783 10944,13779 10951,13778 10961,13781 10963,13797 10965,13813 10965,13828 10964,13844 10962,13860 10960,13876 10957,13892 10954,13908 10951,13925 10948,13941 10944,13957 10941,13974 10940,13990 10938,14007 10938,14023 10939,14040 10945,14030 10951,14019 10956,14008 10961,13997 10965,13985 10970,13974 10974,13963 10978,13950 10982,13939 10986,13927 10991,13915 10995,13904 11000,13893 11006,13881 11011,13870 11018,13860 11023,13857 11028,13856 11033,13857 11037,13859 11041,13862 11043,13867 11045,13872 11046,13877 11048,13888 11048,13900 11047,13910 11045,13920 11041,13929 11037,13938 11032,13948 11026,13956 11021,13965 11015,13974 11010,13982 11004,13991 11000,14001 10996,14009 10993,14020 10992,14030 10987,14037 10984,14043 10980,14050 10976,14057 10974,14063 10971,14070 10970,14078 10970,14086 10987,14095 10987,14108 10986,14122 10986,14136 10986,14151 10986,14167 10987,14183 10987,14200 10987,14215 10987,14231 10987,14247 10986,14262 10986,14278 10985,14294 10985,14309 10983,14322 10981,14336 11017,14336 11056,14336 11096,14335 11138,14335 11181,14334 11224,14333 11266,14331 11307,14330 11345,14328 11381,14328 11413,14326 11441,14325 11463,14324 11482,14323 11493,14322 11496,14322 11495,14337 11496,14352 11497,14368 11499,14382 11500,14397 11499,14412 11497,14427 11493,14442 11444,14448 11442,14479 11441,14510 11440,14541 11439,14572 11438,14603 11437,14635 11437,14666 11436,14697 11435,14728 11434,14759 11433,14791 11433,14822 11432,14853 11431,14884 11431,14915 11430,14946 11430,14977 11430,15008 11430,15039 11429,15070 11429,15101 11428,15132 11428,15163 11427,15194 11426,15224 11426,15255 11426,15286 11425,15316 11424,15348 11423,15378 11422,15409 11421,15439 11413,15441 11403,15442 11392,15443 11380,15443 11367,15444 11354,15444 11341,15444 11329,15444 11317,15443 11306,15443 11296,15443 11287,15443 11279,15443 11274,15442 11269,15442 11269,15442 11269,15429 11270,15417 11271,15404 11272,15391 11273,15379 11273,15366 11271,15353 11269,15341 11245,15338 11215,15335 11182,15334 11144,15331 11102,15330 11059,15328 11010,15326 10959,15325 10907,15323 10851,15323 10794,15322 10735,15321 10675,15320 10614,15319 10552,15319 10491,15318 10429,15318 10367,15318 10306,15317 10246,15317 10186,15317 10129,15317 10073,15317 10019,15317 9968,15317 9919,15317 9874,15318 9830,15318 9791,15318 9756,15318 9726,15318 9700,15318 9697,15328 9694,15337 9692,15347 9690,15357 9689,15367 9688,15377 9688,15389 9688,15399 9678,15402 9666,15404 9655,15406 9643,15408 9630,15409 9617,15410 9604,15411 9591,15411 9578,15411 9565,15411 9553,15409 9541,15408 9529,15406 9518,15403 9508,15400 9497,15395 9497,15394 9497,15389 9497,15380 9497,15368 9497,15354 9497,15336 9497,15317 9496,15295 9496,15270 9496,15243 9495,15215 9495,15185 9495,15153 9494,15120 9494,15085 9493,15049 9493,15013 9492,14976 9492,14938 9492,14899 9492,14861 9492,14823 9492,14785 9491,14746 9491,14708 9491,14671 9491,14635 9491,14599 9491,14565 9491,14532 9491,14500 9491,14470 9486,14467 9477,14464 9466,14463 9453,14461 9441,14460 9430,14459 9423,14459 9420,14459 9422,14443 9423,14426 9423,14410 9424,14393 9425,14376 9427,14361 9430,14346 9437,14332 9630,14336 9632,14215 9631,14215 9626,14215 9620,14215 9610,14215 9599,14215 9587,14214 9574,14213 9559,14211 9545,14208 9530,14206 9515,14203 9501,14199 9488,14194 9475,14187 9465,14181 9457,14173 9453,14162 9451,14150 9448,14137 9447,14125 9446,14112 9445,14100 9446,14087 9447,14075 9448,14062 9452,14050 9455,14038 9460,14027 9465,14016 9472,14006 9480,13996 9488,13987 9497,13980 9509,13974 9520,13968 9531,13965 9543,13962 9556,13959 9569,13956 9583,13955 9596,13954 9610,13952 9623,13951 9636,13950 9648,13949 9660,13948 9671,13946 9682,13943 9675,13929 9667,13915 9660,13899 9653,13884 9646,13869 9639,13853 9632,13837 9627,13821 9621,13804 9617,13787 9613,13771 9611,13754 9610,13737 9610,13720 9610,13703 9612,13686 9619,13676 9622,13664 9624,13652 9626,13639 9629,13627 9634,13618 9643,13611 9658,13607 9657,13602 9656,13598 9654,13593 9652,13590 9649,13587 9647,13582 9647,13578 9646,13573 9649,13558 9654,13546 9658,13532 9662,13519 9666,13505 9668,13491 9668,13476 9666,13460 9672,13454 9663,13445 9652,13437 9641,13427 9630,13418 9621,13407 9613,13395 9610,13380 9610,13364 9609,13358 9611,13353 9612,13348 9610,13344 9598,13352 9589,13363 9580,13374 9572,13386 9565,13399 9557,13411 9551,13424 9545,13436 9545,13444 9542,13448 9537,13452 9535,13457 9531,13457 9532,13445 9535,13433 9539,13422 9544,13411 9549,13401 9554,13391 9559,13380 9564,13370 9567,13362 9570,13354 9574,13346 9576,13338 9580,13331 9583,13324 9587,13316 9591,13309 9581,13313 9571,13320 9561,13329 9552,13338 9543,13349 9535,13359 9526,13369 9519,13378 9515,13384 9511,13392 9506,13397 9497,13396 9504,13382 9513,13368 9520,13353 9528,13339 9535,13325 9544,13310 9552,13297 9560,13282 9568,13268 9578,13254 9587,13239 9598,13226 9608,13212 9619,13198 9631,13185 9643,13172 9627,13176 9611,13180 9595,13186 9579,13193 9562,13200 9546,13207 9531,13215 9516,13222 9503,13233 9500,13231 9497,13230 9496,13228 9497,13224 9497,13216 9507,13205 9517,13196 9528,13186 9540,13177 9552,13170 9565,13162 9577,13154 9590,13147 9602,13140 9616,13133 9630,13127 9643,13121 9657,13115 9670,13109 9683,13103 9697,13097 9687,13096 9677,13096 9666,13096 9656,13097 9646,13099 9636,13101 9625,13102 9615,13103 9615,13085 9739,13065 9736,13059 9731,13054 9726,13049 9721,13044 9718,13040 9715,13035 9715,13030 9719,13025 9727,13028 9736,13033 9745,13037 9753,13042 9763,13045 9773,13048 9783,13049 9793,13050 9811,13048 9828,13043 9846,13037 9863,13030 9879,13021 9895,13012 9910,13002 9925,12992 9941,12983 9957,12973 9973,12963 9990,12955 10006,12949 10025,12943 10043,12940 10062,12938 10077,12940 10091,12942 10104,12945 10118,12948 10130,12952 10143,12956 10156,12961 10167,12968 10179,12975 10190,12982 10201,12989 10212,12998 10222,13007 10232,13017 10241,13028 10249,13039"/>
 </g>
 <g style="stroke:none;fill:rgb(76,76,76)">
  <polygon points="10134,12969 10119,12968 10104,12967 10090,12967 10074,12967 10060,12968 10047,12972 10033,12975 10020,12982 10023,12994 10029,13001 10038,13005 10048,13008 10059,13009 10070,13012 10080,13017 10088,13025 10103,13031 10118,13039 10133,13047 10146,13055 10160,13066 10172,13077 10183,13089 10192,13103 10188,13096 10183,13090 10177,13084 10169,13078 10162,13073 10153,13068 10144,13062 10134,13057 10124,13052 10114,13047 10104,13043 10093,13037 10083,13033 10074,13028 10064,13023 10055,13019 10047,13017 10038,13016 10029,13015 10021,13014 10013,13014 10003,13013 9995,13013 9985,13012 9976,13013 9968,13013 9958,13014 9949,13014 9940,13015 9931,13016 9923,13017 9913,13019 9925,13011 9937,13003 9949,12995 9962,12988 9975,12982 9989,12975 10003,12969 10017,12964 10031,12961 10046,12958 10060,12956 10075,12955 10090,12956 10104,12959 10119,12963 10134,12969"/>
 </g>
 <g style="stroke:none;fill:rgb(217,217,217)">
  <polygon points="10085,13088 10080,13088 10074,13089 10069,13093 10063,13098 10059,13103 10055,13109 10051,13115 10049,13120 10048,13130 10047,13139 10044,13148 10040,13156 10038,13166 10036,13175 10036,13185 10037,13196 10034,13190 10029,13185 10025,13180 10019,13175 10014,13171 10007,13167 10002,13165 9995,13163 9987,13165 9980,13167 9973,13171 9966,13175 9960,13180 9954,13185 9949,13192 9944,13199 9940,13212 9939,13225 9938,13239 9939,13253 9940,13267 9944,13280 9949,13292 9956,13303 9961,13303 9954,13307 9946,13310 9937,13312 9928,13313 9920,13316 9914,13320 9911,13327 9910,13337 9924,13334 9938,13331 9953,13325 9968,13320 9981,13313 9995,13306 10008,13298 10020,13288 10015,13299 10009,13310 10001,13320 9992,13329 9984,13337 9975,13347 9968,13357 9961,13367 9967,13373 9979,13362 9990,13349 10002,13336 10012,13324 10023,13310 10032,13298 10040,13284 10049,13271 10045,13264 10043,13257 10043,13250 10044,13243 10046,13236 10046,13228 10046,13221 10043,13213 10046,13221 10049,13227 10053,13232 10058,13238 10063,13241 10070,13243 10077,13244 10085,13244 10102,13253 10120,13260 10139,13267 10157,13274 10175,13282 10190,13293 10204,13307 10215,13326 10214,13338 10212,13350 10208,13360 10202,13369 10195,13377 10187,13384 10178,13390 10167,13396 10159,13397 10152,13398 10144,13399 10136,13399 10129,13398 10122,13397 10114,13394 10107,13390 10104,13386 10101,13382 10097,13378 10094,13373 10091,13368 10091,13363 10091,13358 10094,13352 10107,13334 10102,13328 10096,13325 10090,13326 10084,13329 10078,13333 10072,13337 10065,13341 10059,13344 10045,13357 10030,13370 10017,13385 10004,13400 9992,13415 9980,13430 9969,13446 9958,13463 9949,13480 9940,13498 9933,13516 9926,13535 9920,13554 9916,13574 9913,13595 9910,13616 9914,13612 9918,13606 9923,13601 9926,13594 9928,13587 9931,13580 9932,13572 9932,13564 9938,13549 9945,13535 9951,13520 9958,13505 9966,13490 9973,13475 9982,13461 9991,13446 10000,13432 10010,13419 10020,13406 10030,13395 10042,13384 10054,13373 10066,13364 10080,13355 10077,13366 10076,13377 10078,13386 10081,13394 10086,13402 10093,13409 10102,13414 10111,13419 10121,13423 10132,13425 10143,13424 10155,13423 10165,13425 10174,13429 10179,13438 10182,13454 10180,13460 10181,13464 10182,13469 10185,13473 10186,13478 10188,13482 10189,13486 10189,13492 10178,13494 10167,13496 10156,13498 10145,13499 10135,13502 10124,13505 10114,13511 10105,13518 10092,13522 10080,13527 10070,13533 10059,13541 10049,13550 10040,13559 10030,13570 10023,13580 10015,13592 10009,13604 10003,13616 9997,13629 9993,13641 9990,13654 9986,13667 9984,13680 9985,13682 9989,13683 9992,13682 9995,13682 9999,13665 10004,13648 10011,13633 10018,13619 10026,13605 10036,13592 10046,13580 10057,13570 10069,13559 10081,13551 10094,13543 10108,13535 10124,13529 10139,13523 10156,13519 10173,13514 10178,13515 10185,13517 10190,13519 10197,13520 10201,13524 10206,13527 10209,13532 10212,13538 10207,13546 10199,13550 10190,13552 10180,13552 10170,13551 10160,13549 10151,13547 10142,13547 10140,13554 10137,13560 10137,13566 10142,13573 10135,13581 10130,13592 10125,13602 10121,13614 10118,13625 10114,13636 10111,13647 10107,13659 10104,13670 10100,13681 10095,13691 10089,13700 10082,13708 10074,13715 10063,13721 10051,13726 10036,13729 10020,13732 10004,13734 9988,13735 9971,13736 9954,13737 9937,13736 9920,13734 9903,13733 9886,13729 9870,13725 9854,13719 9838,13714 9822,13707 9807,13698 9793,13688 9785,13678 9777,13667 9770,13654 9763,13642 9756,13630 9750,13617 9743,13605 9737,13592 9751,13589 9766,13585 9781,13580 9794,13572 9807,13563 9819,13553 9828,13540 9837,13526 9837,13504 9845,13503 9852,13503 9860,13503 9868,13502 9875,13500 9881,13497 9885,13492 9888,13483 9889,13473 9889,13463 9887,13453 9885,13444 9880,13434 9875,13426 9868,13419 9859,13413 9853,13413 9856,13401 9853,13392 9847,13387 9840,13384 9830,13380 9822,13376 9818,13369 9818,13358 9812,13353 9806,13348 9804,13342 9809,13334 9815,13333 9820,13332 9826,13331 9834,13330 9842,13330 9848,13330 9854,13331 9859,13332 9858,13335 9857,13337 9857,13340 9857,13344 9864,13347 9868,13343 9872,13336 9876,13332 9877,13325 9879,13316 9879,13307 9879,13298 9879,13289 9879,13279 9876,13271 9874,13262 9868,13264 9866,13268 9865,13274 9865,13280 9853,13280 9841,13276 9827,13272 9815,13268 9804,13265 9793,13266 9782,13271 9773,13283 9770,13264 9769,13245 9769,13228 9771,13210 9774,13194 9780,13177 9785,13162 9793,13147 9802,13132 9812,13118 9822,13105 9834,13093 9846,13081 9859,13070 9872,13060 9885,13050 9899,13048 9913,13044 9926,13042 9940,13039 9954,13036 9968,13035 9982,13034 9995,13034 10008,13036 10021,13037 10034,13042 10046,13047 10057,13054 10067,13063 10077,13074 10085,13088"/>
 </g>
 <g style="stroke:none;fill:rgb(76,76,76)">
  <polygon points="9859,13050 9848,13058 9838,13067 9826,13077 9816,13086 9807,13096 9797,13108 9789,13119 9781,13131 9774,13144 9768,13157 9763,13171 9759,13185 9755,13199 9753,13214 9753,13230 9753,13244 9757,13320 9747,13313 9736,13305 9724,13297 9711,13290 9697,13284 9682,13280 9667,13279 9652,13283 9644,13286 9636,13291 9629,13297 9622,13302 9615,13309 9609,13315 9602,13321 9598,13326 9606,13309 9616,13292 9628,13276 9642,13260 9655,13244 9669,13230 9682,13214 9694,13199 9691,13195 9687,13193 9682,13192 9679,13193 9675,13196 9671,13198 9668,13201 9666,13204 9655,13218 9643,13232 9631,13246 9616,13259 9602,13272 9588,13285 9575,13298 9561,13309 9568,13297 9574,13285 9581,13275 9588,13264 9595,13254 9602,13243 9610,13234 9619,13225 9626,13216 9635,13206 9643,13197 9652,13188 9660,13178 9669,13170 9679,13159 9688,13149 9686,13144 9681,13142 9677,13141 9672,13141 9667,13143 9662,13144 9657,13146 9652,13146 9642,13150 9632,13155 9622,13159 9613,13163 9602,13168 9593,13172 9583,13176 9573,13178 9582,13171 9591,13165 9602,13159 9612,13153 9622,13148 9633,13143 9644,13137 9655,13132 9666,13128 9677,13122 9688,13118 9700,13114 9711,13110 9723,13105 9734,13102 9745,13097 9743,13095 9742,13091 9740,13088 9737,13085 9742,13086 9748,13086 9753,13085 9758,13082 9762,13079 9765,13076 9769,13072 9770,13069 9782,13069 9794,13069 9805,13068 9816,13065 9827,13062 9839,13059 9849,13055 9859,13050"/>
 </g>
 <g style="stroke:none;fill:rgb(0,0,0)">
  <polygon points="10003,13152 9994,13151 9984,13148 9977,13144 9969,13139 9961,13136 9953,13133 9945,13134 9935,13137 9928,13140 9923,13144 9918,13149 9914,13154 9910,13159 9906,13163 9900,13167 9893,13170 9896,13160 9902,13150 9909,13141 9917,13133 9927,13125 9936,13119 9947,13115 9956,13112 9962,13116 9970,13121 9978,13123 9985,13127 9992,13131 9997,13137 10002,13144 10003,13152"/>
 </g>
 <g style="stroke:none;fill:rgb(217,217,217)">
  <polygon points="10105,13129 10107,13144 10104,13155 10097,13163 10087,13169 10077,13174 10067,13180 10060,13189 10058,13201 10055,13189 10054,13176 10055,13165 10058,13154 10061,13143 10066,13132 10071,13122 10077,13112 10082,13112 10086,13112 10091,13114 10095,13115 10097,13118 10101,13122 10103,13125 10105,13129"/>
  <polygon points="10122,13196 10122,13202 10120,13207 10116,13210 10111,13213 10105,13215 10099,13216 10093,13217 10088,13218 10077,13218 10076,13212 10076,13207 10078,13203 10080,13197 10082,13193 10085,13189 10088,13185 10091,13181 10096,13181 10102,13181 10107,13181 10111,13182 10115,13183 10119,13186 10121,13190 10122,13196"/>
 </g>
 <g style="stroke:none;fill:rgb(255,255,255)">
  <polygon points="10029,13228 10030,13240 10029,13250 10024,13259 10016,13267 10007,13273 9998,13279 9989,13284 9980,13291 9973,13287 9965,13284 9958,13280 9956,13271 9956,13260 9956,13248 9956,13237 9957,13225 9959,13214 9962,13204 9968,13197 9974,13190 9980,13190 9984,13190 9989,13189 9993,13188 9997,13187 10001,13187 10005,13188 10009,13190 10014,13193 10017,13197 10019,13201 10022,13206 10023,13212 10025,13217 10026,13223 10029,13228"/>
 </g>
 <g style="stroke:none;fill:rgb(217,217,217)">
  <polygon points="9851,13300 9847,13304 9843,13308 9837,13309 9830,13309 9823,13309 9816,13308 9809,13308 9804,13309 9797,13321 9790,13332 9782,13344 9774,13354 9767,13365 9760,13375 9753,13386 9748,13398 9757,13403 9764,13402 9769,13397 9773,13390 9776,13382 9781,13373 9787,13367 9796,13364 9799,13365 9802,13367 9804,13370 9807,13373 9805,13380 9801,13385 9796,13390 9790,13393 9784,13397 9778,13401 9773,13406 9770,13413 9779,13417 9788,13414 9798,13409 9807,13404 9817,13399 9826,13398 9832,13404 9837,13419 9832,13420 9826,13421 9822,13423 9818,13425 9814,13427 9810,13430 9808,13434 9807,13439 9815,13443 9823,13443 9831,13440 9840,13437 9846,13434 9854,13433 9861,13437 9868,13445 9869,13451 9870,13455 9870,13461 9869,13466 9868,13471 9866,13476 9863,13479 9859,13483 9837,13483 9837,13479 9837,13475 9836,13471 9834,13466 9834,13463 9831,13460 9828,13458 9824,13457 9818,13464 9815,13471 9815,13478 9816,13486 9818,13494 9819,13502 9818,13510 9815,13518 9807,13527 9797,13539 9787,13549 9776,13559 9763,13568 9749,13573 9734,13575 9717,13573 9709,13581 9720,13599 9730,13617 9740,13635 9750,13652 9760,13670 9770,13687 9781,13704 9791,13720 9802,13737 9813,13753 9825,13769 9838,13784 9851,13800 9864,13814 9878,13828 9893,13842 9903,13858 9914,13874 9926,13888 9937,13903 9947,13919 9955,13936 9960,13955 9961,13976 9958,13988 9957,13999 9955,14011 9952,14023 9949,14034 9943,14043 9935,14050 9924,14055 9911,14056 9898,14055 9885,14054 9871,14052 9858,14050 9846,14046 9833,14043 9821,14040 9821,14030 9824,14019 9828,14009 9834,13998 9842,13988 9849,13978 9856,13968 9862,13958 9865,13961 9867,13965 9868,13969 9869,13975 9870,13979 9873,13983 9876,13985 9882,13984 9890,13970 9878,13948 9867,13926 9855,13905 9843,13884 9831,13863 9819,13843 9806,13822 9794,13802 9782,13782 9770,13762 9757,13742 9744,13722 9731,13701 9718,13681 9704,13660 9691,13639 9688,13626 9683,13614 9677,13602 9669,13591 9665,13580 9661,13566 9662,13554 9669,13538 9676,13526 9679,13513 9680,13498 9680,13485 9682,13471 9686,13460 9692,13451 9705,13445 9714,13437 9721,13428 9728,13419 9734,13408 9740,13397 9745,13387 9751,13376 9756,13365 9760,13354 9765,13343 9771,13332 9776,13322 9782,13312 9789,13303 9796,13294 9804,13286 9809,13294 9851,13300"/>
 </g>
 <g style="stroke:none;fill:rgb(255,255,255)">
  <polygon points="10743,13421 10732,13426 10721,13431 10709,13438 10698,13445 10688,13453 10679,13462 10670,13471 10664,13479 10664,13487 10664,13494 10665,13500 10668,13505 10671,13511 10676,13514 10681,13518 10687,13520 10719,13518 10717,13522 10716,13526 10715,13531 10715,13536 10715,13540 10715,13546 10715,13550 10715,13555 10719,13558 10722,13561 10726,13562 10730,13562 10734,13562 10737,13561 10742,13561 10746,13561 10741,13576 10741,13816 10720,13822 10700,13828 10678,13831 10656,13835 10635,13836 10613,13836 10591,13836 10568,13835 10546,13835 10523,13832 10501,13829 10479,13827 10457,13823 10436,13820 10414,13816 10394,13813 10334,13794 10338,13761 10343,13730 10347,13699 10352,13669 10355,13640 10358,13611 10362,13582 10365,13554 10367,13524 10369,13496 10371,13465 10372,13435 10373,13404 10373,13371 10372,13337 10370,13303 10394,13313 10417,13322 10442,13329 10467,13335 10492,13339 10517,13342 10541,13344 10567,13344 10591,13342 10617,13338 10641,13334 10665,13327 10689,13319 10712,13310 10735,13299 10757,13286 10758,13303 10758,13321 10757,13338 10755,13355 10753,13371 10750,13388 10746,13404 10743,13421"/>
 </g>
 <g style="stroke:none;fill:rgb(217,217,217)">
  <polygon points="9745,13340 9737,13361 9727,13356 9719,13349 9709,13341 9699,13333 9688,13327 9677,13325 9665,13325 9652,13330 9648,13332 9644,13335 9640,13337 9636,13341 9633,13344 9631,13349 9630,13353 9630,13358 9637,13364 9642,13361 9645,13358 9648,13354 9653,13351 9656,13348 9661,13346 9666,13345 9672,13346 9669,13355 9666,13364 9663,13374 9661,13384 9660,13394 9661,13403 9665,13411 9669,13419 9677,13415 9680,13408 9680,13397 9680,13386 9680,13375 9682,13365 9688,13358 9700,13355 9714,13364 9721,13373 9723,13382 9721,13391 9716,13399 9709,13409 9703,13418 9697,13427 9691,13433 9686,13436 9680,13436 9677,13434 9671,13430 9666,13426 9661,13422 9654,13419 9650,13417 9646,13414 9642,13411 9638,13409 9635,13405 9632,13401 9632,13397 9632,13392 9630,13385 9627,13378 9626,13370 9626,13362 9626,13353 9627,13345 9630,13337 9632,13330 9637,13323 9643,13317 9649,13312 9656,13309 9663,13306 9670,13304 9678,13303 9686,13303 9693,13306 9702,13309 9710,13312 9719,13316 9726,13320 9734,13325 9740,13332 9745,13340"/>
  <polygon points="10780,13451 10779,13458 10776,13464 10773,13471 10769,13476 10765,13481 10759,13486 10754,13489 10746,13492 10743,13492 10739,13492 10735,13492 10733,13494 10733,13498 10730,13498 10731,13493 10732,13488 10734,13484 10735,13479 10735,13475 10735,13470 10735,13465 10735,13460 10727,13451 10733,13447 10740,13444 10747,13441 10755,13439 10763,13438 10769,13440 10776,13444 10780,13451"/>
  <polygon points="10715,13468 10716,13472 10716,13477 10714,13481 10712,13486 10711,13490 10709,13493 10706,13497 10704,13500 10687,13498 10685,13493 10684,13489 10685,13486 10687,13483 10690,13479 10692,13477 10694,13474 10695,13471 10700,13471 10705,13469 10710,13468 10715,13468"/>
  <polygon points="10789,13486 10790,13492 10788,13499 10785,13506 10780,13513 10776,13519 10769,13524 10764,13530 10757,13535 10735,13541 10732,13528 10735,13520 10740,13513 10748,13508 10758,13504 10768,13499 10777,13493 10783,13486 10789,13486"/>
 </g>
 <g style="stroke:none;fill:rgb(0,0,0)">
  <polygon points="9206,13555 9198,13564 9191,13572 9183,13580 9175,13587 9166,13592 9158,13599 9148,13605 9139,13610 9130,13615 9120,13619 9111,13625 9101,13629 9091,13634 9081,13639 9071,13643 9061,13648 9075,13647 9087,13644 9101,13640 9113,13635 9125,13629 9137,13623 9149,13617 9161,13609 9172,13602 9184,13595 9195,13587 9206,13580 9217,13573 9229,13566 9240,13560 9251,13555 9252,13558 9250,13562 9247,13565 9243,13566 9240,13569 9238,13573 9239,13576 9242,13581 9233,13584 9225,13587 9215,13589 9207,13592 9198,13597 9189,13600 9180,13605 9172,13609 9163,13614 9154,13619 9146,13624 9137,13629 9129,13633 9120,13639 9112,13643 9103,13648 9114,13647 9124,13646 9135,13644 9146,13641 9156,13638 9166,13634 9176,13631 9186,13626 9195,13622 9204,13617 9214,13612 9223,13606 9232,13600 9241,13594 9250,13588 9258,13581 9267,13581 9260,13591 9252,13599 9242,13607 9232,13614 9221,13619 9210,13626 9198,13632 9188,13639 9121,13666 9131,13667 9140,13667 9148,13667 9158,13667 9166,13666 9176,13665 9184,13663 9193,13661 9202,13659 9211,13658 9220,13656 9229,13654 9237,13652 9247,13651 9255,13649 9264,13648 9262,13663 9266,13663 9270,13662 9274,13663 9276,13666 9276,13672 9250,13674 9225,13675 9199,13678 9174,13680 9148,13682 9124,13686 9099,13688 9074,13691 9049,13693 9024,13696 8999,13699 8975,13700 8949,13701 8923,13703 8897,13703 8871,13703 8863,13709 8877,13721 8901,13720 8926,13719 8950,13718 8975,13717 9000,13715 9025,13714 9051,13712 9076,13710 9102,13708 9127,13708 9152,13707 9177,13706 9202,13705 9225,13705 9249,13706 9273,13707 9273,13715 9249,13714 9225,13714 9202,13714 9179,13714 9155,13714 9131,13715 9108,13717 9084,13718 9061,13719 9037,13720 9013,13721 8990,13723 8966,13724 8942,13725 8918,13726 8895,13726 8764,13735 8769,13727 8775,13721 8783,13720 8791,13721 8800,13723 8810,13725 8819,13725 8829,13721 8833,13719 8837,13716 8841,13714 8847,13714 8851,13713 8855,13711 8859,13709 8861,13707 8818,13703 8821,13688 8813,13686 8827,13674 8822,13671 8816,13667 8809,13665 8803,13661 8798,13658 8793,13654 8789,13649 8786,13642 8789,13640 8791,13638 8792,13637 8792,13634 8798,13634 8800,13640 8803,13643 8806,13646 8810,13647 8814,13647 8818,13649 8823,13653 8827,13659 8830,13660 8834,13659 8837,13656 8840,13653 8841,13661 8847,13663 8852,13665 8858,13668 8862,13669 8866,13668 8869,13667 8870,13663 8872,13660 8874,13658 8878,13658 8883,13659 8883,13666 8906,13663 8929,13660 8951,13656 8973,13651 8995,13645 9016,13638 9037,13630 9058,13621 9079,13612 9098,13601 9118,13590 9137,13578 9156,13565 9174,13552 9191,13538 9209,13523 9212,13526 9214,13531 9214,13535 9213,13539 9212,13543 9209,13547 9208,13552 9206,13555"/>
 </g>
 <g style="stroke:none;fill:rgb(217,217,217)">
  <polygon points="10794,13529 10794,13536 10793,13543 10791,13551 10788,13558 10785,13565 10780,13572 10774,13576 10766,13579 10761,13579 10758,13568 10759,13559 10763,13553 10768,13546 10776,13540 10782,13536 10789,13532 10794,13529"/>
 </g>
 <g style="stroke:none;fill:rgb(255,255,255)">
  <polygon points="8991,13653 9003,13648 9016,13644 9029,13638 9042,13633 9056,13626 9068,13620 9082,13614 9095,13608 9109,13601 9121,13594 9134,13587 9146,13580 9159,13573 9171,13565 9183,13557 9194,13549 9185,13561 9175,13572 9164,13582 9153,13592 9141,13600 9128,13608 9115,13615 9102,13622 9088,13628 9075,13633 9061,13638 9046,13642 9033,13646 9019,13649 9004,13652 8991,13653"/>
 </g>
 <g style="stroke:none;fill:rgb(217,217,217)">
  <polygon points="10776,13622 10766,13619 10766,13614 10768,13606 10769,13599 10789,13587 10791,13592 10791,13597 10791,13602 10791,13607 10788,13613 10786,13617 10780,13620 10776,13622"/>
 </g>
 <g style="stroke:none;fill:rgb(255,255,255)">
  <polygon points="9851,13936 9844,13944 9838,13953 9831,13963 9826,13972 9820,13981 9815,13990 9811,14000 9807,14009 9804,14020 9800,14030 9797,14040 9795,14050 9793,14062 9792,14072 9791,14083 9790,14095 9774,14073 9760,14050 9746,14028 9731,14005 9718,13982 9705,13959 9692,13936 9681,13912 9670,13888 9660,13864 9652,13840 9643,13815 9636,13790 9632,13764 9626,13738 9624,13712 9627,13700 9630,13686 9633,13674 9636,13660 9641,13648 9647,13638 9655,13630 9666,13625 9677,13645 9688,13665 9699,13684 9711,13703 9723,13722 9736,13741 9748,13760 9760,13778 9773,13797 9785,13815 9796,13835 9808,13854 9819,13874 9831,13894 9841,13915 9851,13936"/>
  <polygon points="9061,13651 9056,13653 9051,13656 9046,13658 9039,13657 9044,13656 9049,13652 9055,13651 9061,13651"/>
  <polygon points="10189,13682 10189,13687 10189,13694 10189,13700 10188,13708 10187,13714 10186,13720 10185,13727 10182,13732 10175,13727 10166,13721 10157,13715 10149,13710 10141,13706 10131,13702 10121,13700 10111,13700 10114,13694 10118,13687 10120,13681 10124,13673 10127,13667 10131,13660 10137,13655 10144,13651 10153,13650 10163,13650 10170,13652 10177,13655 10183,13659 10187,13666 10189,13674 10189,13682"/>
  <polygon points="8968,13666 8964,13667 8961,13668 8957,13668 8952,13668 8949,13668 8945,13668 8941,13668 8937,13668 8941,13667 8946,13667 8951,13665 8955,13663 8959,13662 8963,13662 8966,13663 8968,13666"/>
  <polygon points="9013,13666 9016,13659 9033,13659 9013,13666"/>
  <polygon points="9107,13668 9107,13666 9118,13666 9118,13668 9107,13668"/>
  <polygon points="9044,13682 9044,13680 9061,13680 9061,13682 9044,13682"/>
  <polygon points="8982,13686 8982,13682 9024,13682 9024,13686 8982,13686"/>
  <polygon points="8954,13688 8941,13690 8929,13691 8916,13692 8903,13692 8889,13692 8876,13692 8864,13692 8852,13692 8855,13688 8954,13688"/>
 </g>
 <g style="stroke:none;fill:rgb(0,0,0)">
  <polygon points="8177,14146 8174,14131 8171,14115 8168,14098 8166,14080 8164,14062 8163,14043 8161,14024 8160,14005 8159,13986 8159,13967 8159,13948 8159,13929 8160,13912 8162,13895 8164,13878 8165,13862 8174,13861 8182,13860 8192,13859 8202,13859 8213,13860 8223,13860 8233,13861 8243,13861 8253,13860 8263,13858 8271,13856 8280,13853 8286,13847 8293,13841 8298,13833 8302,13822 8295,13818 8287,13816 8279,13816 8270,13816 8262,13816 8253,13815 8246,13813 8242,13809 8247,13807 8253,13808 8260,13809 8267,13810 8273,13811 8278,13810 8282,13805 8284,13796 8288,13798 8291,13799 8294,13799 8297,13799 8300,13799 8303,13799 8306,13800 8310,13802 8306,13794 8299,13787 8290,13782 8280,13779 8269,13775 8262,13768 8257,13761 8256,13750 8211,13732 8215,13728 8221,13727 8227,13727 8235,13727 8242,13726 8247,13724 8252,13719 8256,13712 8274,13709 8270,13721 8291,13726 8313,13730 8335,13733 8357,13736 8378,13738 8400,13740 8422,13740 8444,13740 8466,13739 8487,13737 8509,13734 8530,13731 8552,13727 8572,13720 8592,13714 8612,13707 8616,13706 8620,13704 8623,13700 8627,13698 8630,13695 8633,13693 8637,13693 8641,13694 8625,13703 8610,13711 8594,13718 8577,13723 8560,13727 8543,13732 8524,13734 8507,13737 8488,13739 8470,13740 8452,13741 8433,13742 8414,13743 8396,13744 8377,13745 8358,13746 8371,13750 8384,13752 8399,13753 8414,13753 8428,13752 8442,13751 8457,13750 8471,13750 8484,13749 8497,13747 8510,13746 8524,13744 8537,13742 8550,13740 8564,13736 8576,13734 8589,13730 8601,13726 8614,13721 8626,13717 8638,13712 8650,13707 8661,13700 8671,13694 8672,13698 8671,13701 8669,13705 8667,13708 8664,13712 8661,13715 8659,13719 8657,13723 8645,13727 8632,13731 8620,13734 8607,13739 8594,13742 8580,13746 8567,13749 8555,13753 8542,13756 8529,13759 8516,13761 8502,13764 8489,13766 8475,13768 8462,13768 8448,13769 8463,13772 8479,13773 8495,13774 8510,13773 8525,13771 8541,13768 8555,13765 8570,13761 8585,13757 8600,13753 8614,13747 8629,13743 8643,13738 8657,13734 8671,13729 8686,13726 8685,13730 8682,13733 8679,13734 8676,13736 8672,13737 8670,13739 8670,13741 8674,13746 8691,13741 8688,13745 8685,13750 8681,13754 8679,13759 8676,13763 8672,13768 8668,13774 8665,13779 8683,13781 8675,13788 8665,13794 8655,13797 8645,13801 8634,13804 8623,13808 8612,13811 8603,13816 8613,13818 8624,13819 8636,13820 8649,13821 8661,13824 8672,13828 8683,13835 8691,13846 8702,13842 8713,13841 8725,13841 8738,13841 8750,13842 8763,13843 8774,13842 8786,13840 8801,13848 8798,13865 8796,13882 8794,13901 8792,13919 8791,13937 8790,13956 8789,13974 8789,13993 8789,14011 8789,14030 8791,14048 8791,14065 8794,14083 8796,14100 8800,14117 8804,14132 8800,14136 8794,14138 8787,14138 8781,14139 8775,14140 8771,14143 8769,14148 8770,14157 8779,14361 8791,14361 8805,14362 8821,14363 8837,14363 8851,14362 8863,14356 8871,14347 8874,14332 8881,14326 8897,14328 8915,14331 8933,14332 8952,14334 8970,14335 8989,14335 9008,14335 9026,14334 9046,14333 9064,14332 9083,14330 9102,14328 9120,14327 9138,14325 9156,14322 9174,14320 9174,14317 9154,14318 9134,14319 9113,14319 9094,14320 9074,14320 9053,14320 9034,14320 9013,14320 8993,14320 8973,14320 8953,14320 8933,14320 8913,14319 8892,14320 8873,14320 8852,14320 8848,14315 8843,14312 8838,14309 8838,14302 8842,14297 8848,14296 8854,14296 8861,14296 8862,14290 8862,14286 8860,14282 8859,14279 8855,14276 8851,14274 8848,14269 8843,14264 8846,14262 8848,14260 8849,14259 8849,14255 8847,14253 8843,14253 8839,14253 8835,14253 8836,14246 8840,14244 8848,14244 8852,14241 8843,14233 8846,14229 8849,14227 8853,14227 8858,14227 8862,14227 8866,14226 8869,14223 8870,14218 8843,14209 8855,14201 8872,14201 8891,14200 8910,14200 8931,14200 8952,14200 8975,14201 8998,14201 9021,14201 9045,14201 9068,14201 9091,14200 9115,14200 9138,14200 9160,14199 9181,14197 9202,14195 9180,14193 9158,14191 9135,14190 9113,14190 9091,14188 9070,14188 9049,14188 9028,14188 9007,14188 8986,14188 8964,14188 8943,14188 8922,14188 8900,14187 8878,14186 8855,14185 8856,14181 8859,14178 8861,14176 8863,14173 8914,14182 9256,14179 9255,14185 9254,14190 9253,14196 9253,14201 9253,14207 9255,14210 9258,14214 9264,14215 9264,14224 9248,14223 9232,14223 9217,14225 9202,14227 9187,14229 9171,14232 9157,14235 9143,14239 9152,14240 9160,14240 9169,14240 9179,14240 9188,14239 9198,14239 9207,14238 9217,14237 9226,14237 9236,14236 9246,14235 9255,14235 9264,14235 9273,14234 9282,14235 9291,14235 9291,14241 9269,14244 9247,14246 9224,14248 9201,14249 9177,14250 9154,14250 9131,14251 9107,14251 9083,14252 9059,14253 9036,14253 9013,14253 8991,14255 8969,14257 8947,14259 8926,14261 8947,14262 8969,14263 8991,14264 9013,14264 9035,14264 9058,14264 9081,14264 9104,14263 9127,14262 9150,14261 9173,14260 9195,14260 9217,14259 9239,14258 9260,14256 9281,14255 9281,14264 9278,14264 9274,14264 9271,14264 9267,14264 9263,14265 9258,14266 9254,14267 9251,14268 9248,14275 9243,14278 9238,14279 9231,14278 9225,14277 9218,14276 9212,14276 9206,14279 9185,14282 9165,14283 9143,14284 9123,14285 9102,14285 9080,14285 9060,14285 9039,14285 9019,14285 8997,14285 8977,14285 8957,14286 8936,14287 8915,14288 8895,14290 8874,14293 8874,14296 8900,14297 8926,14299 8952,14299 8979,14300 9004,14300 9031,14300 9057,14299 9083,14298 9109,14298 9135,14297 9160,14296 9186,14294 9211,14294 9236,14293 9260,14291 9285,14290 9285,14296 9281,14299 9276,14300 9273,14302 9278,14304 9281,14307 9284,14310 9287,14314 9287,14320 9274,14328 9261,14334 9247,14339 9234,14343 9220,14347 9206,14351 9192,14355 9180,14361 9191,14362 9204,14362 9216,14362 9228,14362 9239,14361 9251,14361 9262,14361 9273,14362 9273,14369 9273,14378 9273,14388 9273,14400 9273,14412 9272,14425 9272,14438 9272,14451 9272,14464 9272,14476 9271,14488 9271,14497 9271,14506 9271,14512 9271,14516 9271,14517 9239,14523 9240,15414 9177,15424 9171,14520 8239,14535 8252,15420 8189,15431 8179,14531 8156,14529 8149,14377 8231,14378 8220,14142 8177,14146"/>
  <polygon points="9245,13732 9222,13732 9199,13732 9176,13732 9154,13734 9131,13734 9109,13736 9086,13738 9063,13739 9040,13741 9017,13742 8994,13744 8971,13745 8949,13746 8926,13746 8904,13746 8881,13746 8867,13759 8874,13760 8881,13761 8891,13761 8899,13761 8908,13761 8918,13761 8926,13761 8934,13761 8922,13764 8909,13766 8896,13768 8884,13769 8870,13770 8856,13770 8842,13770 8829,13769 8840,13753 8810,13750 8809,13746 8811,13742 8814,13740 8818,13738 8845,13739 8871,13740 8898,13740 8925,13740 8952,13738 8979,13737 9006,13735 9033,13734 9059,13732 9087,13730 9113,13728 9140,13727 9167,13725 9193,13724 9219,13723 9245,13723 9245,13732"/>
 </g>
 <g style="stroke:none;fill:rgb(102,102,102)">
  <polygon points="10136,13735 10137,13746 10137,13756 10135,13766 10134,13775 10131,13785 10129,13794 10125,13802 10122,13810 10111,13810 10099,13809 10088,13807 10077,13803 10066,13798 10056,13793 10046,13786 10037,13779 10047,13768 10058,13756 10069,13743 10080,13731 10094,13722 10107,13719 10121,13723 10136,13735"/>
 </g>
 <g style="stroke:none;fill:rgb(255,255,255)">
  <polygon points="8274,13735 8259,13735 8262,13732 8264,13734 8267,13735 8270,13735 8274,13735"/>
  <polygon points="9918,13755 9923,13758 9928,13760 9933,13760 9939,13759 9944,13759 9950,13758 9954,13759 9958,13761 9966,13763 9974,13764 9984,13764 9992,13763 10002,13762 10011,13761 10020,13758 10029,13755 10021,13768 10013,13780 10005,13793 9998,13805 9991,13818 9984,13831 9979,13843 9974,13856 9963,13854 9954,13849 9945,13842 9936,13836 9927,13829 9917,13825 9906,13822 9893,13822 9885,13810 9875,13799 9866,13788 9857,13778 9848,13768 9840,13757 9831,13745 9824,13732 9837,13734 9849,13737 9859,13742 9870,13748 9881,13753 9892,13757 9905,13758 9918,13755"/>
  <polygon points="8335,13744 8329,13743 8325,13743 8319,13744 8314,13744 8308,13744 8304,13743 8300,13741 8296,13738 8335,13744"/>
 </g>
 <g style="stroke:none;fill:rgb(0,0,0)">
  <polygon points="9337,13753 9337,13759 9327,13760 9316,13761 9305,13761 9293,13761 9282,13761 9270,13761 9259,13763 9248,13767 9264,13768 9279,13771 9293,13774 9307,13776 9322,13778 9337,13779 9352,13778 9370,13775 9383,13781 9379,13783 9373,13784 9367,13784 9360,13785 9353,13785 9347,13787 9341,13789 9336,13794 9329,13794 9324,13794 9318,13793 9312,13793 9306,13794 9301,13794 9296,13798 9291,13802 9294,13805 9298,13806 9303,13805 9309,13803 9314,13802 9318,13802 9322,13804 9324,13809 9299,13811 9274,13814 9250,13817 9226,13820 9202,13821 9178,13824 9154,13826 9130,13828 9105,13828 9080,13830 9056,13831 9031,13832 9006,13833 8981,13834 8954,13834 8928,13834 8923,13840 8949,13841 8975,13843 9000,13843 9025,13843 9050,13842 9074,13841 9098,13841 9122,13839 9146,13837 9169,13835 9193,13833 9217,13831 9242,13829 9266,13828 9291,13826 9315,13825 9320,13831 9322,13835 9319,13837 9315,13839 9309,13840 9303,13841 9298,13842 9295,13846 9300,13847 9304,13848 9309,13848 9314,13848 9318,13848 9321,13848 9326,13850 9329,13854 9319,13855 9308,13856 9297,13857 9286,13858 9275,13860 9265,13862 9254,13864 9245,13869 9253,13869 9262,13869 9270,13869 9279,13869 9287,13869 9296,13869 9304,13871 9313,13874 9309,13883 9281,13874 9259,13876 9236,13878 9214,13880 9193,13881 9171,13882 9150,13884 9129,13886 9108,13888 9087,13888 9065,13890 9044,13892 9024,13895 9002,13896 8981,13898 8961,13901 8940,13903 8962,13904 8984,13905 9007,13906 9029,13906 9052,13907 9074,13907 9097,13907 9120,13906 9142,13906 9164,13904 9186,13903 9208,13902 9230,13899 9251,13896 9272,13893 9293,13889 9333,13892 9333,13900 9322,13901 9309,13901 9296,13900 9281,13899 9267,13900 9254,13903 9243,13908 9234,13918 9242,13918 9249,13919 9256,13922 9262,13925 9269,13929 9274,13933 9281,13936 9287,13939 9287,13949 9283,13948 9278,13948 9274,13948 9270,13950 9265,13954 9263,13957 9262,13963 9262,13968 9255,13968 9247,13969 9241,13971 9233,13972 9226,13974 9220,13975 9214,13977 9209,13979 9216,13982 9224,13982 9231,13981 9237,13979 9244,13976 9252,13975 9259,13975 9267,13976 9267,13978 9269,13979 9270,13981 9270,13982 9267,13986 9263,13988 9258,13988 9253,13988 9250,13989 9248,13990 9248,13993 9253,13999 9276,13999 9274,14005 9268,14008 9262,14009 9256,14011 9259,14013 9263,14014 9266,14014 9270,14014 9273,14014 9276,14014 9279,14015 9281,14016 9281,14023 9276,14023 9273,14028 9274,14032 9276,14037 9279,14042 9281,14042 9281,14051 9256,14055 9256,14057 9258,14059 9260,14061 9262,14063 9256,14069 9231,14070 9206,14070 9180,14072 9156,14073 9131,14074 9107,14076 9082,14076 9057,14078 9033,14079 9009,14080 8985,14081 8960,14081 8936,14081 8911,14080 8885,14079 8861,14077 8862,14081 8863,14083 8866,14085 8870,14086 8895,14085 8920,14085 8946,14085 8971,14085 8997,14086 9022,14086 9047,14087 9073,14088 9098,14089 9123,14089 9148,14089 9173,14090 9198,14089 9222,14089 9247,14088 9270,14086 9270,14091 9271,14094 9274,14098 9276,14102 9278,14105 9279,14108 9277,14110 9273,14113 9253,14117 9231,14121 9209,14124 9186,14125 9162,14127 9137,14128 9113,14129 9087,14129 9061,14128 9035,14128 9009,14127 8984,14126 8958,14125 8932,14124 8907,14124 8883,14124 8861,14121 8861,14117 8863,14114 8866,14113 8870,14112 8874,14112 8879,14112 8882,14111 8885,14110 8905,14113 8924,14116 8942,14117 8962,14119 8981,14119 8999,14120 9018,14119 9036,14118 9055,14117 9074,14116 9092,14115 9111,14113 9130,14112 9148,14111 9167,14110 9186,14110 9186,14107 9165,14108 9143,14108 9122,14108 9101,14108 9079,14107 9058,14105 9037,14104 9016,14103 8995,14102 8974,14101 8952,14100 8930,14099 8909,14099 8887,14099 8865,14100 8843,14101 8843,14095 8843,14089 8844,14083 8847,14077 8825,14074 8828,14069 8833,14065 8840,14063 8848,14062 8854,14061 8861,14059 8866,14055 8870,14049 8877,14051 8877,14034 8874,14032 8870,14031 8865,14030 8861,14030 8857,14030 8852,14030 8848,14030 8843,14030 8843,14029 8843,14028 8841,14027 8840,14026 8848,14022 8853,14020 8859,14019 8865,14019 8870,14019 8875,14017 8881,14014 8885,14008 8888,14002 8887,13998 8885,13995 8882,13991 8879,13988 8876,13983 8877,13979 8881,13973 8889,13973 8894,13968 8898,13963 8904,13958 8899,13956 8894,13954 8889,13953 8883,13953 8877,13953 8872,13953 8866,13953 8861,13953 8863,13946 8863,13941 8863,13936 8867,13929 8879,13926 8891,13924 8903,13924 8914,13925 8926,13926 8937,13928 8949,13929 8962,13929 8976,13930 8991,13930 9005,13930 9019,13930 9033,13929 9046,13929 9060,13928 9074,13927 9087,13926 9101,13924 9114,13923 9128,13922 9142,13921 9155,13920 9169,13919 9182,13918 9182,13915 9162,13915 9142,13915 9121,13915 9100,13915 9079,13915 9059,13915 9039,13915 9019,13915 8997,13915 8977,13915 8957,13915 8936,13915 8915,13915 8894,13914 8874,13913 8852,13912 8852,13906 8857,13903 8862,13903 8868,13903 8873,13903 8878,13904 8882,13903 8884,13901 8883,13896 8886,13891 8891,13888 8894,13883 8895,13877 8892,13874 8900,13869 8926,13869 8951,13869 8975,13869 9000,13869 9024,13869 9048,13868 9072,13867 9096,13865 9120,13863 9143,13862 9166,13859 9190,13855 9214,13853 9236,13848 9261,13844 9285,13840 9285,13837 9260,13838 9236,13839 9212,13841 9189,13841 9166,13842 9143,13843 9120,13845 9098,13846 9075,13847 9052,13847 9028,13848 9005,13849 8981,13850 8957,13851 8931,13852 8906,13852 8906,13847 8909,13840 8910,13835 8904,13831 8881,13831 8882,13824 8888,13821 8896,13819 8904,13816 8899,13812 8895,13809 8890,13805 8885,13799 8881,13802 8878,13801 8874,13798 8870,13796 8872,13793 8875,13791 8880,13791 8884,13791 8888,13791 8892,13789 8894,13787 8895,13781 8904,13779 8913,13777 8921,13775 8929,13774 8937,13773 8947,13773 8955,13774 8965,13775 8981,13775 8998,13774 9015,13773 9032,13773 9049,13773 9066,13772 9083,13772 9100,13772 9117,13771 9135,13770 9152,13769 9169,13768 9185,13767 9202,13765 9218,13762 9234,13759 9222,13759 9211,13758 9200,13758 9188,13757 9177,13757 9165,13757 9153,13759 9140,13761 9140,13759 8948,13761 8959,13760 8969,13759 8981,13758 8992,13756 9003,13755 9015,13754 9028,13754 9040,13753 9053,13753 9064,13753 9076,13753 9088,13752 9099,13752 9109,13752 9120,13753 9129,13753 9135,13759 9137,13755 9150,13754 9162,13753 9175,13752 9187,13751 9199,13750 9212,13749 9225,13748 9236,13747 9249,13746 9262,13746 9274,13746 9286,13747 9299,13748 9312,13749 9325,13751 9337,13753"/>
 </g>
 <g style="stroke:none;fill:rgb(255,255,255)">
  <polygon points="8867,13750 8865,13753 8862,13753 8859,13753 8855,13753 8858,13752 8860,13750 8863,13749 8867,13750"/>
  <polygon points="10219,13874 10230,13888 10242,13902 10253,13915 10264,13927 10276,13939 10288,13952 10300,13964 10311,13976 10322,13989 10333,14002 10343,14016 10353,14030 10362,14044 10370,14060 10378,14076 10385,14092 10393,14104 10402,14117 10412,14129 10420,14141 10429,14152 10439,14163 10447,14175 10456,14187 10464,14200 10473,14212 10481,14224 10488,14237 10495,14250 10501,14264 10507,14278 10512,14293 10509,14336 9767,14334 9774,14324 9781,14315 9789,14305 9797,14295 9807,14287 9816,14278 9826,14271 9837,14264 9840,14201 9843,14200 9846,14198 9848,14194 9851,14191 9849,14177 9851,14163 9855,14150 9859,14136 9863,14121 9866,14106 9866,14091 9862,14074 9875,14075 9889,14076 9902,14078 9916,14078 9928,14078 9941,14075 9953,14069 9964,14060 9967,14050 9969,14041 9972,14030 9973,14021 9976,14010 9977,14000 9979,13989 9980,13978 9980,13968 9979,13957 9978,13948 9975,13937 9973,13928 9969,13918 9964,13908 9958,13900 9928,13856 9934,13861 9939,13866 9947,13870 9953,13874 9961,13876 9969,13878 9977,13879 9986,13877 9991,13867 9994,13856 9997,13846 10001,13835 10005,13825 10010,13814 10016,13805 10023,13796 10030,13801 10038,13805 10047,13810 10056,13815 10066,13821 10076,13824 10086,13827 10097,13828 10102,13841 10107,13852 10114,13863 10122,13873 10130,13882 10140,13892 10148,13901 10157,13909 10167,13918 10175,13928 10183,13937 10189,13948 10196,13959 10200,13971 10203,13984 10204,13999 10208,14007 10210,14015 10213,14023 10215,14031 10218,14040 10219,14049 10221,14057 10223,14067 10223,14076 10223,14084 10223,14094 10223,14102 10223,14112 10222,14121 10220,14129 10219,14138 10215,14150 10212,14161 10210,14172 10208,14185 10207,14197 10207,14209 10206,14222 10207,14233 10215,14241 10223,14249 10231,14256 10240,14264 10249,14272 10257,14279 10267,14285 10276,14291 10286,14297 10295,14302 10305,14307 10315,14311 10326,14315 10336,14317 10348,14319 10359,14320 10371,14309 10383,14296 10393,14284 10403,14271 10412,14258 10417,14243 10421,14227 10422,14209 10408,14198 10396,14184 10385,14170 10375,14156 10366,14141 10357,14125 10348,14110 10341,14094 10332,14078 10324,14062 10315,14047 10306,14032 10296,14017 10286,14003 10274,13991 10261,13979 10257,13963 10253,13950 10246,13937 10239,13927 10231,13916 10221,13907 10211,13897 10201,13888 10190,13880 10181,13871 10172,13862 10163,13852 10156,13841 10150,13829 10145,13817 10142,13802 10147,13798 10150,13793 10151,13786 10151,13779 10151,13771 10151,13763 10152,13756 10153,13750 10163,13764 10172,13779 10180,13794 10188,13811 10195,13828 10202,13844 10210,13860 10219,13874"/>
  <polygon points="8655,13755 8641,13761 8625,13765 8610,13770 8595,13774 8579,13777 8563,13780 8546,13783 8530,13786 8514,13787 8498,13789 8482,13790 8467,13791 8451,13792 8436,13792 8420,13791 8405,13790 8420,13788 8436,13787 8452,13785 8467,13783 8483,13782 8499,13780 8515,13780 8531,13778 8546,13776 8563,13775 8579,13773 8594,13770 8610,13767 8625,13764 8641,13760 8655,13755"/>
  <polygon points="10286,13825 10279,13832 10274,13839 10269,13847 10266,13854 10263,13862 10260,13870 10257,13878 10255,13886 10242,13875 10232,13863 10223,13849 10217,13835 10210,13820 10204,13805 10197,13790 10189,13775 10198,13761 10209,13768 10219,13776 10230,13784 10241,13793 10251,13802 10262,13810 10274,13818 10286,13825"/>
  <polygon points="8377,13773 8377,13769 8434,13769 8434,13773 8377,13773"/>
  <polygon points="9109,13779 9109,13775 9124,13775 9124,13779 9109,13779"/>
  <polygon points="9061,13781 9046,13781 9032,13783 9019,13785 9005,13787 8992,13788 8977,13789 8963,13789 8948,13787 8962,13786 8976,13785 8991,13785 9005,13784 9019,13784 9034,13784 9047,13783 9061,13781"/>
  <polygon points="9067,13781 9067,13779 9087,13779 9087,13781 9067,13781"/>
  <polygon points="9279,13781 9267,13782 9255,13783 9242,13784 9230,13786 9218,13787 9205,13788 9192,13789 9180,13791 9167,13792 9154,13793 9142,13794 9129,13794 9116,13794 9103,13794 9091,13794 9079,13794 9091,13793 9103,13791 9116,13790 9128,13789 9141,13787 9153,13787 9165,13785 9177,13784 9190,13783 9202,13782 9214,13781 9227,13780 9240,13780 9253,13780 9266,13780 9279,13781"/>
  <polygon points="8361,13787 8361,13784 8389,13784 8389,13787 8361,13787"/>
  <polygon points="9073,13794 9069,13795 9067,13796 9064,13796 9060,13796 9057,13796 9053,13796 9050,13796 9046,13796 9049,13793 9053,13791 9056,13791 9060,13792 9064,13793 9068,13794 9070,13794 9073,13794"/>
  <polygon points="8601,13796 8590,13800 8579,13803 8567,13806 8555,13809 8543,13810 8531,13812 8519,13813 8508,13814 8495,13815 8483,13816 8470,13816 8459,13816 8447,13815 8435,13815 8423,13814 8411,13813 8423,13810 8435,13809 8447,13809 8459,13808 8470,13808 8482,13808 8494,13808 8506,13808 8518,13808 8530,13808 8541,13808 8553,13807 8565,13805 8577,13803 8589,13800 8601,13796"/>
 </g>
 <g style="stroke:none;fill:rgb(204,204,204)">
  <polygon points="10955,13809 10955,13813 10950,13809 10944,13807 10941,13803 10945,13796 10948,13799 10951,13801 10953,13804 10955,13809"/>
 </g>
 <g style="stroke:none;fill:rgb(255,255,255)">
  <polygon points="9248,13802 9229,13805 9209,13808 9190,13809 9169,13811 9150,13813 9130,13814 9110,13816 9090,13817 9070,13818 9051,13819 9032,13820 9013,13820 8994,13820 8975,13820 8958,13820 8940,13819 8948,13813 8966,13812 8985,13810 9004,13809 9023,13809 9042,13809 9062,13808 9081,13807 9101,13807 9120,13806 9140,13806 9159,13805 9178,13805 9196,13804 9214,13804 9231,13803 9248,13802"/>
  <polygon points="8395,13802 8395,13799 8408,13802 8408,13805 8395,13802"/>
  <polygon points="8425,13805 8425,13802 8451,13802 8451,13805 8425,13805"/>
 </g>
 <g style="stroke:none;fill:rgb(102,102,102)">
  <polygon points="10253,13997 10254,14001 10257,14004 10261,14009 10264,14012 10268,14016 10271,14019 10274,14023 10275,14028 10285,14039 10294,14050 10302,14062 10311,14075 10319,14087 10326,14099 10334,14111 10341,14124 10348,14136 10355,14149 10363,14161 10370,14173 10378,14185 10386,14198 10395,14209 10404,14221 10401,14234 10396,14245 10391,14256 10385,14266 10379,14275 10371,14284 10363,14293 10356,14302 10350,14299 10343,14297 10335,14294 10327,14293 10319,14291 10311,14288 10305,14284 10300,14279 10288,14276 10276,14271 10265,14266 10256,14259 10246,14250 10238,14241 10231,14230 10224,14218 10225,14207 10227,14196 10230,14183 10232,14170 10234,14157 10237,14144 10240,14131 10242,14117 10243,14104 10244,14091 10244,14077 10243,14064 10241,14051 10238,14038 10233,14026 10227,14014 10224,14003 10221,13992 10219,13982 10214,13971 10211,13962 10207,13951 10201,13941 10197,13933 10191,13924 10186,13915 10179,13907 10174,13900 10166,13893 10158,13886 10151,13880 10142,13874 10141,13868 10136,13861 10131,13854 10127,13847 10123,13841 10121,13835 10123,13830 10128,13825 10133,13838 10140,13850 10147,13862 10156,13871 10164,13881 10174,13890 10183,13899 10193,13907 10202,13916 10212,13925 10221,13935 10229,13945 10236,13956 10243,13968 10248,13982 10253,13997"/>
 </g>
 <g style="stroke:none;fill:rgb(255,255,255)">
  <polygon points="10945,13831 10927,13828 10931,13825 10937,13827 10940,13829 10945,13831"/>
  <polygon points="8663,13846 8639,13846 8616,13845 8593,13845 8571,13845 8549,13846 8527,13846 8506,13847 8485,13847 8463,13847 8441,13848 8419,13848 8397,13849 8374,13850 8351,13851 8328,13851 8304,13852 8313,13842 8336,13843 8359,13843 8381,13842 8404,13841 8426,13841 8448,13839 8470,13837 8492,13836 8513,13835 8534,13835 8555,13834 8576,13835 8598,13835 8620,13838 8641,13841 8663,13846"/>
 </g>
 <g style="stroke:none;fill:rgb(217,217,217)">
  <polygon points="10470,13846 10459,13853 10449,13860 10438,13866 10428,13872 10417,13878 10406,13884 10395,13890 10385,13896 10374,13901 10363,13906 10352,13911 10341,13915 10329,13921 10318,13925 10306,13929 10295,13933 10290,13928 10285,13922 10279,13916 10275,13909 10270,13903 10268,13896 10268,13888 10271,13881 10276,13877 10280,13877 10284,13878 10287,13880 10291,13882 10295,13885 10299,13886 10303,13886 10313,13885 10322,13884 10331,13882 10340,13881 10348,13878 10357,13875 10365,13872 10374,13869 10382,13866 10390,13862 10398,13858 10406,13854 10414,13851 10423,13847 10430,13843 10439,13840 10470,13846"/>
 </g>
 <g style="stroke:none;fill:rgb(204,204,204)">
  <polygon points="10300,13862 10286,13862 10286,13856 10287,13851 10290,13847 10295,13842 10298,13845 10300,13849 10300,13855 10300,13862"/>
  <polygon points="10842,13862 10838,13865 10833,13866 10828,13866 10822,13866 10828,13848 10832,13850 10837,13854 10841,13858 10842,13862"/>
 </g>
 <g style="stroke:none;fill:rgb(217,217,217)">
  <polygon points="10945,13852 10943,13866 10941,13879 10940,13892 10938,13906 10937,13919 10935,13932 10933,13945 10931,13959 10929,13972 10928,13986 10925,13999 10925,14013 10923,14027 10921,14041 10919,14055 10918,14069 10913,14074 10910,14062 10907,14051 10903,14038 10901,14026 10899,14014 10899,14002 10902,13993 10907,13984 10911,13967 10914,13949 10916,13933 10918,13916 10921,13900 10924,13883 10926,13866 10930,13848 10945,13852"/>
 </g>
 <g style="stroke:none;fill:rgb(255,255,255)">
  <polygon points="9115,13881 9103,13881 9091,13881 9079,13881 9067,13881 9054,13882 9042,13884 9030,13885 9017,13886 9004,13888 8992,13888 8980,13889 8968,13890 8955,13890 8943,13890 8931,13890 8919,13889 8932,13889 8944,13889 8956,13888 8968,13888 8980,13887 8992,13885 9003,13884 9015,13883 9027,13881 9039,13881 9052,13880 9064,13880 9076,13879 9089,13879 9102,13880 9115,13881"/>
  <polygon points="9125,13877 9125,13874 9140,13874 9140,13877 9125,13877"/>
 </g>
 <g style="stroke:none;fill:rgb(204,204,204)">
  <polygon points="11030,13877 11030,13881 11029,13885 11030,13889 11032,13892 11018,13892 11018,13887 11021,13881 11026,13878 11030,13877"/>
  <polygon points="10868,13958 10872,13973 10875,13988 10879,14002 10881,14017 10884,14033 10887,14048 10890,14062 10893,14077 10888,14080 10883,14080 10876,14080 10870,14080 10868,14069 10864,14059 10861,14049 10858,14038 10855,14028 10852,14017 10848,14007 10846,13997 10842,13986 10840,13975 10837,13965 10835,13954 10832,13943 10831,13932 10829,13921 10828,13909 10831,13907 10834,13906 10837,13904 10841,13903 10844,13903 10847,13903 10851,13903 10854,13903 10855,13910 10858,13918 10860,13925 10863,13931 10866,13938 10868,13945 10869,13951 10868,13958"/>
 </g>
 <g style="stroke:none;fill:rgb(255,255,255)">
  <polygon points="8762,13929 8742,13929 8742,13920 8744,13912 8750,13907 8758,13906 8761,13911 8762,13917 8762,13923 8762,13929"/>
  <polygon points="11020,13912 11019,13915 11015,13915 11010,13915 11006,13915 11009,13912 11013,13912 11016,13912 11020,13912"/>
 </g>
 <g style="stroke:none;fill:rgb(204,204,204)">
  <polygon points="10766,13929 10766,13936 10743,13939 10746,13918 10754,13917 10757,13921 10762,13925 10766,13929"/>
 </g>
 <g style="stroke:none;fill:rgb(255,255,255)">
  <polygon points="9222,13936 9208,13937 9193,13939 9179,13940 9164,13941 9148,13943 9133,13945 9117,13946 9102,13948 9087,13948 9071,13949 9056,13949 9041,13949 9026,13949 9012,13949 8998,13948 8985,13947 9001,13948 9017,13948 9033,13947 9048,13947 9064,13946 9078,13944 9092,13943 9108,13941 9121,13941 9135,13939 9150,13938 9165,13936 9179,13936 9193,13936 9208,13936 9222,13936"/>
 </g>
 <g style="stroke:none;fill:rgb(204,204,204)">
  <polygon points="11018,13936 11014,13944 11009,13954 11005,13963 11001,13973 10996,13982 10993,13991 10988,14001 10984,14010 10980,14020 10975,14029 10971,14038 10967,14047 10963,14056 10958,14064 10952,14072 10948,14080 10939,14080 10942,14070 10946,14061 10950,14051 10953,14042 10958,14032 10961,14023 10965,14013 10970,14003 10974,13995 10978,13985 10983,13976 10988,13967 10993,13958 10998,13949 11004,13941 11009,13933 11018,13936"/>
 </g>
 <g style="stroke:none;fill:rgb(255,255,255)">
  <polygon points="8764,13970 8764,13979 8742,13976 8742,13947 8747,13946 8752,13946 8757,13948 8760,13949 8763,13953 8764,13958 8765,13963 8764,13970"/>
  <polygon points="9248,13956 9231,13960 9212,13963 9193,13967 9174,13970 9155,13972 9135,13975 9116,13976 9097,13977 9077,13978 9057,13978 9037,13978 9018,13978 8998,13977 8979,13976 8959,13975 8940,13973 8961,13974 8981,13974 9001,13974 9020,13974 9040,13974 9058,13973 9077,13972 9096,13971 9114,13969 9133,13968 9152,13967 9170,13965 9190,13963 9209,13961 9228,13958 9248,13956"/>
 </g>
 <g style="stroke:none;fill:rgb(127,127,127)">
  <polygon points="9711,13999 9722,14016 9732,14035 9742,14056 9753,14075 9763,14092 9775,14109 9790,14122 9807,14132 9810,14127 9815,14124 9820,14120 9826,14117 9832,14113 9838,14110 9842,14104 9846,14098 9846,14108 9844,14118 9842,14129 9839,14141 9834,14151 9830,14163 9826,14172 9821,14182 9803,14185 9783,14188 9763,14192 9744,14194 9724,14196 9704,14198 9684,14199 9664,14200 9643,14200 9624,14199 9603,14197 9584,14195 9565,14192 9545,14188 9525,14185 9507,14179 9501,14171 9495,14163 9491,14153 9488,14144 9486,14133 9484,14123 9483,14112 9483,14101 9483,14091 9484,14079 9486,14068 9488,14057 9490,14046 9493,14035 9496,14026 9499,14016 9508,13999 9521,13987 9537,13980 9556,13975 9576,13974 9596,13973 9615,13971 9632,13968 9643,13966 9655,13964 9668,13964 9680,13966 9692,13969 9702,13976 9709,13986 9711,13999"/>
 </g>
 <g style="stroke:none;fill:rgb(204,204,204)">
  <polygon points="10800,14023 10820,14083 10803,14086 10799,14072 10795,14057 10790,14043 10785,14030 10780,14016 10774,14002 10768,13989 10761,13976 10772,13968 10780,13968 10785,13972 10788,13981 10791,13992 10793,14003 10796,14015 10800,14023"/>
 </g>
 <g style="stroke:none;fill:rgb(255,255,255)">
  <polygon points="8940,13993 8940,13990 8982,13993 8982,13997 8940,13993"/>
  <polygon points="9002,13999 9112,13997 9137,13999 9002,13999"/>
  <polygon points="8928,14008 8929,14005 8994,14011 8994,14014 8928,14008"/>
  <polygon points="9098,14014 9166,14008 9202,14008 9098,14014"/>
  <polygon points="8895,14023 8895,14020 8912,14020 8912,14023 8895,14023"/>
  <polygon points="8928,14026 8928,14023 9081,14026 9081,14028 8928,14026"/>
  <polygon points="9245,14028 9245,14026 9256,14026 9256,14028 9245,14028"/>
  <polygon points="9206,14030 9206,14028 9225,14028 9225,14030 9206,14030"/>
 </g>
 <g style="stroke:none;fill:rgb(153,153,153)">
  <polygon points="9476,14170 9470,14157 9464,14140 9461,14122 9460,14103 9461,14084 9464,14066 9470,14049 9476,14034 9471,14050 9467,14067 9465,14084 9464,14102 9465,14120 9467,14137 9471,14154 9476,14170"/>
 </g>
 <g style="stroke:none;fill:rgb(255,255,255)">
  <polygon points="8904,14049 8904,14045 9024,14049 9024,14051 8904,14049"/>
 </g>
 <g style="stroke:none;fill:rgb(204,204,204)">
  <polygon points="9843,14069 9841,14075 9839,14080 9836,14084 9832,14089 9827,14092 9823,14095 9818,14098 9813,14101 9811,14095 9809,14091 9809,14084 9809,14078 9809,14072 9810,14065 9811,14058 9813,14051 9815,14055 9817,14059 9820,14062 9824,14065 9827,14067 9832,14069 9838,14069 9843,14069"/>
 </g>
 <g style="stroke:none;fill:rgb(255,255,255)">
  <polygon points="9137,14063 9120,14063 9102,14064 9086,14064 9069,14065 9053,14066 9035,14067 9019,14068 9003,14068 8986,14069 8970,14069 8953,14069 8937,14069 8920,14069 8904,14068 8886,14067 8870,14066 8885,14066 8902,14066 8918,14066 8935,14066 8952,14065 8970,14065 8986,14064 9004,14064 9021,14063 9039,14063 9056,14063 9073,14062 9090,14062 9106,14062 9122,14063 9137,14063"/>
  <polygon points="10967,14103 10970,14117 10972,14130 10974,14144 10974,14157 10975,14171 10975,14186 10975,14201 10974,14215 10974,14230 10973,14244 10972,14258 10971,14272 10970,14286 10969,14300 10968,14313 10967,14326 10959,14336 10778,14336 10772,14328 10767,14320 10762,14311 10758,14301 10755,14290 10754,14280 10754,14269 10755,14259 10754,14250 10753,14241 10753,14233 10752,14224 10752,14215 10753,14206 10754,14196 10754,14185 10756,14176 10757,14166 10758,14157 10761,14148 10763,14139 10765,14130 10767,14122 10769,14113 10782,14111 10794,14110 10807,14108 10820,14106 10831,14104 10844,14102 10856,14101 10869,14100 10881,14099 10893,14098 10905,14097 10918,14097 10929,14098 10942,14099 10954,14101 10967,14103"/>
  <polygon points="9214,14107 9211,14108 9208,14109 9205,14110 9202,14110 9198,14109 9195,14109 9191,14110 9188,14110 9191,14108 9193,14107 9197,14106 9200,14105 9202,14105 9206,14105 9210,14106 9214,14107"/>
 </g>
 <g style="stroke:none;fill:rgb(0,0,0)">
  <polygon points="8852,14129 8851,14131 8850,14132 8849,14134 8849,14136 8874,14138 8901,14140 8927,14142 8953,14143 8981,14144 9007,14145 9034,14145 9061,14145 9087,14145 9114,14145 9141,14144 9168,14143 9194,14141 9220,14138 9245,14136 9270,14132 9270,14138 9262,14140 9254,14141 9246,14142 9239,14142 9232,14144 9226,14146 9222,14151 9220,14157 9214,14161 8858,14158 8858,14152 8854,14148 8848,14146 8842,14145 8836,14144 8833,14142 8833,14137 8838,14129 8852,14129"/>
 </g>
 <g style="stroke:none;fill:rgb(255,255,255)">
  <polygon points="9815,14253 9811,14256 9807,14260 9804,14262 9800,14266 9796,14270 9793,14274 9789,14278 9785,14282 9786,14272 9785,14258 9784,14244 9783,14230 9784,14217 9787,14207 9796,14201 9809,14201 9815,14205 9817,14210 9818,14217 9817,14224 9816,14232 9815,14239 9815,14247 9815,14253"/>
 </g>
 <g style="stroke:none;fill:rgb(204,204,204)">
  <polygon points="9764,14206 9770,14291 9742,14330 9677,14334 9682,14215 9764,14206"/>
 </g>
 <g style="stroke:none;fill:rgb(178,178,178)">
  <polygon points="9666,14212 9663,14332 9648,14332 9648,14327 9648,14314 9649,14294 9649,14273 9649,14251 9649,14233 9649,14220 9648,14215 9650,14216 9656,14215 9663,14213 9666,14212"/>
 </g>
 <g style="stroke:none;fill:rgb(255,255,255)">
  <polygon points="8883,14227 8897,14225 8912,14224 8926,14222 8941,14222 8956,14222 8971,14221 8986,14221 9001,14221 9016,14221 9031,14221 9046,14222 9061,14222 9075,14222 9090,14223 9104,14223 9118,14224 8883,14227"/>
  <polygon points="9050,14241 9041,14242 9031,14243 9021,14243 9012,14244 9002,14244 8992,14244 8981,14244 8972,14244 8962,14244 8952,14244 8942,14244 8932,14244 8923,14244 8914,14244 8904,14245 8895,14245 8905,14244 8915,14243 8925,14242 8935,14242 8944,14241 8954,14241 8963,14241 8973,14241 8983,14241 8992,14241 9002,14241 9012,14241 9021,14241 9031,14241 9041,14241 9050,14241"/>
  <polygon points="9083,14239 9083,14235 9101,14235 9101,14239 9083,14239"/>
  <polygon points="8867,14259 8867,14255 8901,14259 8900,14261 8867,14259"/>
  <polygon points="9206,14334 9192,14339 9177,14343 9162,14347 9146,14349 9130,14351 9113,14353 9098,14354 9083,14354 9100,14353 9115,14350 9130,14348 9145,14344 9159,14341 9174,14338 9189,14335 9206,14334"/>
 </g>
 <g style="stroke:none;fill:rgb(204,204,204)">
  <polygon points="11484,14346 11483,14356 11482,14366 11481,14376 11479,14384 11478,14393 11477,14403 11477,14412 11478,14423 11471,14423 11463,14424 11456,14424 11449,14425 11441,14426 11436,14429 11430,14433 11425,14438 11424,14463 11424,14489 11423,14513 11422,14538 11422,14563 11421,14586 11420,14610 11420,14634 11419,14658 11419,14682 11418,14705 11418,14729 11418,14752 11418,14775 11417,14797 11417,14821 11417,14844 11416,14867 11416,14890 11416,14913 11416,14935 11415,14959 11415,14981 11415,15004 11415,15027 11415,15050 11415,15074 11415,15096 11415,15120 11415,15143 11415,15167 11415,15190 11407,15420 11399,15430 11284,15430 11287,15419 11288,15407 11289,15395 11289,15383 11289,15371 11288,15360 11287,15347 11287,15335 11264,15321 11231,15318 11193,15316 11153,15315 11108,15313 11062,15312 11012,15310 10959,15309 10905,15308 10848,15308 10790,15307 10731,15306 10670,15305 10609,15305 10548,15304 10485,15304 10425,15303 10363,15303 10303,15303 10244,15303 10186,15302 10130,15302 10075,15302 10024,15302 9973,15301 9927,15301 9884,15301 9843,15301 9805,15300 9773,15300 9745,15299 9721,15298 9703,15297 9692,15301 9684,15310 9679,15322 9677,15335 9675,15349 9675,15364 9674,15378 9672,15390 9663,15391 9653,15393 9643,15394 9633,15395 9623,15395 9613,15396 9603,15396 9594,15397 9584,15397 9575,15396 9565,15395 9555,15395 9546,15393 9536,15390 9528,15388 9519,15384 9517,15376 9516,15365 9515,15350 9513,15332 9513,15311 9512,15288 9512,15262 9511,15234 9510,15203 9510,15172 9509,15139 9509,15104 9509,15069 9509,15034 9509,14997 9509,14961 9509,14925 9509,14890 9509,14855 9509,14821 9509,14788 9509,14757 9509,14727 9509,14700 9509,14675 9509,14652 9510,14632 9510,14616 9510,14602 9510,14592 9510,14585 9510,14583 9505,14453 9496,14452 9487,14451 9479,14449 9471,14448 9464,14448 9455,14447 9447,14447 9437,14448 9442,14351 9802,14354 10828,14354 11399,14351 11409,14350 11418,14349 11430,14348 11440,14348 11449,14347 11459,14346 11468,14346 11475,14346 11484,14346"/>
  <polygon points="9247,14380 9251,14504 8171,14510 8165,14392 9247,14380"/>
 </g>
 <g style="stroke:none;fill:rgb(0,0,0)">
  <polygon points="11255,14436 11256,14455 11258,14476 11258,14499 11258,14524 11259,14549 11259,14576 11259,14605 11259,14634 11259,14664 11258,14694 11258,14725 11258,14757 11257,14788 11257,14820 11256,14852 11255,14883 11254,14914 11253,14945 11252,14974 11251,15004 11250,15032 11248,15059 11247,15085 11247,15109 11246,15133 11245,15154 11244,15173 11243,15191 11243,15207 11243,15220 11242,15231 11242,15240 11218,15241 11188,15241 11153,15241 11111,15242 11065,15243 11015,15243 10960,15244 10902,15244 10841,15245 10777,15245 10711,15245 10643,15246 10574,15246 10505,15246 10435,15247 10365,15247 10296,15247 10228,15247 10161,15247 10096,15248 10035,15248 9975,15248 9920,15248 9868,15248 9819,15248 9777,15248 9740,15248 9708,15248 9682,15248 9664,15248 9653,15248 9648,15248 9647,15244 9647,15237 9646,15226 9646,15210 9645,15192 9645,15170 9645,15146 9645,15119 9645,15089 9646,15058 9646,15025 9647,14990 9647,14954 9647,14918 9648,14881 9649,14844 9649,14806 9650,14770 9651,14733 9652,14697 9653,14664 9654,14631 9654,14600 9654,14570 9655,14544 9656,14520 9656,14499 9657,14481 9657,14466 9658,14456 9658,14449 9658,14447 9664,14445 9677,14444 9699,14443 9729,14442 9764,14441 9807,14440 9857,14439 9909,14438 9967,14438 10029,14437 10094,14436 10162,14436 10232,14436 10303,14436 10377,14436 10451,14436 10525,14436 10597,14436 10669,14436 10740,14436 10809,14436 10874,14436 10937,14436 10995,14436 11048,14436 11097,14436 11141,14436 11178,14436 11209,14436 11232,14436 11247,14436 11255,14436"/>
 </g>
 <g style="stroke:none;fill:rgb(191,191,191)">
  <polygon points="11242,14453 11243,14470 11243,14489 11243,14509 11244,14530 11244,14553 11244,14576 11244,14600 11244,14625 11244,14651 11244,14677 11243,14704 11243,14731 11243,14759 11242,14787 11241,14815 11240,14844 11239,14872 11238,14899 11237,14927 11236,14954 11235,14981 11235,15008 11234,15034 11233,15060 11232,15084 11232,15108 11231,15130 11230,15151 11229,15172 11228,15191 11228,15208 11227,15225 11190,15225 11149,15225 11105,15225 11059,15225 11008,15225 10957,15226 10902,15226 10846,15226 10788,15226 10729,15227 10668,15227 10608,15227 10547,15228 10485,15228 10424,15228 10363,15229 10302,15229 10243,15229 10185,15229 10128,15230 10074,15230 10020,15230 9970,15231 9923,15231 9878,15232 9836,15232 9796,15232 9762,15233 9731,15233 9706,15233 9684,15234 9668,15234 9667,15210 9666,15187 9666,15163 9665,15140 9664,15115 9664,15092 9663,15067 9663,15044 9663,15019 9663,14995 9663,14971 9663,14947 9664,14923 9664,14899 9665,14873 9665,14849 9666,14824 9666,14800 9666,14776 9667,14752 9668,14727 9668,14703 9669,14677 9669,14653 9670,14629 9671,14604 9672,14580 9672,14556 9673,14531 9674,14507 9674,14483 9675,14459 9694,14459 9720,14458 9751,14458 9788,14458 9830,14457 9878,14457 9928,14457 9982,14457 10039,14457 10099,14457 10161,14456 10225,14456 10290,14456 10358,14456 10425,14456 10492,14456 10559,14456 10625,14456 10690,14456 10754,14456 10816,14456 10875,14456 10932,14456 10985,14456 11035,14456 11081,14456 11121,14455 11157,14455 11187,14455 11212,14454 11230,14454 11242,14453"/>
 </g>
 <g style="stroke:none;fill:rgb(204,204,204)">
  <polygon points="9222,14527 9222,14530 9222,14537 9222,14549 9222,14564 9222,14584 9221,14608 9221,14635 9221,14665 9221,14696 9221,14730 9220,14766 9220,14805 9220,14844 9220,14884 9220,14925 9220,14966 9220,15007 9220,15047 9220,15087 9220,15127 9220,15165 9220,15202 9220,15235 9220,15267 9220,15297 9220,15324 9221,15347 9221,15367 9222,15383 9222,15395 9223,15402 9224,15405 9225,15405 9222,15405 9217,15405 9212,15405 9205,15405 9200,15405 9196,15405 9194,15405 9185,14526 9222,14527"/>
  <polygon points="8222,14531 8235,15399 8207,15402 8199,14531 8222,14531"/>
 </g>
 <g style="stroke:none;fill:rgb(0,0,0)">
  <polygon points="10442,14593 10462,14593 10483,14592 10503,14590 10524,14589 10543,14587 10563,14584 10582,14583 10602,14580 10621,14578 10640,14576 10659,14575 10679,14575 10698,14575 10718,14575 10737,14576 10757,14579 10758,14606 10761,14633 10765,14660 10768,14686 10773,14712 10778,14737 10784,14763 10791,14788 10798,14813 10805,14838 10813,14862 10822,14887 10832,14910 10841,14934 10852,14958 10863,14981 10865,14984 10869,14986 10871,14990 10874,14993 10877,14997 10878,15001 10877,15006 10874,15010 10850,15015 10826,15020 10802,15025 10778,15029 10754,15034 10730,15038 10706,15042 10681,15046 10657,15050 10633,15054 10609,15059 10585,15063 10561,15067 10537,15073 10514,15078 10490,15083 10467,15087 10444,15091 10421,15095 10399,15099 10377,15103 10355,15108 10333,15111 10311,15115 10289,15120 10267,15124 10246,15129 10223,15134 10201,15138 10180,15143 10158,15147 10137,15153 10134,15151 10130,15149 10126,15148 10122,15147 10119,15146 10116,15144 10113,15141 10112,15138 10112,15120 10108,15102 10103,15086 10096,15068 10090,15052 10083,15034 10077,15017 10074,15000 10071,14979 10068,14959 10065,14938 10062,14917 10060,14896 10057,14875 10054,14854 10051,14833 10049,14812 10047,14792 10044,14771 10041,14751 10038,14730 10036,14711 10033,14691 10030,14670 10013,14663 10032,14654 10052,14646 10073,14639 10094,14633 10115,14628 10136,14624 10158,14619 10180,14616 10202,14613 10224,14610 10246,14607 10268,14604 10291,14602 10313,14599 10335,14597 10358,14593 10360,14588 10361,14582 10361,14575 10361,14569 10361,14562 10362,14555 10363,14549 10365,14542 10374,14539 10382,14537 10391,14535 10401,14534 10411,14532 10420,14531 10429,14530 10439,14528 10442,14593"/>
 </g>
 <g style="stroke:none;fill:rgb(255,255,255)">
  <polygon points="10421,14605 10418,14605 10419,14609 10420,14613 10422,14617 10424,14621 10425,14625 10425,14631 10424,14636 10421,14642 10415,14644 10409,14647 10403,14650 10397,14652 10391,14655 10385,14658 10378,14659 10371,14660 10374,14643 10374,14626 10375,14608 10377,14590 10380,14576 10387,14563 10398,14554 10414,14550 10421,14550 10421,14605"/>
  <polygon points="10752,14699 10732,14693 10719,14697 10710,14705 10709,14716 10712,14727 10721,14734 10736,14735 10757,14725 10759,14734 10761,14744 10764,14752 10766,14762 10768,14771 10770,14780 10772,14789 10775,14798 10778,14811 10781,14824 10784,14836 10787,14849 10791,14862 10794,14875 10798,14888 10802,14901 10806,14914 10810,14926 10815,14940 10820,14952 10826,14964 10833,14976 10841,14988 10848,15000 10827,15003 10805,15006 10784,15009 10763,15013 10742,15016 10720,15020 10698,15024 10677,15027 10656,15032 10635,15035 10613,15040 10592,15044 10571,15047 10551,15052 10529,15056 10508,15060 10487,15065 10466,15068 10445,15073 10424,15077 10402,15081 10381,15085 10360,15089 10340,15093 10319,15097 10298,15101 10276,15105 10255,15108 10233,15112 10212,15115 10190,15119 10169,15122 10177,15119 10184,15113 10191,15108 10199,15103 10207,15099 10214,15097 10223,15099 10233,15104 10237,15105 10242,15103 10244,15101 10246,15098 10233,15065 10232,15056 10231,15047 10226,15039 10220,15032 10211,15026 10199,15024 10184,15025 10165,15031 10158,15031 10152,15032 10146,15034 10141,15039 10136,15043 10131,15047 10127,15053 10122,15057 10125,15063 10130,15068 10135,15073 10140,15075 10157,15075 10156,15079 10153,15083 10151,15087 10148,15090 10145,15094 10142,15097 10140,15101 10137,15104 10125,15079 10114,15054 10105,15028 10096,15002 10090,14975 10084,14947 10079,14919 10074,14891 10071,14863 10068,14834 10065,14805 10063,14777 10061,14748 10059,14719 10058,14691 10056,14663 10073,14658 10090,14652 10107,14649 10126,14645 10144,14642 10163,14639 10182,14637 10201,14635 10220,14633 10239,14632 10258,14630 10278,14628 10297,14625 10316,14624 10335,14621 10353,14618 10352,14627 10352,14636 10349,14643 10347,14651 10345,14659 10343,14667 10342,14674 10343,14681 10357,14682 10370,14681 10385,14679 10398,14676 10412,14671 10425,14666 10436,14659 10447,14652 10447,14647 10446,14643 10445,14638 10444,14634 10443,14630 10442,14625 10442,14621 10442,14616 10461,14614 10480,14612 10497,14610 10516,14609 10535,14606 10552,14604 10571,14602 10590,14601 10608,14599 10627,14598 10646,14597 10664,14596 10683,14596 10702,14596 10722,14597 10742,14598 10752,14699"/>
  <polygon points="10429,14762 10429,14767 10427,14771 10424,14775 10419,14778 10414,14779 10408,14780 10402,14781 10396,14780 10392,14779 10389,14780 10385,14779 10383,14776 10385,14769 10390,14764 10395,14760 10402,14759 10409,14758 10416,14759 10423,14760 10429,14762"/>
  <polygon points="10543,14903 10545,14908 10544,14914 10542,14920 10539,14925 10535,14931 10529,14934 10524,14937 10518,14937 10513,14932 10510,14925 10511,14918 10514,14911 10519,14906 10526,14901 10535,14900 10543,14903"/>
  <polygon points="10432,14908 10434,14913 10434,14916 10431,14918 10428,14920 10424,14922 10419,14923 10415,14925 10411,14926 10413,14918 10418,14914 10426,14913 10432,14908"/>
 </g>
 <g style="stroke:none;fill:rgb(0,0,0)">
  <polygon points="10002,13271 10008,13269 10014,13265 10017,13260 10018,13253 10017,13246 10014,13241 10008,13238 10002,13237 9995,13238 9990,13241 9986,13246 9985,13253 9986,13260 9990,13265 9995,13269 10002,13271"/>
  <polygon points="10147,14923 10147,14928 10147,14933 10145,14937 10140,14938 10136,14938 10133,14938 10130,14938 10127,14935 10128,14927 10133,14921 10141,14919 10147,14923"/>
  <polygon points="10307,15088 10307,15094 10307,15099 10304,15102 10299,15103 10296,15103 10292,15104 10288,15103 10286,15101 10287,15093 10292,15087 10300,15085 10307,15088"/>
 </g>
 <g style="stroke:none;fill:rgb(255,255,255)">
  <polygon points="8193,14129 8213,14128 8233,14127 8252,14126 8272,14125 8291,14124 8310,14124 8329,14124 8348,14124 8367,14124 8384,14124 8403,14124 8421,14124 8440,14124 8458,14124 8475,14125 8493,14125 8511,14125 8529,14126 8546,14126 8564,14127 8582,14127 8600,14127 8618,14127 8635,14127 8653,14127 8671,14127 8690,14127 8708,14127 8726,14126 8745,14125 8763,14124 8782,14124 8784,14108 8783,14093 8781,14077 8779,14062 8776,14047 8775,14031 8775,14016 8779,13999 8772,13997 8764,13997 8756,13997 8748,13997 8741,13996 8733,13994 8727,13990 8722,13984 8727,13973 8730,13962 8731,13949 8730,13936 8729,13924 8728,13912 8728,13901 8731,13889 8736,13893 8742,13894 8747,13893 8753,13891 8758,13889 8764,13888 8769,13889 8776,13892 8777,13899 8776,13907 8775,13915 8774,13922 8774,13930 8773,13937 8774,13945 8776,13953 8781,13941 8783,13929 8784,13916 8785,13904 8784,13891 8785,13879 8786,13866 8790,13854 8774,13853 8759,13854 8744,13856 8728,13859 8713,13862 8697,13864 8681,13864 8665,13862 8635,13861 8607,13860 8577,13860 8547,13859 8518,13860 8488,13860 8458,13861 8428,13862 8397,13863 8367,13865 8336,13867 8305,13869 8274,13870 8242,13873 8211,13874 8179,13877 8176,13899 8174,13922 8172,13943 8172,13965 8173,13987 8174,14008 8175,14028 8178,14047 8180,14064 8183,14080 8186,14095 8188,14106 8190,14117 8191,14124 8193,14128 8193,14129"/>
  <polygon points="8756,14142 8762,14369 8732,14369 8702,14369 8672,14369 8642,14369 8610,14369 8578,14369 8546,14369 8514,14369 8481,14369 8449,14369 8416,14370 8383,14370 8351,14371 8317,14372 8285,14374 8253,14375 8252,14361 8250,14344 8248,14327 8247,14309 8246,14288 8245,14269 8244,14250 8242,14231 8242,14213 8241,14195 8241,14178 8240,14165 8240,14154 8239,14145 8239,14140 8239,14138 8244,14138 8257,14138 8279,14138 8307,14139 8340,14139 8377,14139 8418,14140 8462,14140 8506,14140 8551,14141 8594,14141 8635,14141 8673,14142 8707,14142 8735,14142 8756,14142"/>
 </g>
 <g style="stroke:none;fill:rgb(0,0,0)">
  <polygon points="8698,13877 8699,13882 8703,13885 8709,13886 8713,13886 8713,13897 8713,13908 8713,13921 8713,13933 8713,13945 8713,13958 8713,13970 8713,13983 8713,13997 8713,14009 8713,14022 8713,14035 8712,14047 8711,14059 8709,14071 8708,14083 8691,14085 8676,14086 8662,14087 8648,14088 8635,14088 8621,14089 8608,14089 8595,14089 8582,14088 8568,14088 8555,14088 8541,14088 8528,14088 8513,14088 8498,14088 8482,14089 8467,14088 8452,14088 8437,14087 8423,14086 8408,14085 8394,14085 8380,14084 8365,14083 8351,14083 8337,14083 8323,14083 8309,14083 8295,14083 8281,14083 8267,14083 8253,14083 8243,14080 8236,14073 8233,14062 8231,14050 8232,14037 8233,14024 8234,14012 8234,14001 8231,13988 8229,13975 8227,13962 8226,13948 8225,13936 8224,13922 8224,13909 8225,13897 8237,13890 8252,13887 8268,13886 8284,13886 8301,13886 8317,13885 8332,13882 8347,13877 8368,13878 8389,13879 8411,13879 8433,13880 8455,13880 8477,13881 8500,13881 8522,13881 8544,13881 8567,13881 8589,13880 8611,13880 8633,13879 8655,13879 8676,13878 8698,13877"/>
 </g>
 <g style="stroke:none;fill:rgb(255,255,255)">
  <polygon points="8698,14063 8686,14068 8657,14069 8631,14070 8603,14071 8576,14071 8550,14071 8524,14070 8497,14069 8471,14068 8445,14067 8418,14066 8392,14064 8366,14063 8340,14062 8313,14062 8286,14062 8259,14062 8257,14056 8257,14047 8255,14039 8254,14030 8253,14020 8252,14010 8252,14001 8252,13990 8251,13980 8251,13970 8250,13960 8249,13949 8249,13940 8248,13930 8248,13921 8247,13912 8274,13907 8301,13904 8328,13902 8356,13900 8384,13898 8414,13897 8442,13897 8471,13897 8500,13897 8530,13897 8558,13897 8587,13898 8615,13898 8643,13897 8670,13896 8698,13896 8698,13906 8698,13916 8699,13926 8699,13936 8700,13948 8700,13958 8700,13968 8700,13979 8700,13989 8700,14001 8700,14011 8699,14022 8699,14032 8698,14042 8698,14053 8698,14063"/>
 </g>
 <g style="stroke:none;fill:rgb(0,0,0)">
  <path d="M 10324,14822 L 10324,14822 10322,14823 10320,14823 10319,14824 10317,14824 10315,14824 10313,14824 10312,14824 10309,14825 10307,14826 10304,14827 10301,14828 10304,14840 10308,14858 10311,14874 10313,14890 10315,14904 10316,14917 10317,14929 10317,14940 10317,14949 10316,14954 10315,14959 10313,14964 10312,14968 10309,14972 10307,14974 10303,14976 10300,14978 10296,14979 10292,14980 10288,14980 10284,14980 10279,14980 10275,14979 10270,14978 10266,14976 10261,14974 10257,14972 10253,14968 10250,14966 10247,14962 10245,14958 10243,14954 10242,14950 10242,14944 10242,14940 10245,14936 10248,14934 10253,14933 10256,14935 10258,14938 10260,14943 10262,14947 10264,14951 10268,14954 10275,14957 10280,14959 10286,14959 10290,14959 10296,14958 10298,14956 10299,14953 10300,14949 10300,14943 10300,14935 10299,14926 10298,14916 10297,14905 10296,14899 10295,14892 10293,14886 10292,14878 10290,14871 10289,14862 10287,14854 10286,14846 10286,14845 10285,14842 10284,14839 10283,14835 10278,14838 10275,14839 10273,14839 10270,14840 10267,14841 10264,14842 10260,14843 10257,14844 10255,14844 10253,14845 10252,14845 10250,14845 10248,14844 10247,14843 10246,14841 10245,14839 10244,14837 10244,14832 10246,14828 10249,14825 10254,14823 10256,14822 10258,14821 10261,14820 10264,14819 10267,14819 10269,14819 10272,14818 10274,14818 10277,14816 10280,14814 10286,14813 10290,14812 10296,14809 10301,14807 10304,14805 10308,14805 10317,14803 10324,14803 10330,14805 10332,14809 10332,14811 10332,14813 10331,14815 10330,14817 10329,14819 10328,14820 10326,14821 10324,14822 10324,14822 Z M 10423,14932 L 10417,14933 10413,14934 10407,14935 10402,14935 10398,14935 10394,14934 10390,14933 10385,14932 10382,14929 10379,14926 10375,14924 10373,14920 10370,14916 10368,14912 10366,14906 10365,14901 10364,14895 10363,14889 10363,14883 10363,14877 10363,14872 10364,14866 10366,14861 10368,14856 10370,14851 10373,14846 10376,14840 10380,14837 10384,14833 10388,14830 10393,14827 10398,14825 10402,14824 10406,14824 10409,14823 10413,14823 10415,14823 10418,14823 10422,14823 10425,14824 10430,14825 10436,14829 10439,14834 10441,14840 10441,14845 10440,14850 10438,14855 10434,14861 10431,14864 10428,14867 10423,14872 10416,14878 10385,14906 10388,14910 10392,14912 10395,14914 10399,14915 10403,14915 10408,14915 10414,14914 10418,14913 10422,14912 10425,14910 10429,14908 10433,14906 10437,14903 10441,14899 10444,14897 10446,14893 10447,14890 10448,14887 10450,14886 10451,14885 10452,14885 10454,14885 10456,14885 10458,14886 10458,14887 10460,14888 10461,14890 10462,14891 10462,14897 10459,14903 10455,14910 10448,14916 10445,14918 10441,14921 10439,14923 10436,14925 10432,14926 10429,14928 10425,14930 10422,14931 10423,14932 Z M 10402,14843 L 10396,14846 10391,14849 10388,14853 10385,14858 10384,14861 10382,14865 10381,14868 10381,14872 10380,14876 10380,14880 10380,14885 10380,14889 10405,14866 10412,14860 10417,14854 10423,14849 10426,14844 10421,14842 10415,14841 10408,14842 10402,14844 10402,14843 Z M 10517,14751 L 10512,14753 10507,14756 10503,14760 10501,14764 10498,14771 10497,14777 10497,14784 10498,14792 10499,14797 10506,14795 10512,14793 10516,14792 10519,14790 10526,14789 10530,14789 10535,14792 10537,14795 10537,14798 10536,14801 10533,14804 10530,14805 10529,14806 10527,14807 10526,14808 10524,14809 10520,14810 10516,14812 10509,14814 10502,14817 10505,14839 10506,14843 10507,14846 10508,14852 10510,14857 10511,14863 10513,14868 10514,14872 10514,14875 10515,14880 10516,14884 10517,14888 10517,14891 10518,14895 10518,14899 10518,14902 10518,14905 10517,14908 10516,14911 10514,14913 10511,14914 10509,14915 10507,14915 10505,14915 10503,14914 10503,14913 10501,14912 10500,14911 10499,14909 10499,14909 10499,14908 10499,14907 10499,14906 10499,14903 10499,14899 10498,14896 10498,14892 10497,14889 10496,14886 10496,14882 10496,14879 10490,14853 10484,14824 10479,14826 10474,14828 10471,14829 10470,14830 10465,14831 10462,14829 10459,14826 10458,14823 10458,14819 10461,14814 10465,14811 10472,14808 10481,14805 10481,14801 10481,14797 10480,14794 10480,14790 10479,14785 10479,14779 10479,14774 10479,14770 10480,14765 10481,14761 10482,14758 10484,14754 10485,14751 10488,14747 10491,14744 10494,14741 10497,14738 10502,14736 10506,14734 10511,14732 10517,14731 10521,14731 10525,14734 10526,14738 10526,14743 10526,14745 10521,14749 10516,14751 10517,14751 Z M 10623,14868 L 10618,14870 10613,14871 10608,14871 10603,14872 10599,14871 10595,14870 10591,14869 10586,14867 10582,14865 10579,14863 10575,14860 10573,14856 10570,14853 10569,14848 10567,14843 10565,14838 10564,14831 10563,14825 10563,14819 10563,14813 10563,14808 10564,14802 10566,14797 10568,14792 10570,14786 10573,14781 10576,14777 10581,14772 10584,14769 10589,14766 10593,14764 10598,14762 10602,14761 10606,14760 10609,14759 10613,14759 10616,14759 10619,14759 10622,14759 10624,14760 10630,14762 10635,14765 10639,14770 10641,14776 10641,14781 10641,14786 10638,14792 10634,14797 10631,14800 10628,14804 10623,14809 10616,14814 10585,14843 10588,14846 10592,14848 10596,14850 10600,14852 10604,14852 10608,14852 10613,14851 10619,14850 10622,14848 10625,14846 10630,14845 10633,14842 10637,14839 10641,14836 10644,14833 10646,14830 10647,14826 10648,14824 10650,14822 10652,14821 10653,14821 10655,14821 10656,14821 10657,14822 10658,14823 10660,14824 10661,14825 10662,14827 10662,14833 10660,14839 10655,14846 10648,14853 10646,14855 10642,14858 10639,14859 10636,14861 10633,14863 10630,14865 10626,14866 10623,14867 10623,14868 Z M 10602,14779 L 10597,14782 10592,14786 10588,14790 10585,14795 10584,14797 10582,14801 10581,14805 10581,14808 10581,14812 10580,14817 10580,14821 10580,14825 10606,14803 10613,14797 10619,14791 10623,14786 10626,14780 10621,14778 10615,14778 10609,14778 10602,14780 10602,14779 Z"/>
  <path d="M 10429,13688 L 10427,13688 10426,13687 10425,13687 10423,13687 10416,13685 10415,13691 10414,13696 10414,13702 10413,13708 10413,13709 10413,13711 10412,13713 10412,13714 10411,13716 10411,13718 10411,13719 10411,13721 10411,13723 10411,13725 10410,13727 10410,13728 10422,13730 10423,13730 10424,13731 10425,13731 10425,13732 10425,13733 10425,13733 10425,13734 10425,13734 10425,13735 10425,13736 10425,13737 10424,13738 10423,13738 10423,13738 10422,13739 10421,13739 10419,13738 10417,13738 10416,13738 10414,13738 10413,13737 10411,13737 10409,13737 10407,13736 10406,13736 10404,13736 10402,13736 10400,13736 10397,13736 10395,13736 10394,13736 10392,13736 10391,13736 10391,13735 10390,13735 10390,13734 10389,13734 10389,13733 10389,13733 10389,13732 10389,13731 10390,13730 10390,13729 10390,13729 10391,13728 10391,13728 10392,13728 10393,13728 10395,13728 10396,13728 10399,13728 10402,13728 10402,13727 10402,13725 10402,13723 10403,13720 10403,13719 10403,13718 10403,13716 10403,13714 10404,13713 10404,13711 10404,13709 10404,13708 10405,13702 10406,13697 10407,13691 10408,13684 10403,13684 10398,13683 10397,13683 10397,13682 10396,13682 10395,13681 10395,13681 10395,13680 10395,13680 10395,13679 10395,13677 10396,13675 10397,13674 10399,13674 10401,13674 10404,13675 10407,13675 10411,13676 10415,13677 10420,13678 10425,13680 10430,13681 10432,13681 10433,13682 10434,13684 10434,13685 10434,13686 10433,13686 10433,13687 10432,13687 10431,13688 10430,13688 10429,13688 10429,13688 Z M 10462,13747 L 10461,13747 10460,13746 10459,13745 10459,13743 10460,13734 10460,13732 10460,13730 10460,13727 10460,13726 10461,13725 10461,13724 10461,13722 10461,13721 10461,13720 10462,13719 10462,13719 10462,13718 10462,13714 10462,13711 10461,13709 10460,13708 10458,13708 10456,13709 10453,13711 10451,13713 10449,13715 10447,13718 10445,13720 10443,13724 10443,13725 10443,13726 10443,13727 10442,13728 10442,13729 10442,13730 10442,13731 10442,13732 10442,13733 10442,13734 10441,13734 10441,13735 10441,13736 10441,13738 10441,13739 10441,13740 10441,13741 10440,13741 10440,13741 10440,13742 10440,13742 10439,13742 10438,13743 10437,13743 10436,13742 10436,13742 10435,13742 10435,13741 10434,13741 10434,13740 10434,13739 10434,13738 10434,13738 10434,13737 10434,13735 10434,13734 10434,13734 10435,13733 10435,13732 10435,13731 10435,13729 10436,13727 10436,13723 10436,13719 10437,13716 10437,13713 10438,13710 10438,13708 10438,13708 10439,13707 10439,13705 10439,13704 10439,13703 10439,13702 10439,13701 10439,13700 10439,13700 10440,13699 10440,13698 10440,13698 10441,13697 10442,13697 10442,13697 10443,13697 10445,13698 10447,13699 10447,13700 10447,13703 10447,13708 10450,13704 10454,13701 10458,13700 10461,13700 10463,13701 10466,13702 10468,13705 10469,13708 10470,13710 10470,13713 10470,13715 10470,13719 10469,13723 10468,13727 10468,13728 10468,13731 10468,13733 10468,13735 10468,13738 10468,13741 10468,13742 10467,13744 10467,13745 10467,13746 10466,13746 10466,13746 10465,13747 10464,13747 10463,13747 10462,13747 10462,13747 Z M 10509,13693 L 10505,13693 10502,13696 10499,13700 10496,13706 10496,13708 10500,13708 10503,13708 10504,13709 10505,13709 10507,13710 10509,13711 10511,13713 10511,13714 10511,13715 10510,13716 10508,13717 10507,13717 10507,13717 10506,13717 10505,13717 10504,13717 10503,13716 10501,13716 10498,13716 10495,13716 10493,13725 10493,13727 10493,13728 10493,13730 10492,13733 10492,13735 10492,13737 10492,13739 10492,13740 10492,13743 10491,13746 10490,13749 10489,13752 10488,13753 10487,13753 10486,13754 10485,13754 10485,13754 10484,13753 10483,13753 10482,13753 10482,13752 10482,13751 10481,13751 10481,13750 10481,13750 10482,13749 10482,13749 10482,13749 10483,13746 10483,13744 10484,13741 10484,13738 10485,13727 10487,13715 10485,13715 10483,13715 10482,13715 10481,13715 10480,13714 10479,13714 10478,13712 10478,13710 10479,13709 10480,13708 10482,13708 10485,13708 10489,13708 10489,13706 10490,13705 10490,13703 10490,13701 10492,13698 10493,13694 10495,13692 10496,13689 10499,13687 10503,13686 10506,13686 10510,13686 10513,13686 10514,13687 10514,13689 10514,13691 10514,13693 10514,13693 10512,13693 10509,13693 10509,13693 Z M 10530,13757 L 10527,13756 10525,13754 10522,13753 10519,13750 10518,13746 10517,13743 10516,13739 10516,13734 10517,13730 10518,13726 10520,13722 10523,13719 10526,13715 10530,13714 10535,13713 10539,13713 10542,13714 10546,13716 10548,13719 10550,13722 10551,13726 10552,13729 10552,13733 10551,13737 10550,13741 10549,13745 10548,13748 10545,13751 10541,13753 10538,13755 10534,13756 10530,13756 10530,13757 Z M 10537,13721 L 10535,13721 10532,13722 10529,13723 10528,13726 10527,13727 10526,13730 10525,13733 10524,13735 10524,13739 10524,13741 10525,13743 10526,13745 10527,13746 10528,13747 10529,13748 10531,13748 10533,13748 10536,13748 10537,13747 10539,13746 10541,13745 10542,13743 10543,13741 10543,13738 10544,13731 10543,13726 10541,13722 10537,13721 10537,13721 Z M 10592,13733 L 10591,13735 10591,13736 10589,13737 10587,13737 10586,13737 10585,13736 10585,13734 10585,13733 10585,13733 10585,13732 10585,13731 10585,13730 10585,13727 10582,13727 10580,13727 10577,13727 10575,13728 10574,13730 10572,13732 10570,13734 10568,13735 10565,13758 10564,13759 10563,13761 10563,13761 10561,13761 10559,13761 10559,13760 10558,13758 10558,13756 10562,13728 10562,13727 10562,13727 10562,13726 10562,13725 10563,13724 10563,13722 10563,13721 10563,13720 10563,13719 10564,13718 10565,13717 10567,13717 10569,13718 10570,13719 10570,13721 10570,13724 10574,13721 10579,13719 10583,13719 10587,13719 10589,13719 10591,13720 10591,13721 10592,13722 10593,13724 10593,13726 10593,13727 10592,13730 10592,13731 10592,13732 10592,13733 10592,13733 10592,13733 Z M 10646,13775 L 10644,13774 10643,13773 10642,13771 10642,13770 10642,13768 10642,13764 10642,13761 10642,13757 10643,13745 10643,13743 10643,13741 10642,13741 10642,13739 10641,13737 10641,13736 10641,13735 10640,13735 10639,13735 10638,13735 10636,13736 10635,13737 10632,13738 10630,13738 10630,13739 10629,13740 10629,13741 10629,13743 10629,13746 10628,13747 10628,13758 10628,13761 10628,13764 10627,13767 10627,13768 10627,13769 10627,13769 10626,13770 10626,13771 10625,13772 10624,13772 10624,13772 10623,13772 10622,13772 10621,13771 10620,13771 10620,13770 10619,13769 10619,13768 10619,13768 10619,13768 10620,13765 10620,13761 10620,13757 10620,13753 10621,13748 10621,13745 10621,13741 10621,13739 10622,13737 10622,13735 10622,13734 10621,13732 10619,13733 10618,13734 10616,13734 10614,13735 10609,13740 10609,13741 10608,13741 10608,13741 10608,13742 10607,13744 10607,13746 10607,13747 10606,13749 10605,13751 10605,13753 10604,13754 10604,13756 10604,13757 10604,13758 10604,13759 10604,13760 10604,13761 10604,13761 10604,13762 10604,13763 10604,13764 10603,13764 10603,13765 10602,13765 10602,13766 10602,13766 10601,13766 10600,13766 10598,13765 10597,13763 10597,13760 10597,13755 10597,13753 10597,13752 10597,13750 10598,13748 10599,13746 10599,13744 10599,13742 10600,13741 10600,13740 10600,13738 10600,13736 10600,13734 10600,13733 10600,13731 10600,13729 10600,13728 10601,13724 10602,13720 10604,13719 10606,13719 10607,13719 10608,13719 10608,13720 10608,13721 10609,13722 10609,13723 10609,13724 10609,13725 10609,13725 10609,13726 10609,13726 10608,13727 10608,13727 10608,13728 10608,13729 10608,13729 10608,13734 10609,13732 10611,13730 10613,13728 10614,13727 10617,13726 10619,13725 10620,13724 10622,13724 10624,13725 10627,13727 10629,13729 10630,13732 10631,13731 10632,13729 10634,13728 10635,13727 10636,13727 10639,13727 10641,13727 10642,13727 10645,13728 10647,13730 10649,13733 10650,13736 10650,13737 10650,13740 10650,13743 10650,13747 10650,13752 10650,13757 10650,13763 10650,13771 10650,13772 10649,13772 10649,13773 10648,13773 10647,13774 10646,13774 10646,13774 10645,13774 10646,13775 Z M 10676,13777 L 10672,13776 10668,13775 10665,13773 10663,13770 10660,13768 10659,13764 10658,13760 10658,13755 10659,13750 10661,13746 10663,13742 10665,13739 10669,13736 10673,13734 10677,13733 10681,13733 10685,13734 10687,13734 10690,13736 10691,13737 10693,13739 10695,13741 10696,13743 10696,13746 10695,13747 10694,13749 10692,13751 10690,13753 10689,13753 10686,13753 10684,13754 10680,13755 10665,13761 10666,13762 10667,13764 10668,13766 10669,13767 10671,13768 10674,13768 10675,13769 10677,13769 10679,13769 10680,13769 10681,13769 10683,13769 10686,13769 10687,13768 10689,13768 10690,13767 10690,13766 10691,13766 10692,13765 10693,13765 10694,13765 10695,13765 10695,13766 10696,13766 10696,13767 10697,13768 10697,13768 10697,13769 10696,13771 10694,13773 10691,13775 10688,13775 10685,13776 10682,13777 10679,13777 10676,13777 10676,13777 Z M 10680,13741 L 10678,13741 10675,13741 10674,13741 10672,13743 10670,13745 10668,13746 10667,13750 10665,13753 10678,13749 10681,13748 10685,13747 10687,13746 10689,13745 10687,13743 10686,13741 10683,13741 10679,13741 10680,13741 Z"/>
 </g>
</svg>