<?xml version="1.0" encoding="UTF-8"?>
<!DOCTYPE svg PUBLIC "-//W3C//DTD SVG 1.0//EN" "http://www.w3.org/TR/2001/REC-SVG-20010904/DTD/svg10.dtd">
<svg width="197mm" height="284mm" viewBox="0 0 19700 28400">
 <g style="stroke:none;fill:rgb(255,255,255)">
  <rect x="8520" y="12938" width="2621" height="2515"/>
  <rect x="8520" y="12938" width="2621" height="2515"/>
 </g>
 <g style="stroke:none;fill:rgb(0,0,0)">
  <path d="M 9712,13037 L 9717,13048 9723,13060 9723,13073 9726,13082 9726,13095 9728,13105 9731,13117 9736,13127 9742,13125 9750,13125 9756,13122 9761,13119 9769,13119 9775,13117 9780,13117 9785,13117 9791,13119 9793,13125 9797,13127 9799,13132 9802,13134 9802,13140 9802,13142 9799,13147 9791,13155 9785,13157 9777,13159 9766,13159 9758,13159 9748,13157 9739,13157 9731,13155 9728,13159 9726,13162 9723,13164 9723,13170 9726,13172 9726,13177 9726,13179 9723,13184 9726,13194 9731,13204 9736,13214 9744,13224 9750,13234 9756,13244 9758,13254 9761,13264 9756,13276 9750,13282 9739,13284 9731,13284 9720,13284 9712,13286 9707,13294 9701,13304 9701,13311 9701,13319 9704,13323 9704,13331 9707,13336 9709,13341 9712,13349 9717,13353 9720,13356 9720,13359 9720,13364 9720,13366 9720,13371 9717,13373 9717,13376 9717,13381 9723,13381 9731,13381 9736,13381 9742,13379 9750,13371 9756,13361 9761,13351 9766,13338 9775,13329 9785,13321 9813,13286 9847,13256 9882,13226 9915,13199 9953,13172 9988,13144 10026,13119 10064,13097 10081,13085 10097,13075 10116,13065 10132,13055 10152,13048 10168,13037 10187,13030 10206,13022 10212,13022 10217,13022 10220,13022 10222,13025 10225,13028 10228,13030 10230,13035 10234,13037 10291,13112 10347,13184 10404,13259 10461,13331 10519,13405 10574,13480 10625,13555 10674,13632 10677,13635 10690,13617 10705,13597 10715,13580 10729,13560 10742,13542 10756,13523 10770,13505 10786,13488 10788,13488 10791,13488 10794,13488 10794,13488 10797,13490 10799,13490 10802,13493 10805,13495 10802,13500 10797,13505 10794,13510 10788,13518 10783,13523 10778,13527 10772,13535 10770,13540 10758,13555 10748,13568 10737,13583 10729,13597 10721,13613 10712,13624 10701,13639 10693,13654 10696,13667 10729,13704 10762,13744 10794,13781 10827,13818 10862,13856 10892,13893 10925,13931 10952,13970 10973,13968 10995,13966 11017,13963 11039,13961 11061,13961 11085,13958 11107,13958 11128,13958 11132,13961 11132,13961 11132,13963 11132,13966 11132,13968 11128,13968 11126,13970 11126,13970 11104,13970 11083,13970 11063,13973 11044,13973 11022,13975 11004,13978 10985,13981 10963,13983 10968,13993 10976,14002 10982,14013 10989,14023 10995,14032 11001,14043 11006,14052 11009,14065 11006,14067 11001,14069 10998,14075 10995,14080 10993,14084 10989,14088 10985,14088 10979,14082 10966,14084 10954,14088 10944,14092 10933,14095 10922,14099 10911,14102 10900,14107 10889,14112 10895,14122 10903,14132 10909,14144 10914,14155 10919,14164 10928,14174 10933,14185 10938,14198 10930,14203 10922,14208 10914,14213 10905,14218 10895,14220 10887,14225 10876,14228 10868,14233 10868,14238 10868,14246 10870,14253 10870,14257 10873,14265 10873,14273 10876,14280 10878,14285 10878,14287 10878,14287 10876,14287 10876,14290 10873,14290 10870,14293 10870,14293 10870,14295 10873,14305 10873,14315 10876,14325 10881,14338 10884,14347 10889,14355 10892,14364 10897,14375 10897,14377 10897,14379 10897,14382 10897,14384 10897,14387 10897,14387 10897,14390 10900,14392 10887,14405 10889,14407 10892,14412 10895,14417 10895,14424 10897,14427 10897,14432 10903,14435 10909,14435 10909,14432 10911,14432 10914,14432 10914,14432 10917,14432 10919,14432 10922,14432 10922,14432 10925,14435 10925,14437 10928,14439 10928,14442 10930,14444 10930,14446 10930,14449 10928,14452 10922,14459 10862,14502 10799,14536 10734,14573 10668,14608 10606,14643 10543,14680 10511,14700 10481,14721 10451,14743 10424,14765 10424,14783 10424,14797 10424,14813 10421,14827 10416,14842 10404,14857 10394,14870 10380,14880 10361,14889 10342,14895 10323,14899 10301,14899 10279,14899 10258,14899 10238,14897 10217,14897 10171,14919 10124,14944 10078,14966 10032,14992 9986,15016 9937,15039 9890,15063 9844,15086 9805,15108 9764,15134 9726,15158 9685,15183 9647,15205 9606,15228 9565,15248 9521,15265 9497,15275 9475,15288 9451,15300 9429,15315 9407,15327 9386,15342 9364,15357 9341,15372 9331,15372 9326,15372 9318,15367 9312,15362 9306,15357 9304,15353 9298,15347 9290,15345 9290,15330 9257,15334 9260,15330 9257,15327 9255,15323 9252,15320 9249,15317 9247,15315 9247,15310 9247,15308 9244,15302 9241,15302 9236,15302 9233,15305 9228,15305 9224,15308 9220,15305 9216,15302 9214,15295 9211,15288 9211,15280 9214,15272 9214,15265 9211,15258 9206,15252 9200,15248 9184,15218 9140,15161 9094,15101 9053,15041 9012,14979 8934,14857 8860,14732 8784,14611 8705,14487 8664,14427 8623,14367 8580,14308 8537,14248 8531,14243 8525,14238 8522,14233 8520,14225 8520,14220 8520,14216 8522,14211 8525,14203 8544,14174 8566,14149 8588,14122 8610,14099 8634,14077 8661,14055 8688,14032 8715,14013 8773,13975 8830,13938 8887,13906 8947,13873 8993,13854 9040,13836 9089,13818 9135,13804 9187,13791 9238,13781 9290,13776 9345,13774 9347,13774 9349,13776 9353,13776 9355,13776 9358,13776 9361,13779 9364,13779 9369,13779 9369,13772 9369,13766 9366,13759 9364,13753 9358,13749 9355,13744 9355,13736 9355,13731 9349,13724 9345,13719 9339,13714 9333,13707 9331,13701 9326,13694 9326,13689 9326,13682 9320,13677 9318,13674 9318,13667 9320,13662 9320,13657 9323,13652 9323,13647 9318,13642 9323,13627 9326,13613 9331,13600 9333,13585 9336,13572 9339,13557 9339,13545 9341,13530 9345,13525 9347,13520 9347,13515 9349,13510 9349,13505 9353,13500 9355,13495 9355,13490 9355,13483 9355,13473 9358,13465 9364,13458 9371,13443 9380,13428 9388,13413 9390,13396 9390,13388 9388,13381 9382,13373 9374,13366 9371,13364 9369,13361 9366,13356 9364,13353 9361,13351 9361,13349 9361,13343 9361,13341 9364,13341 9366,13341 9369,13343 9369,13343 9371,13343 9374,13346 9374,13346 9377,13349 9377,13343 9380,13338 9382,13334 9388,13331 9394,13329 9399,13323 9404,13321 9410,13319 9421,13234 9418,13232 9415,13234 9415,13237 9412,13241 9410,13244 9407,13244 9404,13246 9402,13246 9396,13244 9396,13237 9394,13226 9396,13217 9396,13207 9399,13196 9402,13189 9404,13179 9407,13170 9407,13170 9407,13170 9407,13167 9407,13167 9407,13167 9404,13167 9404,13167 9404,13164 9399,13167 9394,13167 9386,13167 9380,13167 9374,13167 9369,13167 9364,13170 9361,13172 9355,13170 9347,13170 9339,13167 9331,13164 9323,13159 9320,13155 9318,13149 9318,13140 9318,13134 9318,13129 9320,13127 9320,13122 9323,13119 9328,13117 9331,13112 9336,13110 9345,13112 9353,13114 9364,13117 9371,13122 9380,13125 9388,13125 9396,13122 9402,13114 9407,13107 9410,13097 9410,13090 9407,13082 9407,13073 9407,13065 9410,13057 9415,13050 9423,13037 9431,13028 9443,13018 9453,13011 9475,12998 9502,12988 9529,12983 9560,12981 9587,12981 9617,12983 9631,12985 9647,12988 9660,12992 9671,13000 9682,13008 9693,13018 9704,13028 9712,13037 Z M 8661,13863 L 8656,13863 8651,13866 8645,13869 8639,13871 8634,13871 8629,13871 8623,13871 8620,13866 8626,13863 8629,13861 8637,13858 8643,13856 8648,13856 8653,13856 8659,13858 8661,13863 Z M 8768,13883 L 8743,13893 8719,13903 8694,13913 8672,13925 8648,13938 8626,13951 8604,13966 8582,13981 8577,13985 8569,13990 8563,13998 8557,14002 8550,14010 8544,14017 8539,14025 8533,14030 8533,14030 8531,14030 8531,14030 8528,14030 8528,14030 8528,14028 8525,14028 8525,14028 8547,13998 8574,13975 8602,13953 8634,13933 8667,13916 8699,13901 8732,13883 8762,13869 8764,13869 8768,13871 8768,13873 8768,13873 8768,13876 8768,13878 8768,13880 8768,13883 Z M 8683,13873 L 8683,13883 8672,13888 8659,13893 8648,13896 8637,13901 8626,13908 8615,13913 8604,13921 8596,13931 8588,13931 8588,13925 8588,13921 8590,13916 8596,13913 8598,13908 8604,13906 8610,13903 8612,13901 8623,13896 8631,13891 8639,13888 8648,13883 8656,13880 8664,13876 8672,13876 8683,13873 Z M 9396,15409 L 9394,15417 9390,15422 9386,15427 9377,15432 9369,15435 9361,15437 9355,15439 9347,15442 9345,15444 9341,15444 9339,15442 9336,15442 9333,15439 9331,15439 9331,15437 9331,15435 9336,15429 9345,15427 9353,15424 9358,15422 9366,15420 9374,15417 9380,15412 9388,15409 9396,15409 Z M 9410,15367 L 9402,15375 9390,15385 9377,15394 9366,15402 9355,15409 9341,15414 9326,15420 9312,15420 9290,15420 9265,15420 9241,15417 9216,15417 9192,15420 9167,15422 9143,15424 9124,15432 9122,15429 9122,15424 9124,15422 9124,15420 9126,15417 9130,15414 9132,15414 9135,15412 9140,15412 9146,15412 9151,15412 9157,15409 9162,15409 9167,15407 9173,15407 9179,15405 9200,15405 9220,15405 9241,15405 9260,15405 9282,15405 9301,15402 9323,15402 9341,15397 9341,15392 9341,15390 9345,15387 9347,15385 9353,15382 9355,15379 9361,15377 9364,15375 9369,15372 9374,15370 9380,15367 9386,15364 9390,15362 9396,15360 9402,15357 9404,15355 9415,15355 9410,15367 Z M 10367,12966 L 10367,12968 10367,12970 10367,12970 10367,12973 10367,12975 10364,12975 10364,12978 10361,12978 10359,12978 10359,12978 10355,12978 10355,12975 10355,12975 10353,12973 10353,12970 10353,12970 10315,12946 10315,12938 10323,12940 10328,12943 10337,12946 10342,12948 10350,12953 10355,12958 10361,12960 10367,12966 Z M 10353,12990 L 10353,12992 10353,12992 10353,12995 10353,12995 10350,12995 10350,12995 10350,12998 10347,12998 10345,12998 10339,12998 10337,12995 10334,12992 10331,12990 10328,12988 10326,12985 10320,12983 10304,12978 10288,12973 10271,12968 10255,12966 10236,12963 10220,12963 10203,12966 10187,12970 10187,12966 10190,12963 10193,12960 10195,12958 10197,12958 10203,12955 10206,12955 10209,12953 10228,12955 10250,12955 10269,12960 10285,12963 10304,12968 10320,12975 10337,12983 10353,12990 Z M 10331,13003 L 10328,13005 10326,13008 10323,13008 10320,13005 10318,13005 10312,13003 10310,13003 10307,13003 10279,12998 10252,12998 10225,13000 10197,13005 10173,13011 10149,13018 10124,13028 10100,13037 10091,13043 10081,13050 10073,13055 10062,13063 10054,13070 10046,13078 10037,13085 10029,13092 10029,13082 10034,13078 10040,13070 10048,13065 10056,13057 10064,13052 10070,13048 10078,13043 10105,13030 10136,13018 10168,13008 10201,12998 10234,12992 10266,12992 10299,12995 10331,13003 Z"/>
 </g>
 <g style="stroke:none;fill:rgb(143,143,143)">
  <polygon points="9687,13030 9693,13035 9695,13043 9701,13048 9704,13055 9707,13060 9707,13067 9709,13073 9709,13080 9707,13080 9704,13080 9701,13080 9695,13080 9693,13080 9690,13080 9687,13080 9687,13075 9687,13078 9687,13078 9685,13078 9685,13078 9685,13078 9685,13078 9682,13078 9682,13078 9682,13075 9679,13073 9676,13070 9674,13070 9671,13070 9668,13070 9663,13070 9660,13073 9655,13075 9650,13075 9644,13075 9639,13073 9633,13073 9628,13073 9625,13073 9619,13075 9617,13073 9617,13073 9615,13070 9611,13070 9609,13070 9603,13070 9600,13070 9600,13073 9595,13075 9590,13078 9584,13078 9578,13075 9574,13073 9568,13070 9560,13070 9554,13073 9552,13070 9546,13067 9543,13067 9538,13065 9533,13065 9527,13065 9521,13065 9516,13067 9516,13070 9516,13067 9516,13067 9516,13065 9516,13063 9513,13063 9513,13063 9513,13060 9511,13060 9484,13070 9484,13065 9480,13060 9480,13057 9478,13052 9475,13050 9475,13045 9478,13043 9486,13040 9484,13035 9484,13033 9484,13030 9484,13025 9486,13022 9488,13020 9492,13018 9494,13015 9497,13011 9502,13008 9508,13008 9513,13005 9519,13005 9524,13003 9529,13000 9533,12995 9549,12995 9565,12995 9582,12995 9595,12995 9611,12998 9628,13000 9641,13003 9658,13008 9687,13030"/>
 </g>
 <g style="stroke:none;fill:rgb(246,246,246)">
  <path d="M 10604,13545 L 10668,13647 10666,13654 10660,13665 10655,13674 10650,13684 10647,13694 10641,13701 10641,13712 10639,13721 10641,13721 10644,13721 10644,13724 10647,13724 10650,13721 10650,13721 10652,13721 10652,13719 10658,13714 10660,13709 10666,13701 10668,13697 10672,13689 10677,13684 10680,13677 10685,13672 10911,13936 10917,13940 10919,13945 10922,13951 10925,13955 10928,13961 10930,13963 10936,13968 10938,13973 10911,13981 10887,13987 10860,13995 10835,14002 10811,14013 10786,14023 10762,14035 10740,14050 10740,14052 10740,14052 10740,14055 10740,14055 10740,14055 10742,14058 10742,14058 10742,14058 10753,14055 10764,14050 10775,14045 10786,14040 10794,14035 10805,14030 10816,14025 10827,14023 10840,14017 10856,14013 10870,14007 10887,14002 10900,13998 10917,13995 10930,13990 10946,13987 10954,13995 10960,14002 10966,14013 10971,14020 10976,14030 10982,14037 10987,14047 10993,14055 10989,14065 10954,14075 10919,14084 10884,14099 10848,14112 10816,14129 10783,14147 10750,14164 10718,14185 10655,14225 10598,14273 10541,14322 10486,14377 10476,14390 10467,14402 10457,14414 10445,14427 10435,14442 10424,14454 10416,14467 10408,14481 10404,14464 10396,14464 10391,14467 10386,14469 10380,14474 10377,14479 10372,14487 10369,14491 10367,14497 10367,14497 10367,14499 10367,14499 10369,14502 10369,14502 10369,14502 10372,14504 10372,14504 10372,14504 10375,14504 10375,14504 10377,14504 10377,14504 10380,14504 10380,14504 10380,14504 10380,14504 10383,14506 10383,14506 10383,14509 10386,14509 10386,14509 10388,14509 10388,14511 10372,14539 10359,14566 10342,14594 10328,14621 10318,14648 10304,14678 10293,14706 10279,14735 10274,14728 10269,14723 10263,14715 10258,14710 10252,14703 10247,14695 10242,14691 10236,14683 10228,14680 10222,14676 10214,14670 10209,14665 10203,14658 10197,14650 10190,14643 10184,14638 10179,14633 10177,14626 10173,14621 10171,14613 10165,14608 10162,14601 10157,14596 10152,14594 10144,14596 10136,14584 10127,14571 10119,14559 10111,14546 10103,14534 10095,14524 10086,14511 10078,14499 10070,14497 10064,14491 10062,14484 10056,14476 10054,14469 10050,14464 10046,14461 10037,14459 10032,14454 10029,14449 10026,14444 10024,14439 10018,14435 10015,14429 10010,14427 10005,14427 9991,14417 9980,14407 9970,14394 9961,14379 9956,14364 9948,14349 9942,14334 9933,14322 9929,14319 9926,14317 9923,14315 9923,14310 9920,14305 9917,14302 9913,14302 9907,14305 9904,14300 9901,14295 9901,14290 9898,14285 9898,14283 9896,14278 9893,14276 9888,14276 9882,14273 9880,14270 9876,14265 9876,14263 9874,14257 9872,14255 9866,14255 9860,14257 9858,14255 9855,14250 9855,14246 9852,14243 9852,14238 9850,14233 9844,14231 9839,14228 9839,14225 9835,14223 9835,14220 9835,14218 9832,14216 9829,14213 9829,14213 9824,14213 9815,14216 9802,14185 9807,14187 9810,14187 9815,14190 9821,14190 9826,14190 9829,14190 9835,14193 9841,14193 9850,14198 9858,14201 9866,14205 9874,14208 9885,14211 9893,14213 9901,14216 9913,14216 9986,14248 9986,14250 9988,14253 9991,14253 9993,14253 9997,14253 9999,14253 9999,14255 10002,14257 10018,14265 10032,14276 10048,14285 10062,14295 10078,14308 10091,14317 10105,14327 10122,14340 10124,14340 10130,14342 10136,14345 10140,14347 10146,14349 10152,14352 10154,14355 10162,14352 10165,14355 10171,14357 10173,14360 10179,14362 10181,14364 10187,14367 10190,14370 10195,14367 10212,14377 10230,14387 10247,14394 10263,14405 10283,14412 10299,14422 10315,14432 10331,14442 10337,14439 10339,14439 10342,14439 10345,14437 10347,14437 10353,14439 10355,14439 10361,14439 10372,14432 10383,14422 10391,14412 10396,14402 10404,14390 10410,14377 10418,14367 10426,14355 10441,14338 10424,14327 10435,14325 10445,14319 10457,14312 10465,14305 10476,14295 10484,14285 10492,14276 10500,14268 10508,14253 10516,14238 10527,14225 10535,14213 10543,14198 10552,14185 10557,14170 10560,14155 10555,14155 10549,14157 10547,14157 10541,14159 10535,14164 10530,14167 10524,14167 10519,14167 10506,14177 10489,14185 10473,14195 10459,14205 10443,14216 10429,14228 10416,14238 10402,14250 10396,14253 10394,14255 10388,14260 10383,14263 10380,14268 10375,14270 10372,14276 10367,14280 10347,14270 10331,14257 10312,14248 10296,14235 10277,14223 10260,14211 10244,14198 10225,14185 10214,14172 10201,14159 10187,14149 10173,14140 10160,14129 10146,14117 10136,14107 10122,14095 10108,14075 10091,14058 10075,14040 10056,14023 10037,14007 10018,13990 10002,13973 9988,13953 9980,13945 9974,13936 9970,13928 9964,13918 9958,13908 9953,13901 9948,13891 9942,13880 10015,13891 10018,13896 10021,13899 10024,13899 10029,13899 10032,13899 10037,13896 10040,13896 10046,13899 10048,13901 10050,13901 10056,13901 10059,13903 10062,13901 10064,13901 10070,13901 10073,13899 10075,13899 10081,13899 10086,13899 10089,13901 10095,13901 10097,13903 10100,13903 10105,13906 10111,13906 10116,13903 10124,13903 10130,13903 10136,13901 10140,13899 10144,13893 10146,13886 10146,13880 10149,13876 10152,13871 10152,13866 10154,13861 10154,13858 10154,13854 10152,13848 10154,13839 10152,13831 10146,13826 10138,13824 10132,13818 10124,13813 10119,13809 10116,13801 10105,13804 10097,13804 10091,13801 10083,13798 10075,13796 10067,13794 10062,13789 10054,13786 10042,13783 10032,13781 10021,13776 10010,13772 10002,13764 9991,13759 9983,13753 9972,13749 9956,13742 9939,13736 9923,13731 9907,13727 9893,13721 9880,13712 9874,13707 9868,13701 9866,13694 9863,13684 9858,13674 9855,13665 9850,13652 9847,13639 9847,13627 9844,13617 9841,13605 9839,13592 9829,13565 9821,13540 9810,13512 9802,13488 9791,13460 9780,13435 9769,13411 9758,13386 9775,13359 9791,13334 9807,13311 9829,13289 9852,13267 9874,13246 9898,13224 9923,13207 9974,13170 10029,13134 10081,13102 10132,13070 10209,13035 10260,13097 10312,13159 10361,13224 10410,13286 10459,13351 10508,13415 10555,13480 10604,13545 Z M 10816,13916 L 10816,13921 10805,13928 10791,13933 10778,13938 10764,13940 10750,13945 10737,13953 10725,13961 10715,13973 10707,13981 10696,13990 10688,13998 10680,14007 10672,14017 10666,14025 10658,14035 10652,14045 10650,14047 10647,14045 10644,14045 10641,14043 10641,14040 10641,14037 10639,14035 10639,14032 10639,14020 10644,14010 10650,14000 10658,13990 10668,13981 10680,13973 10690,13966 10699,13961 10715,13953 10729,13948 10742,13940 10756,13933 10770,13925 10786,13921 10799,13916 10816,13910 10816,13916 Z M 10705,13871 L 10701,13878 10696,13886 10690,13891 10685,13896 10677,13901 10668,13903 10660,13908 10655,13913 10576,13998 10571,14013 10563,14030 10552,14045 10543,14060 10535,14077 10527,14092 10519,14110 10514,14125 10511,14127 10511,14127 10508,14129 10508,14132 10506,14132 10502,14134 10502,14134 10500,14134 10492,14127 10486,14120 10486,14114 10489,14107 10492,14097 10498,14090 10500,14082 10500,14075 10519,14045 10538,14017 10560,13987 10584,13961 10612,13933 10639,13908 10668,13886 10699,13866 10705,13871 Z M 10369,14090 L 10372,14097 10369,14102 10367,14107 10361,14112 10359,14117 10353,14122 10350,14127 10350,14134 10347,14137 10345,14132 10342,14127 10342,14125 10345,14120 10345,14114 10347,14110 10350,14105 10350,14099 10353,14099 10355,14097 10359,14095 10359,14092 10361,14090 10361,14088 10367,14088 10369,14090 Z M 10543,13871 L 10547,13871 10527,13913 10524,13916 10524,13916 10522,13916 10519,13916 10519,13913 10516,13913 10516,13913 10514,13910 10516,13908 10516,13903 10519,13899 10519,13896 10519,13891 10519,13888 10519,13883 10516,13878 10508,13891 10500,13903 10494,13918 10486,13931 10478,13943 10473,13955 10461,13968 10454,13978 10451,13978 10451,13973 10451,13970 10451,13966 10451,13961 10454,13955 10457,13953 10459,13951 10461,13945 10470,13938 10476,13925 10484,13916 10489,13906 10494,13896 10502,13883 10508,13873 10514,13863 10519,13863 10522,13866 10524,13871 10527,13876 10530,13878 10533,13880 10538,13878 10543,13871 Z M 10582,13652 L 10582,13652 10579,13652 10579,13654 10579,13654 10579,13654 10579,13654 10579,13657 10579,13657 10576,13657 10574,13657 10571,13654 10568,13652 10568,13650 10568,13647 10565,13645 10565,13642 10557,13647 10552,13654 10549,13662 10543,13669 10538,13677 10533,13684 10527,13692 10522,13697 10514,13694 10511,13694 10508,13697 10506,13701 10502,13707 10500,13709 10498,13712 10492,13709 10494,13704 10498,13697 10498,13692 10500,13684 10502,13680 10506,13674 10511,13672 10519,13672 10522,13680 10563,13627 10568,13627 10571,13630 10574,13632 10576,13637 10579,13639 10579,13645 10579,13650 10582,13652 Z M 10383,13721 L 10383,13727 10383,13731 10386,13736 10386,13742 10386,13746 10386,13751 10388,13757 10388,13761 10388,13759 10391,13757 10394,13751 10394,13749 10396,13746 10400,13746 10404,13746 10408,13749 10410,13757 10410,13766 10413,13774 10413,13781 10413,13789 10410,13798 10410,13806 10408,13813 10408,13813 10404,13813 10404,13813 10402,13813 10402,13813 10402,13811 10400,13811 10400,13809 10400,13804 10400,13798 10400,13791 10402,13786 10402,13781 10402,13774 10402,13769 10400,13764 10386,13834 10375,13834 10377,13821 10377,13811 10377,13798 10377,13789 10375,13779 10375,13766 10375,13757 10375,13744 10367,13757 10361,13769 10355,13783 10353,13798 10347,13811 10345,13826 10339,13839 10331,13851 10328,13851 10326,13851 10323,13851 10323,13848 10320,13846 10320,13843 10320,13841 10320,13841 10315,13846 10310,13854 10307,13861 10301,13869 10296,13873 10291,13880 10285,13886 10279,13891 10277,13891 10274,13891 10271,13891 10271,13888 10269,13886 10266,13886 10266,13883 10263,13880 10255,13888 10250,13896 10244,13906 10238,13913 10234,13923 10228,13931 10220,13938 10212,13945 10206,13945 10201,13951 10195,13955 10193,13961 10190,13966 10187,13973 10184,13981 10181,13985 10179,13987 10179,13993 10177,13995 10173,14000 10173,14002 10171,14007 10168,14010 10165,14013 10154,14010 10144,14047 10138,14047 10138,14040 10138,14035 10140,14028 10140,14020 10140,14015 10144,14007 10146,14002 10149,13998 10165,13995 10168,13987 10173,13981 10177,13973 10181,13966 10187,13958 10190,13951 10195,13940 10197,13933 10209,13933 10214,13931 10222,13925 10228,13918 10230,13910 10236,13903 10242,13896 10247,13891 10250,13888 10252,13883 10252,13878 10255,13876 10258,13871 10260,13869 10263,13866 10269,13866 10277,13878 10283,13876 10291,13869 10296,13863 10301,13856 10304,13851 10310,13843 10312,13836 10315,13828 10315,13826 10318,13826 10318,13826 10320,13826 10320,13824 10323,13824 10326,13824 10326,13824 10326,13826 10326,13826 10326,13826 10326,13828 10328,13828 10328,13828 10328,13828 10328,13828 10337,13816 10342,13804 10347,13791 10353,13776 10359,13761 10361,13749 10367,13734 10375,13721 10383,13721 Z M 10203,13613 L 10197,13613 10195,13615 10193,13617 10193,13620 10190,13622 10187,13624 10187,13630 10187,13632 10184,13637 10181,13645 10179,13650 10177,13657 10173,13662 10171,13669 10168,13674 10162,13680 10160,13680 10160,13680 10157,13677 10154,13677 10154,13674 10152,13674 10149,13672 10149,13672 10149,13667 10154,13667 10160,13665 10165,13659 10168,13654 10171,13647 10171,13642 10173,13637 10177,13630 10179,13627 10179,13624 10181,13620 10184,13617 10184,13613 10187,13609 10193,13607 10195,13605 10203,13605 10203,13613 Z M 10396,13445 L 10388,13453 10380,13458 10369,13460 10359,13463 10347,13465 10337,13467 10328,13475 10320,13486 10318,13488 10315,13490 10312,13495 10310,13500 10304,13503 10301,13505 10299,13505 10293,13503 10260,13545 10252,13548 10247,13553 10244,13557 10242,13565 10238,13570 10236,13575 10230,13580 10225,13585 10225,13577 10228,13572 10228,13568 10234,13562 10236,13557 10238,13553 10242,13548 10244,13540 10244,13540 10244,13538 10244,13535 10247,13532 10247,13530 10247,13527 10250,13527 10252,13527 10260,13530 10266,13525 10271,13520 10274,13515 10279,13510 10283,13505 10288,13500 10291,13493 10293,13488 10307,13490 10312,13483 10320,13478 10326,13470 10334,13463 10339,13458 10350,13453 10359,13450 10369,13453 10375,13450 10377,13445 10383,13443 10386,13438 10391,13435 10394,13435 10396,13438 10396,13445 Z M 10312,13316 L 10307,13316 10301,13316 10296,13319 10291,13321 10285,13326 10279,13329 10274,13329 10269,13329 10263,13336 10260,13343 10258,13351 10255,13359 10252,13366 10247,13371 10242,13376 10234,13379 10225,13393 10225,13386 10225,13381 10228,13376 10228,13371 10230,13366 10234,13359 10236,13353 10236,13349 10242,13349 10247,13346 10250,13343 10252,13338 10252,13334 10255,13329 10258,13323 10260,13319 10263,13319 10269,13319 10271,13319 10274,13319 10279,13319 10283,13316 10288,13314 10291,13311 10293,13304 10296,13301 10301,13299 10310,13297 10312,13299 10315,13301 10315,13308 10312,13316 Z M 10140,13435 L 10140,13438 10144,13441 10144,13443 10144,13443 10144,13445 10144,13448 10144,13450 10144,13453 10136,13456 10130,13458 10124,13463 10119,13467 10114,13473 10108,13475 10103,13478 10097,13478 10091,13486 10089,13490 10086,13497 10083,13503 10081,13508 10075,13515 10073,13520 10067,13523 10056,13520 10048,13532 10040,13542 10032,13555 10026,13568 10021,13580 10018,13592 10015,13605 10015,13620 10013,13622 10013,13622 10010,13622 10010,13622 10007,13622 10007,13622 10005,13622 10005,13622 10005,13609 10005,13600 10005,13587 10005,13577 10002,13565 10002,13555 9999,13545 9997,13532 9993,13542 9988,13553 9986,13562 9980,13572 9974,13580 9970,13590 9964,13600 9956,13607 9953,13607 9950,13607 9948,13607 9948,13607 9945,13605 9942,13602 9942,13602 9942,13600 9937,13607 9933,13615 9931,13622 9929,13630 9923,13637 9920,13645 9915,13652 9913,13659 9907,13657 9904,13659 9901,13659 9901,13665 9901,13667 9901,13669 9898,13672 9893,13672 9893,13667 9893,13659 9893,13654 9890,13647 9890,13642 9890,13635 9893,13630 9893,13622 9896,13622 9896,13622 9898,13622 9898,13622 9901,13622 9901,13622 9904,13622 9904,13622 9907,13622 9907,13624 9907,13627 9907,13630 9907,13632 9909,13632 9909,13635 9913,13637 9939,13585 9942,13583 9942,13583 9945,13585 9948,13585 9948,13587 9950,13587 9950,13590 9953,13592 9961,13583 9966,13572 9972,13562 9978,13550 9983,13540 9988,13527 9991,13518 9993,13505 9997,13505 9997,13503 9999,13503 10002,13505 10005,13505 10005,13505 10007,13508 10007,13510 10013,13562 10015,13562 10059,13500 10067,13500 10075,13497 10081,13493 10083,13486 10089,13478 10091,13470 10095,13463 10100,13458 10105,13460 10111,13458 10116,13456 10122,13450 10127,13445 10130,13443 10136,13438 10140,13435 Z M 10222,13159 L 10222,13164 10222,13167 10220,13172 10217,13174 10212,13177 10209,13179 10206,13181 10203,13184 10201,13184 10195,13184 10193,13184 10190,13187 10187,13187 10184,13187 10181,13184 10181,13181 10184,13179 10184,13177 10187,13174 10187,13172 10190,13170 10190,13167 10193,13164 10195,13164 10201,13167 10203,13167 10206,13167 10209,13164 10212,13162 10214,13159 10217,13159 10222,13159 Z M 10136,13222 L 10130,13224 10127,13226 10122,13229 10119,13232 10116,13234 10111,13237 10108,13239 10105,13244 10097,13244 10089,13249 10083,13256 10078,13261 10073,13269 10067,13274 10059,13276 10050,13274 10046,13284 10042,13291 10037,13299 10034,13308 10032,13316 10026,13323 10024,13334 10024,13341 10021,13343 10021,13343 10018,13343 10018,13346 10015,13346 10015,13346 10013,13346 10013,13346 10010,13336 10010,13329 10010,13319 10010,13308 10010,13301 10007,13291 10007,13284 10005,13274 9999,13284 9993,13294 9991,13306 9988,13316 9983,13326 9978,13336 9970,13343 9958,13351 9956,13353 9953,13359 9950,13361 9945,13361 9939,13364 9937,13366 9931,13366 9926,13366 9923,13376 9915,13383 9907,13388 9898,13396 9890,13400 9882,13405 9876,13413 9874,13423 9872,13426 9868,13426 9868,13428 9866,13428 9863,13428 9860,13428 9858,13428 9858,13428 9855,13426 9855,13426 9852,13423 9852,13421 9852,13421 9852,13418 9852,13418 9852,13415 9858,13418 9863,13418 9866,13415 9872,13411 9874,13408 9876,13403 9880,13398 9880,13396 9880,13393 9880,13391 9880,13391 9882,13388 9882,13386 9882,13386 9885,13383 9885,13383 9890,13383 9896,13383 9901,13381 9907,13379 9909,13373 9915,13368 9917,13364 9920,13359 9920,13356 9923,13356 9923,13353 9923,13351 9926,13351 9929,13349 9931,13349 9931,13349 9937,13351 9939,13351 9942,13351 9945,13349 9948,13346 9950,13343 9953,13341 9956,13338 9958,13331 9961,13326 9966,13321 9972,13319 9978,13314 9980,13308 9983,13301 9986,13297 9988,13289 9988,13284 9991,13276 9993,13271 9997,13264 10002,13259 10005,13254 10007,13249 10013,13249 10013,13256 10013,13264 10015,13271 10015,13278 10018,13286 10018,13294 10021,13301 10024,13308 10026,13301 10032,13294 10034,13286 10037,13278 10042,13271 10046,13264 10050,13256 10056,13252 10067,13256 10070,13254 10073,13252 10075,13246 10081,13244 10083,13241 10086,13237 10086,13234 10089,13229 10091,13232 10095,13232 10097,13232 10100,13232 10103,13229 10105,13226 10108,13226 10108,13224 10111,13219 10114,13214 10119,13211 10124,13209 10127,13209 10132,13211 10136,13214 10136,13222 Z M 10421,14422 L 10424,14424 10421,14427 10421,14429 10416,14432 10413,14435 10410,14437 10408,14439 10404,14442 10396,14449 10386,14459 10377,14467 10369,14476 10361,14484 10355,14494 10347,14504 10345,14514 10342,14514 10339,14514 10339,14514 10337,14514 10334,14514 10334,14514 10331,14511 10331,14511 10337,14497 10345,14484 10353,14474 10364,14461 10375,14452 10386,14442 10396,14432 10408,14420 10421,14422 Z M 10124,13714 L 10122,13714 10122,13714 10119,13714 10116,13714 10116,13716 10114,13716 10114,13719 10111,13721 10111,13721 10108,13719 10108,13716 10108,13712 10108,13709 10111,13707 10111,13701 10114,13699 10114,13697 10119,13699 10124,13699 10127,13697 10130,13694 10132,13689 10136,13684 10136,13682 10138,13677 10140,13682 10140,13686 10138,13692 10138,13697 10136,13701 10132,13707 10130,13712 10124,13714 Z"/>
 </g>
 <g style="stroke:none;fill:rgb(194,194,194)">
  <polygon points="9720,13127 9687,13127 9655,13127 9622,13125 9590,13125 9557,13125 9524,13125 9492,13122 9462,13119 9456,13117 9453,13117 9448,13114 9445,13112 9440,13112 9435,13112 9429,13112 9426,13114 9426,13107 9429,13102 9435,13099 9440,13102 9445,13102 9453,13105 9459,13105 9467,13102 9497,13107 9527,13107 9557,13107 9590,13105 9619,13099 9650,13097 9679,13097 9712,13099 9720,13127"/>
 </g>
 <g style="stroke:none;fill:rgb(120,120,120)">
  <polygon points="9695,13167 9693,13170 9690,13172 9687,13174 9685,13177 9682,13179 9679,13181 9679,13184 9679,13189 9674,13187 9666,13187 9660,13187 9655,13187 9650,13187 9644,13184 9639,13181 9635,13177 9641,13172 9647,13170 9655,13170 9660,13170 9666,13172 9674,13172 9679,13170 9685,13164 9687,13164 9687,13164 9690,13164 9690,13164 9693,13164 9693,13164 9695,13167 9695,13167"/>
 </g>
 <g style="stroke:none;fill:rgb(181,181,181)">
  <path d="M 9549,13430 L 9543,13438 9538,13443 9533,13445 9529,13445 9519,13443 9508,13438 9500,13430 9488,13426 9484,13426 9480,13426 9475,13426 9470,13430 9470,13435 9478,13438 9486,13443 9494,13448 9502,13453 9511,13456 9516,13460 9524,13465 9529,13467 9535,13473 9541,13475 9546,13478 9552,13480 9557,13483 9562,13486 9568,13488 9574,13490 9570,13497 9568,13503 9565,13510 9562,13515 9560,13523 9557,13530 9552,13535 9549,13540 9546,13540 9543,13540 9543,13540 9541,13540 9538,13538 9538,13538 9535,13538 9533,13538 9529,13540 9529,13542 9527,13545 9527,13548 9529,13550 9529,13553 9529,13555 9529,13557 9546,13572 9565,13587 9582,13605 9598,13620 9615,13637 9628,13654 9639,13672 9650,13692 9644,13689 9641,13684 9639,13682 9635,13677 9631,13672 9628,13669 9622,13669 9617,13672 9615,13677 9715,13809 9715,13813 9715,13816 9717,13821 9720,13824 9723,13826 9726,13828 9728,13831 9731,13834 9758,13836 9750,13839 9742,13843 9734,13848 9726,13854 9720,13858 9712,13866 9704,13871 9698,13876 9698,13886 9712,13883 9726,13878 9739,13873 9752,13866 9766,13858 9780,13854 9797,13848 9813,13846 9826,13854 9847,13858 9863,13863 9882,13869 9898,13873 9913,13883 9917,13888 9923,13896 9926,13903 9926,13913 9929,13918 9933,13921 9937,13925 9939,13928 9942,13933 9945,13936 9948,13940 9948,13945 9942,13945 9939,13945 9933,13948 9929,13948 9923,13948 9920,13948 9915,13948 9913,13945 9885,13953 9855,13961 9826,13970 9799,13978 9769,13985 9742,13995 9712,14000 9685,14005 9676,14007 9668,14010 9660,14013 9655,14017 9647,14020 9639,14020 9633,14020 9625,14015 9598,14032 9598,14030 9598,14030 9595,14028 9595,14028 9595,14025 9592,14025 9592,14025 9590,14023 9521,14058 9516,14047 9511,14052 9502,14055 9494,14060 9488,14062 9480,14065 9472,14067 9467,14067 9459,14067 9443,14077 9443,14077 9443,14075 9440,14075 9440,14075 9437,14075 9435,14075 9435,14075 9431,14075 9429,14075 9426,14077 9423,14080 9421,14082 9418,14084 9418,14084 9412,14084 9410,14084 9386,14102 9380,14095 9377,14077 9377,14060 9377,14043 9377,14023 9380,14005 9382,13987 9386,13970 9388,13953 9388,13943 9388,13936 9388,13928 9390,13921 9394,13910 9396,13903 9399,13896 9402,13888 9421,13886 9440,13883 9459,13878 9480,13876 9500,13873 9519,13871 9538,13866 9557,13858 9562,13854 9562,13843 9562,13834 9562,13824 9560,13816 9560,13806 9557,13798 9557,13789 9560,13779 9546,13774 9527,13774 9508,13776 9492,13776 9472,13779 9456,13779 9437,13781 9421,13781 9402,13781 9394,13772 9386,13761 9380,13749 9377,13736 9374,13721 9371,13709 9371,13694 9371,13680 9371,13654 9371,13630 9371,13602 9371,13577 9374,13553 9377,13527 9377,13503 9380,13480 9382,13473 9386,13463 9388,13456 9390,13445 9394,13438 9396,13430 9402,13423 9404,13415 9423,13415 9443,13415 9459,13418 9478,13418 9497,13421 9513,13423 9529,13426 9549,13430 Z M 9470,13366 L 9497,13371 9527,13376 9557,13379 9584,13383 9615,13386 9644,13391 9674,13393 9701,13396 9701,13405 9715,13411 9726,13418 9736,13426 9744,13433 9758,13450 9772,13470 9780,13490 9788,13512 9797,13532 9805,13553 9805,13557 9799,13548 9793,13540 9788,13532 9783,13523 9777,13515 9772,13505 9766,13497 9758,13490 9750,13486 9744,13480 9736,13473 9731,13465 9728,13458 9726,13448 9720,13438 9720,13430 9687,13428 9658,13426 9625,13426 9595,13423 9562,13421 9533,13415 9502,13411 9472,13405 9464,13403 9453,13400 9440,13400 9429,13400 9418,13400 9410,13398 9404,13393 9399,13383 9386,13353 9396,13353 9404,13353 9415,13356 9426,13356 9437,13359 9448,13361 9459,13364 9470,13366 Z M 10054,13883 L 10050,13883 10048,13883 10048,13883 10046,13883 10042,13883 10040,13883 10037,13880 10037,13878 10050,13831 10070,13834 10054,13883 Z M 9635,13438 L 9633,13435 9631,13438 9628,13438 9625,13441 9622,13443 9617,13445 9615,13443 9611,13441 9606,13438 9600,13441 9598,13441 9592,13443 9590,13443 9587,13443 9584,13441 9578,13438 9578,13435 9578,13435 9576,13435 9576,13435 9574,13435 9574,13435 9574,13435 9570,13435 9570,13433 9578,13433 9587,13433 9595,13433 9603,13433 9611,13433 9619,13435 9628,13435 9635,13438 Z M 9502,13821 L 9502,13821 9502,13824 9500,13824 9497,13824 9497,13824 9494,13824 9492,13824 9488,13824 9488,13824 9488,13824 9488,13821 9488,13821 9488,13818 9488,13818 9492,13818 9492,13816 9494,13816 9494,13816 9497,13816 9497,13818 9500,13818 9500,13818 9502,13818 9502,13821 Z"/>
 </g>
 <g style="stroke:none;fill:rgb(206,206,206)">
  <polygon points="9731,13497 9736,13495 9744,13503 9752,13510 9761,13518 9766,13525 9772,13535 9777,13545 9780,13553 9783,13562 9788,13568 9793,13572 9799,13580 9802,13585 9805,13592 9807,13600 9813,13605 9818,13609 9829,13645 9821,13639 9818,13632 9815,13624 9813,13617 9810,13609 9805,13605 9797,13602 9785,13600 9783,13607 9788,13620 9793,13632 9802,13647 9807,13659 9813,13672 9818,13686 9824,13699 9829,13714 9821,13714 9815,13714 9807,13714 9802,13714 9793,13714 9788,13716 9785,13719 9783,13727 9805,13734 9802,13739 9810,13742 9821,13744 9829,13746 9841,13749 9850,13751 9858,13757 9866,13761 9872,13769 9874,13766 9880,13764 9885,13766 9888,13766 9893,13766 9896,13766 9898,13764 9898,13757 9901,13757 9904,13759 9907,13759 9909,13759 9909,13761 9913,13761 9915,13761 9917,13761 9923,13753 9939,13757 9953,13764 9966,13769 9983,13776 9997,13783 10010,13789 10024,13796 10040,13801 10040,13811 10037,13821 10034,13828 10029,13839 10026,13848 10024,13856 10018,13866 10015,13876 10007,13876 9997,13873 9988,13871 9980,13869 9972,13866 9964,13863 9953,13861 9945,13861 9926,13858 9907,13854 9888,13848 9868,13841 9852,13836 9832,13826 9815,13818 9799,13811 9744,13809 9728,13789 9715,13769 9701,13746 9687,13727 9674,13704 9663,13684 9652,13662 9641,13639 9633,13627 9625,13615 9617,13602 9606,13592 9598,13580 9590,13568 9582,13555 9574,13542 9576,13535 9578,13530 9578,13523 9582,13515 9584,13508 9590,13503 9595,13500 9600,13497 9609,13490 9619,13483 9628,13475 9635,13467 9647,13460 9658,13453 9668,13448 9679,13443 9685,13443 9693,13443 9698,13443 9701,13445 9709,13450 9712,13460 9715,13470 9720,13480 9723,13490 9731,13497"/>
 </g>
 <g style="stroke:none;fill:rgb(249,249,249)">
  <path d="M 9380,13794 L 9374,13804 9369,13813 9366,13824 9364,13834 9364,13846 9364,13856 9366,13866 9374,13876 9374,13880 9371,13888 9369,13893 9366,13899 9364,13906 9364,13910 9364,13918 9366,13925 9364,13940 9358,13958 9358,13975 9355,13993 9353,14007 9353,14025 9349,14040 9349,14058 9347,14065 9345,14075 9345,14084 9345,14095 9345,14105 9345,14114 9345,14125 9345,14134 9349,14137 9353,14140 9355,14140 9361,14140 9364,14140 9366,14140 9371,14142 9374,14144 9380,14140 9386,14134 9390,14132 9396,14129 9402,14127 9410,14127 9415,14125 9421,14122 9423,14155 9426,14187 9429,14223 9431,14255 9435,14290 9440,14322 9443,14355 9443,14384 9443,14420 9443,14454 9443,14489 9443,14526 9443,14562 9445,14598 9445,14633 9448,14668 9445,14670 9445,14673 9445,14676 9443,14678 9443,14680 9443,14683 9443,14686 9443,14688 9448,14691 9451,14693 9453,14695 9456,14700 9456,14710 9453,14721 9453,14730 9453,14740 9456,14745 9459,14748 9462,14751 9467,14753 9480,14753 9492,14751 9502,14751 9516,14751 9527,14748 9541,14748 9552,14748 9562,14748 9565,14745 9568,14745 9568,14743 9570,14740 9570,14738 9570,14738 9570,14735 9568,14732 9568,14730 9598,14725 9628,14721 9655,14713 9682,14700 9709,14688 9734,14673 9758,14658 9783,14638 9783,14635 9785,14631 9785,14628 9785,14626 9785,14624 9785,14618 9785,14616 9785,14613 9777,14605 9756,14613 9731,14618 9707,14626 9685,14633 9660,14641 9639,14648 9615,14656 9590,14661 9595,14646 9598,14631 9600,14613 9603,14598 9606,14581 9611,14566 9615,14551 9617,14534 9619,14534 9622,14532 9625,14532 9625,14529 9628,14529 9631,14526 9633,14526 9635,14524 9633,14521 9633,14521 9631,14521 9628,14521 9628,14524 9625,14524 9622,14524 9619,14524 9625,14502 9631,14481 9639,14461 9644,14442 9652,14422 9658,14402 9666,14379 9674,14360 9674,14352 9674,14345 9676,14338 9679,14330 9682,14322 9682,14315 9685,14305 9685,14297 9685,14278 9687,14257 9687,14238 9690,14216 9690,14195 9693,14174 9695,14155 9698,14134 9701,14134 9704,14134 9707,14134 9707,14134 9709,14137 9712,14137 9715,14140 9717,14140 9728,14149 9736,14162 9748,14174 9756,14185 9764,14198 9772,14211 9783,14223 9793,14233 9839,14283 9835,14283 9832,14280 9829,14278 9829,14278 9826,14276 9824,14273 9824,14270 9821,14268 9815,14263 9807,14257 9802,14253 9797,14246 9791,14240 9785,14235 9780,14231 9772,14228 9764,14220 9758,14216 9750,14208 9742,14205 9734,14201 9726,14198 9715,14195 9707,14195 9701,14198 9704,14201 9704,14203 9707,14203 9709,14205 9712,14205 9712,14205 9715,14205 9717,14205 9717,14213 9720,14216 9723,14218 9726,14220 9731,14223 9734,14223 9736,14225 9739,14231 9769,14246 9769,14248 9769,14248 9766,14250 9766,14250 9766,14253 9766,14253 9766,14255 9766,14257 9772,14260 9777,14263 9783,14268 9788,14273 9791,14276 9797,14280 9802,14283 9807,14285 9805,14290 9807,14295 9810,14300 9815,14302 9821,14308 9826,14310 9832,14315 9839,14317 9835,14319 9841,14325 9847,14330 9855,14334 9860,14340 9868,14345 9874,14349 9882,14355 9888,14360 9890,14364 9893,14370 9898,14372 9904,14377 9907,14379 9913,14384 9913,14390 9913,14392 9913,14394 9915,14397 9917,14397 9920,14399 9920,14402 9923,14402 9926,14405 9929,14405 9923,14409 9923,14414 9926,14420 9929,14422 9933,14424 9937,14427 9942,14429 9945,14432 9942,14435 9939,14437 9939,14442 9942,14444 9942,14446 9945,14449 9945,14452 9945,14457 9950,14459 9958,14464 9964,14467 9972,14472 9978,14476 9983,14481 9986,14487 9986,14491 9991,14494 9993,14497 9997,14499 9999,14502 10005,14504 10007,14506 10010,14506 10015,14509 10013,14517 10013,14521 10018,14524 10024,14529 10029,14532 10034,14536 10037,14539 10037,14546 10062,14559 10059,14562 10056,14564 10056,14566 10056,14566 10059,14569 10059,14571 10059,14573 10059,14573 10062,14581 10067,14586 10073,14591 10078,14596 10086,14601 10091,14603 10097,14608 10105,14613 10103,14624 10154,14661 10152,14661 10152,14661 10149,14658 10146,14658 10146,14658 10144,14656 10140,14656 10138,14656 10136,14663 10136,14668 10138,14670 10144,14676 10149,14678 10157,14680 10162,14686 10165,14691 10165,14691 10162,14691 10162,14691 10160,14691 10160,14693 10160,14693 10157,14695 10157,14695 10162,14700 10165,14706 10173,14708 10179,14710 10184,14715 10190,14718 10197,14721 10203,14723 10195,14723 10190,14723 10181,14723 10177,14723 10168,14723 10160,14725 10154,14725 10149,14728 10136,14730 10122,14730 10108,14730 10095,14732 10081,14735 10067,14735 10054,14735 10040,14738 10037,14740 10002,14745 9966,14751 9933,14758 9898,14765 9866,14775 9829,14783 9797,14790 9761,14795 9715,14815 9671,14837 9625,14862 9582,14887 9541,14912 9497,14939 9456,14966 9412,14994 9390,15014 9371,15031 9353,15051 9336,15071 9320,15093 9304,15113 9290,15134 9274,15153 9269,15158 9263,15166 9257,15171 9255,15178 9252,15185 9247,15193 9241,15198 9236,15203 9233,15207 9230,15213 9228,15215 9224,15220 9222,15226 9220,15228 9214,15230 9208,15230 9162,15171 9118,15106 9072,15044 9028,14981 8988,14917 8947,14852 8907,14785 8868,14718 8830,14656 8789,14594 8748,14532 8710,14469 8667,14407 8626,14345 8580,14285 8537,14223 8541,14205 8553,14190 8563,14172 8574,14157 8602,14127 8631,14097 8664,14069 8697,14045 8729,14020 8762,13995 8821,13958 8884,13923 8947,13891 9012,13861 9078,13836 9148,13813 9184,13806 9220,13798 9255,13791 9293,13786 9380,13794 Z M 9380,14616 L 9374,14628 9371,14643 9369,14658 9371,14673 9374,14688 9377,14703 9382,14718 9388,14730 9390,14735 9394,14738 9396,14743 9399,14745 9404,14751 9407,14753 9410,14758 9415,14760 9412,14760 9412,14762 9412,14765 9412,14765 9412,14768 9412,14770 9410,14770 9407,14770 9394,14765 9386,14758 9377,14745 9371,14732 9369,14721 9366,14706 9364,14693 9358,14680 9361,14670 9358,14658 9358,14648 9355,14635 9358,14626 9361,14616 9366,14608 9377,14603 9380,14616 Z M 9323,14670 L 9320,14678 9323,14683 9328,14688 9331,14695 9333,14700 9336,14703 9333,14708 9326,14710 9320,14706 9314,14698 9312,14691 9310,14683 9310,14673 9310,14665 9310,14656 9310,14648 9318,14643 9323,14643 9323,14646 9323,14648 9323,14653 9323,14661 9320,14665 9323,14670 Z M 9277,14680 L 9277,14683 9277,14686 9277,14686 9277,14688 9277,14691 9277,14691 9277,14693 9274,14693 9271,14695 9269,14695 9269,14693 9265,14693 9265,14691 9263,14688 9263,14686 9263,14686 9269,14663 9271,14663 9274,14665 9274,14665 9274,14670 9277,14673 9277,14676 9277,14678 9277,14680 Z M 9279,13973 L 9279,13978 9274,13975 9269,13975 9263,13978 9260,13978 9255,13978 9249,13981 9244,13983 9238,13983 9238,13981 9238,13978 9241,13975 9241,13975 9244,13973 9247,13973 9249,13970 9252,13968 9255,13970 9260,13968 9263,13968 9265,13968 9271,13968 9274,13968 9277,13970 9279,13973 Z M 9247,13913 L 9249,13918 9247,13921 9247,13921 9244,13921 9241,13921 9238,13921 9236,13921 9233,13923 9228,13928 9222,13933 9216,13936 9211,13938 9206,13938 9200,13940 9195,13945 9192,13953 9189,13953 9189,13953 9189,13951 9187,13951 9187,13951 9187,13948 9187,13948 9184,13945 9187,13943 9189,13940 9192,13938 9192,13936 9195,13933 9198,13931 9200,13928 9203,13925 9208,13928 9214,13925 9220,13923 9224,13918 9230,13913 9236,13910 9241,13910 9247,13913 Z M 9320,14097 L 9318,14102 9314,14107 9312,14107 9306,14107 9301,14105 9296,14105 9290,14105 9285,14107 9277,14105 9269,14107 9260,14110 9252,14112 9244,14117 9236,14122 9230,14127 9222,14132 9220,14132 9220,14132 9216,14132 9214,14132 9211,14132 9211,14132 9208,14132 9208,14129 9198,14134 9189,14140 9184,14147 9179,14155 9171,14162 9162,14167 9154,14172 9143,14172 9138,14167 9130,14172 9122,14179 9113,14187 9105,14195 9100,14203 9089,14208 9081,14213 9067,14216 9061,14223 9053,14231 9045,14238 9037,14246 9028,14253 9020,14257 9010,14265 9001,14270 8991,14268 8983,14283 8972,14293 8961,14302 8947,14310 8934,14317 8923,14325 8912,14338 8903,14349 8895,14355 8887,14360 8882,14367 8876,14375 8871,14384 8866,14390 8858,14394 8846,14397 8846,14397 8844,14394 8844,14392 8844,14390 8844,14387 8844,14384 8844,14382 8844,14379 8846,14379 8846,14377 8849,14375 8852,14375 8854,14375 8858,14375 8858,14375 8860,14377 8866,14372 8868,14364 8871,14360 8874,14352 8876,14347 8879,14342 8884,14340 8893,14342 8901,14338 8907,14332 8909,14325 8915,14319 8917,14315 8923,14310 8925,14302 8931,14297 8944,14300 8952,14293 8958,14287 8964,14280 8966,14276 8972,14268 8977,14263 8983,14255 8991,14250 9001,14255 9067,14198 9081,14198 9089,14193 9094,14187 9102,14179 9107,14174 9116,14167 9122,14159 9130,14155 9138,14147 9140,14147 9140,14149 9143,14149 9146,14152 9146,14152 9148,14155 9148,14157 9151,14159 9157,14155 9165,14149 9173,14144 9179,14140 9187,14132 9192,14127 9200,14122 9208,14117 9220,14120 9228,14117 9236,14112 9244,14105 9252,14099 9263,14095 9271,14092 9285,14095 9288,14095 9293,14095 9298,14095 9304,14092 9306,14092 9312,14092 9318,14095 9320,14097 Z M 9053,14114 L 9053,14117 9056,14120 9053,14125 9053,14127 9050,14129 9050,14132 9048,14134 9045,14137 9037,14140 9032,14144 9024,14149 9015,14155 9010,14159 9001,14162 8991,14162 8983,14162 8974,14170 8966,14177 8958,14185 8950,14193 8942,14201 8934,14208 8925,14213 8915,14216 8912,14213 8909,14213 8909,14216 8907,14216 8907,14218 8903,14218 8903,14220 8901,14223 8898,14228 8893,14233 8887,14240 8882,14246 8876,14253 8871,14255 8862,14257 8854,14257 8849,14263 8844,14268 8841,14273 8836,14276 8830,14278 8825,14280 8819,14283 8814,14285 8811,14283 8811,14278 8811,14276 8814,14273 8817,14270 8817,14268 8819,14265 8819,14260 8825,14265 8827,14265 8830,14263 8836,14260 8838,14257 8841,14255 8844,14250 8844,14248 8846,14248 8846,14248 8846,14246 8846,14246 8849,14243 8849,14243 8852,14240 8852,14240 8866,14246 8912,14195 8925,14201 8936,14193 8944,14185 8952,14174 8961,14164 8972,14155 8980,14149 8991,14147 9005,14147 9042,14114 9053,14114 Z M 9032,14050 L 9032,14055 9028,14058 9026,14058 9024,14058 9018,14058 9015,14055 9012,14058 9007,14058 9001,14065 8993,14072 8985,14082 8974,14090 8966,14097 8956,14099 8944,14102 8934,14099 8928,14107 8923,14114 8915,14125 8909,14132 8901,14137 8893,14142 8882,14144 8871,14144 8866,14149 8862,14157 8858,14162 8852,14167 8846,14172 8838,14177 8833,14179 8825,14179 8825,14179 8825,14179 8825,14179 8825,14179 8825,14179 8825,14177 8821,14177 8821,14177 8814,14187 8805,14198 8795,14205 8786,14216 8776,14225 8768,14233 8762,14246 8756,14255 8754,14263 8748,14268 8743,14273 8735,14276 8729,14278 8724,14283 8719,14287 8715,14295 8705,14295 8702,14293 8702,14290 8702,14287 8705,14285 8705,14283 8707,14280 8707,14278 8707,14276 8710,14276 8713,14276 8715,14273 8715,14270 8715,14268 8719,14265 8719,14263 8719,14260 8724,14255 8732,14250 8737,14246 8746,14240 8751,14235 8756,14231 8760,14223 8762,14216 8770,14211 8781,14205 8789,14198 8795,14190 8803,14182 8808,14172 8817,14164 8821,14157 8825,14157 8827,14157 8827,14159 8830,14159 8830,14159 8833,14162 8833,14162 8836,14164 8841,14159 8846,14155 8849,14149 8854,14142 8860,14137 8866,14132 8871,14129 8879,14127 8879,14127 8879,14129 8882,14129 8884,14132 8884,14132 8887,14132 8887,14132 8890,14129 8934,14084 8944,14088 8944,14088 8956,14088 8966,14082 8974,14075 8983,14067 8991,14060 8999,14052 9007,14045 9015,14040 9018,14043 9020,14043 9024,14043 9026,14043 9028,14045 9028,14045 9032,14047 9032,14050 Z M 9015,13961 L 9015,13963 9018,13966 9018,13968 9015,13970 9015,13973 9012,13975 9010,13978 9007,13978 9001,13978 8999,13981 8996,13983 8991,13985 8988,13987 8985,13990 8980,13993 8977,13995 8966,14000 8956,14007 8947,14013 8936,14020 8925,14025 8917,14032 8907,14035 8893,14040 8890,14037 8887,14035 8884,14037 8882,14037 8879,14040 8879,14043 8876,14045 8874,14047 8871,14055 8866,14062 8858,14067 8849,14072 8838,14075 8830,14080 8825,14088 8819,14095 8808,14102 8797,14112 8786,14120 8776,14127 8762,14134 8751,14142 8740,14149 8729,14155 8721,14157 8715,14159 8710,14164 8707,14172 8702,14177 8699,14182 8694,14187 8688,14190 8683,14193 8680,14198 8678,14203 8678,14208 8675,14211 8672,14216 8670,14218 8664,14220 8661,14218 8661,14216 8661,14213 8659,14213 8661,14211 8661,14208 8661,14208 8661,14205 8667,14203 8670,14198 8672,14193 8672,14187 8675,14179 8678,14177 8683,14174 8688,14177 8694,14174 8697,14170 8699,14167 8702,14162 8705,14159 8707,14155 8710,14149 8710,14147 8721,14147 8729,14144 8735,14140 8740,14134 8748,14127 8754,14122 8762,14120 8770,14120 8781,14112 8789,14105 8797,14097 8805,14092 8814,14084 8819,14077 8827,14069 8836,14062 8846,14062 8887,14023 8895,14023 8895,14023 8907,14023 8917,14017 8925,14013 8936,14005 8944,14000 8952,13993 8964,13987 8974,13985 8980,13983 8985,13978 8988,13975 8993,13970 8999,13966 9005,13963 9010,13961 9015,13961 Z"/>
 </g>
 <g style="stroke:none;fill:rgb(220,220,220)">
  <path d="M 9529,13794 L 9535,13798 9538,13804 9541,13809 9543,13816 9543,13821 9546,13826 9546,13834 9546,13841 9527,13846 9508,13854 9488,13858 9470,13861 9451,13866 9431,13869 9412,13869 9394,13871 9386,13866 9382,13861 9382,13854 9380,13846 9382,13839 9382,13834 9382,13826 9386,13821 9394,13813 9402,13809 9410,13804 9421,13801 9431,13801 9443,13798 9453,13796 9462,13794 9472,13794 9480,13794 9488,13794 9497,13794 9505,13791 9513,13791 9521,13791 9529,13794 Z M 9513,13811 L 9516,13813 9516,13816 9516,13816 9519,13818 9519,13821 9516,13824 9516,13826 9516,13828 9513,13831 9511,13834 9505,13836 9500,13836 9497,13836 9492,13836 9486,13836 9484,13836 9480,13836 9478,13836 9475,13834 9475,13831 9472,13831 9472,13828 9470,13826 9470,13824 9470,13821 9472,13816 9472,13813 9475,13811 9478,13809 9480,13806 9484,13806 9486,13804 9492,13804 9494,13804 9497,13804 9502,13806 9505,13806 9508,13806 9511,13809 9513,13811 Z"/>
 </g>
 <g style="stroke:none;fill:rgb(243,243,243)">
  <path d="M 10122,13839 L 10119,13846 10116,13854 10114,13861 10114,13869 10111,13876 10105,13880 10100,13886 10091,13886 10089,13886 10086,13883 10083,13883 10081,13883 10078,13883 10078,13883 10075,13883 10073,13883 10073,13876 10073,13869 10075,13861 10075,13854 10078,13846 10081,13839 10081,13831 10083,13824 10089,13824 10095,13824 10100,13824 10105,13826 10108,13831 10114,13834 10119,13836 10122,13839 Z M 9611,13157 L 9609,13159 9606,13159 9603,13159 9600,13162 9600,13162 9598,13164 9595,13167 9592,13170 9595,13172 9598,13174 9603,13174 9606,13174 9611,13172 9615,13172 9617,13174 9619,13179 9617,13181 9617,13181 9615,13184 9611,13187 9611,13189 9609,13192 9611,13194 9615,13196 9619,13202 9619,13202 9622,13202 9622,13202 9622,13202 9622,13199 9622,13199 9622,13199 9622,13196 9633,13202 9644,13202 9655,13204 9666,13202 9676,13202 9687,13199 9698,13199 9709,13196 9715,13204 9720,13214 9726,13222 9734,13232 9739,13241 9742,13252 9744,13259 9744,13271 9731,13274 9720,13276 9709,13274 9701,13271 9690,13269 9679,13267 9668,13267 9658,13271 9658,13278 9660,13282 9666,13284 9671,13284 9676,13284 9685,13284 9690,13284 9695,13284 9695,13291 9690,13297 9685,13297 9679,13299 9671,13299 9666,13299 9658,13301 9652,13304 9650,13304 9647,13304 9641,13306 9639,13306 9633,13306 9631,13306 9628,13308 9625,13311 9625,13314 9625,13316 9625,13319 9628,13321 9628,13321 9631,13323 9631,13326 9633,13326 9641,13323 9647,13321 9652,13319 9660,13316 9666,13314 9671,13311 9676,13314 9682,13319 9679,13321 9679,13323 9679,13329 9679,13331 9679,13334 9682,13338 9682,13341 9685,13343 9687,13346 9690,13346 9693,13349 9695,13351 9698,13353 9701,13356 9704,13359 9704,13361 9704,13364 9704,13366 9704,13368 9704,13371 9701,13373 9701,13373 9698,13376 9698,13379 9663,13379 9628,13376 9592,13371 9560,13368 9527,13361 9494,13356 9462,13349 9429,13341 9426,13329 9426,13314 9429,13299 9429,13284 9431,13271 9431,13256 9435,13244 9435,13229 9437,13226 9443,13226 9445,13226 9448,13226 9451,13224 9453,13224 9456,13222 9459,13217 9462,13219 9464,13219 9462,13222 9462,13224 9459,13224 9456,13226 9456,13229 9456,13232 9462,13237 9467,13241 9472,13246 9478,13252 9480,13256 9486,13264 9492,13269 9497,13274 9497,13274 9500,13274 9500,13274 9502,13271 9502,13271 9505,13269 9505,13269 9508,13267 9505,13259 9500,13252 9494,13244 9492,13237 9486,13229 9484,13224 9486,13217 9494,13209 9497,13207 9500,13204 9505,13199 9508,13196 9513,13194 9516,13189 9516,13187 9516,13181 9513,13179 9513,13179 9511,13179 9511,13179 9508,13179 9508,13179 9505,13177 9502,13177 9502,13174 9502,13172 9505,13172 9505,13170 9505,13167 9508,13164 9508,13164 9511,13162 9524,13162 9538,13162 9552,13159 9565,13159 9576,13159 9590,13159 9600,13157 9611,13157 Z"/>
 </g>
 <g style="stroke:none;fill:rgb(123,123,123)">
  <path d="M 9953,13985 L 9978,14000 9999,14017 10021,14035 10046,14055 10067,14072 10089,14092 10108,14112 10130,14129 10130,14132 10130,14137 10130,14140 10132,14142 10136,14144 10140,14147 10144,14149 10144,14152 10144,14155 10140,14155 10138,14155 10136,14152 10132,14152 10132,14152 10130,14155 10130,14157 10130,14164 10130,14164 10127,14164 10127,14164 10124,14164 10124,14164 10122,14167 10122,14167 10122,14167 10122,14177 10136,14182 10146,14187 10160,14193 10171,14198 10184,14203 10195,14208 10209,14213 10222,14218 10359,14305 10320,14414 10318,14414 10315,14414 10312,14412 10310,14412 10307,14409 10304,14407 10301,14405 10301,14402 10266,14384 10230,14367 10195,14347 10160,14330 10124,14310 10089,14290 10056,14268 10024,14246 10021,14238 10015,14233 10010,14228 10002,14225 9997,14223 9988,14220 9980,14218 9974,14216 9948,14205 9917,14195 9888,14187 9860,14179 9829,14170 9802,14159 9775,14149 9748,14137 9739,14134 9734,14132 9726,14129 9720,14125 9712,14120 9707,14114 9701,14112 9693,14107 9611,14060 9617,14060 9625,14058 9633,14055 9641,14052 9650,14050 9655,14045 9663,14045 9671,14045 9693,14035 9712,14028 9734,14020 9756,14015 9777,14007 9797,14000 9818,13993 9839,13983 9839,13987 9841,13990 9844,13990 9847,13990 9852,13990 9855,13990 9858,13990 9860,13990 9872,13985 9885,13983 9896,13981 9909,13978 9920,13978 9933,13978 9945,13981 9953,13985 Z M 9639,14117 L 9644,14122 9647,14125 9650,14127 9655,14127 9660,14129 9663,14132 9668,14134 9671,14137 9668,14162 9666,14190 9663,14216 9663,14243 9660,14270 9658,14295 9655,14319 9647,14345 9647,14352 9647,14360 9647,14364 9644,14372 9644,14379 9641,14384 9639,14392 9639,14397 9639,14397 9639,14397 9639,14394 9635,14394 9635,14392 9635,14390 9633,14390 9631,14390 9628,14390 9628,14390 9625,14390 9625,14392 9622,14392 9622,14392 9622,14394 9619,14394 9617,14412 9615,14429 9611,14446 9611,14464 9609,14481 9606,14499 9603,14517 9600,14534 9590,14546 9568,14663 9557,14668 9543,14670 9533,14670 9519,14670 9505,14670 9494,14670 9480,14670 9470,14670 9467,14648 9464,14626 9464,14601 9464,14579 9464,14556 9467,14534 9467,14511 9464,14489 9470,14481 9462,14310 9453,14300 9451,14276 9448,14253 9445,14231 9445,14208 9445,14185 9445,14162 9445,14137 9448,14114 9516,14082 9519,14082 9524,14082 9527,14082 9529,14080 9535,14080 9538,14077 9543,14075 9546,14075 9549,14075 9552,14075 9557,14075 9560,14075 9562,14075 9568,14072 9570,14072 9574,14069 9582,14075 9590,14080 9598,14088 9606,14095 9615,14102 9622,14107 9631,14112 9639,14117 Z"/>
 </g>
 <g style="stroke:none;fill:rgb(223,223,223)">
  <polygon points="10919,14195 10903,14203 10887,14211 10870,14218 10854,14225 10835,14233 10819,14240 10802,14248 10783,14253 10734,14293 10682,14332 10633,14372 10584,14412 10535,14454 10489,14497 10443,14541 10402,14588 10402,14586 10402,14586 10402,14584 10402,14579 10402,14576 10402,14573 10400,14571 10396,14571 10400,14566 10402,14562 10404,14556 10410,14551 10413,14546 10416,14541 10416,14536 10418,14532 10424,14526 10429,14519 10435,14511 10441,14504 10445,14494 10451,14487 10457,14479 10461,14472 10473,14459 10484,14446 10494,14432 10508,14420 10519,14407 10533,14394 10547,14382 10560,14372 10560,14364 10560,14360 10563,14355 10565,14352 10568,14347 10571,14342 10571,14338 10568,14330 10582,14322 10592,14315 10606,14305 10617,14297 10631,14290 10644,14283 10658,14278 10672,14270 10674,14265 10677,14260 10682,14257 10690,14253 10696,14250 10701,14248 10705,14243 10705,14235 10709,14233 10715,14231 10718,14228 10721,14223 10725,14218 10729,14216 10731,14211 10737,14211 10756,14198 10772,14187 10791,14179 10813,14174 10832,14170 10854,14162 10873,14157 10895,14149 10900,14155 10903,14159 10909,14164 10909,14170 10911,14177 10914,14182 10917,14190 10919,14195"/>
 </g>
 <g style="stroke:none;fill:rgb(0,0,0)">
  <polygon points="10050,14246 10050,14246 10050,14248 10050,14248 10050,14248 10050,14250 10050,14250 10048,14250 10048,14250 10048,14250 10046,14250 10046,14250 10046,14250 10042,14248 10042,14248 10042,14248 10042,14246 10050,14246"/>
 </g>
 <g style="stroke:none;fill:rgb(255,255,255)">
  <polygon points="8735,14260 8732,14260 8740,14250 8740,14253 8740,14253 8740,14255 8740,14255 8740,14257 8737,14257 8737,14260 8735,14260"/>
 </g>
 <g style="stroke:none;fill:rgb(238,238,238)">
  <polygon points="10860,14283 10786,14332 10707,14384 10631,14439 10555,14494 10516,14524 10481,14554 10448,14586 10416,14618 10386,14653 10361,14691 10337,14728 10315,14765 10312,14770 10307,14777 10304,14783 10301,14790 10296,14795 10291,14797 10285,14797 10277,14792 10162,14792 10154,14790 10149,14788 10140,14788 10132,14790 10124,14790 10116,14792 10108,14792 10100,14792 10086,14795 10073,14800 10059,14803 10042,14803 10029,14805 10015,14807 10002,14813 9988,14818 9988,14818 9988,14818 9988,14818 9988,14815 9988,14815 9988,14815 9991,14815 9991,14815 9986,14810 9964,14818 9942,14825 9920,14833 9898,14837 9880,14845 9858,14852 9835,14859 9813,14865 9780,14880 9748,14892 9712,14904 9679,14917 9647,14932 9617,14949 9584,14966 9557,14989 9546,14989 9443,15081 9440,15081 9435,15083 9431,15089 9429,15091 9423,15096 9421,15099 9418,15104 9415,15108 9404,15104 9402,15106 9396,15111 9394,15116 9388,15123 9386,15128 9380,15131 9374,15134 9369,15134 9364,15138 9358,15143 9353,15148 9347,15153 9345,15158 9339,15164 9333,15168 9326,15168 9323,15173 9318,15178 9314,15183 9312,15188 9306,15190 9304,15196 9301,15200 9296,15205 9290,15203 9285,15205 9279,15210 9277,15215 9274,15223 9271,15230 9265,15235 9263,15240 9257,15237 9255,15237 9252,15240 9252,15243 9249,15245 9247,15248 9244,15248 9241,15248 9244,15237 9247,15230 9249,15220 9255,15213 9260,15205 9265,15196 9271,15188 9277,15181 9293,15161 9310,15138 9326,15116 9341,15096 9361,15076 9382,15056 9402,15037 9421,15018 9429,15016 9437,15011 9443,15007 9451,14999 9456,14994 9464,14986 9472,14981 9480,14977 9488,14972 9500,14964 9511,14959 9521,14951 9533,14947 9541,14939 9552,14934 9560,14927 9595,14907 9633,14889 9668,14872 9707,14855 9742,14837 9780,14822 9818,14807 9858,14795 9893,14785 9926,14777 9961,14773 9997,14765 10034,14760 10070,14758 10105,14755 10140,14753 10146,14753 10152,14755 10157,14755 10162,14755 10168,14755 10173,14755 10179,14755 10184,14758 10195,14760 10209,14762 10220,14762 10234,14765 10244,14768 10258,14770 10266,14775 10277,14783 10279,14785 10283,14785 10285,14785 10285,14785 10288,14785 10291,14785 10293,14783 10296,14780 10304,14760 10315,14740 10326,14721 10337,14700 10350,14683 10364,14663 10377,14646 10394,14626 10394,14621 10416,14601 10437,14579 10461,14556 10486,14534 10511,14511 10535,14489 10560,14467 10584,14444 10584,14439 10596,14432 10604,14424 10614,14417 10623,14412 10631,14405 10641,14397 10650,14392 10660,14387 10666,14379 10672,14372 10680,14367 10688,14362 10699,14357 10707,14352 10712,14345 10718,14338 10723,14334 10725,14334 10729,14332 10734,14330 10737,14327 10740,14322 10742,14319 10745,14315 10756,14310 10766,14305 10778,14297 10791,14290 10802,14280 10813,14273 10824,14268 10835,14260 10838,14263 10840,14263 10843,14263 10846,14263 10848,14260 10851,14260 10854,14257 10856,14257 10856,14260 10860,14263 10860,14265 10860,14268 10860,14273 10860,14276 10860,14280 10860,14283"/>
 </g>
 <g style="stroke:none;fill:rgb(148,148,148)">
  <path d="M 10429,14283 L 10426,14287 10421,14295 10418,14300 10413,14308 10410,14315 10408,14319 10402,14327 10400,14334 10400,14332 10400,14332 10396,14332 10396,14332 10394,14330 10394,14332 10391,14332 10391,14334 10391,14334 10391,14334 10391,14334 10391,14338 10391,14338 10391,14338 10391,14338 10394,14338 10355,14405 10353,14392 10353,14379 10355,14367 10361,14355 10367,14342 10372,14330 10375,14317 10380,14305 10380,14305 10383,14302 10383,14302 10386,14300 10388,14300 10388,14297 10388,14297 10388,14295 10383,14293 10391,14287 10394,14287 10394,14290 10394,14295 10394,14297 10394,14300 10394,14302 10394,14305 10396,14308 10404,14305 10410,14300 10413,14295 10413,14290 10413,14283 10413,14276 10416,14270 10418,14263 10416,14265 10416,14270 10418,14273 10418,14278 10418,14280 10421,14283 10424,14283 10429,14283 Z M 9731,14638 L 9717,14653 9704,14663 9687,14673 9671,14680 9655,14688 9635,14695 9617,14700 9600,14706 9595,14706 9590,14703 9584,14703 9578,14703 9576,14703 9570,14706 9565,14706 9560,14706 9552,14715 9543,14718 9533,14718 9524,14718 9513,14718 9505,14718 9494,14721 9486,14721 9475,14721 9475,14718 9475,14715 9475,14713 9478,14710 9478,14708 9478,14706 9478,14703 9478,14700 9492,14698 9508,14695 9521,14695 9538,14693 9552,14693 9568,14693 9584,14693 9600,14695 9603,14693 9606,14688 9609,14686 9611,14680 9611,14676 9615,14673 9619,14670 9625,14673 9622,14673 9622,14676 9622,14678 9622,14680 9622,14683 9622,14686 9622,14688 9625,14691 9625,14691 9625,14691 9628,14691 9628,14693 9628,14693 9631,14693 9631,14693 9633,14693 9635,14688 9641,14683 9641,14678 9644,14673 9644,14668 9647,14665 9652,14663 9658,14661 9658,14663 9658,14665 9655,14670 9655,14673 9655,14678 9658,14680 9660,14683 9666,14683 9671,14680 9674,14676 9676,14670 9676,14665 9679,14661 9682,14656 9685,14653 9690,14650 9690,14653 9690,14656 9693,14658 9695,14661 9695,14663 9698,14663 9701,14663 9704,14661 9709,14658 9712,14656 9715,14650 9715,14646 9717,14643 9720,14641 9726,14638 9731,14638 Z M 10451,14285 L 10459,14273 10467,14263 10476,14250 10484,14240 10492,14228 10500,14218 10511,14208 10522,14198 10514,14208 10508,14220 10500,14233 10489,14243 10481,14253 10473,14265 10461,14276 10451,14285 Z M 10441,14268 L 10443,14263 10443,14257 10443,14253 10443,14250 10445,14246 10445,14243 10448,14238 10451,14235 10451,14240 10451,14243 10451,14248 10451,14253 10448,14255 10445,14260 10443,14263 10441,14268 Z M 9538,14735 L 9472,14740 9475,14735 9478,14732 9484,14732 9488,14732 9494,14732 9500,14732 9505,14732 9508,14730 9513,14732 9516,14732 9521,14730 9524,14730 9527,14730 9533,14732 9535,14732 9538,14735 Z M 10396,14364 L 10400,14362 10400,14360 10400,14357 10402,14355 10402,14352 10404,14352 10404,14349 10408,14347 10408,14349 10408,14352 10408,14352 10404,14355 10404,14357 10402,14360 10400,14362 10396,14364 Z M 10345,14432 L 10342,14432 10342,14422 10345,14422 10345,14432 Z"/>
 </g>
 <g style="stroke:none;fill:rgb(217,217,217)">
  <polygon points="10878,14367 10876,14372 10873,14375 10870,14379 10865,14382 10860,14384 10854,14387 10851,14390 10846,14392 10791,14417 10740,14446 10690,14479 10641,14511 10592,14549 10547,14588 10502,14628 10459,14668 10443,14686 10426,14703 10410,14723 10394,14740 10380,14758 10364,14775 10345,14790 10328,14805 10326,14805 10323,14807 10323,14813 10320,14815 10318,14815 10315,14818 10312,14820 10310,14820 10312,14818 10315,14815 10318,14813 10320,14810 10320,14805 10320,14803 10320,14797 10320,14795 10380,14725 10380,14721 10383,14715 10386,14710 10391,14706 10394,14700 10396,14695 10400,14691 10400,14686 10404,14676 10413,14668 10421,14661 10429,14650 10437,14643 10445,14635 10451,14626 10454,14616 10535,14554 10535,14549 10538,14543 10543,14541 10547,14539 10549,14536 10552,14534 10555,14529 10555,14524 10574,14511 10592,14494 10612,14479 10633,14464 10652,14452 10674,14437 10693,14427 10718,14417 10725,14409 10734,14402 10742,14397 10753,14392 10762,14387 10772,14382 10780,14377 10786,14367 10791,14367 10794,14364 10799,14362 10802,14360 10807,14360 10811,14357 10816,14355 10819,14349 10813,14342 10819,14340 10824,14334 10829,14332 10835,14327 10840,14325 10846,14319 10851,14317 10860,14315 10878,14367"/>
 </g>
 <g style="stroke:none;fill:rgb(228,228,228)">
  <polygon points="10884,14437 10868,14442 10851,14446 10838,14454 10821,14461 10805,14469 10791,14476 10775,14484 10762,14494 10617,14576 10612,14584 10604,14591 10592,14596 10584,14601 10576,14605 10565,14613 10557,14618 10549,14626 10557,14611 10568,14598 10579,14586 10592,14576 10609,14566 10623,14556 10639,14549 10652,14539 10680,14521 10705,14502 10731,14484 10756,14467 10783,14449 10811,14432 10840,14420 10870,14409 10873,14412 10876,14414 10878,14417 10881,14422 10881,14424 10884,14427 10884,14432 10884,14437"/>
 </g>
 <g style="stroke:none;fill:rgb(217,217,217)">
  <path d="M 10408,14777 L 10410,14788 10410,14800 10410,14810 10408,14820 10404,14830 10400,14840 10394,14848 10383,14855 10369,14870 10350,14878 10328,14884 10307,14887 10285,14889 10260,14887 10238,14884 10217,14880 10168,14907 10119,14932 10070,14957 10021,14984 9972,15009 9920,15034 9872,15059 9821,15083 9777,15111 9731,15138 9687,15166 9641,15193 9595,15218 9549,15240 9502,15263 9453,15282 9336,15357 9333,15357 9331,15357 9331,15355 9328,15355 9326,15353 9326,15349 9323,15349 9323,15347 9331,15337 9339,15330 9347,15323 9358,15317 9369,15312 9380,15308 9390,15300 9402,15293 9421,15280 9443,15270 9464,15260 9488,15250 9511,15240 9533,15230 9554,15220 9576,15210 9628,15178 9679,15148 9731,15119 9783,15089 9839,15061 9890,15031 9942,15001 9993,14972 10015,14959 10034,14949 10056,14939 10078,14929 10097,14919 10119,14910 10140,14899 10160,14887 10181,14880 10201,14878 10222,14878 10247,14880 10269,14882 10291,14882 10312,14880 10334,14872 10347,14865 10359,14855 10369,14845 10377,14833 10386,14820 10391,14805 10396,14792 10402,14777 10408,14777 Z M 10911,14452 L 10881,14474 10848,14494 10813,14517 10780,14536 10748,14554 10712,14573 10680,14591 10644,14605 10620,14621 10592,14638 10568,14650 10543,14665 10516,14680 10492,14698 10470,14713 10445,14730 10396,14765 10396,14770 10394,14768 10413,14745 10437,14725 10459,14706 10486,14691 10511,14676 10538,14661 10565,14646 10590,14628 10900,14449 10903,14449 10903,14449 10905,14449 10905,14449 10909,14449 10909,14446 10911,14446 10911,14446 10911,14452 Z"/>
 </g>
 <g style="stroke:none;fill:rgb(224,224,224)">
  <polygon points="10179,14815 10190,14815 10201,14815 10212,14813 10222,14810 10234,14810 10244,14810 10255,14813 10263,14818 10269,14815 10274,14815 10279,14815 10283,14815 10288,14818 10293,14818 10296,14820 10301,14820 10283,14822 10266,14825 10247,14825 10230,14827 10212,14827 10195,14827 10177,14830 10160,14830 10149,14827 10138,14827 10124,14827 10114,14830 10100,14835 10089,14837 10075,14840 10064,14840 10056,14842 10050,14845 10046,14848 10037,14850 10032,14852 10026,14855 10018,14855 10013,14855 9999,14859 9986,14867 9974,14872 9961,14878 9948,14884 9937,14889 9923,14897 9913,14904 9901,14904 9893,14907 9882,14912 9874,14914 9866,14919 9858,14924 9852,14929 9844,14934 9844,14934 9844,14932 9841,14932 9841,14932 9841,14929 9839,14929 9839,14929 9839,14929 9826,14932 9818,14934 9810,14942 9802,14947 9793,14954 9785,14959 9775,14962 9766,14962 9764,14964 9761,14966 9756,14969 9752,14972 9750,14974 9748,14977 9744,14977 9739,14977 9731,14984 9723,14989 9715,14994 9707,14999 9698,15004 9690,15007 9682,15014 9674,15018 9666,15021 9660,15026 9655,15031 9647,15037 9641,15039 9635,15044 9631,15046 9622,15046 9615,15048 9609,15054 9603,15059 9598,15061 9590,15066 9584,15071 9578,15074 9570,15074 9546,15099 9519,15126 9492,15151 9462,15175 9435,15200 9404,15226 9377,15250 9347,15275 9341,15278 9339,15280 9333,15282 9328,15288 9323,15290 9318,15293 9312,15293 9306,15290 9301,15295 9298,15297 9296,15302 9290,15308 9288,15310 9282,15315 9277,15317 9271,15320 9274,15310 9277,15297 9277,15290 9277,15280 9277,15270 9279,15263 9285,15252 9296,15245 9296,15245 9296,15248 9298,15248 9298,15250 9301,15250 9301,15250 9304,15250 9304,15248 9312,15237 9320,15228 9328,15218 9339,15207 9347,15200 9358,15190 9366,15181 9374,15173 9390,15158 9404,15143 9418,15131 9435,15116 9448,15101 9464,15086 9478,15074 9494,15061 9500,15056 9502,15054 9508,15048 9511,15046 9516,15041 9519,15037 9524,15034 9527,15029 9554,15011 9578,14996 9606,14981 9633,14969 9660,14954 9687,14942 9717,14929 9744,14917 9756,14912 9769,14904 9783,14902 9797,14897 9810,14892 9824,14887 9835,14882 9850,14874 9860,14874 9872,14874 9880,14870 9890,14865 9898,14859 9909,14857 9920,14855 9931,14855 9937,14852 9942,14850 9948,14848 9953,14845 9958,14842 9964,14842 9970,14842 9978,14842 9993,14837 10013,14833 10032,14825 10050,14820 10070,14815 10091,14813 10111,14810 10130,14810 10136,14810 10140,14810 10144,14807 10149,14807 10152,14807 10157,14807 10162,14807 10165,14807 10168,14810 10168,14810 10168,14813 10171,14813 10173,14815 10173,14815 10177,14815 10179,14815"/>
 </g>
 <g style="stroke:none;fill:rgb(231,231,231)">
  <polygon points="10162,14857 10127,14870 10089,14884 10054,14899 10021,14917 9986,14936 9950,14951 9915,14969 9880,14981 9839,15004 9797,15026 9756,15048 9717,15074 9679,15099 9641,15126 9606,15153 9568,15181 9565,15185 9560,15188 9554,15188 9549,15188 9546,15188 9541,15190 9535,15193 9529,15198 9521,15203 9511,15207 9502,15213 9494,15218 9484,15223 9475,15230 9464,15235 9456,15240 9453,15240 9453,15240 9451,15237 9451,15237 9448,15237 9448,15237 9445,15237 9443,15237 9437,15243 9440,15237 9443,15233 9445,15228 9451,15220 9453,15215 9459,15210 9467,15205 9475,15203 9527,15151 9533,15153 9535,15151 9541,15148 9543,15145 9549,15141 9552,15136 9557,15134 9560,15131 9568,15121 9578,15116 9587,15108 9598,15104 9609,15099 9617,15091 9625,15083 9633,15074 9635,15076 9641,15076 9644,15076 9647,15074 9650,15071 9655,15071 9658,15069 9660,15066 9668,15056 9682,15048 9693,15041 9704,15034 9715,15026 9726,15018 9736,15011 9744,15004 9752,14999 9761,14996 9769,14992 9777,14986 9785,14984 9793,14979 9802,14974 9807,14969 9818,14972 9826,14969 9832,14966 9841,14962 9847,14957 9855,14951 9863,14949 9872,14947 9882,14942 9896,14934 9907,14929 9917,14921 9929,14914 9942,14907 9953,14902 9966,14899 9974,14892 9986,14887 9993,14884 10005,14880 10015,14878 10024,14874 10034,14870 10046,14867 10054,14867 10062,14867 10073,14865 10081,14862 10089,14859 10097,14857 10105,14857 10116,14859 10130,14857 10144,14855 10160,14852 10173,14850 10190,14848 10203,14845 10220,14845 10236,14845 10162,14857"/>
 </g>
</svg>