#define autor_width 29
#define autor_height 84
static unsigned char autor_bits[] = {
  0x00, 0xf8, 0x03, 0x00, 0x00, 0x07, 0x1c, 0x00, 0x80, 0x00, 0x20, 0x00,
  0x60, 0x00, 0xc0, 0x00, 0x10, 0x00, 0x00, 0x01, 0x08, 0x00, 0x00, 0x02,
  0x08, 0x00, 0x00, 0x02, 0x04, 0x00, 0x00, 0x04, 0x02, 0x00, 0x00, 0x08,
  0x82, 0x0f, 0x1f, 0x08, 0x82, 0x08, 0x11, 0x08, 0x81, 0x0c, 0x19, 0x10,
  0x81, 0x0e, 0x1d, 0x10, 0x81, 0x0f, 0x1f, 0x10, 0x01, 0x00, 0x00, 0x10,
  0x01, 0x20, 0x00, 0x10, 0x01, 0x00, 0x00, 0x10, 0x01, 0x00, 0x00, 0x10,
  0x02, 0x20, 0x00, 0x08, 0x02, 0x20, 0x00, 0x08, 0x62, 0x60, 0x00, 0x08,
  0xc4, 0x00, 0x80, 0x04, 0x88, 0x03, 0xc0, 0x02, 0x08, 0xfe, 0x7f, 0x02,
  0x10, 0x00, 0x00, 0x01, 0x60, 0x00, 0xc0, 0x00, 0x80, 0x00, 0x20, 0x00,
  0x00, 0x07, 0x1c, 0x00, 0x00, 0xf8, 0x03, 0x00, 0x00, 0x40, 0x00, 0x00,
  0x00, 0x40, 0x00, 0x00, 0x00, 0x40, 0x00, 0x00, 0x00, 0x40, 0x00, 0x00,
  0x00, 0x40, 0x00, 0x00, 0x00, 0x40, 0x00, 0x00, 0x00, 0x40, 0x00, 0x00,
  0x00, 0x60, 0x00, 0x00, 0x00, 0xd8, 0x00, 0x00, 0x00, 0x46, 0x03, 0x00,
  0x00, 0x41, 0x0c, 0x00, 0xc0, 0x40, 0x10, 0x00, 0x20, 0x40, 0x60, 0x00,
  0x18, 0x40, 0x80, 0x01, 0x06, 0x40, 0x00, 0x06, 0x01, 0x40, 0x00, 0x08,
  0x00, 0x40, 0x00, 0x00, 0x00, 0x40, 0x00, 0x00, 0x00, 0x40, 0x00, 0x00,
  0x00, 0x40, 0x00, 0x00, 0x00, 0x40, 0x00, 0x00, 0x00, 0x40, 0x00, 0x00,
  0x00, 0x40, 0x00, 0x00, 0x00, 0x40, 0x00, 0x00, 0x00, 0x40, 0x00, 0x00,
  0x00, 0x40, 0x00, 0x00, 0x00, 0x40, 0x00, 0x00, 0x00, 0x60, 0x00, 0x00,
  0x00, 0xa0, 0x00, 0x00, 0x00, 0x90, 0x00, 0x00, 0x00, 0x10, 0x01, 0x00,
  0x00, 0x08, 0x01, 0x00, 0x00, 0x08, 0x02, 0x00, 0x00, 0x04, 0x02, 0x00,
  0x00, 0x04, 0x02, 0x00, 0x00, 0x02, 0x04, 0x00, 0x00, 0x02, 0x04, 0x00,
  0x00, 0x01, 0x08, 0x00, 0x00, 0x01, 0x08, 0x00, 0x80, 0x00, 0x10, 0x00,
  0x80, 0x00, 0x10, 0x00, 0x80, 0x00, 0x10, 0x00, 0x40, 0x00, 0x20, 0x00,
  0x40, 0x00, 0x20, 0x00, 0x20, 0x00, 0x40, 0x00, 0x20, 0x00, 0x40, 0x00,
  0x10, 0x00, 0x80, 0x00, 0x10, 0x00, 0x80, 0x00, 0x08, 0x00, 0x80, 0x00,
  0x08, 0x00, 0x00, 0x01, 0x04, 0x00, 0x00, 0x01, 0x04, 0x00, 0x00, 0x02,
  0x02, 0x00, 0x00, 0x02, 0x02, 0x00, 0x00, 0x04, 0x00, 0x00, 0x00, 0x04,
  };
