<?xml version="1.0" encoding="UTF-8"?>
<!DOCTYPE svg PUBLIC "-//W3C//DTD SVG 1.0//EN" "http://www.w3.org/TR/2001/REC-SVG-20010904/DTD/svg10.dtd">
<svg width="197mm" height="284mm" viewBox="0 0 19700 28400">
 <g style="stroke:none;fill:rgb(255,255,255)">
  <rect x="8149" y="12938" width="3388" height="2515"/>
  <rect x="8149" y="12938" width="3388" height="2515"/>
 </g>
 <g style="stroke:none;fill:rgb(0,0,0)">
  <polygon points="11068,12987 11072,12996 11076,13007 11080,13016 11084,13026 11087,13037 11090,13048 11091,13060 11091,13074 11082,13043 11069,13014 11054,12989 11038,12972 11022,12957 11003,12947 10983,12943 10964,12943 10972,12940 10980,12938 10989,12940 10998,12943 11007,12947 11017,12951 11026,12951 11036,12947 11068,12987"/>
  <polygon points="10186,12998 10170,13005 10154,13011 10138,13016 10122,13023 10106,13034 10091,13044 10076,13060 10063,13081 10075,13057 10089,13037 10105,13025 10121,13014 10136,13007 10153,13002 10170,12995 10186,12987 10186,12998"/>
  <polygon points="11008,13028 11014,13035 11019,13043 11022,13053 11025,13062 11028,13073 11030,13083 11033,13094 11036,13103 11028,13140 11017,13172 11005,13200 10990,13227 10975,13250 10960,13272 10944,13296 10929,13319 10916,13333 10905,13345 10893,13359 10880,13372 10869,13386 10856,13398 10844,13409 10831,13421 10819,13434 10807,13444 10794,13455 10782,13465 10769,13476 10756,13485 10743,13496 10730,13504 10714,13521 10698,13533 10681,13547 10665,13557 10648,13568 10633,13579 10616,13588 10599,13596 10582,13604 10564,13611 10548,13619 10531,13627 10513,13634 10496,13641 10478,13648 10461,13657 10440,13683 10418,13710 10398,13735 10377,13761 10356,13788 10334,13812 10313,13839 10292,13864 10271,13889 10250,13913 10228,13938 10206,13961 10185,13984 10163,14007 10141,14029 10119,14050 10139,14048 10160,14046 10181,14044 10201,14041 10221,14037 10241,14034 10261,14029 10281,14023 10300,14018 10320,14011 10339,14002 10358,13993 10378,13984 10396,13974 10415,13963 10434,13951 10442,13960 10450,13960 10458,13954 10467,13947 10476,13940 10484,13940 10491,13947 10498,13967 10506,13963 10514,13961 10522,13958 10529,13954 10536,13949 10542,13942 10547,13929 10550,13912 10551,13896 10554,13881 10556,13868 10561,13855 10565,13844 10570,13834 10577,13825 10583,13818 10602,13812 10619,13798 10634,13781 10649,13759 10664,13740 10680,13724 10698,13715 10719,13715 10727,13719 10735,13724 10743,13731 10751,13738 10758,13745 10766,13749 10775,13750 10784,13747 10791,13729 10798,13710 10803,13690 10808,13671 10814,13653 10822,13637 10830,13623 10841,13613 10857,13619 10874,13627 10891,13632 10909,13636 10927,13639 10946,13641 10963,13643 10982,13644 10982,13648 11016,13648 11051,13648 11085,13644 11119,13641 11152,13636 11186,13630 11219,13621 11252,13614 11286,13605 11318,13596 11352,13586 11387,13575 11420,13566 11455,13556 11490,13545 11526,13536 11521,13595 11519,13602 11518,13609 11516,13618 11514,13627 11513,13636 11511,13644 11510,13651 11510,13660 11467,13988 11465,14013 11461,14035 11459,14061 11457,14085 11454,14110 11452,14135 11450,14159 11449,14184 11446,14210 11444,14235 11442,14260 11441,14285 11439,14311 11436,14336 11434,14361 11432,14386 11399,14379 11366,14372 11334,14364 11302,14357 11269,14348 11237,14340 11205,14331 11173,14322 11141,14313 11109,14302 11076,14294 11045,14283 11013,14272 10981,14263 10949,14253 10917,14242 10808,14226 10794,14239 10781,14249 10768,14260 10754,14271 10740,14281 10727,14288 10713,14295 10700,14301 10686,14304 10671,14306 10658,14304 10644,14302 10631,14295 10617,14286 10603,14276 10590,14260 10585,14251 10579,14241 10574,14230 10569,14221 10563,14212 10558,14209 10552,14207 10545,14212 10542,14218 10540,14223 10538,14232 10537,14239 10537,14248 10536,14256 10535,14265 10534,14274 10528,14278 10522,14278 10515,14280 10509,14283 10505,14327 10486,14329 10466,14331 10447,14333 10427,14336 10407,14340 10387,14343 10367,14347 10348,14352 10327,14355 10308,14361 10288,14368 10268,14373 10249,14380 10229,14387 10210,14394 10190,14403 10202,14416 10214,14426 10226,14437 10238,14448 10250,14458 10263,14467 10276,14478 10289,14488 10301,14499 10313,14511 10326,14524 10337,14538 10349,14552 10359,14568 10369,14586 10378,14605 10382,14619 10387,14633 10393,14649 10396,14664 10399,14680 10401,14697 10400,14713 10397,14733 10391,14759 10383,14782 10374,14803 10365,14821 10353,14839 10342,14855 10330,14871 10318,14885 10331,14890 10344,14892 10357,14894 10370,14894 10382,14890 10394,14888 10406,14883 10418,14878 10430,14871 10441,14862 10452,14853 10464,14842 10474,14832 10485,14820 10494,14807 10505,14793 10526,14779 10546,14764 10566,14749 10586,14734 10608,14717 10628,14701 10648,14685 10670,14667 10690,14649 10711,14633 10731,14618 10753,14600 10773,14586 10794,14570 10815,14556 10837,14541 10848,14540 10860,14536 10871,14533 10883,14529 10894,14527 10905,14529 10915,14536 10926,14547 10930,14595 10926,14633 10916,14665 10903,14694 10887,14720 10870,14745 10853,14772 10837,14800 10809,14837 10780,14871 10751,14903 10721,14933 10691,14957 10660,14982 10628,15004 10596,15023 10563,15041 10531,15055 10498,15069 10465,15079 10432,15090 10398,15099 10365,15106 10331,15111 10315,15124 10300,15135 10284,15141 10268,15145 10253,15149 10238,15147 10222,15145 10207,15140 10192,15133 10178,15124 10163,15111 10149,15099 10134,15085 10122,15069 10108,15051 10095,15032 10096,15014 10095,14995 10093,14975 10092,14954 10092,14936 10094,14918 10098,14903 10106,14888 10116,14871 10127,14860 10139,14853 10151,14850 10165,14850 10177,14850 10190,14848 10200,14844 10211,14823 10188,14816 10165,14807 10142,14802 10119,14794 10096,14789 10073,14784 10050,14779 10027,14773 10004,14770 9981,14766 9958,14763 9935,14761 9911,14758 9888,14756 9865,14756 9841,14754 9817,14754 9794,14754 9771,14754 9748,14754 9725,14756 9702,14756 9679,14758 9655,14759 9632,14763 9609,14764 9586,14768 9562,14772 9539,14775 9516,14779 9492,14782 9469,14788 9451,14796 9433,14805 9414,14816 9396,14825 9378,14833 9360,14841 9341,14850 9323,14858 9305,14867 9286,14874 9268,14883 9250,14892 9231,14899 9213,14908 9194,14915 9177,14924 9158,14931 9139,14940 9121,14947 9103,14956 9085,14963 9066,14972 9048,14979 9030,14987 9011,14995 8993,15004 8975,15013 8956,15019 8939,15028 8920,15037 8902,15046 8884,15055 8871,15060 8859,15066 8847,15071 8835,15076 8823,15079 8811,15085 8799,15088 8787,15090 8775,15094 8764,15094 8751,15096 8739,15096 8726,15094 8714,15092 8701,15088 8689,15083 8679,15092 8668,15103 8657,15117 8648,15133 8638,15150 8629,15166 8619,15182 8610,15195 8595,15216 8580,15235 8564,15255 8548,15272 8531,15290 8515,15308 8498,15324 8481,15338 8464,15352 8446,15366 8429,15379 8411,15390 8392,15400 8374,15409 8356,15418 8337,15425 8325,15428 8313,15434 8301,15437 8289,15439 8277,15443 8265,15444 8253,15444 8241,15444 8229,15444 8217,15441 8205,15437 8194,15432 8183,15426 8171,15418 8161,15407 8150,15395 8147,15363 8149,15334 8154,15311 8163,15292 8173,15274 8184,15258 8195,15241 8205,15223 8217,15214 8229,15203 8240,15189 8252,15177 8262,15165 8274,15154 8286,15147 8299,15143 8320,15124 8340,15106 8361,15088 8383,15074 8405,15060 8427,15046 8449,15032 8471,15018 8492,15002 8513,14986 8534,14968 8555,14947 8574,14926 8593,14901 8611,14873 8627,14841 8633,14820 8640,14798 8647,14780 8655,14763 8664,14749 8673,14734 8683,14720 8694,14708 8705,14697 8716,14687 8727,14678 8739,14667 8750,14658 8761,14649 8773,14639 8783,14630 8793,14623 8802,14618 8812,14614 8823,14610 8833,14609 8844,14609 8855,14609 8866,14609 8873,14618 8879,14628 8885,14639 8892,14649 8897,14662 8902,14674 8909,14687 8914,14697 8916,14717 8916,14733 8914,14747 8911,14761 8907,14773 8903,14786 8899,14800 8894,14814 8909,14800 8925,14782 8939,14764 8953,14745 8967,14726 8981,14704 8994,14683 9008,14660 9022,14639 9035,14616 9048,14595 9062,14575 9077,14554 9091,14536 9105,14518 9120,14503 9136,14479 9153,14456 9169,14435 9186,14416 9203,14396 9221,14380 9239,14364 9258,14350 9258,14329 9258,14308 9258,14285 9260,14263 9261,14242 9264,14221 9268,14200 9271,14179 9257,14192 9243,14207 9227,14221 9212,14232 9195,14241 9179,14242 9162,14239 9146,14226 9104,14179 9146,14059 9152,14059 9154,14062 9158,14067 9162,14071 9179,14076 9196,14078 9212,14074 9229,14069 9245,14062 9262,14055 9279,14048 9296,14041 9302,14011 9309,13982 9318,13956 9328,13931 9337,13908 9349,13885 9361,13866 9373,13844 9385,13827 9398,13807 9412,13789 9425,13772 9438,13754 9451,13736 9464,13719 9476,13701 9525,13657 9512,13639 9498,13621 9484,13605 9470,13588 9456,13572 9442,13557 9427,13543 9412,13529 9397,13519 9381,13508 9365,13501 9349,13494 9332,13490 9315,13489 9297,13489 9280,13492 9274,13504 9269,13517 9261,13529 9255,13540 9247,13551 9240,13559 9232,13568 9224,13577 9227,13598 9229,13619 9229,13643 9229,13664 9226,13685 9221,13706 9216,13726 9208,13744 9201,13750 9194,13758 9187,13765 9180,13768 9172,13772 9164,13774 9155,13774 9146,13772 9138,13800 9130,13830 9121,13860 9113,13890 9102,13919 9090,13943 9076,13963 9059,13979 9050,13979 9042,13977 9034,13974 9027,13968 9021,13960 9016,13949 9010,13936 9006,13921 9005,13901 9002,13889 8997,13883 8991,13883 8984,13885 8977,13885 8969,13885 8961,13880 8951,13869 8942,13859 8934,13844 8928,13828 8923,13811 8919,13791 8917,13770 8917,13747 8909,13742 8900,13733 8892,13724 8885,13712 8877,13699 8871,13685 8866,13669 8862,13653 8860,13611 8864,13572 8870,13536 8881,13503 8894,13471 8909,13443 8925,13414 8940,13390 8949,13379 8958,13370 8968,13361 8977,13354 8986,13347 8996,13342 9005,13336 9015,13333 9025,13331 9034,13328 9045,13328 9054,13328 9065,13328 9075,13328 9086,13331 9097,13333 9103,13326 9109,13317 9115,13306 9121,13296 9129,13285 9136,13278 9143,13276 9151,13278 9168,13269 9184,13260 9201,13250 9217,13239 9235,13228 9252,13218 9269,13207 9286,13198 9304,13191 9321,13184 9339,13179 9357,13175 9374,13174 9391,13175 9409,13179 9427,13186 9450,13188 9472,13191 9493,13197 9515,13205 9537,13214 9557,13225 9579,13237 9599,13251 9620,13266 9640,13281 9659,13297 9680,13313 9699,13331 9718,13347 9738,13365 9757,13381 9763,13390 9769,13398 9774,13403 9781,13411 9786,13418 9792,13425 9796,13434 9801,13444 9806,13418 9813,13405 9822,13403 9832,13407 9841,13414 9854,13420 9864,13421 9874,13416 9889,13388 9905,13365 9920,13345 9936,13329 9952,13313 9967,13299 9984,13285 10001,13267 10007,13257 10014,13244 10021,13236 10029,13225 10037,13216 10045,13207 10052,13198 10061,13189 10076,13177 10091,13166 10106,13154 10122,13142 10136,13129 10151,13118 10166,13106 10182,13096 10198,13090 10214,13085 10230,13080 10246,13074 10262,13069 10279,13067 10296,13065 10313,13067 10320,13058 10327,13048 10335,13035 10343,13023 10351,13016 10359,13016 10366,13023 10374,13043 10374,13049 10378,13051 10381,13055 10380,13064 10356,13078 10372,13088 10387,13099 10403,13113 10419,13127 10435,13147 10450,13168 10463,13193 10475,13221 10500,13200 10525,13180 10550,13161 10575,13142 10601,13124 10626,13106 10652,13090 10678,13074 10703,13060 10729,13048 10754,13035 10781,13025 10808,13018 10833,13011 10860,13005 10886,13002 10902,13002 10918,13002 10933,13002 10948,13005 10963,13009 10978,13014 10993,13021 11008,13028"/>
  <polygon points="11042,13106 11041,13096 11038,13088 11036,13078 11033,13067 11030,13057 11028,13046 11023,13034 11017,13025 11011,13018 11006,13039 11010,13046 11014,13051 11017,13060 11020,13067 11022,13078 11025,13088 11028,13099 11030,13110 11030,13099 11042,13106 11043,13101 11041,13096"/>
  <polygon points="10931,13329 10932,13328 10947,13306 10963,13283 10978,13260 10994,13236 11009,13209 11022,13179 11033,13145 11042,13106 11030,13099 11022,13135 11012,13165 11000,13191 10987,13218 10971,13239 10956,13262 10940,13285 10925,13310 10926,13308"/>
  <polygon points="10732,13515 10731,13517 10745,13508 10758,13497 10770,13489 10785,13476 10797,13465 10809,13455 10822,13444 10834,13432 10846,13420 10859,13409 10871,13397 10883,13382 10895,13370 10907,13356 10919,13343 10931,13329 10926,13308 10914,13322 10902,13334 10890,13349 10878,13361 10866,13375 10854,13388 10841,13398 10829,13411 10816,13423 10804,13434 10792,13444 10779,13455 10767,13464 10754,13473 10741,13483 10728,13492 10727,13494"/>
  <polygon points="10465,13667 10463,13669 10480,13660 10497,13653 10514,13646 10532,13639 10550,13632 10566,13623 10583,13616 10601,13609 10618,13600 10634,13591 10650,13581 10667,13570 10683,13559 10701,13543 10717,13531 10732,13515 10727,13494 10711,13510 10695,13522 10679,13535 10663,13545 10646,13556 10631,13566 10614,13575 10597,13584 10581,13591 10562,13598 10546,13607 10530,13614 10512,13621 10495,13628 10477,13636 10459,13644 10458,13646 10459,13644 10458,13644 10458,13646"/>
  <polygon points="10119,14037 10122,14061 10143,14039 10166,14018 10188,13995 10209,13972 10231,13949 10253,13924 10274,13899 10296,13874 10317,13850 10338,13823 10359,13798 10381,13772 10402,13745 10422,13720 10443,13694 10465,13667 10458,13646 10436,13673 10415,13699 10394,13724 10374,13750 10352,13777 10331,13802 10310,13828 10289,13853 10267,13878 10246,13903 10226,13928 10204,13951 10182,13974 10160,13997 10138,14018 10116,14039 10119,14062 10116,14039 10091,14062 10119,14062"/>
  <polygon points="10438,13942 10432,13938 10413,13951 10394,13961 10376,13972 10357,13981 10337,13990 10319,13999 10299,14005 10280,14011 10260,14016 10240,14021 10220,14025 10200,14029 10181,14032 10160,14034 10139,14035 10119,14037 10119,14062 10139,14061 10160,14059 10181,14057 10202,14053 10222,14050 10242,14046 10262,14041 10282,14035 10301,14030 10321,14023 10341,14014 10360,14005 10380,13997 10398,13986 10417,13975 10435,13963 10429,13960 10438,13942 10435,13936 10432,13938"/>
  <polygon points="10496,13954 10503,13961 10495,13938 10486,13928 10475,13928 10465,13936 10457,13942 10449,13947 10443,13947 10438,13942 10429,13960 10440,13972 10450,13972 10460,13967 10470,13958 10477,13952 10482,13952 10486,13956 10493,13972 10500,13979 10493,13972 10494,13981 10500,13979"/>
  <polygon points="10543,13910 10543,13910 10542,13924 10538,13933 10534,13938 10527,13942 10520,13945 10513,13949 10505,13951 10496,13954 10500,13979 10507,13975 10515,13974 10524,13970 10531,13967 10539,13960 10547,13951 10552,13935 10555,13913 10555,13913"/>
  <polygon points="10583,13806 10580,13807 10573,13814 10566,13825 10561,13836 10555,13848 10551,13862 10548,13878 10545,13892 10543,13910 10555,13913 10557,13899 10560,13885 10562,13873 10566,13862 10570,13853 10575,13842 10580,13836 10586,13828 10583,13830 10583,13806 10581,13806 10580,13807"/>
  <polygon points="10720,13703 10720,13703 10697,13703 10678,13712 10662,13729 10646,13749 10631,13770 10617,13788 10601,13800 10583,13806 10583,13830 10604,13825 10622,13809 10638,13791 10653,13770 10667,13750 10682,13736 10699,13728 10718,13728 10718,13728 10718,13728 10718,13728 10718,13728"/>
  <polygon points="10779,13738 10782,13735 10775,13738 10767,13736 10760,13733 10754,13728 10746,13720 10738,13712 10729,13706 10720,13703 10718,13728 10725,13731 10732,13736 10740,13742 10748,13749 10756,13758 10765,13761 10775,13763 10786,13759 10788,13756 10786,13759 10787,13758 10788,13756"/>
  <polygon points="10843,13600 10839,13600 10827,13613 10817,13628 10810,13646 10803,13664 10798,13685 10793,13703 10786,13722 10779,13738 10788,13756 10796,13736 10803,13717 10808,13696 10814,13678 10819,13660 10826,13646 10834,13634 10843,13625 10839,13625 10843,13600 10841,13600 10839,13600"/>
  <polygon points="10988,13644 10982,13632 10963,13630 10946,13628 10927,13627 10910,13623 10892,13619 10875,13614 10858,13607 10843,13600 10839,13625 10856,13632 10873,13639 10890,13644 10908,13648 10927,13651 10946,13653 10963,13655 10982,13657 10976,13644 10988,13644 10988,13632 10982,13632"/>
  <polygon points="10982,13636 10988,13648 10988,13644 10976,13644 10976,13648 10982,13660 10976,13648 10976,13660 10982,13660"/>
  <polygon points="11532,13538 11525,13524 11489,13533 11454,13543 11419,13554 11386,13563 11351,13574 11318,13584 11285,13593 11251,13602 11218,13609 11185,13618 11151,13623 11119,13628 11085,13632 11051,13636 11016,13636 10982,13636 10982,13660 11016,13660 11051,13660 11085,13657 11119,13653 11153,13648 11187,13643 11220,13634 11253,13627 11287,13618 11319,13609 11353,13598 11388,13588 11421,13579 11456,13568 11491,13557 11526,13549 11519,13535 11532,13538 11533,13522 11525,13524"/>
  <polygon points="11526,13602 11527,13596 11532,13538 11519,13535 11515,13593 11516,13588 11526,13602 11527,13598 11527,13596"/>
  <polygon points="11516,13664 11516,13664 11517,13655 11518,13648 11519,13639 11520,13630 11522,13623 11523,13614 11525,13607 11526,13602 11516,13588 11514,13596 11512,13604 11510,13613 11508,13623 11507,13632 11505,13641 11504,13648 11503,13657 11503,13657"/>
  <polygon points="11474,13991 11474,13991 11516,13664 11503,13657 11461,13984 11461,13984"/>
  <polygon points="11431,14398 11438,14387 11441,14363 11442,14338 11445,14313 11447,14286 11449,14262 11450,14237 11452,14212 11455,14186 11457,14161 11458,14136 11460,14112 11463,14087 11466,14062 11467,14039 11471,14016 11474,13991 11461,13984 11458,14009 11455,14032 11453,14059 11450,14083 11448,14108 11446,14133 11444,14158 11442,14183 11440,14209 11438,14233 11436,14258 11434,14283 11433,14310 11430,14334 11428,14359 11426,14384 11433,14373 11431,14398 11437,14400 11438,14387"/>
  <polygon points="10917,14255 10916,14255 10948,14265 10980,14276 11012,14285 11044,14295 11075,14306 11108,14315 11140,14325 11172,14334 11204,14343 11236,14352 11268,14361 11301,14370 11334,14377 11366,14384 11398,14391 11431,14398 11433,14373 11400,14366 11367,14359 11335,14352 11303,14345 11270,14336 11238,14327 11206,14318 11174,14310 11142,14301 11110,14290 11077,14281 11046,14271 11014,14260 10982,14251 10950,14241 10918,14230 10917,14230"/>
  <polygon points="10810,14237 10808,14239 10917,14255 10917,14230 10808,14214 10805,14216 10808,14214 10807,14214 10805,14216"/>
  <polygon points="10586,14271 10586,14271 10601,14286 10615,14299 10629,14308 10643,14315 10658,14317 10671,14318 10686,14317 10701,14313 10715,14308 10729,14301 10742,14294 10757,14283 10770,14271 10784,14260 10797,14249 10810,14237 10805,14216 10792,14228 10778,14239 10765,14249 10752,14258 10738,14269 10725,14276 10711,14283 10699,14288 10685,14292 10671,14294 10658,14292 10645,14290 10633,14283 10618,14274 10606,14265 10594,14249 10594,14249 10586,14271 10586,14271 10586,14271"/>
  <polygon points="10548,14223 10548,14223 10553,14219 10556,14221 10560,14223 10565,14230 10570,14239 10575,14249 10580,14260 10586,14271 10594,14249 10589,14242 10584,14232 10578,14221 10572,14212 10567,14202 10560,14196 10551,14194 10542,14202 10542,14202"/>
  <polygon points="10537,14285 10541,14278 10542,14267 10542,14258 10543,14249 10543,14241 10544,14235 10545,14228 10546,14226 10548,14223 10542,14202 10537,14209 10534,14218 10532,14228 10531,14237 10531,14246 10530,14255 10529,14263 10528,14271 10532,14263 10537,14285 10540,14283 10541,14278"/>
  <polygon points="10515,14285 10511,14294 10516,14292 10522,14290 10529,14290 10537,14285 10532,14263 10527,14265 10522,14265 10514,14267 10506,14272 10502,14281 10506,14272 10503,14276 10502,14281"/>
  <polygon points="10505,14340 10511,14329 10515,14285 10502,14281 10499,14325 10505,14315 10505,14340 10510,14340 10511,14329"/>
  <polygon points="10193,14393 10191,14416 10211,14407 10230,14400 10250,14393 10269,14386 10289,14380 10309,14373 10328,14368 10349,14364 10368,14359 10388,14355 10408,14352 10428,14348 10447,14345 10466,14343 10486,14341 10505,14340 10505,14315 10486,14317 10466,14318 10447,14320 10426,14324 10406,14327 10386,14331 10366,14334 10347,14340 10326,14343 10307,14348 10287,14355 10267,14361 10248,14368 10228,14375 10209,14382 10190,14391 10188,14414 10190,14391 10174,14398 10188,14414"/>
  <polygon points="10383,14598 10382,14596 10374,14577 10363,14559 10352,14541 10341,14527 10328,14513 10316,14501 10303,14488 10291,14478 10279,14467 10265,14455 10253,14446 10241,14437 10228,14426 10216,14416 10205,14405 10193,14393 10188,14414 10199,14426 10211,14437 10223,14448 10235,14458 10248,14471 10261,14479 10274,14488 10286,14499 10298,14509 10310,14522 10323,14534 10334,14548 10345,14563 10356,14577 10365,14595 10374,14614 10373,14612 10383,14598 10383,14598 10382,14596"/>
  <polygon points="10402,14738 10402,14738 10406,14715 10407,14697 10405,14676 10402,14658 10398,14642 10393,14627 10387,14612 10383,14598 10373,14612 10377,14627 10382,14640 10387,14657 10391,14669 10393,14683 10394,14697 10394,14711 10392,14727 10392,14727 10392,14727 10392,14727 10392,14727"/>
  <polygon points="10318,14873 10321,14895 10334,14881 10346,14865 10357,14850 10368,14830 10379,14812 10388,14789 10396,14764 10402,14738 10392,14727 10386,14754 10378,14775 10370,14794 10361,14812 10350,14828 10339,14844 10326,14860 10314,14874 10317,14897 10314,14874 10301,14890 10317,14897"/>
  <polygon points="10503,14780 10502,14782 10491,14796 10481,14809 10471,14821 10461,14832 10450,14842 10438,14851 10428,14858 10417,14865 10404,14871 10394,14876 10382,14878 10370,14881 10357,14881 10344,14880 10332,14878 10318,14873 10317,14897 10330,14903 10344,14904 10357,14906 10370,14906 10383,14903 10395,14901 10408,14895 10420,14890 10432,14883 10443,14873 10455,14864 10466,14853 10477,14842 10488,14830 10498,14818 10509,14803 10507,14805"/>
  <polygon points="10837,14529 10835,14529 10814,14543 10793,14557 10771,14573 10751,14587 10729,14607 10710,14621 10687,14639 10667,14657 10646,14674 10626,14688 10605,14706 10585,14722 10564,14736 10544,14752 10524,14766 10503,14780 10507,14805 10527,14791 10548,14777 10568,14761 10588,14747 10610,14727 10631,14713 10651,14696 10672,14678 10693,14660 10713,14646 10734,14628 10754,14612 10775,14598 10796,14582 10817,14568 10838,14554 10837,14554 10837,14529 10836,14529 10835,14529"/>
  <polygon points="10932,14543 10930,14536 10918,14526 10906,14517 10894,14515 10882,14517 10870,14520 10859,14524 10847,14527 10837,14529 10837,14554 10849,14552 10861,14548 10872,14545 10884,14541 10894,14540 10904,14541 10913,14547 10922,14557 10920,14550 10932,14543 10931,14540 10930,14536"/>
  <polygon points="10840,14811 10841,14809 10856,14780 10873,14756 10891,14731 10907,14702 10922,14672 10932,14637 10936,14595 10932,14543 10920,14550 10923,14595 10920,14630 10911,14658 10898,14685 10884,14710 10866,14734 10849,14763 10832,14791 10833,14789"/>
  <polygon points="10334,15122 10332,15124 10366,15119 10399,15111 10433,15103 10466,15092 10499,15081 10532,15067 10565,15053 10598,15035 10630,15016 10662,14995 10694,14968 10724,14943 10754,14913 10783,14881 10813,14848 10840,14811 10833,14789 10806,14826 10778,14860 10748,14892 10718,14922 10688,14947 10658,14970 10626,14991 10594,15011 10562,15028 10530,15043 10497,15057 10464,15067 10431,15078 10397,15087 10364,15094 10330,15099 10328,15101 10330,15099 10329,15099 10328,15101"/>
  <polygon points="10089,15030 10091,15043 10105,15062 10118,15079 10132,15096 10146,15110 10160,15122 10176,15136 10190,15145 10206,15152 10221,15158 10238,15159 10253,15161 10269,15158 10285,15154 10302,15147 10317,15136 10334,15122 10328,15101 10313,15111 10298,15122 10283,15129 10267,15133 10253,15136 10238,15135 10223,15133 10208,15127 10194,15120 10180,15111 10166,15101 10151,15088 10137,15074 10125,15058 10112,15041 10098,15021 10101,15034 10089,15030 10088,15037 10091,15043"/>
  <polygon points="10102,14881 10103,14878 10094,14895 10088,14915 10086,14934 10086,14954 10087,14977 10089,14996 10090,15014 10089,15030 10101,15034 10102,15014 10101,14993 10099,14973 10098,14954 10098,14938 10100,14922 10103,14910 10110,14899 10111,14895 10110,14899 10111,14897 10111,14895"/>
  <polygon points="10196,14835 10198,14832 10189,14835 10177,14837 10165,14837 10151,14837 10138,14841 10125,14848 10113,14860 10102,14881 10111,14895 10120,14881 10129,14873 10140,14865 10151,14862 10165,14862 10177,14862 10190,14860 10202,14856 10205,14853 10202,14856 10204,14855 10205,14853"/>
  <polygon points="10210,14835 10206,14814 10196,14835 10205,14853 10215,14832 10212,14811 10215,14832 10223,14814 10212,14811"/>
  <polygon points="9471,14800 9470,14800 9493,14794 9517,14791 9540,14788 9563,14784 9587,14780 9609,14777 9632,14775 9655,14772 9679,14770 9702,14768 9725,14768 9748,14766 9771,14766 9794,14766 9817,14766 9841,14766 9865,14768 9888,14768 9911,14770 9935,14773 9958,14775 9980,14779 10003,14782 10026,14786 10049,14791 10072,14796 10095,14802 10118,14807 10141,14814 10164,14820 10187,14828 10210,14835 10212,14811 10189,14803 10166,14794 10142,14789 10120,14782 10097,14777 10074,14772 10050,14766 10028,14761 10005,14758 9982,14754 9958,14750 9935,14749 9911,14745 9888,14743 9865,14743 9841,14741 9817,14741 9794,14741 9771,14741 9748,14741 9725,14743 9702,14743 9679,14745 9655,14747 9632,14750 9609,14752 9585,14756 9561,14759 9538,14763 9515,14766 9491,14770 9468,14775 9467,14775"/>
  <polygon points="8885,15067 8885,15067 8904,15058 8922,15049 8941,15041 8957,15032 8976,15025 8995,15016 9012,15007 9031,15000 9049,14991 9067,14984 9085,14975 9104,14968 9121,14959 9140,14952 9159,14943 9177,14936 9195,14927 9213,14920 9232,14912 9251,14904 9269,14895 9287,14887 9305,14880 9325,14871 9343,14862 9361,14853 9379,14846 9397,14837 9416,14828 9435,14818 9453,14809 9471,14800 9467,14775 9449,14784 9431,14793 9413,14803 9394,14812 9377,14821 9359,14828 9339,14837 9321,14846 9304,14855 9285,14862 9266,14871 9249,14880 9230,14887 9212,14895 9193,14903 9176,14912 9157,14918 9138,14927 9120,14934 9102,14943 9084,14950 9065,14959 9047,14966 9029,14975 9010,14982 8992,14991 8974,15000 8955,15007 8937,15016 8918,15025 8901,15034 8882,15043 8882,15043"/>
  <polygon points="8691,15096 8689,15096 8701,15101 8713,15105 8726,15106 8739,15108 8751,15108 8764,15106 8775,15106 8788,15103 8800,15101 8812,15097 8824,15092 8836,15088 8849,15083 8860,15078 8872,15073 8885,15067 8882,15043 8870,15048 8858,15053 8845,15058 8834,15064 8822,15067 8810,15073 8798,15076 8786,15078 8775,15081 8764,15081 8751,15083 8739,15083 8726,15081 8715,15079 8702,15076 8690,15071 8688,15071 8690,15071 8689,15071 8688,15071"/>
  <polygon points="8613,15205 8613,15205 8623,15193 8633,15175 8642,15159 8652,15141 8661,15127 8672,15113 8681,15103 8691,15096 8688,15071 8676,15081 8665,15092 8654,15106 8643,15124 8633,15141 8625,15158 8616,15172 8606,15184 8606,15184"/>
  <polygon points="8338,15437 8338,15437 8357,15430 8376,15421 8394,15412 8413,15402 8430,15391 8448,15379 8466,15363 8483,15349 8501,15334 8518,15319 8533,15301 8550,15283 8567,15266 8583,15246 8598,15227 8613,15205 8606,15184 8591,15205 8576,15225 8560,15244 8545,15262 8529,15280 8513,15298 8496,15313 8478,15328 8461,15342 8444,15354 8427,15366 8409,15377 8390,15388 8373,15396 8355,15405 8337,15412 8337,15412"/>
  <polygon points="8144,15398 8146,15405 8158,15418 8169,15428 8181,15439 8192,15444 8205,15450 8216,15453 8229,15457 8241,15457 8253,15457 8265,15457 8278,15455 8289,15451 8302,15450 8314,15446 8326,15441 8338,15437 8337,15412 8324,15416 8313,15421 8300,15425 8288,15426 8276,15430 8265,15432 8253,15432 8241,15432 8229,15432 8218,15428 8206,15425 8196,15420 8185,15414 8174,15407 8163,15396 8153,15384 8156,15391 8144,15398 8145,15402 8146,15405"/>
  <polygon points="8204,15211 8201,15214 8191,15232 8180,15248 8169,15266 8159,15283 8149,15304 8143,15331 8141,15363 8144,15398 8156,15391 8153,15363 8155,15338 8160,15319 8168,15301 8177,15283 8187,15269 8198,15250 8210,15232 8207,15235 8204,15211 8202,15212 8201,15214"/>
  <polygon points="8297,15133 8299,15131 8285,15135 8272,15141 8260,15154 8249,15166 8237,15179 8226,15193 8214,15203 8204,15211 8207,15235 8220,15225 8231,15214 8244,15200 8254,15188 8265,15175 8276,15166 8287,15159 8299,15156 8302,15154 8299,15156 8301,15156 8302,15154"/>
  <polygon points="8622,14835 8623,14832 8606,14864 8589,14890 8571,14915 8552,14936 8532,14957 8511,14973 8490,14989 8469,15005 8447,15019 8425,15034 8403,15048 8381,15062 8360,15076 8337,15096 8317,15113 8297,15133 8302,15154 8322,15135 8343,15117 8363,15101 8385,15087 8406,15073 8429,15058 8450,15044 8473,15030 8494,15014 8516,14998 8537,14979 8557,14957 8578,14936 8597,14912 8615,14881 8632,14850 8633,14846 8632,14850 8633,14848 8633,14846"/>
  <polygon points="8781,14618 8781,14619 8770,14628 8758,14639 8748,14648 8736,14657 8725,14667 8713,14676 8702,14687 8691,14697 8680,14710 8670,14724 8660,14738 8650,14754 8642,14772 8634,14791 8627,14812 8622,14835 8633,14846 8638,14826 8645,14805 8651,14789 8659,14772 8667,14759 8677,14745 8687,14731 8697,14719 8708,14708 8718,14697 8730,14688 8741,14678 8753,14669 8764,14660 8775,14649 8785,14640 8785,14642 8781,14618 8781,14619 8781,14619"/>
  <polygon points="8869,14598 8866,14596 8855,14596 8844,14596 8833,14596 8822,14598 8811,14602 8801,14605 8791,14610 8781,14618 8785,14642 8794,14635 8804,14630 8813,14627 8824,14623 8833,14621 8844,14621 8855,14621 8866,14621 8863,14619 8869,14598 8868,14596 8866,14596"/>
  <polygon points="8920,14694 8918,14688 8913,14678 8907,14665 8901,14653 8896,14640 8890,14630 8884,14619 8877,14607 8869,14598 8863,14619 8869,14628 8875,14637 8881,14648 8887,14658 8893,14671 8898,14683 8904,14696 8909,14706 8908,14701 8920,14694 8919,14690 8918,14688"/>
  <polygon points="8892,14803 8900,14820 8904,14807 8909,14793 8912,14780 8917,14766 8920,14750 8922,14734 8922,14715 8920,14694 8908,14701 8909,14719 8909,14731 8908,14743 8906,14756 8901,14766 8898,14779 8893,14793 8889,14809 8897,14825 8889,14809 8881,14839 8897,14825"/>
  <polygon points="9117,14492 9117,14492 9102,14508 9087,14526 9073,14543 9059,14565 9045,14584 9032,14607 9018,14630 9004,14651 8991,14674 8977,14694 8963,14715 8949,14734 8935,14754 8921,14772 8907,14789 8892,14803 8897,14825 8912,14811 8928,14793 8942,14775 8956,14756 8970,14736 8985,14715 8998,14692 9011,14669 9025,14648 9038,14625 9052,14605 9066,14586 9080,14565 9094,14547 9108,14529 9122,14513 9123,14513"/>
  <polygon points="9252,14350 9256,14338 9237,14354 9218,14370 9201,14386 9183,14405 9166,14425 9149,14446 9132,14469 9117,14492 9123,14513 9139,14490 9156,14467 9173,14446 9190,14426 9205,14407 9223,14391 9242,14375 9260,14363 9264,14350 9260,14363 9264,14359 9264,14350"/>
  <polygon points="9274,14190 9266,14174 9261,14196 9258,14218 9255,14241 9253,14262 9252,14283 9252,14308 9252,14329 9252,14350 9264,14350 9264,14329 9264,14308 9264,14286 9266,14265 9268,14244 9270,14224 9274,14203 9277,14184 9269,14168 9277,14184 9284,14154 9269,14168"/>
  <polygon points="9144,14237 9144,14237 9161,14251 9179,14255 9196,14253 9213,14244 9229,14232 9245,14218 9260,14203 9274,14190 9269,14168 9254,14181 9240,14196 9224,14210 9210,14219 9194,14228 9179,14230 9164,14226 9149,14216 9149,14216 9144,14237 9144,14237 9144,14237"/>
  <polygon points="9099,14172 9101,14190 9144,14237 9149,14216 9107,14168 9109,14186 9099,14172 9095,14183 9101,14190"/>
  <polygon points="9145,14046 9141,14052 9099,14172 9109,14186 9152,14066 9148,14071 9145,14046 9143,14048 9141,14052"/>
  <polygon points="9164,14059 9163,14059 9161,14057 9158,14052 9153,14046 9145,14046 9148,14071 9150,14071 9151,14073 9155,14078 9161,14083 9161,14083 9164,14059 9163,14059 9163,14059"/>
  <polygon points="9289,14037 9295,14029 9278,14035 9261,14043 9245,14050 9228,14057 9211,14062 9196,14066 9180,14064 9164,14059 9161,14083 9178,14089 9196,14091 9213,14087 9229,14082 9246,14074 9263,14067 9280,14061 9297,14053 9302,14044 9297,14053 9300,14052 9302,14044"/>
  <polygon points="9473,13690 9473,13690 9460,13708 9447,13726 9435,13744 9421,13761 9408,13779 9395,13797 9381,13816 9369,13836 9356,13857 9345,13876 9333,13899 9323,13924 9313,13949 9304,13975 9297,14005 9289,14037 9302,14044 9307,14016 9314,13990 9323,13963 9332,13938 9342,13917 9353,13894 9365,13874 9376,13853 9389,13837 9402,13818 9415,13800 9429,13782 9442,13765 9454,13747 9467,13729 9480,13712 9479,13712"/>
  <polygon points="9521,13667 9522,13646 9473,13690 9479,13712 9528,13667 9529,13646 9528,13667 9537,13658 9529,13646"/>
  <polygon points="9285,13501 9281,13504 9297,13501 9315,13501 9331,13503 9348,13506 9363,13513 9379,13521 9395,13531 9409,13540 9424,13554 9439,13568 9453,13583 9466,13598 9481,13616 9495,13632 9508,13650 9521,13667 9529,13646 9515,13628 9502,13611 9488,13595 9473,13577 9458,13561 9445,13547 9429,13533 9414,13519 9398,13506 9382,13496 9367,13489 9350,13482 9333,13478 9315,13476 9297,13476 9279,13480 9276,13483 9279,13480 9277,13480 9276,13483"/>
  <polygon points="9230,13574 9227,13588 9235,13579 9244,13570 9251,13561 9259,13551 9266,13538 9273,13526 9278,13513 9285,13501 9276,13483 9269,13496 9264,13508 9257,13521 9252,13529 9244,13540 9237,13549 9229,13557 9221,13566 9218,13581 9221,13566 9216,13570 9218,13581"/>
  <polygon points="9212,13754 9213,13752 9221,13733 9227,13712 9232,13689 9235,13666 9236,13643 9235,13618 9233,13596 9230,13574 9218,13581 9221,13600 9222,13621 9223,13643 9222,13662 9220,13682 9216,13701 9211,13719 9204,13735 9205,13733 9212,13754 9212,13754 9213,13752"/>
  <polygon points="9152,13779 9145,13784 9155,13786 9164,13786 9173,13784 9182,13781 9189,13777 9197,13768 9204,13761 9212,13754 9205,13733 9199,13740 9192,13747 9185,13752 9178,13756 9171,13759 9164,13761 9155,13761 9147,13759 9141,13765 9147,13759 9143,13758 9141,13765"/>
  <polygon points="9059,13991 9061,13991 9078,13974 9093,13952 9107,13928 9118,13898 9127,13868 9136,13836 9144,13806 9152,13779 9141,13765 9133,13795 9125,13825 9117,13853 9108,13883 9098,13910 9086,13935 9073,13952 9057,13967 9059,13967 9059,13991 9060,13991 9061,13991"/>
  <polygon points="9000,13921 9001,13926 9005,13943 9011,13958 9017,13968 9025,13979 9033,13986 9041,13990 9050,13991 9059,13991 9059,13967 9050,13967 9043,13965 9036,13961 9030,13958 9025,13951 9020,13940 9016,13929 9011,13915 9012,13921 9000,13921 9000,13922 9001,13926"/>
  <polygon points="8959,13890 8959,13890 8968,13898 8977,13898 8984,13898 8991,13896 8995,13896 8998,13898 8999,13904 9000,13921 9012,13921 9011,13898 9007,13880 8999,13871 8991,13871 8984,13873 8977,13873 8969,13873 8964,13869 8964,13869 8964,13869 8964,13869 8964,13869"/>
  <polygon points="8916,13759 8911,13747 8911,13772 8913,13795 8917,13816 8923,13836 8930,13853 8939,13869 8949,13880 8959,13890 8964,13869 8953,13859 8946,13848 8939,13836 8933,13821 8928,13806 8925,13788 8924,13768 8924,13747 8919,13735 8924,13747 8924,13738 8919,13735"/>
  <polygon points="8856,13655 8857,13658 8861,13676 8866,13692 8873,13708 8880,13720 8888,13735 8897,13744 8906,13752 8916,13759 8919,13735 8911,13731 8902,13722 8895,13714 8889,13703 8882,13690 8877,13678 8871,13662 8867,13648 8868,13651 8856,13655 8856,13657 8857,13658"/>
  <polygon points="8936,13379 8936,13381 8920,13405 8904,13434 8890,13462 8876,13496 8865,13531 8857,13568 8854,13611 8856,13655 8868,13651 8866,13611 8869,13575 8876,13542 8886,13510 8899,13480 8913,13451 8929,13423 8943,13398 8943,13400 8936,13379 8936,13379 8936,13381"/>
  <polygon points="9094,13322 9098,13320 9087,13319 9076,13315 9065,13315 9054,13315 9045,13315 9033,13315 9024,13319 9014,13320 9003,13324 8994,13329 8985,13334 8975,13342 8965,13350 8955,13359 8947,13368 8936,13379 8943,13400 8952,13390 8961,13381 8970,13372 8978,13366 8988,13359 8998,13354 9007,13349 9016,13345 9025,13343 9035,13340 9045,13340 9054,13340 9065,13340 9074,13340 9085,13343 9096,13345 9100,13343 9096,13345 9098,13345 9100,13343"/>
  <polygon points="9149,13266 9153,13266 9143,13264 9134,13266 9125,13274 9118,13285 9111,13297 9104,13308 9100,13315 9094,13322 9100,13343 9107,13336 9113,13326 9118,13315 9125,13306 9132,13296 9137,13290 9143,13289 9149,13290 9153,13290 9149,13290 9151,13290 9153,13290"/>
  <polygon points="9427,13174 9429,13174 9410,13166 9392,13163 9374,13161 9356,13163 9338,13166 9321,13172 9303,13179 9285,13186 9268,13195 9250,13205 9233,13216 9215,13227 9199,13237 9182,13248 9166,13257 9149,13266 9153,13290 9169,13281 9185,13272 9202,13262 9219,13251 9237,13241 9253,13230 9271,13219 9288,13210 9305,13204 9322,13197 9340,13191 9358,13188 9374,13186 9390,13188 9408,13191 9425,13198 9427,13198"/>
  <polygon points="9762,13372 9760,13370 9741,13354 9721,13336 9702,13320 9682,13303 9662,13287 9642,13271 9621,13253 9601,13239 9581,13225 9559,13212 9538,13202 9516,13193 9494,13184 9473,13179 9450,13175 9427,13174 9427,13198 9450,13200 9471,13204 9492,13209 9514,13218 9535,13227 9556,13237 9577,13250 9597,13264 9618,13278 9637,13292 9657,13308 9677,13324 9697,13342 9716,13358 9735,13375 9755,13391 9753,13390 9762,13372 9761,13370 9760,13370"/>
  <polygon points="9795,13443 9806,13437 9801,13425 9795,13414 9789,13407 9784,13400 9777,13393 9773,13388 9766,13379 9762,13372 9753,13390 9759,13400 9765,13409 9772,13414 9777,13421 9782,13429 9789,13435 9792,13443 9797,13451 9808,13446 9797,13451 9805,13471 9808,13446"/>
  <polygon points="9870,13407 9870,13405 9863,13409 9854,13407 9844,13402 9833,13395 9822,13391 9810,13395 9801,13411 9795,13443 9808,13446 9811,13425 9816,13416 9822,13416 9830,13420 9840,13427 9853,13432 9865,13434 9878,13427 9878,13425 9878,13427 9878,13427 9878,13425"/>
  <polygon points="9997,13258 9998,13257 9982,13274 9965,13289 9949,13303 9933,13319 9917,13334 9901,13354 9885,13379 9870,13407 9878,13425 9892,13397 9908,13375 9922,13356 9938,13340 9954,13324 9970,13310 9987,13296 10004,13278 10006,13276 10004,13278 10005,13278 10006,13276"/>
  <polygon points="10058,13179 10058,13179 10050,13188 10042,13197 10034,13205 10025,13214 10017,13225 10010,13236 10003,13248 9997,13258 10006,13276 10012,13266 10017,13253 10024,13246 10032,13236 10039,13227 10047,13218 10055,13209 10064,13200 10064,13200 10058,13179 10058,13179 10058,13179"/>
  <polygon points="10182,13083 10181,13083 10165,13094 10150,13106 10134,13117 10119,13131 10104,13144 10090,13154 10074,13165 10058,13179 10064,13200 10078,13189 10093,13179 10109,13165 10124,13152 10138,13142 10153,13131 10168,13118 10184,13108 10183,13108 10182,13083 10181,13083 10181,13083"/>
  <polygon points="10310,13057 10314,13055 10296,13053 10279,13055 10261,13057 10245,13062 10229,13067 10214,13073 10198,13078 10182,13083 10183,13108 10199,13103 10215,13097 10231,13092 10247,13087 10263,13081 10279,13080 10296,13078 10312,13080 10316,13078 10312,13080 10314,13080 10316,13078"/>
  <polygon points="10380,13044 10379,13037 10371,13014 10361,13004 10350,13004 10340,13012 10332,13026 10324,13037 10317,13048 10310,13057 10316,13078 10324,13069 10331,13058 10339,13044 10347,13034 10353,13028 10358,13028 10362,13032 10368,13048 10367,13041 10380,13044 10380,13041 10379,13037"/>
  <polygon points="10382,13076 10385,13069 10386,13051 10381,13041 10379,13041 10380,13044 10367,13041 10370,13058 10375,13062 10374,13058 10374,13058 10378,13051 10382,13076 10384,13074 10385,13069"/>
  <polygon points="10358,13065 10358,13090 10382,13076 10378,13051 10354,13065 10354,13090 10354,13065 10335,13078 10354,13090"/>
  <polygon points="10472,13210 10480,13214 10467,13184 10453,13159 10439,13136 10422,13117 10406,13103 10390,13087 10374,13076 10358,13065 10354,13090 10370,13101 10385,13112 10401,13124 10417,13138 10432,13157 10446,13177 10458,13202 10470,13228 10478,13232 10470,13228 10473,13237 10478,13232"/>
  <polygon points="10886,12989 10886,12989 10859,12993 10832,12998 10807,13005 10780,13012 10753,13023 10727,13035 10702,13048 10676,13062 10650,13078 10625,13094 10599,13112 10573,13129 10548,13149 10522,13168 10497,13189 10472,13210 10478,13232 10502,13210 10527,13193 10553,13174 10577,13154 10602,13136 10628,13118 10654,13103 10679,13087 10705,13073 10730,13060 10756,13048 10782,13037 10808,13030 10834,13023 10861,13018 10886,13014 10886,13014 10886,12989 10886,12989 10886,12989"/>
  <polygon points="11011,13018 11010,13016 10995,13009 10979,13002 10964,12996 10949,12993 10933,12989 10918,12989 10902,12989 10886,12989 10886,13014 10902,13014 10918,13014 10933,13014 10947,13018 10962,13021 10977,13026 10991,13034 11006,13041 11006,13039 11011,13018 11010,13016 11010,13016"/>
 </g>
 <g style="stroke:none;fill:rgb(255,255,255)">
  <polygon points="11024,13096 11023,13115 11021,13133 11016,13150 11011,13165 11005,13179 10998,13193 10990,13204 10984,13214 10961,13250 10936,13285 10911,13317 10886,13347 10860,13375 10833,13403 10807,13429 10779,13453 10752,13476 10724,13497 10696,13517 10668,13536 10639,13554 10610,13570 10581,13586 10552,13600 10489,13625 10484,13627 10479,13628 10474,13630 10469,13632 10464,13634 10459,13636 10455,13637 10451,13639 10448,13646 10444,13651 10440,13657 10435,13660 10430,13666 10425,13671 10420,13676 10416,13683 10404,13699 10393,13715 10382,13729 10370,13745 10358,13761 10347,13777 10334,13793 10323,13809 10310,13825 10298,13839 10286,13855 10274,13869 10261,13883 10248,13896 10235,13908 10222,13921 10214,13929 10207,13940 10199,13951 10191,13961 10183,13970 10174,13977 10166,13984 10155,13988 10150,13995 10145,14002 10139,14009 10134,14014 10128,14021 10122,14027 10116,14032 10111,14035 10099,14043 10089,14052 10078,14062 10067,14071 10057,14078 10046,14083 10034,14085 10022,14082 10003,14055 9987,14027 9971,13995 9957,13961 9945,13926 9933,13889 9922,13850 9914,13809 9906,13767 9898,13724 9892,13680 9888,13636 9883,13591 9880,13547 9878,13501 9877,13457 9886,13427 9898,13402 9912,13379 9928,13359 9944,13342 9962,13326 9978,13311 9995,13297 9990,13308 9986,13319 9982,13331 9980,13343 9978,13356 9977,13370 9977,13384 9979,13398 9984,13409 9990,13418 9996,13427 10003,13434 10010,13437 10018,13439 10025,13439 10033,13437 10038,13435 10042,13432 10046,13429 10050,13423 10052,13418 10056,13412 10058,13405 10061,13398 10059,13388 10058,13386 10055,13388 10052,13393 10049,13400 10046,13407 10043,13412 10039,13412 10033,13418 10028,13420 10022,13421 10016,13420 10011,13418 10006,13412 10000,13407 9995,13402 9990,13384 9988,13368 9990,13350 9993,13334 9999,13320 10005,13304 10011,13290 10015,13274 10026,13255 10038,13237 10050,13221 10062,13209 10075,13200 10090,13197 10104,13198 10119,13207 10123,13214 10127,13223 10131,13230 10137,13225 10134,13214 10131,13204 10128,13197 10122,13191 10118,13186 10112,13182 10106,13180 10099,13179 10110,13168 10122,13159 10133,13149 10144,13140 10156,13131 10168,13124 10180,13117 10192,13110 10205,13103 10218,13099 10230,13094 10243,13090 10256,13088 10269,13087 10282,13087 10296,13087 10290,13101 10282,13115 10274,13129 10265,13144 10258,13157 10251,13174 10249,13189 10250,13207 10256,13214 10265,13198 10274,13184 10284,13168 10294,13154 10303,13138 10314,13124 10325,13110 10335,13096 10356,13104 10374,13115 10394,13127 10411,13142 10428,13161 10444,13184 10459,13210 10473,13242 10493,13225 10512,13209 10533,13193 10552,13177 10572,13161 10593,13147 10613,13133 10634,13118 10654,13106 10674,13094 10695,13081 10716,13071 10737,13062 10758,13053 10780,13044 10802,13037 10815,13035 10830,13032 10845,13030 10858,13026 10872,13025 10886,13021 10899,13019 10913,13019 10926,13019 10939,13019 10952,13023 10965,13026 10977,13034 10990,13041 11003,13051 11015,13064 11024,13096"/>
 </g>
 <g style="stroke:none;fill:rgb(0,0,0)">
  <polygon points="10360,13163 10359,13180 10356,13197 10352,13212 10346,13227 10340,13239 10333,13250 10325,13260 10316,13269 10313,13266 10309,13266 10305,13266 10302,13266 10300,13255 10300,13244 10300,13236 10302,13225 10303,13216 10306,13207 10309,13198 10311,13189 10317,13182 10322,13174 10327,13165 10334,13157 10340,13154 10347,13152 10353,13156 10360,13163"/>
 </g>
 <g style="stroke:none;fill:rgb(255,255,255)">
  <polygon points="9719,13377 9734,13384 9748,13395 9760,13407 9773,13423 9783,13441 9794,13460 9805,13480 9817,13497 9822,13526 9825,13557 9826,13589 9825,13621 9823,13653 9818,13683 9811,13712 9803,13736 9809,13736 9814,13733 9817,13726 9820,13717 9823,13706 9825,13696 9828,13685 9831,13676 9832,13708 9833,13738 9836,13770 9839,13802 9843,13832 9848,13862 9854,13892 9859,13922 9864,13952 9870,13982 9878,14011 9883,14041 9891,14069 9898,14097 9906,14126 9914,14153 9918,14163 9922,14167 9927,14165 9931,14158 9935,14151 9939,14144 9943,14138 9946,14138 9946,14149 9945,14156 9941,14163 9937,14167 9931,14170 9926,14172 9921,14172 9916,14174 9904,14168 9892,14163 9880,14158 9868,14153 9856,14145 9843,14140 9830,14133 9817,14127 9805,14124 9793,14119 9781,14117 9768,14115 9756,14114 9742,14115 9730,14117 9717,14122 9699,14133 9682,14142 9664,14147 9646,14153 9627,14153 9610,14153 9591,14149 9573,14144 9555,14136 9537,14127 9521,14117 9504,14105 9488,14089 9472,14073 9457,14055 9443,14035 9427,14023 9410,14016 9393,14014 9376,14014 9359,14018 9342,14021 9324,14027 9307,14032 9317,13999 9328,13968 9339,13938 9352,13910 9364,13885 9377,13860 9391,13837 9405,13816 9420,13795 9436,13775 9451,13758 9466,13740 9482,13722 9498,13706 9515,13692 9532,13676 9546,13690 9559,13710 9572,13733 9584,13758 9597,13782 9609,13806 9621,13827 9634,13844 9636,13841 9636,13836 9636,13832 9636,13827 9552,13671 9549,13676 9539,13655 9528,13637 9515,13619 9503,13605 9490,13589 9477,13575 9465,13561 9452,13545 9442,13540 9433,13533 9423,13524 9414,13515 9405,13508 9394,13501 9384,13496 9373,13492 9357,13480 9339,13476 9321,13476 9304,13480 9286,13483 9269,13483 9253,13474 9237,13457 9228,13439 9217,13421 9205,13403 9195,13384 9184,13365 9174,13345 9166,13324 9160,13301 9193,13271 9227,13246 9261,13227 9297,13214 9333,13205 9370,13200 9406,13200 9444,13205 9480,13214 9516,13227 9552,13244 9588,13264 9622,13289 9656,13315 9689,13345 9719,13377"/>
 </g>
 <g style="stroke:none;fill:rgb(0,0,0)">
  <polygon points="10085,13257 10083,13272 10080,13287 10075,13301 10071,13313 10066,13326 10061,13338 10056,13349 10050,13358 10044,13358 10046,13350 10048,13342 10050,13334 10055,13326 10039,13313 10046,13315 10052,13313 10058,13310 10062,13304 10066,13297 10072,13290 10076,13280 10082,13269 10078,13264 10073,13260 10068,13260 10063,13258 10058,13260 10053,13262 10048,13264 10044,13266 10048,13260 10053,13257 10058,13255 10064,13253 10069,13253 10074,13255 10080,13255 10085,13257"/>
  <polygon points="8969,13269 8953,13267 8939,13276 8924,13290 8910,13310 8897,13331 8884,13354 8871,13373 8858,13390 8861,13382 8864,13375 8868,13368 8871,13361 8876,13356 8879,13349 8882,13343 8884,13336 8893,13322 8902,13308 8912,13296 8923,13283 8933,13272 8944,13264 8955,13258 8968,13257 8969,13269"/>
 </g>
 <g style="stroke:none;fill:rgb(255,255,255)">
  <polygon points="9142,13290 9143,13301 9145,13308 9145,13310 9145,13310 9157,13342 9170,13372 9184,13398 9199,13423 9213,13446 9229,13467 9246,13487 9264,13504 9261,13513 9256,13522 9251,13529 9245,13536 9239,13542 9233,13543 9227,13545 9220,13545 9204,13527 9189,13506 9175,13483 9161,13460 9148,13434 9136,13405 9124,13377 9113,13349 9112,13338 9113,13329 9116,13320 9120,13311 9125,13304 9131,13299 9137,13294 9142,13290"/>
  <polygon points="9100,13354 9109,13384 9121,13416 9135,13448 9150,13476 9166,13504 9183,13527 9199,13549 9215,13565 9219,13581 9221,13598 9222,13616 9221,13636 9221,13653 9219,13673 9216,13690 9213,13706 9205,13728 9195,13740 9184,13749 9171,13752 9158,13752 9145,13750 9130,13747 9117,13744 9120,13735 9123,13728 9128,13724 9132,13720 9136,13717 9140,13714 9143,13706 9145,13697 9134,13701 9124,13708 9115,13719 9105,13733 9096,13749 9088,13767 9081,13784 9075,13800 9077,13804 9082,13798 9086,13791 9090,13782 9094,13774 9099,13767 9103,13763 9108,13761 9113,13765 9135,13768 9129,13795 9123,13823 9116,13851 9108,13878 9099,13903 9089,13926 9078,13945 9067,13960 9061,13961 9054,13961 9048,13960 9043,13958 9037,13954 9033,13951 9028,13945 9024,13938 9009,13868 8999,13869 8989,13869 8978,13866 8969,13860 8961,13853 8952,13842 8944,13832 8937,13818 8933,13807 8931,13795 8931,13781 8931,13765 8931,13750 8930,13738 8926,13728 8919,13720 8912,13719 8904,13714 8898,13706 8892,13696 8885,13683 8880,13673 8876,13660 8872,13648 8872,13605 8877,13566 8884,13531 8893,13497 8906,13467 8920,13439 8936,13412 8953,13390 8961,13381 8969,13373 8978,13366 8987,13361 8997,13356 9006,13350 9016,13347 9025,13343 9034,13342 9043,13340 9053,13340 9062,13342 9072,13343 9081,13345 9091,13349 9100,13354"/>
  <polygon points="9868,13434 9866,13457 9864,13480 9863,13503 9864,13526 9865,13549 9866,13570 9869,13593 9870,13614 9873,13636 9877,13657 9879,13678 9882,13699 9886,13720 9890,13742 9892,13761 9896,13782 9903,13823 9912,13860 9922,13896 9933,13929 9946,13963 9959,13995 9973,14029 9988,14062 9985,14066 9982,14071 9979,14076 9975,14080 9972,14085 9968,14087 9965,14091 9962,14091 9928,14138 9922,14135 9910,14099 9899,14064 9890,14029 9882,13990 9875,13952 9869,13913 9863,13873 9859,13834 9854,13793 9850,13750 9846,13710 9843,13669 9840,13627 9836,13584 9833,13543 9831,13501 9828,13490 9825,13482 9821,13473 9817,13465 9816,13457 9814,13448 9816,13437 9819,13425 9868,13434"/>
  <polygon points="11514,13565 11509,13595 11504,13625 11499,13657 11494,13687 11491,13719 11486,13750 11482,13782 11479,13814 11474,13844 11470,13876 11466,13908 11462,13938 11458,13970 11453,14000 11449,14030 11443,14059 11442,14076 11441,14096 11440,14114 11438,14133 11437,14151 11435,14170 11434,14190 11433,14210 11432,14230 11430,14248 11429,14267 11427,14286 11426,14304 11425,14324 11424,14341 11422,14359 11399,14355 11375,14350 11351,14345 11328,14340 11305,14334 11281,14327 11257,14322 11233,14315 11208,14308 11184,14301 11160,14294 11137,14286 11112,14280 11088,14272 11064,14267 11040,14260 11020,14251 10998,14242 10977,14237 10956,14232 10934,14226 10912,14223 10891,14219 10869,14214 10846,14210 10824,14207 10802,14202 10780,14196 10759,14188 10738,14179 10717,14170 10696,14158 10695,14140 10696,14122 10698,14105 10701,14087 10704,14071 10708,14055 10711,14039 10714,14023 10720,14018 10725,14011 10731,14004 10737,13995 10742,13984 10746,13974 10749,13963 10752,13951 10758,13967 10765,13982 10773,13999 10782,14014 10792,14029 10802,14037 10814,14043 10828,14041 10839,14035 10850,14030 10860,14020 10869,14009 10878,13997 10886,13981 10895,13965 10904,13947 10902,13929 10898,13917 10892,13906 10885,13899 10877,13892 10869,13883 10862,13871 10857,13855 10850,13841 10843,13825 10837,13809 10830,13791 10823,13777 10815,13767 10807,13759 10795,13759 10800,13742 10805,13724 10810,13708 10816,13690 10822,13675 10829,13660 10836,13648 10843,13636 10864,13644 10886,13651 10906,13657 10928,13662 10949,13666 10970,13669 10991,13671 11013,13673 11034,13673 11056,13671 11077,13671 11098,13667 11120,13666 11141,13662 11162,13658 11184,13653 11206,13650 11226,13644 11247,13639 11268,13634 11290,13627 11311,13621 11331,13614 11352,13609 11373,13602 11393,13596 11413,13591 11434,13584 11454,13579 11474,13574 11494,13570 11514,13565"/>
 </g>
 <g style="stroke:none;fill:rgb(0,0,0)">
  <polygon points="11456,13621 11456,13634 11456,13644 11456,13657 11455,13669 11454,13680 11452,13690 11450,13701 11448,13712 11437,13724 11426,13729 11414,13728 11402,13722 11390,13717 11379,13710 11368,13706 11358,13706 11358,13697 11358,13689 11360,13683 11362,13676 11365,13669 11366,13662 11367,13653 11366,13644 11378,13641 11390,13637 11402,13634 11415,13630 11427,13627 11438,13625 11448,13623 11456,13621"/>
 </g>
 <g style="stroke:none;fill:rgb(255,255,255)">
  <polygon points="11450,13639 11447,13648 11445,13657 11443,13667 11441,13676 11439,13687 11437,13696 11434,13705 11432,13712 11372,13692 11374,13675 11380,13662 11387,13655 11397,13651 11406,13648 11416,13646 11426,13644 11434,13639 11450,13639"/>
 </g>
 <g style="stroke:none;fill:rgb(0,0,0)">
  <polygon points="11398,13750 11399,13758 11400,13767 11401,13774 11402,13782 11409,13781 11412,13770 11416,13763 11422,13765 11430,13812 11426,13812 11424,13807 11421,13800 11418,13793 11415,13788 11412,13786 11409,13789 11405,13800 11400,13802 11398,13797 11398,13789 11397,13782 11385,13797 11377,13795 11373,13781 11369,13763 11366,13747 11363,13738 11357,13745 11347,13772 11345,13770 11344,13765 11344,13761 11344,13756 11347,13750 11350,13745 11353,13740 11357,13735 11360,13729 11364,13726 11367,13724 11372,13724 11373,13735 11374,13745 11377,13754 11381,13761 11384,13765 11389,13765 11393,13759 11398,13750"/>
 </g>
 <g style="stroke:none;fill:rgb(255,255,255)">
  <polygon points="10809,13788 10820,13806 10830,13825 10838,13846 10848,13868 10858,13887 10869,13906 10879,13924 10891,13938 10886,13954 10880,13968 10873,13981 10866,13991 10858,14002 10850,14009 10841,14016 10832,14023 10818,14021 10806,14013 10794,14000 10785,13984 10776,13967 10766,13949 10756,13933 10746,13921 10742,13931 10738,13943 10736,13956 10732,13967 10729,13979 10725,13988 10720,13997 10714,14002 10704,14004 10694,14004 10683,14000 10673,13995 10662,13993 10653,13993 10643,13997 10634,14005 10640,14018 10648,14020 10655,14021 10663,14023 10671,14025 10678,14027 10686,14029 10694,14030 10702,14032 10699,14053 10694,14074 10689,14096 10684,14117 10681,14138 10681,14158 10686,14174 10696,14190 10707,14190 10718,14194 10728,14196 10738,14202 10749,14205 10760,14210 10770,14216 10781,14219 10770,14232 10758,14242 10746,14253 10733,14260 10722,14267 10709,14272 10696,14276 10684,14278 10671,14280 10660,14276 10647,14272 10636,14265 10625,14256 10613,14246 10602,14232 10592,14216 10588,14207 10584,14196 10579,14186 10576,14177 10573,14167 10571,14154 10570,14142 10572,14126 10570,14122 10568,14119 10565,14117 10562,14117 10562,14124 10561,14131 10561,14140 10561,14151 10561,14159 10561,14170 10561,14181 10561,14190 10529,14198 10526,14172 10523,14145 10519,14119 10517,14092 10514,14066 10510,14039 10507,14013 10502,13988 10510,13982 10517,13981 10524,13977 10532,13975 10539,13972 10545,13965 10551,13958 10556,13947 10558,13931 10561,13913 10564,13898 10568,13881 10572,13868 10578,13855 10584,13844 10592,13836 10610,13842 10624,13836 10636,13821 10646,13800 10656,13777 10667,13758 10679,13742 10694,13736 10710,13736 10725,13742 10740,13750 10754,13763 10768,13774 10781,13784 10795,13789 10809,13788"/>
 </g>
 <g style="stroke:none;fill:rgb(0,0,0)">
  <polygon points="10129,13868 10115,13862 10114,13869 10113,13876 10113,13883 10114,13890 10115,13898 10116,13903 10118,13910 10119,13915 10123,13924 10128,13933 10134,13938 10139,13943 10145,13949 10150,13954 10156,13960 10159,13967 10150,13961 10142,13956 10134,13951 10127,13943 10120,13935 10114,13924 10109,13908 10106,13890 10104,13859 10103,13855 10101,13850 10100,13842 10104,13839 10111,13844 10119,13848 10125,13855 10129,13868"/>
  <polygon points="11029,13880 11034,13878 11041,13874 11046,13869 11051,13859 11054,13874 11058,13883 11063,13883 11069,13880 11075,13873 11082,13868 11088,13862 11093,13862 11093,13899 11098,13899 11102,13898 11106,13896 11111,13890 11114,13885 11119,13880 11122,13874 11127,13871 11128,13881 11126,13892 11124,13903 11127,13912 11132,13910 11138,13904 11143,13898 11148,13890 11152,13885 11157,13883 11159,13890 11162,13906 11169,13935 11162,13933 11159,13922 11157,13912 11151,13903 11148,13906 11144,13910 11140,13913 11137,13917 11133,13921 11129,13922 11124,13922 11120,13921 11119,13915 11118,13910 11118,13904 11118,13899 11091,13915 11084,13880 11055,13903 11051,13880 11047,13883 11045,13887 11041,13890 11038,13892 11033,13894 11030,13896 11025,13896 11022,13894 11020,13880 11016,13878 11012,13880 11008,13883 11006,13887 11002,13892 10998,13898 10994,13901 10990,13903 10991,13896 10993,13889 10996,13881 10999,13878 11004,13873 11009,13868 11014,13864 11018,13859 11023,13857 11025,13862 11027,13873 11029,13880"/>
 </g>
 <g style="stroke:none;fill:rgb(255,255,255)">
  <polygon points="10509,14138 10510,14153 10513,14167 10515,14179 10517,14194 10518,14209 10519,14223 10520,14237 10520,14251 10516,14260 10510,14262 10503,14260 10498,14256 10493,14223 10486,14188 10480,14156 10474,14122 10468,14091 10462,14057 10456,14023 10451,13988 10468,13968 10481,13970 10490,13986 10495,14013 10500,14046 10502,14080 10505,14114 10509,14138"/>
  <polygon points="10434,13979 10434,13982 10434,13986 10434,13990 10435,13991 10441,13991 10494,14292 10474,14299 10455,14304 10434,14311 10415,14317 10395,14322 10376,14325 10357,14331 10337,14336 10318,14341 10298,14347 10280,14352 10260,14357 10241,14364 10221,14370 10202,14379 10182,14386 10173,14384 10162,14380 10152,14377 10142,14373 10133,14370 10122,14364 10113,14359 10103,14354 10092,14350 10082,14345 10073,14340 10063,14334 10052,14329 10043,14325 10033,14322 10023,14318 10004,14308 9983,14297 9963,14288 9943,14280 9922,14272 9901,14265 9881,14258 9860,14253 9837,14248 9817,14242 9795,14237 9774,14232 9754,14226 9733,14223 9712,14218 9692,14212 9682,14209 9673,14207 9663,14207 9654,14209 9645,14210 9635,14212 9625,14214 9616,14212 9626,14212 9636,14209 9646,14205 9656,14200 9665,14194 9675,14188 9685,14183 9695,14177 9705,14172 9714,14168 9724,14165 9733,14163 9743,14161 9754,14163 9765,14167 9775,14174 9787,14181 9798,14188 9809,14196 9822,14205 9833,14214 9846,14221 9859,14228 9870,14233 9882,14239 9894,14242 9906,14242 9917,14242 9929,14237 9940,14230 9952,14221 9963,14207 9990,14207 9989,14216 9987,14223 9984,14232 9982,14239 9980,14248 9980,14255 9981,14260 9985,14265 9992,14265 9999,14265 10006,14263 10013,14260 10020,14256 10026,14253 10031,14246 10038,14239 10044,14228 10049,14216 10052,14202 10055,14183 10057,14167 10058,14149 10057,14131 10055,14114 10053,14101 10058,14099 10066,14097 10071,14091 10084,14080 10099,14074 10115,14071 10131,14071 10147,14071 10162,14073 10177,14071 10190,14067 10206,14062 10222,14059 10237,14055 10253,14052 10268,14046 10284,14043 10299,14039 10314,14034 10329,14030 10344,14025 10359,14020 10374,14013 10389,14005 10404,13997 10418,13990 10434,13979"/>
  <polygon points="9659,14161 9674,14151 9689,14142 9705,14136 9719,14133 9734,14131 9749,14131 9765,14133 9781,14136 9795,14142 9810,14147 9826,14154 9841,14161 9858,14168 9873,14177 9889,14184 9904,14194 9910,14194 9916,14194 9922,14194 9929,14192 9935,14190 9940,14186 9946,14183 9952,14179 9954,14183 9946,14198 9938,14207 9928,14214 9917,14216 9906,14216 9895,14216 9883,14216 9872,14216 9855,14203 9837,14190 9820,14177 9802,14165 9785,14156 9767,14147 9749,14140 9730,14138 9718,14145 9707,14151 9696,14158 9684,14163 9672,14168 9660,14174 9648,14177 9636,14181 9624,14184 9612,14188 9599,14190 9587,14192 9573,14192 9561,14192 9548,14192 9535,14190 9521,14179 9507,14168 9494,14158 9480,14147 9465,14138 9452,14127 9437,14117 9423,14106 9408,14105 9394,14103 9380,14105 9366,14106 9352,14110 9337,14115 9324,14121 9311,14127 9297,14136 9285,14145 9272,14154 9260,14165 9247,14177 9235,14190 9222,14203 9211,14216 9200,14218 9187,14218 9175,14214 9162,14210 9150,14205 9138,14196 9127,14184 9117,14170 9123,14159 9129,14144 9134,14126 9138,14108 9145,14094 9151,14085 9160,14087 9170,14099 9185,14097 9198,14096 9212,14094 9227,14091 9240,14085 9254,14078 9268,14069 9280,14059 9297,14050 9313,14044 9330,14039 9347,14037 9364,14037 9381,14037 9397,14041 9413,14046 9429,14053 9445,14061 9461,14071 9476,14083 9491,14097 9506,14115 9521,14133 9535,14153 9549,14159 9565,14165 9581,14170 9597,14174 9612,14175 9627,14174 9643,14170 9659,14161"/>
 </g>
 <g style="stroke:none;fill:rgb(0,0,0)">
  <polygon points="10427,14082 10427,14089 10426,14096 10422,14099 10418,14101 10412,14103 10407,14103 10402,14105 10397,14106 10391,14106 10386,14097 10384,14082 10382,14067 10386,14057 10392,14048 10399,14044 10407,14044 10414,14048 10420,14055 10425,14066 10427,14082"/>
 </g>
 <g style="stroke:none;fill:rgb(255,255,255)">
  <polygon points="10413,14078 10410,14082 10406,14083 10401,14085 10395,14085 10395,14062 10402,14062 10407,14064 10410,14069 10413,14078"/>
  <polygon points="10006,14135 10002,14147 9999,14161 9995,14172 9990,14183 9985,14184 9982,14184 9978,14183 9974,14179 9971,14175 9967,14172 9965,14168 9962,14167 9959,14154 9957,14142 9957,14127 9962,14117 9967,14108 9975,14097 9985,14089 9996,14082 10004,14080 10009,14087 10010,14105 10006,14135"/>
  <polygon points="10033,14114 10034,14110 10036,14106 10038,14106 10039,14106 10043,14114 10046,14122 10046,14133 10046,14144 10046,14154 10046,14167 10046,14179 10046,14190 10042,14203 10037,14214 10031,14223 10025,14230 10018,14237 10011,14241 10004,14242 9997,14242 9998,14226 10001,14210 10005,14194 10009,14175 10014,14156 10017,14138 10021,14119 10023,14099 10033,14114"/>
  <polygon points="9597,14216 9575,14216 9555,14218 9534,14219 9513,14223 9491,14228 9471,14233 9450,14241 9429,14249 9408,14258 9388,14267 9367,14278 9346,14288 9326,14301 9306,14313 9286,14325 9267,14338 9266,14315 9266,14292 9268,14269 9270,14248 9274,14226 9277,14205 9282,14184 9287,14167 9302,14153 9317,14142 9332,14133 9348,14129 9364,14126 9379,14127 9395,14129 9411,14133 9427,14140 9443,14147 9458,14156 9473,14165 9489,14175 9504,14184 9518,14196 9532,14207 9541,14205 9549,14207 9557,14209 9565,14212 9572,14216 9580,14218 9588,14219 9597,14216"/>
  <polygon points="10329,14554 10341,14571 10351,14589 10362,14609 10372,14628 10379,14651 10384,14676 10386,14702 10386,14733 10381,14752 10374,14772 10366,14789 10358,14803 10350,14820 10341,14832 10331,14844 10321,14856 10310,14867 10300,14878 10290,14888 10279,14897 10268,14906 10258,14917 10246,14926 10235,14934 10229,14931 10223,14927 10216,14924 10210,14917 10205,14910 10200,14901 10198,14890 10197,14876 10224,14828 10229,14832 10234,14835 10240,14837 10246,14839 10251,14839 10257,14841 10262,14844 10266,14850 10268,14846 10270,14842 10271,14837 10271,14832 10246,14823 10220,14814 10196,14805 10170,14796 10145,14789 10120,14782 10095,14775 10069,14770 10045,14764 10019,14759 9994,14754 9968,14750 9944,14747 9918,14745 9893,14743 9868,14741 9847,14740 9826,14738 9806,14738 9788,14738 9768,14738 9749,14738 9731,14738 9712,14738 9694,14740 9675,14741 9657,14743 9638,14745 9620,14747 9600,14750 9581,14752 9560,14756 9577,14749 9595,14743 9612,14736 9629,14731 9647,14726 9665,14722 9682,14717 9700,14711 9717,14708 9735,14704 9753,14701 9771,14697 9788,14696 9804,14692 9821,14690 9837,14688 9841,14681 9822,14681 9802,14681 9783,14683 9764,14685 9744,14688 9725,14692 9705,14696 9686,14701 9666,14706 9647,14711 9627,14717 9608,14722 9589,14729 9569,14736 9549,14741 9530,14749 9507,14759 9484,14770 9461,14780 9438,14791 9415,14802 9392,14812 9369,14823 9346,14832 9323,14842 9300,14853 9277,14862 9254,14873 9231,14883 9209,14892 9186,14903 9163,14913 9140,14922 9117,14933 9095,14942 9072,14952 9049,14963 9026,14972 9003,14982 8980,14991 8957,15002 8934,15013 8911,15021 8888,15032 8865,15043 8842,15051 8819,15062 8796,15073 8781,15078 8765,15081 8748,15083 8732,15079 8716,15076 8699,15067 8684,15057 8669,15041 8668,15032 8669,15021 8670,15011 8672,15000 8673,14989 8676,14979 8678,14970 8681,14961 8695,14945 8709,14931 8725,14920 8741,14910 8757,14904 8773,14903 8790,14903 8808,14908 8801,14913 8795,14920 8789,14924 8782,14929 8775,14933 8768,14938 8761,14943 8755,14949 8758,14952 8763,14956 8768,14957 8773,14957 8779,14957 8783,14956 8787,14952 8792,14949 8812,14931 8833,14913 8852,14892 8871,14871 8891,14848 8909,14825 8929,14800 8948,14775 8966,14749 8985,14722 9002,14696 9021,14669 9039,14640 9057,14614 9076,14587 9094,14561 9113,14534 9131,14509 9151,14485 9170,14460 9190,14437 9209,14416 9229,14394 9250,14375 9270,14357 9291,14341 9313,14327 9336,14315 9358,14304 9381,14295 9405,14290 9429,14286 9454,14276 9480,14267 9505,14258 9529,14253 9555,14248 9580,14244 9605,14242 9630,14241 9655,14241 9681,14242 9705,14244 9730,14248 9755,14251 9780,14256 9804,14262 9829,14269 9855,14278 9880,14286 9904,14295 9929,14304 9953,14315 9977,14325 10001,14338 10025,14350 10049,14363 10072,14375 10096,14389 10119,14402 10142,14416 10166,14430 10188,14444 10211,14458 10329,14554"/>
 </g>
 <g style="stroke:none;fill:rgb(0,0,0)">
  <polygon points="10988,14529 10988,14541 10987,14552 10985,14565 10982,14575 10978,14584 10974,14593 10969,14600 10962,14605 10967,14598 10971,14587 10975,14577 10977,14566 10979,14554 10980,14541 10981,14529 10982,14518 10981,14506 10979,14495 10977,14483 10974,14473 10970,14462 10967,14451 10964,14442 10962,14435 10969,14441 10974,14448 10977,14458 10981,14471 10983,14485 10985,14501 10986,14515 10988,14529"/>
  <polygon points="8874,14494 8874,14503 8864,14495 8852,14492 8841,14492 8829,14494 8817,14497 8807,14501 8797,14506 8788,14509 8798,14501 8809,14492 8819,14485 8830,14481 8841,14479 8852,14481 8864,14485 8874,14494"/>
 </g>
 <g style="stroke:none;fill:rgb(255,255,255)">
  <polygon points="10921,14570 10922,14586 10922,14600 10921,14614 10918,14627 10914,14639 10910,14651 10906,14662 10901,14672 10881,14704 10860,14736 10838,14766 10816,14796 10794,14825 10771,14853 10748,14880 10724,14904 10700,14929 10675,14952 10650,14972 10625,14991 10598,15007 10572,15023 10546,15035 10518,15046 10496,15057 10474,15066 10452,15074 10429,15079 10407,15085 10385,15088 10362,15090 10340,15090 10318,15090 10296,15088 10273,15085 10250,15079 10229,15074 10207,15066 10185,15057 10164,15046 10155,15037 10144,15026 10134,15018 10126,15005 10117,14993 10111,14977 10107,14957 10106,14934 10110,14913 10115,14899 10123,14888 10133,14881 10142,14878 10153,14874 10163,14871 10173,14867 10179,14869 10183,14876 10188,14888 10190,14903 10194,14917 10198,14929 10205,14940 10213,14943 10224,14952 10235,14954 10246,14950 10257,14943 10267,14933 10279,14922 10290,14913 10300,14908 10400,14904 10397,14910 10393,14915 10388,14920 10383,14926 10379,14931 10376,14938 10376,14947 10378,14956 10393,14936 10409,14918 10424,14901 10440,14883 10455,14867 10471,14853 10486,14837 10502,14823 10518,14811 10534,14796 10550,14782 10566,14770 10583,14758 10599,14743 10615,14731 10632,14717 10647,14702 10664,14688 10680,14676 10696,14662 10712,14649 10728,14635 10744,14623 10760,14612 10776,14600 10793,14589 10808,14580 10825,14570 10841,14561 10858,14554 10875,14547 10893,14541 10897,14543 10900,14545 10904,14547 10908,14550 10911,14554 10914,14557 10918,14563 10921,14570"/>
  <polygon points="8879,14649 8865,14649 8850,14651 8833,14655 8817,14660 8801,14669 8785,14678 8769,14688 8755,14702 8745,14697 8731,14713 8717,14731 8704,14749 8692,14766 8679,14784 8665,14802 8652,14818 8639,14832 8647,14811 8656,14789 8665,14770 8676,14752 8688,14736 8700,14720 8713,14706 8727,14692 8741,14680 8756,14669 8770,14658 8785,14649 8800,14640 8815,14633 8830,14627 8844,14621 8849,14623 8853,14625 8858,14627 8863,14630 8867,14633 8871,14639 8875,14644 8879,14649"/>
  <polygon points="8901,14685 8904,14696 8905,14708 8906,14720 8905,14733 8904,14745 8902,14758 8900,14768 8897,14777 8891,14796 8883,14812 8875,14826 8866,14841 8857,14855 8847,14867 8838,14881 8828,14895 8817,14892 8806,14888 8795,14887 8784,14885 8773,14885 8760,14887 8749,14890 8737,14894 8726,14899 8715,14906 8704,14915 8695,14926 8685,14938 8676,14950 8668,14966 8661,14984 8660,14993 8658,15002 8657,15011 8657,15019 8656,15028 8657,15039 8658,15046 8661,15055 8672,15073 8660,15092 8648,15110 8636,15129 8624,15147 8611,15165 8598,15184 8585,15200 8572,15218 8558,15234 8545,15250 8531,15266 8517,15280 8502,15294 8488,15308 8473,15320 8457,15331 8449,15324 8441,15317 8432,15311 8423,15304 8414,15298 8405,15290 8397,15283 8389,15274 8387,15276 8387,15280 8387,15283 8387,15287 8394,15296 8401,15304 8408,15311 8415,15319 8422,15326 8430,15333 8438,15340 8446,15345 8433,15356 8421,15356 8408,15349 8397,15336 8385,15320 8373,15304 8361,15292 8349,15283 8348,15292 8351,15301 8354,15308 8357,15310 8363,15319 8370,15328 8376,15336 8382,15345 8389,15354 8395,15363 8401,15370 8406,15375 8397,15381 8389,15386 8380,15391 8370,15395 8361,15396 8352,15398 8343,15402 8333,15402 8324,15404 8314,15405 8305,15407 8296,15411 8287,15412 8278,15416 8270,15420 8261,15425 8247,15423 8233,15421 8219,15421 8205,15418 8191,15412 8179,15404 8169,15391 8160,15372 8163,15342 8170,15313 8180,15290 8191,15271 8204,15253 8217,15237 8230,15223 8244,15211 8256,15197 8269,15182 8281,15172 8294,15161 8307,15152 8321,15141 8334,15133 8346,15122 8366,15108 8388,15094 8409,15079 8430,15066 8451,15049 8473,15035 8494,15019 8515,15002 8535,14984 8556,14965 8576,14945 8596,14924 8614,14901 8633,14876 8650,14851 8667,14823 8679,14805 8690,14789 8702,14775 8715,14761 8727,14747 8741,14734 8754,14722 8768,14711 8781,14702 8795,14694 8810,14687 8825,14680 8840,14674 8855,14671 8869,14667 8885,14665 8901,14685"/>
  <polygon points="10308,15111 10295,15119 10282,15122 10268,15126 10255,15127 10242,15126 10228,15124 10214,15120 10202,15115 10189,15108 10175,15101 10163,15092 10151,15081 10140,15071 10129,15058 10118,15046 10108,15032 10101,14996 10111,15016 10122,15032 10133,15048 10145,15058 10158,15069 10171,15078 10184,15083 10198,15088 10212,15094 10226,15097 10240,15099 10254,15101 10267,15105 10282,15106 10295,15108 10308,15111"/>
 </g>
</svg>